<svg width="82" height="34" viewBox="0 0 82 34" fill="none" xmlns="http://www.w3.org/2000/svg">
<path d="M15.4804 4.7547C14.5406 5.86934 13.037 6.74849 11.5333 6.62289C11.3454 5.11578 12.0815 3.51447 12.943 2.52543C13.8828 1.37939 15.5274 0.563041 16.8587 0.500244C17.0154 2.07015 16.4045 3.60867 15.4804 4.7547ZM16.8431 6.92118C14.6659 6.79558 12.802 8.16141 11.7683 8.16141C10.7189 8.16141 9.13692 6.98397 7.414 7.01537C5.1742 7.04677 3.09104 8.3184 1.94764 10.3436C-0.401792 14.394 1.33679 20.391 3.60791 23.6878C4.71998 25.3205 6.05132 27.1102 7.80557 27.0474C9.46584 26.9846 10.1237 25.9642 12.1285 25.9642C14.149 25.9642 14.7286 27.0474 16.4828 27.016C18.2997 26.9846 19.4431 25.3833 20.5552 23.7506C21.8239 21.8981 22.3407 20.0927 22.3721 19.9985C22.3407 19.9671 18.8636 18.6327 18.8323 14.6137C18.8009 11.2541 21.5733 9.65282 21.6986 9.55863C20.1323 7.23516 17.6889 6.98397 16.8431 6.92118ZM29.4204 2.36844V26.8433H33.2108V18.4757H38.4579C43.2507 18.4757 46.6182 15.1789 46.6182 10.4064C46.6182 5.63385 43.3134 2.36844 38.5832 2.36844H29.4204ZM33.2108 5.57105H37.5807C40.87 5.57105 42.7495 7.32935 42.7495 10.4221C42.7495 13.5148 40.87 15.2888 37.5651 15.2888H33.2108V5.57105ZM53.5412 27.0317C55.922 27.0317 58.1305 25.8229 59.1329 23.9076H59.2112V26.8433H62.7197V14.6608C62.7197 11.1285 59.9004 8.85217 55.5618 8.85217C51.5364 8.85217 48.5604 11.1599 48.4508 14.3312H51.8653C52.1472 12.824 53.5412 11.835 55.4521 11.835C57.7702 11.835 59.0702 12.9182 59.0702 14.912V16.2621L54.34 16.5447C49.9388 16.8116 47.558 18.617 47.558 21.7568C47.558 24.928 50.0171 27.0317 53.5412 27.0317ZM54.5593 24.1274C52.5388 24.1274 51.2545 23.1541 51.2545 21.6626C51.2545 20.1241 52.4918 19.2293 54.8569 19.088L59.0702 18.8211V20.2026C59.0702 22.4947 57.128 24.1274 54.5593 24.1274ZM67.4029 33.4998C71.0993 33.4998 72.8379 32.0868 74.3572 27.801L81.014 9.08765H77.1609L72.697 23.5465H72.6187L68.1547 9.08765H64.192L70.6138 26.9061L70.2692 27.9894C69.6897 29.8262 68.7499 30.5326 67.074 30.5326C66.7764 30.5326 66.1969 30.5012 65.9619 30.4698V33.4056C66.1812 33.4684 67.121 33.4998 67.4029 33.4998Z" fill="white" fill-opacity="0.6"/>
</svg>
