<svg width="48" height="55" viewBox="0 0 48 55" fill="none" xmlns="http://www.w3.org/2000/svg">
<ellipse cx="21.5973" cy="21.5" rx="21.5973" ry="21.5" fill="url(#paint0_radial)"/>
<g filter="url(#filter0_b)">
<path fill-rule="evenodd" clip-rule="evenodd" d="M35.3517 2.9502L21.7011 2.17017L25.099 13.1187C16.3665 15.2941 10.7808 25.571 10.7808 34.6876C10.7808 44.9463 17.8538 53.2626 28.5244 53.2626C39.195 53.2626 46.6624 44.9463 46.6624 34.6876C46.6624 25.4515 40.6096 15.0244 31.6158 13.0374L35.3517 2.9502Z" fill="white" fill-opacity="0.24"/>
</g>
<path d="M28.5041 54.0424C38.703 54.0424 47 47.3408 47 39.1033V37.3293C47 37.3287 47 37.3275 47 37.327C47 37.3264 47 37.3252 47 37.3246V34.6966C47 25.5521 42.0223 16.987 33.9628 12.1796L36.4575 2.9331C36.5848 2.46161 36.3055 1.97657 35.834 1.84927C35.7904 1.83748 35.7474 1.83277 35.7037 1.82805C35.6967 1.82687 35.6896 1.8251 35.6825 1.82451C35.6395 1.82039 35.5977 1.82157 35.5552 1.82392C35.5387 1.82451 35.5228 1.82216 35.5063 1.82392C31.4503 2.2571 29.7842 1.95653 27.8547 1.60881C26.2716 1.32356 24.477 1 21.1784 1C21.1695 1 21.1613 1.00236 21.153 1.00236C21.123 1.00295 21.0935 1.00766 21.0635 1.0112C21.0328 1.01532 21.0022 1.01886 20.9727 1.02593C20.9644 1.0277 20.9562 1.0277 20.9479 1.03006C20.9303 1.03477 20.9144 1.04361 20.8973 1.04951C20.8666 1.06011 20.836 1.07013 20.8071 1.08369C20.7817 1.09548 20.7588 1.10903 20.7346 1.12318C20.7093 1.13791 20.6839 1.15264 20.6603 1.17032C20.6374 1.18742 20.6155 1.20569 20.5943 1.22455C20.5731 1.24341 20.5525 1.26227 20.533 1.28289C20.5136 1.30352 20.4965 1.32533 20.4794 1.34772C20.4617 1.37071 20.4446 1.39369 20.4293 1.41845C20.4146 1.44202 20.4028 1.46559 20.3904 1.49035C20.3774 1.51628 20.3645 1.5428 20.3539 1.56991C20.3439 1.59702 20.3362 1.62413 20.3285 1.65242C20.3215 1.67953 20.3138 1.70605 20.3091 1.73375C20.3038 1.76558 20.3014 1.7974 20.2996 1.82923C20.2985 1.8475 20.2943 1.86518 20.2943 1.88345C20.2943 1.8917 20.2967 1.89995 20.2967 1.9082C20.2973 1.93826 20.302 1.96832 20.3055 1.99896C20.3097 2.02961 20.3132 2.05967 20.3203 2.08914C20.322 2.09739 20.322 2.10564 20.3244 2.11389L23.039 12.1796C14.9789 16.9858 10 25.5504 10 34.6937V37.3293V39.1033C10 47.3408 18.3011 54.0424 28.5041 54.0424ZM22.3365 2.78281C24.7458 2.84528 26.165 3.10048 27.5417 3.34919C28.8778 3.59024 30.096 3.80948 31.9584 3.80948C32.6685 3.80948 33.4801 3.77471 34.4195 3.70045L32.2554 11.7205H28.5041H24.7464L22.3365 2.78281ZM11.7681 37.3205V34.6937C11.7681 26.0354 16.5725 17.9335 24.3155 13.4885H28.5041H32.6862C40.4286 17.9341 45.2319 26.0372 45.2319 34.6961V37.324C45.2319 37.3246 45.2319 37.3258 45.2319 37.3264C45.2319 37.327 45.2319 37.3281 45.2319 37.3287V39.1027C45.2319 46.366 37.7282 52.2743 28.5041 52.2743C19.2759 52.2743 11.7681 46.366 11.7681 39.1033V37.3205Z" fill="white" stroke="white" stroke-width="0.3"/>
<path d="M28.3561 35.0032H28.4993C29.137 35.0032 29.7458 35.3126 30.1283 35.8318C30.499 36.3387 30.6039 36.9864 30.4147 37.6146C30.1966 38.2771 29.6291 38.8004 28.9796 38.9454C28.8446 38.9814 28.6991 38.9973 28.5075 38.9973C27.6394 38.9973 26.8703 38.4456 26.5921 37.6229C26.4648 37.2351 26.0894 36.9746 25.6586 36.9746C25.3379 36.9746 25.0332 37.1308 24.8446 37.3913C24.6272 37.6942 24.4368 38.0066 24.5146 38.2423C24.8759 39.3697 26.0263 40.3663 26.9428 40.8148L27.1078 40.8956V42.369C27.1078 42.8723 27.9046 43.3638 28.4987 43.3638C29.0927 43.3638 29.8896 42.8723 29.8896 42.369V40.8891L30.0634 40.8107C30.8667 40.4489 31.9352 39.5854 32.3826 38.5458C32.87 37.3919 32.7079 35.8972 31.9517 34.5505C31.3364 33.4797 29.9992 32.7601 28.6248 32.7601H28.4987C27.7243 32.7601 27.1596 32.4972 26.819 31.978C26.4442 31.4051 26.3888 30.7698 26.6593 30.1421C26.9015 29.5716 27.4278 29.1502 28.0655 29.0165C28.214 28.9846 28.3561 28.9846 28.4816 28.9846C29.3532 28.9846 30.1265 29.5392 30.4053 30.3673C30.5337 30.7592 30.9139 31.0327 31.3305 31.0327C31.6565 31.0327 31.9641 30.8765 32.1509 30.6189C32.3201 30.3767 32.5759 30.0113 32.4922 29.7602C32.0814 28.5361 30.8119 27.5649 30.0587 27.2107L29.8896 27.1311V25.6294C29.8896 25.1308 29.0927 24.6428 28.4987 24.6428C27.9046 24.6428 27.1078 25.1308 27.1078 25.6294V27.1364L26.9322 27.2148C26.1159 27.5737 25.038 28.4507 24.6006 29.5251C24.1127 30.7339 24.313 32.1383 25.1664 33.4797C25.7688 34.4339 26.9616 35.0032 28.3561 35.0032Z" fill="white"/>
<defs>
<filter id="filter0_b" x="6.78076" y="-1.82983" width="43.8816" height="59.0925" filterUnits="userSpaceOnUse" color-interpolation-filters="sRGB">
<feFlood flood-opacity="0" result="BackgroundImageFix"/>
<feGaussianBlur in="BackgroundImage" stdDeviation="2"/>
<feComposite in2="SourceAlpha" operator="in" result="effect1_backgroundBlur"/>
<feBlend mode="normal" in="SourceGraphic" in2="effect1_backgroundBlur" result="shape"/>
</filter>
<radialGradient id="paint0_radial" cx="0" cy="0" r="1" gradientUnits="userSpaceOnUse" gradientTransform="translate(21.5973 21.5) rotate(90) scale(21.5 21.5973)">
<stop stop-color="#4BC6F6"/>
<stop offset="1" stop-color="#4BC6F6" stop-opacity="0"/>
</radialGradient>
</defs>
</svg>
