<svg width="48" height="48" viewBox="0 0 48 48" fill="none" xmlns="http://www.w3.org/2000/svg">
<circle cx="24" cy="24" r="24" fill="#4BC6F6"/>
<path d="M23.1334 17.6665V32.3572C23.1334 32.5831 23.2266 32.7982 23.3898 32.9557C23.5529 33.1129 23.7725 33.2 24 33.2C24.2275 33.2 24.4471 33.1129 24.6102 32.9557C24.7734 32.7982 24.8666 32.5831 24.8666 32.3572V17.6665L28.7218 21.3855L28.7218 21.3856C28.885 21.5429 29.1048 21.6301 29.3326 21.6301C29.5603 21.6301 29.7802 21.5429 29.9434 21.3856C30.1068 21.228 30.2 21.0126 30.2 20.7865C30.2 20.5604 30.1068 20.345 29.9434 20.1874L24.6109 15.0451C24.5301 14.9669 24.4345 14.9053 24.3298 14.8634C24.225 14.8215 24.113 14.8 24 14.8C23.887 14.8 23.775 14.8215 23.6702 14.8634C23.5655 14.9053 23.4699 14.9669 23.3891 15.0451L18.0566 20.1874C17.8932 20.345 17.8 20.5604 17.8 20.7865C17.8 21.0126 17.8932 21.228 18.0566 21.3856C18.2198 21.5429 18.4397 21.6301 18.6674 21.6301C18.8952 21.6301 19.115 21.5429 19.2782 21.3856L19.2782 21.3855L23.1334 17.6665Z" fill="white" stroke="white" stroke-width="0.4"/>
</svg>
