<svg width="20" height="20" viewBox="0 0 20 20" xmlns="http://www.w3.org/2000/svg">
<path d="M12.113 9.99872L18.5567 3.56902C18.8389 3.2868 18.9974 2.90402 18.9974 2.5049C18.9974 2.10577 18.8389 1.723 18.5567 1.44077C18.2745 1.15855 17.8918 1 17.4928 1C17.0937 1 16.711 1.15855 16.4288 1.44077L10 7.88546L3.57121 1.44077C3.28903 1.15855 2.90631 1 2.50724 1C2.10817 1 1.72545 1.15855 1.44327 1.44077C1.16109 1.723 1.00256 2.10577 1.00256 2.5049C1.00256 2.90402 1.16109 3.2868 1.44327 3.56902L7.88704 9.99872L1.44327 16.4284C1.30281 16.5678 1.19133 16.7335 1.11525 16.9162C1.03917 17.0988 1 17.2947 1 17.4925C1 17.6904 1.03917 17.8863 1.11525 18.0689C1.19133 18.2516 1.30281 18.4173 1.44327 18.5567C1.58258 18.6971 1.74832 18.8086 1.93093 18.8847C2.11355 18.9608 2.30941 19 2.50724 19C2.70507 19 2.90094 18.9608 3.08355 18.8847C3.26616 18.8086 3.4319 18.6971 3.57121 18.5567L10 12.112L16.4288 18.5567C16.5681 18.6971 16.7338 18.8086 16.9165 18.8847C17.0991 18.9608 17.2949 19 17.4928 19C17.6906 19 17.8865 18.9608 18.0691 18.8847C18.2517 18.8086 18.4174 18.6971 18.5567 18.5567C18.6972 18.4173 18.8087 18.2516 18.8848 18.0689C18.9608 17.8863 19 17.6904 19 17.4925C19 17.2947 18.9608 17.0988 18.8848 16.9162C18.8087 16.7335 18.6972 16.5678 18.5567 16.4284L12.113 9.99872Z" fill="#353535" stroke="white" stroke-width="0.2"/>
</svg>
