<svg width="25" height="24" viewBox="0 0 25 24" fill="none" xmlns="http://www.w3.org/2000/svg">
<ellipse cx="11" cy="11.9459" rx="11" ry="11.4" fill="url(#paint0_radial)"/>
<path d="M22.76 7.06419C22.6364 6.85547 22.4217 6.72929 22.1854 6.7266C21.9462 6.72354 21.7219 6.84841 21.5906 7.05971C21.3232 7.48982 20.8695 7.74656 20.3768 7.74656C19.9709 7.74656 19.5815 7.56783 19.3084 7.25614C19.0819 6.99761 18.7285 6.90759 18.4082 7.02661C18.2362 7.09051 18.0555 7.12295 17.8712 7.12295C16.9919 7.12295 16.2764 6.38153 16.2764 5.47076L16.2766 5.37325C16.2771 4.99344 16.0471 4.65369 15.7043 4.52779C15.2708 4.3686 14.9796 3.94123 14.9796 3.46503L14.9798 3.31244C14.9802 3.1186 14.9013 2.93219 14.7635 2.80102C14.6254 2.66957 14.4386 2.60384 14.2523 2.62069C11.318 2.88473 8.68384 4.62628 7.20593 7.27931C7.20116 7.28792 7.19671 7.29673 7.19262 7.30572L6.57285 8.67258C6.56881 8.68153 6.56508 8.69066 6.56176 8.69999C5.87844 10.6095 5.81729 12.6969 6.38499 14.7366C7.11593 17.3627 9.76141 20.1313 12.2824 20.9084C13.1958 21.1899 14.1262 21.3309 15.0459 21.3309C15.888 21.3309 16.7212 21.2127 17.5239 20.976C17.7049 20.9227 17.8099 20.7274 17.7584 20.5398C17.7069 20.3521 17.5184 20.2434 17.3375 20.2967C15.7828 20.755 14.1019 20.7324 12.4766 20.2314C10.1921 19.5272 7.70231 16.9212 7.03974 14.5409C6.51411 12.6523 6.56813 10.7225 7.1958 8.95932L7.80316 7.61972C9.16904 5.1772 11.5953 3.57313 14.2983 3.32548L14.298 3.46447C14.298 4.23983 14.7717 4.93468 15.4766 5.19354C15.5476 5.21957 15.5951 5.29142 15.595 5.37226L15.5949 5.47029C15.5949 6.771 16.616 7.82924 17.8711 7.82924C18.1341 7.82924 18.3922 7.78286 18.6381 7.69142C18.6991 7.66883 18.7626 7.68389 18.8038 7.73097C19.2059 8.1897 19.7792 8.4528 20.3767 8.4528C21.1021 8.4528 21.77 8.07501 22.1634 7.44217C22.1709 7.43012 22.1791 7.43351 22.1791 7.43351C22.9833 8.79213 23.4084 10.3569 23.4084 11.9587C23.4084 13.6235 22.9519 15.2405 22.0882 16.6347C21.2469 17.9928 20.0619 19.0792 18.6614 19.7765C17.0898 20.4306 16.5192 20.4131 17.0898 20.9488C17.1714 21.1246 18.0898 20.8446 18.9565 20.4131C20.4709 19.6592 21.7522 18.4846 22.6617 17.0162C23.596 15.5079 24.0898 13.7591 24.0898 11.9587C24.0899 10.2265 23.6301 8.53402 22.76 7.06419Z" fill="#212121"/>
<path d="M11.1722 10.1231C11.05 10.4219 11.0643 10.7575 11.2115 11.0439C11.3586 11.3304 11.6194 11.53 11.9267 11.5917L12.5844 11.7237C12.6491 11.7367 12.7145 11.7431 12.7797 11.7431C12.9968 11.7431 13.2113 11.6721 13.3888 11.5381C13.6196 11.3639 13.7718 11.0955 13.8061 10.8018L13.8716 10.2419C13.9268 9.77009 13.6703 9.31159 13.2479 9.12684L12.783 8.92349C12.2592 8.69438 11.6525 8.94938 11.4305 9.49183L11.1722 10.1231ZM11.7996 10.3987L12.0579 9.7675C12.1146 9.62893 12.245 9.54555 12.382 9.54555C12.4274 9.54555 12.4736 9.55473 12.518 9.57417L12.9829 9.77752C13.1266 9.84033 13.2139 9.99632 13.1951 10.1568L13.1296 10.7167C13.1177 10.8181 13.0673 10.9071 12.9876 10.9673C12.908 11.0274 12.8106 11.0499 12.714 11.0304L12.0563 10.8984C11.9517 10.8774 11.863 10.8095 11.813 10.712C11.7629 10.6146 11.7581 10.5004 11.7996 10.3987Z" fill="#212121"/>
<path d="M18.8718 15.8509L19.447 15.1423C19.7905 14.7191 19.7707 14.0994 19.4011 13.7007L18.9094 13.1703C18.714 12.9596 18.4513 12.8419 18.1694 12.839C17.889 12.8347 17.6224 12.9482 17.423 13.1548L16.8542 13.7442C16.4847 14.1272 16.4473 14.7389 16.7672 15.1672L17.2524 15.8168C17.446 16.0758 17.7382 16.2282 18.0543 16.2348C18.0614 16.235 18.0686 16.2351 18.0758 16.2351C18.3839 16.2351 18.6729 16.0959 18.8718 15.8509ZM18.0682 15.5288C17.959 15.5265 17.8581 15.4739 17.7913 15.3845L17.3061 14.7349C17.1956 14.587 17.2086 14.3759 17.3361 14.2437L17.9049 13.6542C17.9728 13.5838 18.0629 13.5452 18.1588 13.5452H18.1626C18.2599 13.5462 18.3506 13.5868 18.418 13.6595L18.9097 14.1899C19.0373 14.3275 19.0441 14.5415 18.9256 14.6875L18.3503 15.3961C18.2801 15.4828 18.175 15.5309 18.0682 15.5288Z" fill="#212121"/>
<path d="M12.0229 16.3623L12.5081 16.582C12.6495 16.646 12.7973 16.6764 12.943 16.6764C13.3416 16.6764 13.7244 16.4488 13.9156 16.0588L14.1475 15.5858C14.2817 15.3121 14.3031 15.0012 14.2076 14.7105C14.1121 14.4198 13.9122 14.187 13.6447 14.0549L13.168 13.8196C12.631 13.5544 11.9988 13.7771 11.7287 14.3262L11.4884 14.8149C11.3526 15.0909 11.3325 15.4165 11.4333 15.7082C11.5341 15.9998 11.749 16.2383 12.0229 16.3623ZM12.0955 15.1356L12.3359 14.6469C12.4082 14.4998 12.5498 14.4154 12.6981 14.4154C12.7573 14.4154 12.8176 14.4288 12.875 14.4571L13.3517 14.6925C13.4519 14.7419 13.5268 14.8291 13.5625 14.938C13.5983 15.0469 13.5903 15.1634 13.54 15.2659L13.3081 15.7389C13.2103 15.9383 12.9787 16.0243 12.781 15.9348L12.2958 15.7151C12.1916 15.668 12.1132 15.581 12.075 15.4701C12.0367 15.3592 12.044 15.2405 12.0955 15.1356Z" fill="#212121"/>
<path d="M9.92594 14.3239H10.2793C10.4675 14.3239 10.62 14.1658 10.62 13.9708C10.62 13.7758 10.4675 13.6177 10.2793 13.6177H9.92594C9.73772 13.6177 9.58521 13.7758 9.58521 13.9708C9.58521 14.1658 9.73772 14.3239 9.92594 14.3239Z" fill="#212121"/>
<path d="M15.0356 12.9714C15.2238 12.9714 15.3763 12.8133 15.3763 12.6183C15.3763 12.4232 15.2238 12.2651 15.0356 12.2651H14.4831C14.2948 12.2651 14.1423 12.4232 14.1423 12.6183C14.1423 12.8133 14.2948 12.9714 14.4831 12.9714H15.0356Z" fill="#212121"/>
<defs>
<radialGradient id="paint0_radial" cx="0" cy="0" r="1" gradientUnits="userSpaceOnUse" gradientTransform="translate(11 11.9459) rotate(90) scale(11.4 11)">
<stop stop-color="#4BC6F6"/>
<stop offset="1" stop-color="#4BC6F6" stop-opacity="0"/>
</radialGradient>
</defs>
</svg>
