<svg width="89" height="33" viewBox="0 0 89 33" fill="none" xmlns="http://www.w3.org/2000/svg">
<path d="M41.528 15.987V25.3754H38.3105V2.19141H46.8402C49.0019 2.19141 50.8453 2.85869 52.3535 4.19324C53.8952 5.5278 54.666 7.1572 54.666 9.08144C54.666 11.0522 53.8952 12.6816 52.3535 14.0007C50.8621 15.3197 49.0187 15.9715 46.8402 15.9715H41.528V15.987ZM41.528 5.04674V13.1317H46.9072C48.1808 13.1317 49.2533 12.7282 50.0912 11.9368C50.9458 11.1453 51.3815 10.1832 51.3815 9.09695C51.3815 8.02621 50.9458 7.07961 50.0912 6.28818C49.2533 5.46573 48.1976 5.06225 46.9072 5.06225H41.528V5.04674Z" fill="white" fill-opacity="0.6"/>
<path d="M63.0784 8.98901C65.458 8.98901 67.3349 9.5787 68.709 10.7581C70.0831 11.9374 70.7702 13.5513 70.7702 15.5997V25.3761H67.7035V23.1725H67.5695C66.2456 24.9882 64.4693 25.8882 62.2573 25.8882C60.3637 25.8882 58.7885 25.3761 57.5149 24.3364C56.2413 23.2967 55.6045 22.0087 55.6045 20.4569C55.6045 18.812 56.2748 17.5084 57.6154 16.5463C58.956 15.5687 60.7491 15.0876 62.9779 15.0876C64.8882 15.0876 66.4635 15.4135 67.6868 16.0653V15.3825C67.6868 14.3427 67.2511 13.4737 66.3629 12.7444C65.4748 12.015 64.4358 11.6581 63.246 11.6581C61.4529 11.6581 60.0285 12.3564 58.9895 13.7686L56.1575 12.1237C57.716 10.0287 60.0285 8.98901 63.0784 8.98901ZM58.9225 20.5034C58.9225 21.2793 59.2744 21.9311 59.995 22.4432C60.6988 22.9553 61.5367 23.2191 62.4919 23.2191C63.8493 23.2191 65.0558 22.7535 66.1116 21.8225C67.1673 20.8914 67.7035 19.8051 67.7035 18.5482C66.6981 17.8188 65.3072 17.4464 63.5141 17.4464C62.207 17.4464 61.1178 17.7412 60.2464 18.3154C59.3582 18.9206 58.9225 19.6499 58.9225 20.5034Z" fill="white" fill-opacity="0.6"/>
<path d="M88.2621 9.50024L77.5372 32.3429H74.2192L78.2075 24.3511L71.1357 9.50024H74.6381L79.7324 20.8905H79.7995L84.7597 9.50024H88.2621Z" fill="white" fill-opacity="0.6"/>
<path fill-rule="evenodd" clip-rule="evenodd" d="M20.4834 7.75495C18.9869 6.43591 17.0916 5.76087 14.9751 5.76087C11.2323 5.76087 8.05676 8.09479 6.91696 11.2418V11.249C6.62696 12.0528 6.46772 12.9078 6.46772 13.7924C6.46772 14.6769 6.62696 15.532 6.91696 16.3358L6.91587 16.3366C8.05469 19.4852 11.2311 21.8206 14.9752 21.8206C16.9121 21.8206 18.5681 21.3514 19.8546 20.549V20.5463C21.408 19.578 22.4219 18.1255 22.7369 16.4216L14.9697 16.42V11.2991H28.4563C28.6306 12.1929 28.7244 13.1224 28.7244 14.0939C28.7244 18.1335 27.1786 21.5528 24.4805 23.8666L24.4818 23.8675C22.1106 25.9004 18.8529 27.0813 14.9752 27.0813C9.3656 27.0813 4.50988 24.1027 2.14663 19.7619L2.14624 19.7622C1.17064 17.9667 0.619141 15.9401 0.619141 13.7924C0.619141 11.6447 1.16896 9.61801 2.14624 7.82257H2.1467L2.14545 7.82167C4.50828 3.47971 9.36633 0.500244 14.9751 0.500244C18.8478 0.500244 22.0921 1.81773 24.5806 3.96388L20.4834 7.75495Z" fill="white" fill-opacity="0.6"/>
</svg>
