<svg width="231" height="248" viewBox="0 0 231 248" fill="none" xmlns="http://www.w3.org/2000/svg">
<mask id="mask0" mask-type="alpha" maskUnits="userSpaceOnUse" x="0" y="0" width="231" height="248">
<rect width="231" height="248" rx="10.4327" fill="#F2F2F2"/>
</mask>
<g mask="url(#mask0)">
<g filter="url(#filter0_ddiii)">
<rect x="32.6025" y="5.48584" width="164.527" height="341.181" rx="25.4992" fill="url(#paint0_linear)"/>
</g>
<rect x="41.193" y="14.9055" width="147.346" height="322.755" rx="19.2519" fill="#DEF3FF"/>
<path d="M197.13 64.2415C198.715 64.2415 200 65.5265 200 67.1117V84.4791C200 86.0643 198.715 87.3493 197.13 87.3493V64.2415Z" fill="#F4F3F3"/>
<path d="M196.867 98.9644C198.099 98.9644 199.097 99.9631 199.097 101.195V117.916C199.097 119.148 198.099 120.146 196.867 120.146V98.9644Z" fill="#F4F3F3"/>
<path d="M196.864 120.146C198.096 120.146 199.095 121.145 199.095 122.377V139.097C199.095 140.329 198.096 141.328 196.864 141.328V120.146Z" fill="#F4F3F3"/>
<path d="M82.3416 14.9055H147.39V20.6791C147.39 24.1998 144.536 27.0539 141.016 27.0539H88.7164C85.1956 27.0539 82.3416 24.1998 82.3416 20.6791V14.9055Z" fill="white"/>
<rect x="49.3589" y="51.8354" width="129.056" height="121.719" rx="11.5532" fill="white"/>
<path d="M68.879 60.0121C68.7634 59.8861 68.6194 59.7921 68.46 59.7383C68.2605 59.6684 68.0508 59.6347 67.8403 59.6388H66.486V63.2121H67.0072V61.9415H67.8403C68.0508 61.9456 68.2605 61.9119 68.46 61.842C68.6194 61.7882 68.7634 61.6941 68.879 61.5682C68.9727 61.4615 69.0463 61.3375 69.0961 61.2027C69.1894 60.9366 69.1894 60.6449 69.0961 60.3788C69.0465 60.2436 68.9728 60.1192 68.879 60.0121ZM67.0072 60.1548H67.7974C68.1116 60.1548 68.3338 60.2164 68.4587 60.3382C68.5176 60.3967 68.5645 60.4669 68.5966 60.5447C68.6286 60.6225 68.6451 60.7062 68.6451 60.7908C68.6451 60.8754 68.6286 60.9591 68.5966 61.0369C68.5645 61.1147 68.5176 61.1849 68.4587 61.2434C68.3325 61.3652 68.1116 61.4267 67.7974 61.4267H67.0072V60.1548Z" fill="black"/>
<path d="M71.3048 60.862C71.2004 60.7547 71.0767 60.6699 70.9407 60.6124C70.8047 60.5548 70.6591 60.5257 70.5122 60.5266C70.3556 60.5271 70.2007 60.5602 70.0567 60.6241C69.9127 60.6881 69.7826 60.7814 69.6741 60.8986C69.552 61.0302 69.457 61.1862 69.3949 61.3571C69.3329 61.5281 69.305 61.7104 69.3131 61.8928C69.305 62.0753 69.3329 62.2576 69.3949 62.4285C69.457 62.5995 69.552 62.7555 69.6741 62.887C69.7833 63.0051 69.9145 63.0989 70.0596 63.1628C70.2047 63.2268 70.3608 63.2595 70.5185 63.259C70.6654 63.26 70.811 63.2308 70.947 63.1733C71.083 63.1158 71.2068 63.0309 71.3111 62.9237L71.3578 63.2093H71.8198V60.5764H71.3578L71.3048 60.862ZM71.2922 61.3859V62.3998C71.2033 62.5074 71.0932 62.5941 70.9693 62.654C70.8455 62.7138 70.7107 62.7455 70.574 62.7469C70.4739 62.7512 70.374 62.7338 70.2807 62.6957C70.1875 62.6575 70.1029 62.5996 70.0326 62.5255C69.8871 62.3501 69.8137 62.1225 69.8281 61.8915C69.8137 61.6606 69.8871 61.433 70.0326 61.2575C70.1029 61.1835 70.1875 61.1255 70.2807 61.0874C70.374 61.0493 70.4739 61.0318 70.574 61.0362C70.7109 61.0379 70.8458 61.0699 70.9697 61.1303C71.0935 61.1906 71.2035 61.2778 71.2922 61.3859Z" fill="black"/>
<path d="M73.4267 62.5389L72.6757 60.5767H72.114L73.1465 63.2056L72.7161 64.3557H73.2474L74.7583 60.5767H74.1966L73.4267 62.5389Z" fill="#313235"/>
<path d="M78.344 59.6387H75.5054V60.1495H76.664V63.2081H77.1853V60.1495H78.344V59.6387Z" fill="black"/>
<path d="M79.3929 60.5269C79.2257 60.5173 79.0587 60.5486 78.9052 60.6182C78.7518 60.6878 78.6162 60.7938 78.5094 60.9277C78.3007 61.2158 78.1938 61.5696 78.2065 61.9298C78.1981 62.1066 78.224 62.2833 78.2825 62.4496C78.3411 62.6158 78.4311 62.7682 78.5473 62.8978C78.6663 63.0189 78.8081 63.1134 78.9637 63.1753C79.1194 63.2373 79.2857 63.2654 79.4522 63.258C79.7903 63.2662 80.1246 63.1836 80.4229 63.0183L80.4443 63.0052V62.4616L80.3799 62.5061C80.1426 62.665 79.866 62.7492 79.5835 62.7485C79.364 62.7665 79.1456 62.7014 78.9688 62.5651C78.8413 62.4423 78.7599 62.2766 78.7391 62.0975H80.5895V61.8931C80.5986 61.5447 80.4916 61.2037 80.2865 60.9277C80.1787 60.7924 80.0414 60.6856 79.8861 60.6159C79.7308 60.5463 79.5618 60.5157 79.3929 60.5269ZM78.7353 61.6403C78.7389 61.5516 78.7595 61.4646 78.7959 61.3843C78.8323 61.304 78.8838 61.2321 78.9474 61.1727C79.0709 61.061 79.2291 60.9992 79.3929 60.9985C79.5588 60.9985 79.7191 61.0604 79.8448 61.1727C79.9089 61.2317 79.9609 61.3036 79.9978 61.3839C80.0347 61.4642 80.0556 61.5514 80.0593 61.6403H78.7353Z" fill="black"/>
<path d="M82.3122 60.5267C81.9651 60.5193 81.6288 60.6522 81.3744 60.8974C81.1253 61.164 80.986 61.5208 80.986 61.8922C80.986 62.2636 81.1253 62.6204 81.3744 62.8871C81.6288 63.1322 81.9651 63.2651 82.3122 63.2578C82.6132 63.2561 82.9081 63.1696 83.1654 63.0076L83.1856 62.9945V62.46L83.12 62.5059C82.8934 62.6646 82.626 62.7491 82.3526 62.7482C82.239 62.755 82.1252 62.7376 82.0183 62.6973C81.9113 62.657 81.8133 62.5946 81.7304 62.5137C81.586 62.3416 81.5065 62.1211 81.5065 61.8929C81.5065 61.6646 81.586 61.4441 81.7304 61.272C81.8133 61.1912 81.9113 61.1287 82.0183 61.0884C82.1252 61.0481 82.239 61.0308 82.3526 61.0375C82.626 61.0367 82.8933 61.1212 83.12 61.2798L83.1856 61.3257V60.7899L83.1654 60.7768C82.9081 60.6148 82.6132 60.5283 82.3122 60.5267Z" fill="black"/>
<path d="M85.7567 60.8214C85.6748 60.7238 85.5729 60.6467 85.4584 60.5957C85.3439 60.5446 85.2198 60.5211 85.0953 60.5267C84.935 60.5289 84.7769 60.5649 84.6305 60.6324C84.484 60.7 84.3523 60.7977 84.2433 60.9196V59.4788H83.722V63.2119H84.2433V61.4842C84.4781 61.1855 84.7293 61.0336 84.9905 61.0336C85.3187 61.0336 85.4777 61.2183 85.4777 61.5995V63.2119H85.999V61.5484C86.0068 61.2834 85.9205 61.0247 85.7567 60.8214Z" fill="black"/>
<path d="M57.671 59.3937C58.0418 59.3937 58.3425 59.0817 58.3425 58.6969C58.3425 58.312 58.0418 58 57.671 58C57.3001 58 56.9995 58.312 56.9995 58.6969C56.9995 59.0817 57.3001 59.3937 57.671 59.3937Z" fill="#00D3FF"/>
<path d="M57.671 62.1969C58.0418 62.1969 58.3425 61.8849 58.3425 61.5001C58.3425 61.1152 58.0418 60.8032 57.671 60.8032C57.3001 60.8032 56.9995 61.1152 56.9995 61.5001C56.9995 61.8849 57.3001 62.1969 57.671 62.1969Z" fill="#00D3FF"/>
<path d="M57.671 64.9999C58.0418 64.9999 58.3425 64.6879 58.3425 64.3031C58.3425 63.9182 58.0418 63.6062 57.671 63.6062C57.3001 63.6062 56.9995 63.9182 56.9995 64.3031C56.9995 64.6879 57.3001 64.9999 57.671 64.9999Z" fill="#00D3FF"/>
<path d="M60.3543 59.3937C60.7252 59.3937 61.0258 59.0817 61.0258 58.6969C61.0258 58.312 60.7252 58 60.3543 58C59.9835 58 59.6829 58.312 59.6829 58.6969C59.6829 59.0817 59.9835 59.3937 60.3543 59.3937Z" fill="black"/>
<path d="M60.3543 62.1969C60.7252 62.1969 61.0258 61.8849 61.0258 61.5001C61.0258 61.1152 60.7252 60.8032 60.3543 60.8032C59.9835 60.8032 59.6829 61.1152 59.6829 61.5001C59.6829 61.8849 59.9835 62.1969 60.3543 62.1969Z" fill="black"/>
<path d="M60.3543 64.9999C60.7252 64.9999 61.0258 64.6879 61.0258 64.3031C61.0258 63.9182 60.7252 63.6062 60.3543 63.6062C59.9835 63.6062 59.6829 63.9182 59.6829 64.3031C59.6829 64.6879 59.9835 64.9999 60.3543 64.9999Z" fill="black"/>
<path d="M63.039 59.3937C63.4099 59.3937 63.7105 59.0817 63.7105 58.6969C63.7105 58.312 63.4099 58 63.039 58C62.6682 58 62.3676 58.312 62.3676 58.6969C62.3676 59.0817 62.6682 59.3937 63.039 59.3937Z" fill="black"/>
<path d="M63.039 62.1969C63.4099 62.1969 63.7105 61.8849 63.7105 61.5001C63.7105 61.1152 63.4099 60.8032 63.039 60.8032C62.6682 60.8032 62.3676 61.1152 62.3676 61.5001C62.3676 61.8849 62.6682 62.1969 63.039 62.1969Z" fill="black"/>
<path d="M63.039 64.9999C63.4099 64.9999 63.7105 64.6879 63.7105 64.3031C63.7105 63.9182 63.4099 63.6062 63.039 63.6062C62.6682 63.6062 62.3676 63.9182 62.3676 64.3031C62.3676 64.6879 62.6682 64.9999 63.039 64.9999Z" fill="#4BC6F6"/>
<path d="M72.3141 128.057C72.7274 128.49 73.2441 128.707 73.8641 128.707C74.4774 128.707 74.9908 128.49 75.4041 128.057C75.8174 127.623 76.0241 127.077 76.0241 126.417C76.0241 125.757 75.8174 125.21 75.4041 124.777C74.9908 124.343 74.4774 124.127 73.8641 124.127C73.2441 124.127 72.7274 124.343 72.3141 124.777C71.9074 125.203 71.7041 125.75 71.7041 126.417C71.7041 127.083 71.9074 127.63 72.3141 128.057ZM70.2341 126.417C70.2341 125.39 70.5774 124.53 71.2641 123.837C71.9508 123.13 72.8174 122.777 73.8641 122.777C74.9041 122.777 75.7674 123.13 76.4541 123.837C77.1474 124.543 77.4941 125.403 77.4941 126.417C77.4941 127.423 77.1474 128.283 76.4541 128.997C75.7674 129.703 74.9041 130.057 73.8641 130.057C72.8174 130.057 71.9508 129.703 71.2641 128.997C70.5774 128.29 70.2341 127.43 70.2341 126.417ZM80.1244 129.917H78.7144V124.927H83.5244V129.917H82.1144V126.107H80.1244V129.917ZM88.4458 126.107H86.9058L86.8858 126.807C86.8525 127.547 86.7758 128.13 86.6558 128.557C86.5292 129.003 86.3292 129.347 86.0558 129.587C85.7892 129.82 85.4192 129.943 84.9458 129.957C84.6992 129.957 84.5225 129.927 84.4158 129.867V128.717C84.4892 128.743 84.5858 128.757 84.7058 128.757C85.0325 128.757 85.2492 128.543 85.3558 128.117C85.4558 127.737 85.5092 127.163 85.5158 126.397L85.5458 124.927H89.8558V129.917H88.4458V126.107ZM95.9839 128.827C96.1039 128.827 96.2006 128.807 96.2739 128.767V129.797C96.0939 129.937 95.8406 130.007 95.5139 130.007C94.9473 130.007 94.5706 129.793 94.3839 129.367C93.9439 129.82 93.3706 130.047 92.6639 130.047C92.1173 130.047 91.6739 129.893 91.3339 129.587C90.9939 129.28 90.8239 128.877 90.8239 128.377C90.8239 127.843 91.0173 127.437 91.4039 127.157C91.7906 126.877 92.2539 126.737 92.7939 126.737C93.3606 126.737 93.8406 126.84 94.2339 127.047V126.897C94.2339 126.27 93.7939 125.957 92.9139 125.957C92.3739 125.957 91.8706 126.097 91.4039 126.377V125.197C91.9106 124.93 92.5273 124.797 93.2539 124.797C93.9739 124.797 94.5473 124.97 94.9739 125.317C95.4139 125.663 95.6339 126.143 95.6339 126.757V128.447C95.6339 128.7 95.7506 128.827 95.9839 128.827ZM94.2339 128.447V127.947C93.9406 127.753 93.5939 127.657 93.1939 127.657C92.8939 127.657 92.6539 127.713 92.4739 127.827C92.3006 127.94 92.2139 128.1 92.2139 128.307C92.2139 128.52 92.2939 128.683 92.4539 128.797C92.6139 128.903 92.8306 128.957 93.1039 128.957C93.5973 128.957 93.9739 128.787 94.2339 128.447ZM99.4647 129.917H98.0547V126.107H96.4947V124.927H101.045V126.107H99.4647V129.917ZM106.628 128.827C106.748 128.827 106.845 128.807 106.918 128.767V129.797C106.738 129.937 106.485 130.007 106.158 130.007C105.592 130.007 105.215 129.793 105.028 129.367C104.588 129.82 104.015 130.047 103.308 130.047C102.762 130.047 102.318 129.893 101.978 129.587C101.638 129.28 101.468 128.877 101.468 128.377C101.468 127.843 101.662 127.437 102.048 127.157C102.435 126.877 102.898 126.737 103.438 126.737C104.005 126.737 104.485 126.84 104.878 127.047V126.897C104.878 126.27 104.438 125.957 103.558 125.957C103.018 125.957 102.515 126.097 102.048 126.377V125.197C102.555 124.93 103.172 124.797 103.898 124.797C104.618 124.797 105.192 124.97 105.618 125.317C106.058 125.663 106.278 126.143 106.278 126.757V128.447C106.278 128.7 106.395 128.827 106.628 128.827ZM104.878 128.447V127.947C104.585 127.753 104.238 127.657 103.838 127.657C103.538 127.657 103.298 127.713 103.118 127.827C102.945 127.94 102.858 128.1 102.858 128.307C102.858 128.52 102.938 128.683 103.098 128.797C103.258 128.903 103.475 128.957 103.748 128.957C104.242 128.957 104.618 128.787 104.878 128.447ZM111.103 131.977C110.689 131.977 110.356 131.91 110.103 131.777V130.547C110.336 130.68 110.589 130.747 110.863 130.747C111.116 130.747 111.326 130.667 111.493 130.507C111.666 130.353 111.826 130.1 111.973 129.747L109.823 124.927H111.343L112.663 128.207L113.913 124.927H115.403L113.093 130.437C112.653 131.463 111.989 131.977 111.103 131.977ZM118.448 130.047C117.708 130.047 117.071 129.807 116.538 129.327C116.005 128.833 115.738 128.193 115.738 127.407C115.738 126.62 116.005 125.99 116.538 125.517C117.078 125.037 117.721 124.797 118.468 124.797C119.015 124.797 119.508 124.907 119.948 125.127V126.327C119.515 126.127 119.091 126.027 118.678 126.027C118.238 126.027 117.868 126.157 117.568 126.417C117.275 126.67 117.128 127.003 117.128 127.417C117.128 127.83 117.278 128.167 117.578 128.427C117.878 128.687 118.245 128.817 118.678 128.817C119.191 128.817 119.641 128.703 120.028 128.477V129.677C119.561 129.923 119.035 130.047 118.448 130.047ZM122.634 129.917H121.224V124.927H126.034V129.917H124.624V126.107H122.634V129.917ZM129.856 130.047C129.076 130.047 128.419 129.807 127.886 129.327C127.352 128.847 127.086 128.21 127.086 127.417C127.086 126.677 127.326 126.057 127.806 125.557C128.286 125.05 128.912 124.797 129.686 124.797C130.406 124.797 130.982 125.053 131.416 125.567C131.849 126.08 132.066 126.703 132.066 127.437V127.807H128.486C128.559 128.14 128.742 128.397 129.036 128.577C129.336 128.757 129.709 128.847 130.156 128.847C130.709 128.847 131.242 128.7 131.756 128.407V129.537C131.309 129.877 130.676 130.047 129.856 130.047ZM128.486 126.907H130.676C130.662 126.62 130.559 126.383 130.366 126.197C130.179 126.003 129.932 125.907 129.626 125.907C129.312 125.907 129.052 126 128.846 126.187C128.639 126.367 128.519 126.607 128.486 126.907ZM140.368 129.917H133.148V124.927H134.538V128.737H136.058V124.927H137.438V128.737H138.988V124.927H140.368V129.917ZM143.162 129.917H141.752V124.927H143.162V126.777H145.212V124.927H146.622V129.917H145.212V127.957H143.162V129.917ZM152.752 128.827C152.872 128.827 152.968 128.807 153.042 128.767V129.797C152.862 129.937 152.608 130.007 152.282 130.007C151.715 130.007 151.338 129.793 151.152 129.367C150.712 129.82 150.138 130.047 149.432 130.047C148.885 130.047 148.442 129.893 148.102 129.587C147.762 129.28 147.592 128.877 147.592 128.377C147.592 127.843 147.785 127.437 148.172 127.157C148.558 126.877 149.022 126.737 149.562 126.737C150.128 126.737 150.608 126.84 151.002 127.047V126.897C151.002 126.27 150.562 125.957 149.682 125.957C149.142 125.957 148.638 126.097 148.172 126.377V125.197C148.678 124.93 149.295 124.797 150.022 124.797C150.742 124.797 151.315 124.97 151.742 125.317C152.182 125.663 152.402 126.143 152.402 126.757V128.447C152.402 128.7 152.518 128.827 152.752 128.827ZM151.002 128.447V127.947C150.708 127.753 150.362 127.657 149.962 127.657C149.662 127.657 149.422 127.713 149.242 127.827C149.068 127.94 148.982 128.1 148.982 128.307C148.982 128.52 149.062 128.683 149.222 128.797C149.382 128.903 149.598 128.957 149.872 128.957C150.365 128.957 150.742 128.787 151.002 128.447ZM154.127 129.157C154.127 128.91 154.21 128.703 154.377 128.537C154.55 128.37 154.757 128.287 154.997 128.287C155.237 128.287 155.44 128.37 155.607 128.537C155.774 128.703 155.857 128.91 155.857 129.157C155.857 129.397 155.774 129.603 155.607 129.777C155.44 129.943 155.237 130.027 154.997 130.027C154.757 130.027 154.55 129.943 154.377 129.777C154.21 129.603 154.127 129.397 154.127 129.157ZM155.537 127.587H154.447L154.137 122.917H155.857L155.537 127.587Z" fill="#111111"/>
<path d="M114 89C111.824 89 109.698 89.6451 107.889 90.8538C106.08 92.0625 104.67 93.7805 103.837 95.7905C103.005 97.8005 102.787 100.012 103.211 102.146C103.636 104.28 104.683 106.24 106.222 107.778C107.76 109.317 109.72 110.364 111.854 110.789C113.988 111.213 116.2 110.995 118.21 110.163C120.22 109.33 121.937 107.92 123.146 106.111C124.355 104.302 125 102.176 125 100C125 97.0826 123.841 94.2847 121.778 92.2218C119.715 90.1589 116.917 89 114 89ZM114 109.625C112.096 109.625 110.235 109.06 108.653 108.003C107.07 106.945 105.836 105.442 105.108 103.683C104.379 101.925 104.189 99.9893 104.56 98.1223C104.931 96.2552 105.848 94.5402 107.194 93.1941C108.54 91.848 110.255 90.9313 112.122 90.5599C113.989 90.1886 115.925 90.3792 117.683 91.1077C119.442 91.8362 120.945 93.0698 122.003 94.6526C123.061 96.2355 123.625 98.0964 123.625 100C123.625 102.553 122.611 105.001 120.806 106.806C119.001 108.611 116.553 109.625 114 109.625Z" fill="#17EAB7"/>
<path d="M119.827 96.1639C119.718 96.0589 119.57 96 119.416 96C119.262 96 119.114 96.0589 119.005 96.1639L112.528 102.393L109.027 99.0108C108.92 98.8995 108.772 98.8336 108.615 98.8278C108.458 98.822 108.305 98.8767 108.19 98.9798C108.075 99.083 108.006 99.2262 108 99.3779C107.994 99.5296 108.051 99.6774 108.158 99.7888L112.528 104L119.827 96.9645C119.882 96.912 119.926 96.8497 119.955 96.781C119.985 96.7123 120 96.6386 120 96.5642C120 96.4898 119.985 96.4161 119.955 96.3474C119.926 96.2787 119.882 96.2163 119.827 96.1639Z" fill="#17EAB7"/>
</g>
<defs>
<filter id="filter0_ddiii" x="19.0888" y="-12.4911" width="228.275" height="404.929" filterUnits="userSpaceOnUse" color-interpolation-filters="sRGB">
<feFlood flood-opacity="0" result="BackgroundImageFix"/>
<feColorMatrix in="SourceAlpha" type="matrix" values="0 0 0 0 0 0 0 0 0 0 0 0 0 0 0 0 0 0 127 0"/>
<feOffset dy="0.509984"/>
<feGaussianBlur stdDeviation="1.52995"/>
<feColorMatrix type="matrix" values="0 0 0 0 0.0784314 0 0 0 0 0.105882 0 0 0 0 0.160784 0 0 0 0.08 0"/>
<feBlend mode="normal" in2="BackgroundImageFix" result="effect1_dropShadow"/>
<feColorMatrix in="SourceAlpha" type="matrix" values="0 0 0 0 0 0 0 0 0 0 0 0 0 0 0 0 0 0 127 0"/>
<feOffset dx="18.3603" dy="13.8971"/>
<feGaussianBlur stdDeviation="15.937"/>
<feColorMatrix type="matrix" values="0 0 0 0 0.00443437 0 0 0 0 0.00171874 0 0 0 0 0.1375 0 0 0 0.1 0"/>
<feBlend mode="normal" in2="effect1_dropShadow" result="effect2_dropShadow"/>
<feBlend mode="normal" in="SourceGraphic" in2="effect2_dropShadow" result="shape"/>
<feColorMatrix in="SourceAlpha" type="matrix" values="0 0 0 0 0 0 0 0 0 0 0 0 0 0 0 0 0 0 127 0" result="hardAlpha"/>
<feOffset dy="3.0599"/>
<feGaussianBlur stdDeviation="1.4662"/>
<feComposite in2="hardAlpha" operator="arithmetic" k2="-1" k3="1"/>
<feColorMatrix type="matrix" values="0 0 0 0 0.6125 0 0 0 0 0.6125 0 0 0 0 0.6125 0 0 0 0.16 0"/>
<feBlend mode="normal" in2="shape" result="effect3_innerShadow"/>
<feColorMatrix in="SourceAlpha" type="matrix" values="0 0 0 0 0 0 0 0 0 0 0 0 0 0 0 0 0 0 127 0" result="hardAlpha"/>
<feOffset dy="3.05335"/>
<feGaussianBlur stdDeviation="1.4662"/>
<feComposite in2="hardAlpha" operator="arithmetic" k2="-1" k3="1"/>
<feColorMatrix type="matrix" values="0 0 0 0 0.611765 0 0 0 0 0.611765 0 0 0 0 0.611765 0 0 0 0.16 0"/>
<feBlend mode="normal" in2="effect3_innerShadow" result="effect4_innerShadow"/>
<feColorMatrix in="SourceAlpha" type="matrix" values="0 0 0 0 0 0 0 0 0 0 0 0 0 0 0 0 0 0 127 0" result="hardAlpha"/>
<feOffset dx="0.509984" dy="0.509984"/>
<feGaussianBlur stdDeviation="1.5937"/>
<feComposite in2="hardAlpha" operator="arithmetic" k2="-1" k3="1"/>
<feColorMatrix type="matrix" values="0 0 0 0 0.85 0 0 0 0 0.85 0 0 0 0 0.85 0 0 0 0.7 0"/>
<feBlend mode="normal" in2="effect4_innerShadow" result="effect5_innerShadow"/>
</filter>
<linearGradient id="paint0_linear" x1="173.226" y1="25.4369" x2="53.2313" y2="246.643" gradientUnits="userSpaceOnUse">
<stop stop-color="white"/>
<stop offset="1" stop-color="#F7F7F7"/>
</linearGradient>
</defs>
</svg>
