<svg width="202" height="262" viewBox="0 0 202 262" fill="none" xmlns="http://www.w3.org/2000/svg">
<g filter="url(#filter0_ddiii)">
<rect x="13.6962" y="18.5205" width="165.245" height="357.903" rx="25.805" fill="url(#paint0_linear)"/>
<rect x="22.3237" y="28.4019" width="147.989" height="338.574" rx="19.4828" fill="#DEF3FF"/>
<path d="M178.943 80.1558C180.535 80.1558 181.826 81.4464 181.826 83.0385V101.513C181.826 103.106 180.535 104.396 178.943 104.396V80.1558Z" fill="#F4F3F3"/>
<path d="M178.676 116.581C179.913 116.581 180.916 117.584 180.916 118.821V136.56C180.916 137.798 179.913 138.801 178.676 138.801V116.581Z" fill="#F4F3F3"/>
<path d="M178.674 138.8C179.912 138.8 180.915 139.803 180.915 141.041V158.78C180.915 160.017 179.912 161.021 178.674 161.021V138.8Z" fill="#F4F3F3"/>
<path d="M63.6511 28.4019H128.984V34.6944C128.984 38.2574 126.095 41.1457 122.533 41.1457H70.1024C66.5394 41.1457 63.6511 38.2574 63.6511 34.6944V28.4019Z" fill="white"/>
</g>
<rect x="31.0002" y="67" width="129.619" height="127.684" rx="11.6918" fill="white"/>
<path d="M50.6991 75.0707C50.5835 74.9447 50.4395 74.8506 50.2801 74.7969C50.0805 74.727 49.8709 74.6933 49.6603 74.6973H48.306V78.2707H48.8273V77.0001H49.6603C49.8709 77.0042 50.0805 76.9705 50.2801 76.9006C50.4395 76.8468 50.5835 76.7527 50.6991 76.6268C50.7928 76.5201 50.8664 76.3961 50.9162 76.2613C51.0095 75.9952 51.0095 75.7035 50.9162 75.4374C50.8665 75.3022 50.7929 75.1778 50.6991 75.0707ZM48.8273 75.2134H49.6174C49.9317 75.2134 50.1538 75.275 50.2788 75.3968C50.3377 75.4553 50.3846 75.5255 50.4166 75.6033C50.4487 75.6811 50.4652 75.7648 50.4652 75.8494C50.4652 75.934 50.4487 76.0177 50.4166 76.0955C50.3846 76.1733 50.3377 76.2435 50.2788 76.3019C50.1526 76.4238 49.9317 76.4853 49.6174 76.4853H48.8273V75.2134Z" fill="black"/>
<path d="M53.1249 75.9208C53.0205 75.8136 52.8968 75.7288 52.7608 75.6712C52.6248 75.6137 52.4791 75.5845 52.3323 75.5855C52.1757 75.5859 52.0207 75.6191 51.8768 75.683C51.7328 75.7469 51.6027 75.8402 51.4942 75.9575C51.3721 76.089 51.2771 76.245 51.215 76.416C51.1529 76.5869 51.1251 76.7692 51.1332 76.9517C51.1251 77.1342 51.1529 77.3164 51.215 77.4874C51.2771 77.6583 51.3721 77.8143 51.4942 77.9459C51.6034 78.0639 51.7345 78.1577 51.8797 78.2217C52.0248 78.2856 52.1809 78.3183 52.3386 78.3179C52.4855 78.3188 52.6311 78.2897 52.7671 78.2321C52.9031 78.1746 53.0268 78.0898 53.1312 77.9826L53.1779 78.2681H53.6399V75.6352H53.1779L53.1249 75.9208ZM53.1123 76.4448V77.4586C53.0234 77.5663 52.9133 77.6529 52.7894 77.7128C52.6655 77.7727 52.5307 77.8044 52.3941 77.8057C52.294 77.8101 52.1941 77.7926 52.1008 77.7545C52.0075 77.7164 51.923 77.6584 51.8526 77.5843C51.7072 77.4089 51.6337 77.1813 51.6482 76.9504C51.6337 76.7194 51.7072 76.4918 51.8526 76.3164C51.923 76.2423 52.0075 76.1844 52.1008 76.1462C52.1941 76.1081 52.294 76.0907 52.3941 76.095C52.5309 76.0967 52.6658 76.1288 52.7897 76.1891C52.9136 76.2494 53.0236 76.3366 53.1123 76.4448Z" fill="black"/>
<path d="M55.2467 77.5975L54.4957 75.6353H53.9341L54.9665 78.2642L54.5361 79.4143H55.0675L56.5783 75.6353H56.0167L55.2467 77.5975Z" fill="#313235"/>
<path d="M60.1642 74.6973H57.3256V75.2081H58.4842V78.2667H59.0055V75.2081H60.1642V74.6973Z" fill="black"/>
<path d="M61.213 75.5853C61.0458 75.5757 60.8787 75.6069 60.7253 75.6766C60.5718 75.7462 60.4363 75.8522 60.3295 75.9861C60.1208 76.2742 60.0138 76.628 60.0266 76.9881C60.0182 77.1649 60.0441 77.3417 60.1026 77.5079C60.1611 77.6742 60.2511 77.8266 60.3673 77.9561C60.4864 78.0773 60.6281 78.1717 60.7838 78.2337C60.9395 78.2957 61.1057 78.3238 61.2723 78.3164C61.6103 78.3246 61.9447 78.242 62.2429 78.0766L62.2644 78.0635V77.5199L62.2 77.5645C61.9626 77.7234 61.686 77.8075 61.4036 77.8068C61.1841 77.8249 60.9657 77.7597 60.7889 77.6234C60.6614 77.5007 60.58 77.335 60.5592 77.1558H62.4095V76.9515C62.4187 76.6031 62.3117 76.2621 62.1066 75.9861C61.9987 75.8508 61.8615 75.7439 61.7062 75.6743C61.5509 75.6046 61.3819 75.5741 61.213 75.5853ZM60.5554 76.6987C60.559 76.61 60.5796 76.5229 60.616 76.4426C60.6524 76.3623 60.7039 76.2904 60.7674 76.231C60.891 76.1194 61.0491 76.0575 61.213 76.0568C61.3788 76.0569 61.5392 76.1187 61.6648 76.231C61.729 76.2901 61.781 76.3619 61.8179 76.4422C61.8547 76.5226 61.8757 76.6098 61.8794 76.6987H60.5554Z" fill="black"/>
<path d="M64.1323 75.5855C63.7852 75.5781 63.4489 75.711 63.1945 75.9562C62.9454 76.2228 62.806 76.5796 62.806 76.951C62.806 77.3225 62.9454 77.6793 63.1945 77.9459C63.4489 78.1911 63.7852 78.324 64.1323 78.3166C64.4333 78.3149 64.7282 78.2284 64.9855 78.0664L65.0057 78.0533V77.5189L64.9401 77.5647C64.7134 77.7235 64.4461 77.8079 64.1727 77.8071C64.0591 77.8138 63.9453 77.7965 63.8383 77.7562C63.7314 77.7159 63.6334 77.6534 63.5504 77.5726C63.4061 77.4004 63.3265 77.1799 63.3265 76.9517C63.3265 76.7235 63.4061 76.503 63.5504 76.3308C63.6334 76.25 63.7314 76.1875 63.8383 76.1472C63.9453 76.1069 64.0591 76.0896 64.1727 76.0964C64.4461 76.0956 64.7134 76.18 64.9401 76.3387L65.0057 76.3845V75.8488L64.9855 75.8357C64.7282 75.6737 64.4333 75.5872 64.1323 75.5855Z" fill="black"/>
<path d="M67.5767 75.88C67.4949 75.7824 67.393 75.7053 67.2785 75.6543C67.164 75.6032 67.0398 75.5797 66.9154 75.5853C66.7551 75.5875 66.597 75.6235 66.4505 75.691C66.3041 75.7586 66.1724 75.8563 66.0634 75.9782V74.5374H65.5421V78.2705H66.0634V76.5428C66.2982 76.2441 66.5493 76.0922 66.8106 76.0922C67.1388 76.0922 67.2978 76.2769 67.2978 76.6581V78.2705H67.8191V76.607C67.8268 76.342 67.7406 76.0833 67.5767 75.88Z" fill="black"/>
<path d="M39.4911 74.4523C39.8619 74.4523 40.1625 74.1403 40.1625 73.7555C40.1625 73.3706 39.8619 73.0586 39.4911 73.0586C39.1202 73.0586 38.8196 73.3706 38.8196 73.7555C38.8196 74.1403 39.1202 74.4523 39.4911 74.4523Z" fill="#00D3FF"/>
<path d="M39.4911 77.2555C39.8619 77.2555 40.1625 76.9435 40.1625 76.5587C40.1625 76.1738 39.8619 75.8618 39.4911 75.8618C39.1202 75.8618 38.8196 76.1738 38.8196 76.5587C38.8196 76.9435 39.1202 77.2555 39.4911 77.2555Z" fill="#00D3FF"/>
<path d="M39.4911 80.0585C39.8619 80.0585 40.1625 79.7465 40.1625 79.3617C40.1625 78.9768 39.8619 78.6648 39.4911 78.6648C39.1202 78.6648 38.8196 78.9768 38.8196 79.3617C38.8196 79.7465 39.1202 80.0585 39.4911 80.0585Z" fill="#00D3FF"/>
<path d="M42.1744 74.4523C42.5452 74.4523 42.8459 74.1403 42.8459 73.7555C42.8459 73.3706 42.5452 73.0586 42.1744 73.0586C41.8036 73.0586 41.5029 73.3706 41.5029 73.7555C41.5029 74.1403 41.8036 74.4523 42.1744 74.4523Z" fill="black"/>
<path d="M42.1744 77.2555C42.5452 77.2555 42.8459 76.9435 42.8459 76.5587C42.8459 76.1738 42.5452 75.8618 42.1744 75.8618C41.8036 75.8618 41.5029 76.1738 41.5029 76.5587C41.5029 76.9435 41.8036 77.2555 42.1744 77.2555Z" fill="black"/>
<path d="M42.1744 80.0585C42.5452 80.0585 42.8459 79.7465 42.8459 79.3617C42.8459 78.9768 42.5452 78.6648 42.1744 78.6648C41.8036 78.6648 41.5029 78.9768 41.5029 79.3617C41.5029 79.7465 41.8036 80.0585 42.1744 80.0585Z" fill="black"/>
<path d="M44.8591 74.4523C45.2299 74.4523 45.5306 74.1403 45.5306 73.7555C45.5306 73.3706 45.2299 73.0586 44.8591 73.0586C44.4883 73.0586 44.1876 73.3706 44.1876 73.7555C44.1876 74.1403 44.4883 74.4523 44.8591 74.4523Z" fill="black"/>
<path d="M44.8591 77.2555C45.2299 77.2555 45.5306 76.9435 45.5306 76.5587C45.5306 76.1738 45.2299 75.8618 44.8591 75.8618C44.4883 75.8618 44.1876 76.1738 44.1876 76.5587C44.1876 76.9435 44.4883 77.2555 44.8591 77.2555Z" fill="black"/>
<path d="M44.8591 80.0585C45.2299 80.0585 45.5306 79.7465 45.5306 79.3617C45.5306 78.9768 45.2299 78.6648 44.8591 78.6648C44.4883 78.6648 44.1876 78.9768 44.1876 79.3617C44.1876 79.7465 44.4883 80.0585 44.8591 80.0585Z" fill="#4BC6F6"/>
<path d="M100.721 119C100.324 119 99.9322 119.078 99.5661 119.229C99.2 119.381 98.8674 119.604 98.5871 119.885C98.3068 120.165 98.0844 120.499 97.9327 120.866C97.7809 121.233 97.7027 121.627 97.7026 122.024C97.7022 122.422 97.78 122.816 97.9315 123.183C98.083 123.551 98.3053 123.885 98.5856 124.166C98.866 124.447 99.1988 124.67 99.5652 124.822C99.9315 124.974 100.324 125.052 100.721 125.052C101.117 125.052 101.509 124.973 101.875 124.821C102.241 124.669 102.573 124.446 102.853 124.165C103.133 123.883 103.355 123.55 103.506 123.182C103.657 122.815 103.735 122.421 103.735 122.024C103.734 121.222 103.417 120.453 102.851 119.886C102.286 119.319 101.52 119 100.721 119ZM92.9688 119.44C92.6596 119.44 92.3534 119.501 92.0677 119.619C91.782 119.738 91.5225 119.912 91.3038 120.132C91.0852 120.351 90.9117 120.611 90.7934 120.898C90.6751 121.185 90.6142 121.492 90.6142 121.802C90.6142 122.112 90.6751 122.42 90.7934 122.706C90.9117 122.993 91.0852 123.253 91.3038 123.473C91.5225 123.692 91.782 123.866 92.0677 123.985C92.3534 124.103 92.6596 124.165 92.9688 124.165C93.278 124.165 93.5842 124.103 93.8699 123.985C94.1555 123.866 94.4151 123.692 94.6338 123.473C94.8524 123.253 95.0258 122.993 95.1442 122.706C95.2625 122.42 95.3234 122.112 95.3234 121.802C95.3234 121.492 95.2625 121.185 95.1442 120.898C95.0258 120.611 94.8524 120.351 94.6338 120.132C94.4151 119.912 94.1555 119.738 93.8699 119.619C93.5842 119.501 93.278 119.44 92.9688 119.44ZM87.719 124.399C87.2243 124.399 86.7502 124.597 86.4008 124.949C86.0515 125.3 85.8554 125.776 85.8557 126.272C85.8554 126.769 86.0515 127.245 86.4008 127.596C86.7502 127.947 87.2243 128.145 87.719 128.146C87.9642 128.146 88.2071 128.098 88.4338 128.004C88.6604 127.909 88.8663 127.771 89.0398 127.597C89.2132 127.423 89.3507 127.217 89.4445 126.989C89.5383 126.762 89.5865 126.518 89.5863 126.272C89.5865 126.026 89.5383 125.782 89.4445 125.555C89.3507 125.328 89.2132 125.121 89.0398 124.947C88.8663 124.773 88.6604 124.635 88.4338 124.541C88.2071 124.447 87.9642 124.399 87.719 124.399ZM106.343 124.908C105.863 124.908 105.387 125.003 104.944 125.187C104.5 125.372 104.097 125.642 103.757 125.983C103.418 126.323 103.148 126.728 102.964 127.173C102.781 127.618 102.686 128.095 102.686 128.577C102.686 129.059 102.781 129.536 102.964 129.981C103.148 130.426 103.418 130.831 103.757 131.172C104.097 131.512 104.5 131.783 104.944 131.967C105.387 132.151 105.863 132.246 106.343 132.246C106.823 132.246 107.299 132.151 107.742 131.967C108.186 131.783 108.589 131.512 108.929 131.172C109.268 130.831 109.538 130.426 109.722 129.981C109.905 129.536 110 129.059 110 128.577C110 128.095 109.905 127.618 109.722 127.173C109.538 126.728 109.268 126.323 108.929 125.983C108.589 125.642 108.186 125.372 107.742 125.187C107.299 125.003 106.823 124.908 106.343 124.908ZM86.4701 130.381C86.2769 130.381 86.0856 130.418 85.9071 130.492C85.7285 130.566 85.5663 130.675 85.4298 130.812C85.2932 130.949 85.1849 131.112 85.1111 131.291C85.0374 131.47 84.9996 131.662 84.9999 131.856C85.0001 132.049 85.0383 132.241 85.1123 132.419C85.1863 132.598 85.2947 132.76 85.4312 132.897C85.5677 133.034 85.7298 133.142 85.908 133.216C86.0863 133.289 86.2772 133.327 86.4701 133.327C86.8587 133.326 87.2313 133.171 87.5062 132.895C87.781 132.62 87.9356 132.246 87.936 131.856C87.9364 131.662 87.8987 131.471 87.8252 131.292C87.7517 131.113 87.6438 130.951 87.5076 130.814C87.3715 130.677 87.2098 130.568 87.0318 130.494C86.8537 130.419 86.6629 130.381 86.4701 130.381ZM88.2555 135.858C87.8984 135.858 87.5561 136.001 87.3037 136.254C87.0512 136.508 86.909 136.851 86.9082 137.209C86.9079 137.568 87.0496 137.913 87.3022 138.167C87.5548 138.421 87.8977 138.564 88.2555 138.565C88.433 138.565 88.6087 138.53 88.7728 138.462C88.9368 138.394 89.0858 138.294 89.2113 138.168C89.3368 138.042 89.4364 137.893 89.5042 137.728C89.5721 137.564 89.6069 137.387 89.6068 137.209C89.606 136.85 89.4632 136.506 89.2099 136.253C88.9565 136 88.6132 135.857 88.2555 135.858ZM92.4324 139.514C92.2935 139.514 92.156 139.541 92.0277 139.594C91.8994 139.648 91.7829 139.726 91.6847 139.824C91.5865 139.923 91.5087 140.04 91.4557 140.168C91.4027 140.297 91.3755 140.435 91.3758 140.574C91.3764 140.855 91.488 141.124 91.6861 141.322C91.8843 141.52 92.1527 141.631 92.4324 141.63C92.7113 141.63 92.9786 141.518 93.1759 141.32C93.3731 141.122 93.4842 140.854 93.4847 140.574C93.4852 140.294 93.3746 140.024 93.1773 139.826C92.98 139.627 92.712 139.515 92.4324 139.514ZM96.642 140.615C96.5514 140.616 96.4617 140.634 96.3781 140.669C96.2944 140.704 96.2185 140.755 96.1546 140.82C96.0907 140.884 96.0401 140.961 96.0057 141.045C95.9713 141.129 95.9537 141.219 95.954 141.31C95.9545 141.493 96.0272 141.668 96.1561 141.797C96.285 141.927 96.4597 142 96.642 142C96.7326 142 96.8224 141.983 96.9062 141.948C96.9901 141.914 97.0663 141.863 97.1306 141.799C97.1948 141.735 97.2459 141.658 97.2808 141.575C97.3157 141.491 97.3338 141.401 97.334 141.31C97.3343 141.218 97.3166 141.128 97.282 141.044C97.2473 140.959 97.1963 140.883 97.132 140.818C97.0677 140.754 96.9913 140.702 96.9072 140.668C96.8231 140.633 96.733 140.615 96.642 140.615Z" fill="#212121"/>
<defs>
<filter id="filter0_ddiii" x="0.123468" y="0.465144" width="232.156" height="421.929" filterUnits="userSpaceOnUse" color-interpolation-filters="sRGB">
<feFlood flood-opacity="0" result="BackgroundImageFix"/>
<feColorMatrix in="SourceAlpha" type="matrix" values="0 0 0 0 0 0 0 0 0 0 0 0 0 0 0 0 0 0 127 0"/>
<feOffset dy="0.512209"/>
<feGaussianBlur stdDeviation="1.53663"/>
<feColorMatrix type="matrix" values="0 0 0 0 0.0784314 0 0 0 0 0.105882 0 0 0 0 0.160784 0 0 0 0.08 0"/>
<feBlend mode="normal" in2="BackgroundImageFix" result="effect1_dropShadow"/>
<feColorMatrix in="SourceAlpha" type="matrix" values="0 0 0 0 0 0 0 0 0 0 0 0 0 0 0 0 0 0 127 0"/>
<feOffset dx="18.4404" dy="13.9577"/>
<feGaussianBlur stdDeviation="16.0065"/>
<feColorMatrix type="matrix" values="0 0 0 0 0.00443437 0 0 0 0 0.00171874 0 0 0 0 0.1375 0 0 0 0.1 0"/>
<feBlend mode="normal" in2="effect1_dropShadow" result="effect2_dropShadow"/>
<feBlend mode="normal" in="SourceGraphic" in2="effect2_dropShadow" result="shape"/>
<feColorMatrix in="SourceAlpha" type="matrix" values="0 0 0 0 0 0 0 0 0 0 0 0 0 0 0 0 0 0 127 0" result="hardAlpha"/>
<feOffset dy="3.07325"/>
<feGaussianBlur stdDeviation="1.4726"/>
<feComposite in2="hardAlpha" operator="arithmetic" k2="-1" k3="1"/>
<feColorMatrix type="matrix" values="0 0 0 0 0.6125 0 0 0 0 0.6125 0 0 0 0 0.6125 0 0 0 0.16 0"/>
<feBlend mode="normal" in2="shape" result="effect3_innerShadow"/>
<feColorMatrix in="SourceAlpha" type="matrix" values="0 0 0 0 0 0 0 0 0 0 0 0 0 0 0 0 0 0 127 0" result="hardAlpha"/>
<feOffset dy="3.06667"/>
<feGaussianBlur stdDeviation="1.4726"/>
<feComposite in2="hardAlpha" operator="arithmetic" k2="-1" k3="1"/>
<feColorMatrix type="matrix" values="0 0 0 0 0.611765 0 0 0 0 0.611765 0 0 0 0 0.611765 0 0 0 0.16 0"/>
<feBlend mode="normal" in2="effect3_innerShadow" result="effect4_innerShadow"/>
<feColorMatrix in="SourceAlpha" type="matrix" values="0 0 0 0 0 0 0 0 0 0 0 0 0 0 0 0 0 0 127 0" result="hardAlpha"/>
<feOffset dx="0.512209" dy="0.512209"/>
<feGaussianBlur stdDeviation="1.60065"/>
<feComposite in2="hardAlpha" operator="arithmetic" k2="-1" k3="1"/>
<feColorMatrix type="matrix" values="0 0 0 0 0.85 0 0 0 0 0.85 0 0 0 0 0.85 0 0 0 0.7 0"/>
<feBlend mode="normal" in2="effect4_innerShadow" result="effect5_innerShadow"/>
</filter>
<linearGradient id="paint0_linear" x1="154.933" y1="39.4494" x2="26.1232" y2="266.799" gradientUnits="userSpaceOnUse">
<stop stop-color="white"/>
<stop offset="1" stop-color="#F7F7F7"/>
</linearGradient>
</defs>
</svg>
