<svg width="158" height="171" viewBox="0 0 158 171" fill="none" xmlns="http://www.w3.org/2000/svg">
<g filter="url(#filter0_ddiii)">
<rect x="27" y="10" width="122.856" height="266.092" rx="13.6998" fill="url(#paint0_linear)"/>
</g>
<rect x="33.4153" y="17.3464" width="110.026" height="251.722" rx="10.3433" fill="#DEF3FF"/>
<path d="M149.856 55.8242C151.04 55.8242 151.999 56.7838 151.999 57.9675V71.7031C151.999 72.8868 151.04 73.8464 149.856 73.8464V55.8242Z" fill="#F4F3F3"/>
<path d="M149.659 82.9053C150.579 82.9053 151.324 83.651 151.324 84.571V97.7598C151.324 98.6797 150.579 99.4255 149.659 99.4255V82.9053Z" fill="#F4F3F3"/>
<path d="M149.657 99.4253C150.577 99.4253 151.323 100.171 151.323 101.091V114.28C151.323 115.2 150.577 115.946 149.657 115.946V99.4253Z" fill="#F4F3F3"/>
<path d="M64.1414 17.3464H112.715V23.3962C112.715 25.2878 111.181 26.8212 109.29 26.8212H67.5663C65.6748 26.8212 64.1414 25.2878 64.1414 23.3962V17.3464Z" fill="white"/>
<rect x="41" y="142" width="94.93" height="16.2737" rx="3.90162" fill="#212121"/>
<path d="M76.8378 151.038C77.0516 151.262 77.3189 151.374 77.6396 151.374C77.9568 151.374 78.2223 151.262 78.4361 151.038C78.6499 150.814 78.7568 150.531 78.7568 150.19C78.7568 149.848 78.6499 149.565 78.4361 149.341C78.2223 149.117 77.9568 149.005 77.6396 149.005C77.3189 149.005 77.0516 149.117 76.8378 149.341C76.6275 149.562 76.5223 149.845 76.5223 150.19C76.5223 150.534 76.6275 150.817 76.8378 151.038ZM75.7619 150.19C75.7619 149.659 75.9395 149.214 76.2947 148.855C76.6499 148.49 77.0982 148.307 77.6396 148.307C78.1775 148.307 78.6241 148.49 78.9793 148.855C79.3379 149.221 79.5172 149.665 79.5172 150.19C79.5172 150.71 79.3379 151.155 78.9793 151.524C78.6241 151.89 78.1775 152.072 77.6396 152.072C77.0982 152.072 76.6499 151.89 76.2947 151.524C75.9395 151.159 75.7619 150.714 75.7619 150.19ZM80.8778 152H80.1484V149.419H82.6365V152H81.9071V150.029H80.8778V152ZM85.1821 150.029H84.3855L84.3752 150.391C84.3579 150.774 84.3183 151.076 84.2562 151.297C84.1907 151.528 84.0872 151.705 83.9459 151.829C83.8079 151.95 83.6165 152.014 83.3717 152.021C83.2441 152.021 83.1527 152.005 83.0975 151.974V151.379C83.1355 151.393 83.1855 151.4 83.2476 151.4C83.4165 151.4 83.5286 151.29 83.5838 151.069C83.6355 150.872 83.6631 150.576 83.6665 150.179L83.682 149.419H85.9114V152H85.1821V150.029ZM89.0813 151.436C89.1433 151.436 89.1933 151.426 89.2313 151.405V151.938C89.1382 152.01 89.0071 152.047 88.8382 152.047C88.545 152.047 88.3502 151.936 88.2537 151.716C88.0261 151.95 87.7295 152.067 87.364 152.067C87.0812 152.067 86.8519 151.988 86.676 151.829C86.5001 151.671 86.4122 151.462 86.4122 151.203C86.4122 150.928 86.5122 150.717 86.7122 150.572C86.9122 150.428 87.1519 150.355 87.4312 150.355C87.7243 150.355 87.9726 150.409 88.1761 150.515V150.438C88.1761 150.114 87.9485 149.952 87.4933 149.952C87.214 149.952 86.9536 150.024 86.7122 150.169V149.559C86.9743 149.421 87.2933 149.352 87.6692 149.352C88.0416 149.352 88.3381 149.441 88.5588 149.621C88.7864 149.8 88.9002 150.048 88.9002 150.365V151.24C88.9002 151.371 88.9606 151.436 89.0813 151.436ZM88.1761 151.24V150.981C88.0243 150.881 87.845 150.831 87.6381 150.831C87.4829 150.831 87.3588 150.86 87.2657 150.919C87.176 150.978 87.1312 151.06 87.1312 151.167C87.1312 151.278 87.1726 151.362 87.2553 151.421C87.3381 151.476 87.4502 151.503 87.5916 151.503C87.8467 151.503 88.0416 151.415 88.1761 151.24ZM90.8817 152H90.1524V150.029H89.3455V149.419H91.699V150.029H90.8817V152ZM92.8131 152H92.1303V149.419H92.8493V150.94L94.0183 149.419H94.7011V152H93.9821V150.479L92.8131 152ZM96.6706 152H95.9413V150.029H95.1343V149.419H97.4879V150.029H96.6706V152ZM99.3054 152H97.9192V149.419H98.6485V150.174H99.2692C99.5933 150.174 99.852 150.257 100.045 150.422C100.238 150.588 100.335 150.809 100.335 151.084C100.335 151.347 100.245 151.566 100.066 151.741C99.883 151.914 99.6296 152 99.3054 152ZM98.6485 150.717V151.436H99.1554C99.2968 151.436 99.4071 151.405 99.4864 151.343C99.5658 151.281 99.6054 151.193 99.6054 151.079C99.6054 150.965 99.5658 150.878 99.4864 150.815C99.4071 150.75 99.2968 150.717 99.1554 150.717H98.6485Z" fill="white"/>
<rect x="40" y="36.9585" width="96.3684" height="94.93" rx="6.20712" fill="white"/>
<path d="M69.3496 53.9415C69.5634 54.1656 69.8306 54.2777 70.1513 54.2777C70.4686 54.2777 70.7341 54.1656 70.9479 53.9415C71.1617 53.7173 71.2686 53.4345 71.2686 53.0932C71.2686 52.7518 71.1617 52.469 70.9479 52.2448C70.7341 52.0207 70.4686 51.9086 70.1513 51.9086C69.8306 51.9086 69.5634 52.0207 69.3496 52.2448C69.1392 52.4655 69.034 52.7483 69.034 53.0932C69.034 53.438 69.1392 53.7208 69.3496 53.9415ZM68.2737 53.0932C68.2737 52.5621 68.4513 52.1173 68.8064 51.7586C69.1616 51.3931 69.6099 51.2103 70.1513 51.2103C70.6893 51.2103 71.1358 51.3931 71.491 51.7586C71.8497 52.1242 72.029 52.569 72.029 53.0932C72.029 53.6139 71.8497 54.0587 71.491 54.4277C71.1358 54.7932 70.6893 54.976 70.1513 54.976C69.6099 54.976 69.1616 54.7932 68.8064 54.4277C68.4513 54.0622 68.2737 53.6173 68.2737 53.0932ZM73.3895 54.9036H72.6602V52.3224H73.3895V53.2794H74.4499V52.3224H75.1792V54.9036H74.4499V53.8897H73.3895V54.9036ZM77.7242 52.9328H76.9276L76.9172 53.2949C76.9 53.6777 76.8603 53.9794 76.7983 54.2001C76.7327 54.4311 76.6293 54.6087 76.4879 54.7329C76.35 54.8536 76.1586 54.9174 75.9138 54.9243C75.7862 54.9243 75.6948 54.9087 75.6396 54.8777V54.2829C75.6775 54.2966 75.7275 54.3035 75.7896 54.3035C75.9586 54.3035 76.0707 54.1932 76.1258 53.9725C76.1776 53.7759 76.2051 53.4794 76.2086 53.0828L76.2241 52.3224H78.4535V54.9036H77.7242V52.9328ZM81.6233 54.3398C81.6854 54.3398 81.7354 54.3294 81.7733 54.3087V54.8415C81.6802 54.9139 81.5492 54.9501 81.3802 54.9501C81.0871 54.9501 80.8923 54.8398 80.7957 54.6191C80.5681 54.8536 80.2716 54.9708 79.906 54.9708C79.6233 54.9708 79.3939 54.8915 79.2181 54.7329C79.0422 54.5742 78.9543 54.3656 78.9543 54.107C78.9543 53.8311 79.0543 53.6208 79.2543 53.4759C79.4543 53.3311 79.694 53.2587 79.9733 53.2587C80.2664 53.2587 80.5147 53.3121 80.7181 53.419V53.3414C80.7181 53.0173 80.4905 52.8552 80.0353 52.8552C79.756 52.8552 79.4957 52.9276 79.2543 53.0725V52.4621C79.5164 52.3242 79.8353 52.2552 80.2112 52.2552C80.5836 52.2552 80.8802 52.3449 81.1009 52.5242C81.3285 52.7035 81.4423 52.9518 81.4423 53.269V54.1432C81.4423 54.2742 81.5026 54.3398 81.6233 54.3398ZM80.7181 54.1432V53.8846C80.5664 53.7846 80.3871 53.7346 80.1802 53.7346C80.025 53.7346 79.9009 53.7639 79.8078 53.8225C79.7181 53.8811 79.6733 53.9639 79.6733 54.0708C79.6733 54.1811 79.7146 54.2656 79.7974 54.3242C79.8802 54.3794 79.9922 54.407 80.1336 54.407C80.3888 54.407 80.5836 54.3191 80.7181 54.1432ZM82.9608 54.9036H82.278V52.3224H82.997V53.8432L84.166 52.3224H84.8488V54.9036H84.1298V53.3828L82.9608 54.9036ZM83.5608 52.0379C83.2849 52.0379 83.0608 51.9586 82.8884 51.8C82.7159 51.6379 82.628 51.4224 82.6246 51.1534H83.1729C83.1729 51.2672 83.2073 51.3586 83.2763 51.4276C83.3453 51.4965 83.4384 51.531 83.5556 51.531C83.6729 51.531 83.7643 51.4965 83.8298 51.4276C83.8987 51.3586 83.9349 51.2672 83.9384 51.1534H84.4919C84.4884 51.4259 84.3988 51.6414 84.2229 51.8C84.0505 51.9586 83.8298 52.0379 83.5608 52.0379ZM86.2907 54.9036H85.5614V52.3224H86.2907V53.2794H87.3511V52.3224H88.0804V54.9036H87.3511V53.8897H86.2907V54.9036ZM90.847 54.9036H90.1177V52.3224H92.6057V54.9036H91.8764V52.9328H90.847V54.9036ZM95.1514 52.9328H94.3548L94.3445 53.2949C94.3272 53.6777 94.2876 53.9794 94.2255 54.2001C94.16 54.4311 94.0565 54.6087 93.9151 54.7329C93.7772 54.8536 93.5858 54.9174 93.341 54.9243C93.2134 54.9243 93.122 54.9087 93.0668 54.8777V54.2829C93.1048 54.2966 93.1548 54.3035 93.2168 54.3035C93.3858 54.3035 93.4979 54.1932 93.553 53.9725C93.6048 53.7759 93.6324 53.4794 93.6358 53.0828L93.6513 52.3224H95.8807V54.9036H95.1514V52.9328ZM99.0506 54.3398C99.1126 54.3398 99.1626 54.3294 99.2006 54.3087V54.8415C99.1075 54.9139 98.9764 54.9501 98.8074 54.9501C98.5143 54.9501 98.3195 54.8398 98.2229 54.6191C97.9953 54.8536 97.6988 54.9708 97.3332 54.9708C97.0505 54.9708 96.8212 54.8915 96.6453 54.7329C96.4694 54.5742 96.3815 54.3656 96.3815 54.107C96.3815 53.8311 96.4815 53.6208 96.6815 53.4759C96.8815 53.3311 97.1212 53.2587 97.4005 53.2587C97.6936 53.2587 97.9419 53.3121 98.1453 53.419V53.3414C98.1453 53.0173 97.9178 52.8552 97.4626 52.8552C97.1832 52.8552 96.9229 52.9276 96.6815 53.0725V52.4621C96.9436 52.3242 97.2626 52.2552 97.6384 52.2552C98.0109 52.2552 98.3074 52.3449 98.5281 52.5242C98.7557 52.7035 98.8695 52.9518 98.8695 53.269V54.1432C98.8695 54.2742 98.9299 54.3398 99.0506 54.3398ZM98.1453 54.1432V53.8846C97.9936 53.7846 97.8143 53.7346 97.6074 53.7346C97.4522 53.7346 97.3281 53.7639 97.235 53.8225C97.1453 53.8811 97.1005 53.9639 97.1005 54.0708C97.1005 54.1811 97.1419 54.2656 97.2246 54.3242C97.3074 54.3794 97.4195 54.407 97.5608 54.407C97.816 54.407 98.0109 54.3191 98.1453 54.1432ZM100.851 54.9036H100.122V52.9328H99.3148V52.3224H101.668V52.9328H100.851V54.9036ZM103.362 54.9708C102.958 54.9708 102.619 54.8467 102.343 54.5984C102.067 54.3501 101.929 54.0208 101.929 53.6104C101.929 53.2276 102.053 52.9069 102.301 52.6483C102.55 52.3862 102.874 52.2552 103.274 52.2552C103.646 52.2552 103.944 52.388 104.169 52.6535C104.393 52.919 104.505 53.2414 104.505 53.6208V53.8121H102.653C102.691 53.9846 102.786 54.1173 102.938 54.2104C103.093 54.3035 103.286 54.3501 103.517 54.3501C103.803 54.3501 104.079 54.2742 104.344 54.1225V54.707C104.113 54.8829 103.786 54.9708 103.362 54.9708ZM102.653 53.3466H103.786C103.779 53.1983 103.725 53.0759 103.625 52.9794C103.529 52.8794 103.401 52.8294 103.243 52.8294C103.081 52.8294 102.946 52.8776 102.839 52.9742C102.732 53.0673 102.67 53.1914 102.653 53.3466ZM105.508 54.9036H104.644L105.756 53.5277L104.758 52.3224H105.58L106.366 53.2949V52.3224H107.085V53.2949L107.866 52.3224H108.689L107.69 53.5277L108.808 54.9036H107.939L107.085 53.8018V54.9036H106.366V53.8018L105.508 54.9036Z" fill="#111111"/>
<path d="M52.1801 42.3435C52.117 42.2765 52.0385 42.2265 51.9515 42.1979C51.8426 42.1607 51.7283 42.1428 51.6134 42.1449H50.8745V44.0453H51.1589V43.3696H51.6134C51.7283 43.3718 51.8426 43.3538 51.9515 43.3167C52.0385 43.2881 52.117 43.238 52.1801 43.1711C52.2312 43.1143 52.2714 43.0484 52.2986 42.9767C52.3494 42.8352 52.3494 42.6801 52.2986 42.5385C52.2715 42.4666 52.2313 42.4005 52.1801 42.3435ZM51.1589 42.4194H51.59C51.7614 42.4194 51.8826 42.4522 51.9508 42.5169C51.9829 42.548 52.0085 42.5854 52.026 42.6268C52.0435 42.6681 52.0525 42.7126 52.0525 42.7576C52.0525 42.8026 52.0435 42.8471 52.026 42.8885C52.0085 42.9299 51.9829 42.9672 51.9508 42.9983C51.8819 43.0631 51.7614 43.0958 51.59 43.0958H51.1589V42.4194Z" fill="black"/>
<path d="M53.5036 42.7955C53.4467 42.7385 53.3792 42.6934 53.305 42.6628C53.2308 42.6322 53.1513 42.6167 53.0712 42.6172C52.9857 42.6174 52.9012 42.6351 52.8227 42.6691C52.7441 42.703 52.6731 42.7527 52.6139 42.815C52.5473 42.885 52.4955 42.968 52.4616 43.0589C52.4278 43.1498 52.4126 43.2467 52.417 43.3438C52.4126 43.4408 52.4278 43.5378 52.4616 43.6287C52.4955 43.7196 52.5473 43.8025 52.6139 43.8725C52.6735 43.9353 52.7451 43.9852 52.8243 44.0192C52.9034 44.0532 52.9886 44.0706 53.0746 44.0704C53.1548 44.0708 53.2342 44.0554 53.3084 44.0248C53.3826 43.9942 53.4501 43.949 53.5071 43.892L53.5325 44.0439H53.7846V42.6437H53.5325L53.5036 42.7955ZM53.4967 43.0742V43.6134C53.4482 43.6706 53.3882 43.7167 53.3206 43.7486C53.253 43.7804 53.1795 43.7973 53.1049 43.798C53.0503 43.8003 52.9958 43.791 52.9449 43.7707C52.894 43.7505 52.8479 43.7196 52.8095 43.6802C52.7301 43.587 52.6901 43.4659 52.698 43.3431C52.6901 43.2203 52.7301 43.0992 52.8095 43.0059C52.8479 42.9665 52.894 42.9357 52.9449 42.9154C52.9958 42.8951 53.0503 42.8859 53.1049 42.8882C53.1796 42.8891 53.2532 42.9061 53.3208 42.9382C53.3883 42.9703 53.4484 43.0167 53.4967 43.0742Z" fill="black"/>
<path d="M54.6612 43.6873L54.2515 42.6438H53.9451L54.5083 44.0419L54.2735 44.6536H54.5634L55.3877 42.6438H55.0813L54.6612 43.6873Z" fill="#313235"/>
<path d="M57.3441 42.145H55.7954V42.4167H56.4276V44.0433H56.7119V42.4167H57.3441V42.145Z" fill="black"/>
<path d="M57.9162 42.6172C57.825 42.6121 57.7338 42.6287 57.6501 42.6657C57.5664 42.7027 57.4924 42.7591 57.4342 42.8303C57.3203 42.9835 57.262 43.1717 57.2689 43.3632C57.2643 43.4573 57.2785 43.5513 57.3104 43.6397C57.3423 43.7281 57.3914 43.8091 57.4548 43.878C57.5198 43.9425 57.5971 43.9927 57.682 44.0257C57.767 44.0586 57.8577 44.0736 57.9486 44.0696C58.133 44.074 58.3154 44.0301 58.4781 43.9421L58.4898 43.9352V43.6461L58.4547 43.6698C58.3252 43.7543 58.1743 43.799 58.0202 43.7986C57.9004 43.8082 57.7813 43.7736 57.6848 43.7011C57.6153 43.6358 57.5709 43.5477 57.5595 43.4524H58.569V43.3437C58.574 43.1585 58.5156 42.9771 58.4037 42.8303C58.3449 42.7584 58.27 42.7016 58.1853 42.6645C58.1005 42.6275 58.0083 42.6112 57.9162 42.6172ZM57.5574 43.2093C57.5594 43.1621 57.5706 43.1158 57.5905 43.0731C57.6103 43.0304 57.6384 42.9922 57.6731 42.9606C57.7405 42.9012 57.8268 42.8683 57.9162 42.8679C58.0067 42.868 58.0941 42.9009 58.1627 42.9606C58.1977 42.992 58.2261 43.0302 58.2462 43.0729C58.2663 43.1156 58.2777 43.162 58.2798 43.2093H57.5574Z" fill="black"/>
<path d="M59.509 42.6173C59.3196 42.6134 59.1361 42.6841 58.9973 42.8145C58.8614 42.9563 58.7854 43.146 58.7854 43.3436C58.7854 43.5411 58.8614 43.7309 58.9973 43.8727C59.1361 44.003 59.3196 44.0737 59.509 44.0698C59.6732 44.0689 59.8341 44.0229 59.9745 43.9367L59.9855 43.9298V43.6456L59.9497 43.6699C59.826 43.7544 59.6802 43.7993 59.531 43.7988C59.469 43.8024 59.407 43.7932 59.3486 43.7718C59.2902 43.7503 59.2368 43.7171 59.1915 43.6741C59.1128 43.5826 59.0694 43.4653 59.0694 43.3439C59.0694 43.2225 59.1128 43.1053 59.1915 43.0137C59.2368 42.9707 59.2902 42.9375 59.3486 42.9161C59.407 42.8946 59.469 42.8854 59.531 42.889C59.6802 42.8886 59.826 42.9335 59.9497 43.0179L59.9855 43.0423V42.7574L59.9745 42.7504C59.8341 42.6642 59.6732 42.6182 59.509 42.6173Z" fill="black"/>
<path d="M61.3881 42.7739C61.3435 42.722 61.2879 42.6809 61.2254 42.6538C61.1629 42.6267 61.0952 42.6141 61.0273 42.6171C60.9399 42.6183 60.8536 42.6374 60.7737 42.6734C60.6938 42.7093 60.6219 42.7613 60.5625 42.8261V42.0598H60.2781V44.0452H60.5625V43.1263C60.6906 42.9675 60.8276 42.8867 60.9701 42.8867C61.1492 42.8867 61.2359 42.9849 61.2359 43.1876V44.0452H61.5203V43.1605C61.5246 43.0196 61.4775 42.882 61.3881 42.7739Z" fill="black"/>
<path d="M46.0653 42.0146C46.2676 42.0146 46.4317 41.8487 46.4317 41.644C46.4317 41.4394 46.2676 41.2734 46.0653 41.2734C45.863 41.2734 45.699 41.4394 45.699 41.644C45.699 41.8487 45.863 42.0146 46.0653 42.0146Z" fill="#00D3FF"/>
<path d="M46.0653 43.5054C46.2676 43.5054 46.4317 43.3394 46.4317 43.1348C46.4317 42.9301 46.2676 42.7642 46.0653 42.7642C45.863 42.7642 45.699 42.9301 45.699 43.1348C45.699 43.3394 45.863 43.5054 46.0653 43.5054Z" fill="#00D3FF"/>
<path d="M46.0653 44.9961C46.2676 44.9961 46.4317 44.8302 46.4317 44.6255C46.4317 44.4208 46.2676 44.2549 46.0653 44.2549C45.863 44.2549 45.699 44.4208 45.699 44.6255C45.699 44.8302 45.863 44.9961 46.0653 44.9961Z" fill="#00D3FF"/>
<path d="M47.5292 42.0146C47.7315 42.0146 47.8955 41.8487 47.8955 41.644C47.8955 41.4394 47.7315 41.2734 47.5292 41.2734C47.3269 41.2734 47.1628 41.4394 47.1628 41.644C47.1628 41.8487 47.3269 42.0146 47.5292 42.0146Z" fill="black"/>
<path d="M47.5292 43.5054C47.7315 43.5054 47.8955 43.3394 47.8955 43.1348C47.8955 42.9301 47.7315 42.7642 47.5292 42.7642C47.3269 42.7642 47.1628 42.9301 47.1628 43.1348C47.1628 43.3394 47.3269 43.5054 47.5292 43.5054Z" fill="black"/>
<path d="M47.5292 44.9961C47.7315 44.9961 47.8955 44.8302 47.8955 44.6255C47.8955 44.4208 47.7315 44.2549 47.5292 44.2549C47.3269 44.2549 47.1628 44.4208 47.1628 44.6255C47.1628 44.8302 47.3269 44.9961 47.5292 44.9961Z" fill="black"/>
<path d="M48.994 42.0146C49.1963 42.0146 49.3604 41.8487 49.3604 41.644C49.3604 41.4394 49.1963 41.2734 48.994 41.2734C48.7917 41.2734 48.6277 41.4394 48.6277 41.644C48.6277 41.8487 48.7917 42.0146 48.994 42.0146Z" fill="black"/>
<path d="M48.994 43.5054C49.1963 43.5054 49.3604 43.3394 49.3604 43.1348C49.3604 42.9301 49.1963 42.7642 48.994 42.7642C48.7917 42.7642 48.6277 42.9301 48.6277 43.1348C48.6277 43.3394 48.7917 43.5054 48.994 43.5054Z" fill="black"/>
<path d="M48.994 44.9961C49.1963 44.9961 49.3604 44.8302 49.3604 44.6255C49.3604 44.4208 49.1963 44.2549 48.994 44.2549C48.7917 44.2549 48.6277 44.4208 48.6277 44.6255C48.6277 44.8302 48.7917 44.9961 48.994 44.9961Z" fill="#4BC6F6"/>
<path d="M46.234 68.7251H46.0045V66.5545H46.234V67.4568H47.5239V66.5545H47.7534V68.7251H47.5239V67.6646H46.234V68.7251ZM48.4379 67.4227C48.5888 67.2677 48.7832 67.1901 49.0209 67.1901C49.2586 67.1901 49.453 67.2677 49.6039 67.4227C49.7548 67.5736 49.8302 67.7586 49.8302 67.9778C49.8302 68.1969 49.7548 68.3819 49.6039 68.5328C49.4509 68.6858 49.2566 68.7623 49.0209 68.7623C48.7852 68.7623 48.5909 68.6858 48.4379 68.5328C48.287 68.3819 48.2116 68.1969 48.2116 67.9778C48.2116 67.7586 48.287 67.5736 48.4379 67.4227ZM49.6008 67.9778C49.6008 67.8124 49.546 67.6729 49.4364 67.5592C49.3268 67.4475 49.1883 67.3917 49.0209 67.3917C48.8534 67.3917 48.7149 67.4475 48.6054 67.5592C48.4958 67.6729 48.441 67.8124 48.441 67.9778C48.441 68.1411 48.4958 68.2796 48.6054 68.3933C48.7149 68.5049 48.8534 68.5607 49.0209 68.5607C49.1883 68.5607 49.3268 68.5049 49.4364 68.3933C49.546 68.2796 49.6008 68.1411 49.6008 67.9778ZM50.4631 68.7251H50.246V67.2274H50.4631L51.0616 67.922L51.6632 67.2274H51.8802V68.7251H51.6632V67.5343L51.105 68.1824H51.0182L50.4631 67.5343V68.7251ZM53.1245 68.7623C52.8909 68.7623 52.6945 68.6889 52.5353 68.5421C52.3782 68.3974 52.2997 68.2093 52.2997 67.9778C52.2997 67.7545 52.37 67.5674 52.5105 67.4165C52.6532 67.2656 52.8361 67.1901 53.0594 67.1901C53.1793 67.1901 53.2858 67.215 53.3788 67.2646C53.4718 67.3121 53.5452 67.3752 53.599 67.4537C53.6527 67.5323 53.693 67.616 53.7199 67.7049C53.7468 67.7917 53.7602 67.8796 53.7602 67.9685V68.0305H52.5291C52.5415 68.1917 52.6056 68.3209 52.7214 68.4181C52.8392 68.5132 52.9881 68.5607 53.1679 68.5607C53.3416 68.5607 53.5018 68.5142 53.6486 68.4212V68.6197C53.5266 68.7148 53.3519 68.7623 53.1245 68.7623ZM52.5322 67.8475H53.5338C53.5276 67.7318 53.4842 67.6274 53.4036 67.5343C53.3271 67.4393 53.2093 67.3917 53.0501 67.3917C52.9012 67.3917 52.7793 67.4372 52.6842 67.5281C52.5912 67.6212 52.5405 67.7276 52.5322 67.8475ZM54.403 68.4863V69.3453H54.1797V67.2274H54.403V67.4661C54.5436 67.2821 54.7368 67.1901 54.9829 67.1901C55.2041 67.1901 55.3849 67.2666 55.5255 67.4196C55.6661 67.5726 55.7364 67.7576 55.7364 67.9747C55.7364 68.1938 55.6661 68.3799 55.5255 68.5328C55.3849 68.6858 55.2041 68.7623 54.9829 68.7623C54.7368 68.7623 54.5436 68.6703 54.403 68.4863ZM54.403 67.7297V68.2227C54.4464 68.322 54.5167 68.4036 54.6138 68.4677C54.711 68.5297 54.8164 68.5607 54.9301 68.5607C55.0976 68.5607 55.2351 68.5049 55.3426 68.3933C55.4521 68.2775 55.5069 68.138 55.5069 67.9747C55.5069 67.8114 55.4521 67.6729 55.3426 67.5592C55.2351 67.4475 55.0976 67.3917 54.9301 67.3917C54.8185 67.3917 54.7141 67.4237 54.6169 67.4878C54.5198 67.5499 54.4485 67.6305 54.403 67.7297ZM56.9687 67.2274H57.192V67.8444L57.9052 67.2274H58.2091L57.4184 67.9034L58.3207 68.7251H58.0013L57.192 67.9871V68.7251H56.9687V67.2274ZM59.1215 68.5607C59.2249 68.5607 59.3231 68.537 59.4161 68.4894C59.5091 68.4419 59.5846 68.3819 59.6425 68.3096V68.1018C59.4895 68.0026 59.3272 67.953 59.1556 67.953C59.0192 67.953 58.9107 67.9798 58.83 68.0336C58.7515 68.0873 58.7122 68.1607 58.7122 68.2538C58.7122 68.3509 58.7505 68.4264 58.8269 68.4801C58.9034 68.5339 59.0016 68.5607 59.1215 68.5607ZM59.0595 68.7623C58.9003 68.7623 58.7649 68.7189 58.6533 68.6321C58.5437 68.5411 58.4889 68.4191 58.4889 68.2662C58.4889 68.1153 58.5468 67.9943 58.6626 67.9034C58.7784 67.8145 58.9251 67.77 59.1029 67.77C59.2973 67.77 59.4771 67.8186 59.6425 67.9158V67.7669C59.6425 67.5168 59.4781 67.3917 59.1494 67.3917C58.9737 67.3917 58.8104 67.4424 58.6595 67.5436V67.3266C58.8063 67.2356 58.9851 67.1901 59.196 67.1901C59.4006 67.1901 59.5629 67.2387 59.6828 67.3359C59.8048 67.431 59.8658 67.5674 59.8658 67.7452V68.3623C59.8658 68.4202 59.8782 68.4657 59.903 68.4987C59.9298 68.5318 59.965 68.5483 60.0084 68.5483C60.0415 68.5483 60.0704 68.5421 60.0952 68.5297V68.7034C60.0621 68.7261 60.0125 68.7375 59.9464 68.7375C59.872 68.7375 59.8089 68.7179 59.7572 68.6786C59.7076 68.6372 59.6766 68.5773 59.6642 68.4987C59.5133 68.6744 59.3117 68.7623 59.0595 68.7623ZM60.6805 68.4863V69.3453H60.4573V67.2274H60.6805V67.4661C60.8211 67.2821 61.0144 67.1901 61.2604 67.1901C61.4816 67.1901 61.6625 67.2666 61.803 67.4196C61.9436 67.5726 62.0139 67.7576 62.0139 67.9747C62.0139 68.1938 61.9436 68.3799 61.803 68.5328C61.6625 68.6858 61.4816 68.7623 61.2604 68.7623C61.0144 68.7623 60.8211 68.6703 60.6805 68.4863ZM60.6805 67.7297V68.2227C60.7239 68.322 60.7942 68.4036 60.8914 68.4677C60.9885 68.5297 61.094 68.5607 61.2077 68.5607C61.3751 68.5607 61.5126 68.5049 61.6201 68.3933C61.7297 68.2775 61.7844 68.138 61.7844 67.9747C61.7844 67.8114 61.7297 67.6729 61.6201 67.5592C61.5126 67.4475 61.3751 67.3917 61.2077 67.3917C61.096 67.3917 60.9916 67.4237 60.8945 67.4878C60.7973 67.5499 60.726 67.6305 60.6805 67.7297ZM62.9601 68.7251H62.7369V67.4227H62.1942V67.2274H63.5028V67.4227H62.9601V68.7251ZM65.5576 68.7251H65.3343V67.2274H65.5576V68.7251ZM64.5249 68.7251H63.8458V67.2274H64.0691V67.7297H64.5156C64.6893 67.7297 64.8278 67.7752 64.9312 67.8661C65.0345 67.955 65.0862 68.0749 65.0862 68.2259C65.0862 68.3768 65.0366 68.4977 64.9374 68.5887C64.8381 68.6796 64.7007 68.7251 64.5249 68.7251ZM64.0691 67.9251V68.5297H64.4846C64.6025 68.5297 64.6945 68.5039 64.7606 68.4522C64.8268 68.3985 64.8598 68.324 64.8598 68.229C64.8598 68.1318 64.8268 68.0574 64.7606 68.0057C64.6945 67.9519 64.6025 67.9251 64.4846 67.9251H64.0691Z" fill="#515151"/>
<rect x="45.8085" y="72.9186" width="86.0049" height="10.8648" rx="0.775228" fill="white" stroke="#CCD5DF" stroke-width="0.221494"/>
<path d="M47.0278 91.7757C46.7115 91.7757 46.4459 91.6703 46.2309 91.4594C46.02 91.2486 45.9146 90.9798 45.9146 90.6532C45.9146 90.3286 46.02 90.0609 46.2309 89.8501C46.4438 89.6371 46.7094 89.5307 47.0278 89.5307C47.2635 89.5307 47.4661 89.5844 47.6356 89.6919V89.9276C47.4454 89.8056 47.2438 89.7446 47.0309 89.7446C46.7828 89.7446 46.573 89.8315 46.4014 90.0051C46.2319 90.1746 46.1471 90.3907 46.1471 90.6532C46.1471 90.9178 46.2319 91.1349 46.4014 91.3044C46.573 91.476 46.7849 91.5618 47.0371 91.5618C47.2893 91.5618 47.5043 91.4894 47.6821 91.3447V91.5835C47.5043 91.7117 47.2862 91.7757 47.0278 91.7757ZM48.3253 91.4998V92.3587H48.1021V90.2408H48.3253V90.4796C48.4659 90.2956 48.6592 90.2036 48.9052 90.2036C49.1264 90.2036 49.3073 90.2801 49.4478 90.433C49.5884 90.586 49.6587 90.771 49.6587 90.9881C49.6587 91.2072 49.5884 91.3933 49.4478 91.5463C49.3073 91.6992 49.1264 91.7757 48.9052 91.7757C48.6592 91.7757 48.4659 91.6837 48.3253 91.4998ZM48.3253 90.7431V91.2362C48.3687 91.3354 48.439 91.4171 48.5362 91.4811C48.6333 91.5432 48.7388 91.5742 48.8525 91.5742C49.0199 91.5742 49.1574 91.5184 49.2649 91.4067C49.3745 91.291 49.4292 91.1514 49.4292 90.9881C49.4292 90.8248 49.3745 90.6863 49.2649 90.5726C49.1574 90.4609 49.0199 90.4051 48.8525 90.4051C48.7408 90.4051 48.6364 90.4372 48.5393 90.5013C48.4421 90.5633 48.3708 90.6439 48.3253 90.7431ZM50.1913 90.4361C50.3422 90.2811 50.5365 90.2036 50.7742 90.2036C51.012 90.2036 51.2063 90.2811 51.3572 90.4361C51.5081 90.5871 51.5836 90.7721 51.5836 90.9912C51.5836 91.2103 51.5081 91.3954 51.3572 91.5463C51.2042 91.6992 51.0099 91.7757 50.7742 91.7757C50.5386 91.7757 50.3442 91.6992 50.1913 91.5463C50.0404 91.3954 49.9649 91.2103 49.9649 90.9912C49.9649 90.7721 50.0404 90.5871 50.1913 90.4361ZM51.3541 90.9912C51.3541 90.8258 51.2993 90.6863 51.1898 90.5726C51.0802 90.4609 50.9417 90.4051 50.7742 90.4051C50.6068 90.4051 50.4683 90.4609 50.3587 90.5726C50.2492 90.6863 50.1944 90.8258 50.1944 90.9912C50.1944 91.1545 50.2492 91.293 50.3587 91.4067C50.4683 91.5184 50.6068 91.5742 50.7742 91.5742C50.9417 91.5742 51.0802 91.5184 51.1898 91.4067C51.2993 91.293 51.3541 91.1545 51.3541 90.9912ZM51.9994 90.2408H52.2227V90.8579L52.9359 90.2408H53.2398L52.449 90.9168L53.3514 91.7385H53.032L52.2227 91.0005V91.7385H51.9994V90.2408ZM54.5133 92.182H54.2993V91.5432H54.4885C54.6538 91.324 54.7386 90.9602 54.7427 90.4516L54.7458 90.2408H55.8591V91.5432H56.1381V92.182H55.9211V91.7385H54.5133V92.182ZM54.7365 91.5432H55.6358V90.4361H54.9536V90.5261C54.9536 90.9726 54.8812 91.3116 54.7365 91.5432ZM57.2217 91.7757C56.9881 91.7757 56.7917 91.7023 56.6325 91.5556C56.4754 91.4109 56.3969 91.2227 56.3969 90.9912C56.3969 90.7679 56.4672 90.5809 56.6077 90.4299C56.7504 90.279 56.9333 90.2036 57.1566 90.2036C57.2765 90.2036 57.383 90.2284 57.476 90.278C57.569 90.3255 57.6424 90.3886 57.6962 90.4672C57.7499 90.5457 57.7902 90.6294 57.8171 90.7183C57.844 90.8052 57.8574 90.893 57.8574 90.9819V91.0439H56.6263C56.6387 91.2052 56.7028 91.3344 56.8186 91.4315C56.9364 91.5266 57.0853 91.5742 57.2651 91.5742C57.4388 91.5742 57.599 91.5277 57.7458 91.4346V91.6331C57.6238 91.7282 57.4491 91.7757 57.2217 91.7757ZM56.6294 90.861H57.631C57.6248 90.7452 57.5814 90.6408 57.5008 90.5478C57.4243 90.4527 57.3065 90.4051 57.1473 90.4051C56.9984 90.4051 56.8765 90.4506 56.7814 90.5416C56.6884 90.6346 56.6377 90.7411 56.6294 90.861ZM58.4847 91.7385H58.2769V90.2408H58.5002V91.4098L59.4584 90.2408H59.6661V91.7385H59.4429V90.5726L58.4847 91.7385ZM58.9746 89.9865C58.8237 89.9865 58.7017 89.9441 58.6087 89.8594C58.5157 89.7725 58.4681 89.6578 58.4661 89.5152H58.6645C58.6645 89.602 58.6924 89.6723 58.7483 89.726C58.8041 89.7798 58.8785 89.8067 58.9715 89.8067C59.0625 89.8067 59.1359 89.7798 59.1917 89.726C59.2475 89.6723 59.2765 89.602 59.2785 89.5152H59.4739C59.4718 89.6557 59.4243 89.7694 59.3312 89.8563C59.2382 89.9431 59.1193 89.9865 58.9746 89.9865ZM60.8822 91.7757C60.6527 91.7757 60.4625 91.7013 60.3116 91.5525C60.1607 91.4016 60.0853 91.2134 60.0853 90.9881C60.0853 90.7648 60.1618 90.5788 60.3147 90.4299C60.4656 90.279 60.6558 90.2036 60.8853 90.2036C61.059 90.2036 61.2099 90.2398 61.338 90.3121V90.5199C61.2037 90.4434 61.0631 90.4051 60.9163 90.4051C60.7427 90.4051 60.599 90.4609 60.4853 90.5726C60.3716 90.6801 60.3147 90.8196 60.3147 90.9912C60.3147 91.1587 60.3716 91.2982 60.4853 91.4098C60.601 91.5194 60.7447 91.5742 60.9163 91.5742C61.0817 91.5742 61.2316 91.5308 61.3659 91.4439V91.6486C61.2254 91.7334 61.0641 91.7757 60.8822 91.7757ZM62.3817 91.7385H62.1585V90.4361H61.6158V90.2408H62.9244V90.4361H62.3817V91.7385ZM64.1078 91.7385H63.2675V90.2408H64.0551C64.1977 90.2408 64.3083 90.2759 64.3869 90.3462C64.4675 90.4144 64.5078 90.5064 64.5078 90.6222C64.5078 90.7834 64.4458 90.893 64.3218 90.9509C64.512 91.0067 64.607 91.1349 64.607 91.3354C64.607 91.4615 64.5636 91.5607 64.4768 91.6331C64.39 91.7034 64.267 91.7385 64.1078 91.7385ZM63.4907 91.0625V91.5432H64.0613C64.1626 91.5432 64.2411 91.5225 64.297 91.4811C64.3528 91.4398 64.3807 91.3809 64.3807 91.3044C64.3807 91.2279 64.3528 91.169 64.297 91.1276C64.2411 91.0842 64.1626 91.0625 64.0613 91.0625H63.4907ZM63.4907 90.4361V90.8765H63.9931C64.0861 90.8765 64.1585 90.8579 64.2101 90.8207C64.2618 90.7814 64.2877 90.7266 64.2877 90.6563C64.2877 90.5095 64.1895 90.4361 63.9931 90.4361H63.4907ZM65.2649 91.7385H65.0571V90.2408H65.2804V91.4098L66.2386 90.2408H66.4464V91.7385H66.2231V90.5726L65.2649 91.7385ZM67.1105 91.7385H66.8562L67.3027 91.14C67.1807 91.1194 67.0867 91.0708 67.0205 90.9943C66.9564 90.9157 66.9244 90.8165 66.9244 90.6966C66.9244 90.5581 66.9709 90.4475 67.0639 90.3648C67.159 90.2821 67.2913 90.2408 67.4609 90.2408H68.233V91.7385H68.0097V91.1804H67.5291L67.1105 91.7385ZM67.495 90.985H68.0097V90.4361H67.495C67.3854 90.4361 67.3006 90.4599 67.2407 90.5075C67.1828 90.555 67.1539 90.6232 67.1539 90.7121C67.1539 90.801 67.1828 90.8692 67.2407 90.9168C67.3006 90.9623 67.3854 90.985 67.495 90.985Z" fill="#515151"/>
<rect x="45.8085" y="96.0409" width="35.7369" height="11.2852" rx="0.775228" fill="white" stroke="#CCD5DF" stroke-width="0.221494"/>
<path d="M87.3017 91.7757C86.9854 91.7757 86.7198 91.6703 86.5048 91.4594C86.2939 91.2486 86.1885 90.9798 86.1885 90.6532C86.1885 90.3286 86.2939 90.0609 86.5048 89.8501C86.7177 89.6371 86.9834 89.5307 87.3017 89.5307C87.5374 89.5307 87.74 89.5844 87.9095 89.6919V89.9276C87.7193 89.8056 87.5178 89.7446 87.3048 89.7446C87.0568 89.7446 86.8469 89.8315 86.6753 90.0051C86.5058 90.1746 86.4211 90.3907 86.4211 90.6532C86.4211 90.9178 86.5058 91.1349 86.6753 91.3044C86.8469 91.476 87.0588 91.5618 87.311 91.5618C87.5632 91.5618 87.7782 91.4894 87.956 91.3447V91.5835C87.7782 91.7117 87.5601 91.7757 87.3017 91.7757ZM89.3869 91.7509H89.1729L88.2178 89.5679H88.469L89.2814 91.4346L90.0939 89.5679H90.3451L89.3869 91.7509ZM91.7247 91.7509H91.5107L90.5556 89.5679H90.8068L91.6192 91.4346L92.4317 89.5679H92.6829L91.7247 91.7509ZM94.4036 91.7385H92.9244V91.568L93.6563 90.8703C93.8175 90.7173 93.9302 90.5943 93.9942 90.5013C94.0604 90.4041 94.0935 90.2956 94.0935 90.1757C94.0935 90.0475 94.048 89.9441 93.957 89.8656C93.8661 89.7849 93.7472 89.7446 93.6004 89.7446C93.371 89.7446 93.1622 89.8418 92.974 90.0361V89.7787C93.158 89.6134 93.3741 89.5307 93.6221 89.5307C93.8227 89.5307 93.9891 89.5875 94.1214 89.7012C94.2558 89.817 94.3229 89.9658 94.3229 90.1478C94.3229 90.2925 94.2868 90.4248 94.2144 90.5447C94.1421 90.6625 94.018 90.8041 93.8423 90.9695L93.2593 91.5308H94.4036V91.7385Z" fill="#515151"/>
<rect x="86.0817" y="96.0409" width="32.8602" height="11.2852" rx="0.775228" fill="white" stroke="#CCD5DF" stroke-width="0.221494"/>
<path d="M126.815 121.092L126.978 121.141C126.969 121.183 126.951 121.222 126.926 121.256C126.904 121.287 126.874 121.311 126.84 121.326C126.798 121.343 126.752 121.351 126.707 121.35C126.653 121.352 126.598 121.342 126.548 121.321C126.503 121.298 126.466 121.263 126.441 121.22C126.411 121.171 126.396 121.11 126.396 121.035C126.396 120.935 126.422 120.858 126.475 120.804C126.528 120.75 126.602 120.724 126.699 120.724C126.774 120.724 126.833 120.739 126.876 120.77C126.92 120.801 126.952 120.848 126.973 120.912L126.809 120.949C126.805 120.935 126.799 120.921 126.791 120.909C126.781 120.895 126.768 120.883 126.753 120.876C126.738 120.868 126.72 120.864 126.703 120.864C126.684 120.863 126.665 120.868 126.648 120.877C126.631 120.886 126.617 120.899 126.607 120.915C126.59 120.94 126.581 120.98 126.581 121.034C126.581 121.101 126.591 121.147 126.611 121.172C126.633 121.195 126.662 121.208 126.693 121.209C126.723 121.211 126.754 121.2 126.777 121.179C126.797 121.154 126.81 121.124 126.815 121.092ZM127.044 121.037C127.044 120.939 127.071 120.862 127.126 120.807C127.18 120.752 127.256 120.725 127.353 120.725C127.453 120.725 127.53 120.752 127.584 120.806C127.638 120.86 127.665 120.936 127.665 121.033C127.665 121.104 127.653 121.162 127.63 121.207C127.607 121.252 127.571 121.289 127.528 121.313C127.476 121.339 127.419 121.352 127.361 121.35C127.304 121.352 127.246 121.341 127.193 121.318C127.148 121.295 127.111 121.259 127.086 121.215C127.056 121.161 127.042 121.099 127.044 121.037ZM127.229 121.038C127.229 121.099 127.24 121.143 127.263 121.169C127.275 121.182 127.289 121.192 127.305 121.199C127.321 121.206 127.338 121.209 127.355 121.209C127.372 121.209 127.389 121.206 127.405 121.199C127.421 121.192 127.435 121.183 127.447 121.17C127.469 121.144 127.479 121.097 127.48 121.029C127.48 120.972 127.468 120.931 127.445 120.905C127.434 120.891 127.42 120.881 127.404 120.874C127.388 120.868 127.37 120.864 127.353 120.865C127.336 120.865 127.319 120.868 127.303 120.875C127.288 120.882 127.274 120.892 127.263 120.905C127.241 120.932 127.229 120.977 127.229 121.038ZM127.762 120.735H128.006L128.1 121.103L128.193 120.735H128.436V121.339H128.284V120.878L128.167 121.339H128.03L127.914 120.878V121.339H127.762V120.735ZM128.553 120.735H128.86C128.928 120.735 128.978 120.751 129.011 120.783C129.044 120.815 129.061 120.861 129.061 120.92C129.061 120.981 129.043 121.029 129.006 121.063C128.97 121.098 128.914 121.115 128.84 121.115H128.739V121.339H128.553V120.735ZM128.739 120.992H128.784C128.82 120.992 128.845 120.986 128.859 120.974C128.866 120.968 128.872 120.96 128.875 120.952C128.879 120.944 128.881 120.935 128.881 120.926C128.881 120.917 128.879 120.908 128.876 120.9C128.873 120.891 128.868 120.884 128.862 120.877C128.849 120.864 128.826 120.858 128.791 120.858H128.739V120.992ZM129.158 120.735H129.343V121.191H129.631V121.34H129.158V120.735ZM129.723 120.735H129.908V121.339H129.723V120.735ZM130.409 121.24H130.199L130.17 121.339H129.982L130.207 120.735H130.409L130.634 121.339H130.44L130.409 121.24ZM130.371 121.108L130.305 120.891L130.239 121.108H130.371ZM130.693 120.735H130.866L131.091 121.07V120.735H131.265V121.339H131.091L130.866 121.007V121.339H130.692L130.693 120.735ZM131.346 120.735H131.909V120.884H131.72V121.339H131.535V120.884H131.346L131.346 120.735Z" fill="#C7C7C7"/>
<path d="M124.59 121.658L125.125 121.487L124.952 121.097C124.822 121.258 124.695 121.466 124.59 121.658ZM124.407 119.871L123.356 117.505L115.663 117.947L117.795 123.822L121.897 122.515C121.637 122.137 121.54 121.686 121.842 121.466C122.18 121.22 122.687 121.505 123.014 121.91C123.327 121.378 124.205 120.15 124.407 119.871Z" fill="#C7C7C7"/>
<path d="M123.115 119.215C123.437 119.215 123.698 118.966 123.698 118.659C123.698 118.352 123.437 118.103 123.115 118.103C122.793 118.103 122.532 118.352 122.532 118.659C122.532 118.966 122.793 119.215 123.115 119.215ZM122.638 119.456H123.592V121.972H122.638V119.456ZM122.167 120.19C122.173 120.194 122.179 120.191 122.179 120.183V119.545C122.179 119.541 122.178 119.537 122.175 119.533C122.173 119.529 122.17 119.526 122.166 119.524C122.166 119.524 122.041 119.441 121.659 119.419C121.639 119.407 121.307 119.405 121.214 119.419C119.827 119.531 119.776 120.545 119.776 120.591V120.838C119.776 120.868 119.776 121.905 121.214 121.997C121.355 122.008 121.63 121.997 121.659 121.997C121.991 121.997 122.22 121.896 122.22 121.896C122.224 121.894 122.227 121.891 122.23 121.888C122.232 121.884 122.233 121.88 122.234 121.876V121.279C122.234 121.271 122.228 121.268 122.221 121.273C122.221 121.273 122.118 121.356 121.666 121.401C121.537 121.415 121.476 121.409 121.43 121.401C120.788 121.292 120.757 120.816 120.757 120.816C120.756 120.808 120.756 120.796 120.756 120.787V120.605C120.756 120.595 120.756 120.586 120.757 120.576C120.757 120.576 120.801 120.067 121.43 120.013H121.666C121.842 120.04 122.012 120.1 122.167 120.19ZM117.129 121.963C117.129 121.966 117.131 121.97 117.133 121.973C117.136 121.976 117.14 121.977 117.144 121.977H118.073C118.077 121.977 118.08 121.976 118.083 121.973C118.086 121.97 118.087 121.966 118.087 121.963V121.232C118.087 121.23 118.088 121.228 118.088 121.227C118.089 121.225 118.09 121.223 118.092 121.222C118.093 121.221 118.095 121.22 118.096 121.219C118.098 121.219 118.1 121.218 118.102 121.218C118.102 121.218 119.585 121.327 119.585 120.321C119.585 119.527 118.655 119.44 118.348 119.454H117.144C117.14 119.454 117.137 119.456 117.134 119.458C117.131 119.461 117.13 119.465 117.13 119.469L117.129 121.963ZM118.071 120.661V120.002H118.298C118.298 120.002 118.629 120.017 118.655 120.245C118.661 120.263 118.659 120.374 118.655 120.38C118.611 120.647 118.325 120.661 118.325 120.661H118.071Z" fill="#FEFEFE"/>
<path d="M123.142 123.188C123.22 123.188 123.279 123.188 123.377 123.144C123.716 122.964 124.856 120.151 126.059 119.286C126.068 119.279 126.075 119.272 126.082 119.264C126.087 119.257 126.089 119.249 126.09 119.241C126.09 119.241 126.09 119.182 125.912 119.182C124.841 119.153 123.728 121.421 123.143 122.318C123.136 122.328 123.096 122.318 123.096 122.318C123.096 122.318 122.703 121.85 122.363 121.671C122.335 121.66 122.306 121.656 122.276 121.658C122.249 121.658 122.091 121.69 122.017 121.769C121.929 121.862 121.931 121.915 121.932 122.028C121.933 122.05 121.939 122.073 121.949 122.093C122.032 122.24 122.412 122.769 122.724 123.061C122.771 123.095 122.845 123.188 123.142 123.188Z" fill="#C7C7C7"/>
<path d="M126.375 118.433H127.266C127.442 118.433 127.584 118.457 127.692 118.505C127.797 118.551 127.889 118.622 127.96 118.713C128.032 118.806 128.084 118.913 128.114 119.027C128.146 119.151 128.162 119.279 128.161 119.407C128.161 119.616 128.138 119.779 128.09 119.894C128.047 120.005 127.98 120.104 127.894 120.185C127.818 120.258 127.725 120.312 127.624 120.34C127.508 120.374 127.387 120.392 127.266 120.394H126.375V118.433ZM126.975 118.877V119.948H127.122C127.247 119.948 127.336 119.934 127.39 119.906C127.443 119.878 127.484 119.829 127.514 119.759C127.544 119.689 127.559 119.575 127.559 119.418C127.559 119.211 127.525 119.068 127.458 118.992C127.391 118.915 127.28 118.877 127.124 118.877H126.975ZM128.326 119.745L128.896 119.709C128.909 119.802 128.934 119.873 128.972 119.922C129.033 120.002 129.122 120.042 129.236 120.042C129.322 120.042 129.388 120.021 129.434 119.981C129.481 119.94 129.504 119.893 129.504 119.84C129.504 119.789 129.482 119.743 129.438 119.703C129.394 119.663 129.291 119.625 129.13 119.59C128.867 119.53 128.68 119.45 128.568 119.351C128.513 119.305 128.47 119.247 128.441 119.182C128.411 119.116 128.397 119.045 128.399 118.973C128.399 118.871 128.429 118.772 128.485 118.687C128.543 118.597 128.63 118.527 128.746 118.476C128.862 118.425 129.021 118.399 129.223 118.399C129.471 118.399 129.66 118.446 129.79 118.539C129.921 118.632 129.998 118.78 130.023 118.983L129.457 119.017C129.442 118.929 129.41 118.865 129.362 118.825C129.314 118.784 129.248 118.764 129.163 118.764C129.093 118.764 129.041 118.779 129.006 118.809C128.989 118.822 128.976 118.838 128.967 118.857C128.957 118.876 128.953 118.897 128.953 118.918C128.953 118.934 128.957 118.951 128.965 118.965C128.972 118.98 128.983 118.993 128.996 119.002C129.024 119.028 129.091 119.053 129.198 119.075C129.46 119.132 129.648 119.19 129.761 119.248C129.874 119.307 129.957 119.379 130.009 119.466C130.061 119.553 130.087 119.654 130.086 119.756C130.086 119.88 130.05 120 129.982 120.103C129.912 120.211 129.812 120.295 129.694 120.345C129.571 120.399 129.415 120.427 129.227 120.427C128.897 120.427 128.668 120.363 128.541 120.234C128.414 120.106 128.342 119.943 128.326 119.745ZM130.237 119.745L130.808 119.709C130.82 119.802 130.845 119.873 130.883 119.922C130.945 120.002 131.033 120.042 131.148 120.042C131.234 120.042 131.299 120.021 131.346 119.981C131.392 119.94 131.415 119.893 131.415 119.84C131.415 119.789 131.393 119.743 131.349 119.703C131.305 119.663 131.203 119.625 131.042 119.59C130.779 119.53 130.592 119.45 130.48 119.351C130.425 119.305 130.381 119.247 130.352 119.182C130.323 119.116 130.308 119.045 130.31 118.973C130.31 118.871 130.341 118.772 130.397 118.687C130.454 118.597 130.541 118.527 130.657 118.476C130.774 118.425 130.933 118.399 131.135 118.399C131.383 118.399 131.572 118.446 131.702 118.539C131.832 118.632 131.91 118.78 131.934 118.983L131.369 119.017C131.354 118.929 131.322 118.864 131.274 118.824C131.226 118.784 131.16 118.764 131.075 118.764C131.005 118.764 130.953 118.779 130.918 118.809C130.901 118.822 130.888 118.838 130.879 118.857C130.869 118.876 130.865 118.897 130.865 118.918C130.865 118.934 130.869 118.95 130.877 118.965C130.884 118.98 130.895 118.992 130.908 119.002C130.936 119.028 131.004 119.052 131.11 119.075C131.372 119.132 131.56 119.19 131.673 119.248C131.786 119.307 131.869 119.379 131.921 119.465C131.973 119.553 131.999 119.654 131.998 119.756C131.999 119.879 131.963 120 131.895 120.103C131.824 120.211 131.724 120.295 131.606 120.345C131.483 120.4 131.327 120.427 131.139 120.427C130.809 120.427 130.58 120.363 130.453 120.234C130.326 120.106 130.254 119.943 130.237 119.745Z" fill="#C7C7C7"/>
<path d="M96.1205 122.97H95.9709V121.397H96.1205V122.97ZM97.261 121.401C97.3934 121.401 97.5216 121.417 97.6455 121.456C97.7565 121.487 97.8548 121.542 97.9402 121.612C98.0214 121.683 98.0812 121.765 98.1239 121.859C98.2093 122.07 98.2093 122.301 98.1239 122.512C98.0812 122.606 98.0214 122.692 97.9402 122.758C97.8548 122.829 97.7565 122.883 97.6455 122.915C97.5216 122.954 97.3892 122.97 97.261 122.97H96.6373V121.397L97.261 121.401ZM96.7868 121.53V122.84H97.2653C97.3763 122.844 97.4874 122.829 97.5942 122.797C97.6839 122.77 97.7651 122.723 97.8334 122.664C97.8975 122.606 97.9487 122.535 97.9787 122.457C98.047 122.281 98.047 122.093 97.9787 121.917C97.9487 121.839 97.8975 121.769 97.8334 121.71C97.7651 121.651 97.6839 121.604 97.5942 121.577C97.4874 121.546 97.3763 121.53 97.2653 121.534L96.7868 121.53ZM100.025 121.381C100.097 121.381 100.17 121.389 100.238 121.405C100.307 121.421 100.371 121.44 100.431 121.471C100.49 121.499 100.546 121.534 100.593 121.573C100.64 121.612 100.683 121.659 100.717 121.706L100.593 121.784C100.563 121.741 100.529 121.706 100.486 121.675C100.448 121.644 100.401 121.612 100.354 121.593C100.302 121.569 100.251 121.55 100.196 121.538C100.14 121.526 100.08 121.518 100.021 121.518C99.9223 121.518 99.8283 121.534 99.7343 121.565C99.6489 121.597 99.572 121.64 99.5037 121.698C99.4396 121.757 99.384 121.831 99.3499 121.909C99.2773 122.086 99.2773 122.281 99.3499 122.457C99.384 122.535 99.4353 122.61 99.5037 122.668C99.5677 122.727 99.6489 122.774 99.7343 122.801C99.824 122.833 99.9223 122.852 100.021 122.848C100.08 122.848 100.136 122.84 100.191 122.829C100.247 122.817 100.298 122.801 100.349 122.778C100.396 122.754 100.443 122.727 100.482 122.696C100.52 122.664 100.559 122.625 100.589 122.582L100.713 122.664C100.678 122.715 100.636 122.758 100.584 122.797C100.533 122.837 100.482 122.872 100.422 122.895C100.362 122.923 100.298 122.946 100.23 122.958C100.042 122.997 99.8497 122.985 99.6703 122.919C99.5677 122.88 99.4695 122.825 99.3926 122.754C99.3114 122.684 99.2516 122.594 99.2089 122.5C99.1192 122.293 99.1192 122.058 99.2089 121.851C99.2516 121.757 99.3157 121.671 99.3926 121.597C99.4738 121.526 99.5677 121.467 99.6703 121.432C99.7856 121.401 99.9052 121.381 100.025 121.381ZM101.225 122.101C101.247 122.066 101.272 122.039 101.306 122.011C101.336 121.988 101.37 121.964 101.405 121.949C101.439 121.933 101.477 121.921 101.516 121.913C101.554 121.906 101.593 121.902 101.635 121.902C101.704 121.902 101.768 121.909 101.832 121.933C101.887 121.953 101.943 121.98 101.986 122.019C102.028 122.058 102.062 122.101 102.084 122.152C102.109 122.207 102.118 122.269 102.118 122.328V122.973H101.977V122.363C101.977 122.316 101.968 122.265 101.951 122.219C101.934 122.179 101.913 122.14 101.879 122.109C101.845 122.078 101.806 122.054 101.763 122.042C101.712 122.027 101.661 122.019 101.605 122.019C101.554 122.019 101.503 122.027 101.456 122.042C101.409 122.058 101.37 122.082 101.332 122.113C101.298 122.144 101.268 122.183 101.251 122.222C101.229 122.265 101.221 122.316 101.221 122.363V122.966H101.08V121.354H101.221L101.225 122.101ZM103.032 121.902C103.105 121.902 103.177 121.913 103.246 121.941C103.31 121.968 103.37 122.003 103.417 122.05C103.468 122.101 103.506 122.16 103.532 122.222C103.562 122.293 103.575 122.367 103.575 122.441V122.492H102.605C102.609 122.547 102.622 122.606 102.648 122.657C102.673 122.704 102.703 122.743 102.746 122.778C102.784 122.813 102.831 122.837 102.883 122.852C102.934 122.868 102.994 122.88 103.049 122.88C103.122 122.88 103.199 122.868 103.267 122.84C103.331 122.813 103.391 122.778 103.442 122.731L103.519 122.821C103.485 122.852 103.446 122.88 103.408 122.907C103.37 122.93 103.331 122.946 103.293 122.962C103.254 122.973 103.212 122.985 103.173 122.989C103.13 122.993 103.092 122.997 103.049 122.997C102.968 122.997 102.891 122.985 102.814 122.958C102.746 122.934 102.682 122.895 102.631 122.844C102.579 122.794 102.537 122.735 102.511 122.668C102.481 122.598 102.464 122.52 102.468 122.445C102.468 122.371 102.481 122.297 102.511 122.226C102.537 122.164 102.579 122.105 102.631 122.054C102.682 122.007 102.742 121.968 102.81 121.941C102.878 121.909 102.955 121.898 103.032 121.902ZM103.032 122.015C102.977 122.015 102.921 122.023 102.87 122.042C102.823 122.062 102.78 122.086 102.742 122.121C102.703 122.156 102.673 122.195 102.652 122.238C102.626 122.285 102.613 122.336 102.609 122.387H103.429C103.425 122.336 103.412 122.285 103.387 122.238C103.365 122.195 103.335 122.156 103.301 122.121C103.233 122.05 103.135 122.015 103.032 122.015ZM104.429 121.902C104.51 121.902 104.591 121.913 104.668 121.945C104.741 121.972 104.805 122.015 104.856 122.066L104.766 122.152C104.724 122.113 104.672 122.078 104.617 122.054C104.557 122.031 104.493 122.019 104.429 122.019C104.369 122.019 104.309 122.031 104.254 122.05C104.203 122.07 104.151 122.101 104.113 122.14C104.07 122.179 104.04 122.226 104.019 122.273C103.972 122.383 103.972 122.504 104.019 122.614C104.062 122.715 104.147 122.797 104.254 122.837C104.309 122.86 104.369 122.868 104.429 122.868C104.493 122.868 104.557 122.856 104.617 122.833C104.672 122.809 104.724 122.778 104.771 122.739L104.856 122.825C104.805 122.88 104.741 122.919 104.668 122.946C104.591 122.973 104.51 122.989 104.429 122.989C104.348 122.989 104.267 122.977 104.19 122.946C104.049 122.895 103.938 122.79 103.882 122.661C103.822 122.52 103.822 122.367 103.882 122.226C103.938 122.097 104.049 121.992 104.19 121.941C104.267 121.917 104.348 121.898 104.429 121.902ZM105.326 122.363H105.514L106.001 121.917H106.176L105.625 122.414L106.185 122.973H106.005L105.51 122.481H105.322V122.973H105.181V121.358H105.322L105.326 122.363ZM97.7992 120.842V120.169C97.7992 119.915 97.6241 119.742 97.3379 119.742C97.1713 119.731 97.0132 119.805 96.9235 119.934C96.8424 119.809 96.6929 119.739 96.5348 119.742C96.3981 119.735 96.2657 119.797 96.1931 119.903V119.77H95.9368V120.846H96.1931V120.247C96.1931 120.059 96.3041 119.962 96.4793 119.962C96.6544 119.962 96.7356 120.063 96.7356 120.243V120.842H96.9919V120.247C96.9919 120.059 97.1115 119.962 97.2781 119.962C97.449 119.962 97.5344 120.063 97.5344 120.243V120.842H97.7992ZM101.614 119.766H101.2V119.441H100.943V119.766H100.704V119.981H100.943V120.47C100.943 120.72 101.05 120.869 101.349 120.869C101.46 120.869 101.571 120.842 101.669 120.787L101.597 120.587C101.528 120.627 101.452 120.646 101.37 120.646C101.242 120.646 101.2 120.576 101.2 120.466V119.981H101.618L101.614 119.766ZM103.792 119.739C103.664 119.735 103.549 119.797 103.485 119.895V119.766H103.233V120.842H103.489V120.239C103.489 120.059 103.575 119.962 103.741 119.962C103.797 119.962 103.852 119.969 103.899 119.989L103.976 119.77C103.916 119.75 103.857 119.742 103.792 119.739ZM100.499 119.852C100.354 119.774 100.187 119.735 100.021 119.739C99.7215 119.739 99.5293 119.868 99.5293 120.083C99.5293 120.259 99.6703 120.364 99.9351 120.4L100.055 120.415C100.196 120.435 100.26 120.466 100.26 120.529C100.26 120.611 100.166 120.658 99.9906 120.658C99.8497 120.662 99.713 120.623 99.5976 120.544L99.478 120.728C99.6275 120.822 99.8069 120.873 99.9864 120.869C100.324 120.869 100.52 120.724 100.52 120.517C100.52 120.329 100.367 120.228 100.11 120.196L99.9906 120.181C99.8796 120.169 99.7899 120.145 99.7899 120.075C99.7899 119.997 99.8753 119.95 100.012 119.95C100.14 119.95 100.268 119.985 100.379 120.044L100.499 119.852ZM107.342 119.742C107.214 119.739 107.099 119.801 107.035 119.899V119.766H106.783V120.842H107.039V120.239C107.039 120.059 107.124 119.962 107.291 119.962C107.347 119.962 107.402 119.969 107.449 119.989L107.526 119.77C107.466 119.75 107.402 119.742 107.342 119.742ZM104.049 120.306C104.049 120.63 104.297 120.869 104.677 120.869C104.83 120.877 104.98 120.83 105.1 120.74L104.976 120.552C104.886 120.615 104.779 120.646 104.668 120.646C104.463 120.646 104.314 120.509 104.314 120.302C104.314 120.095 104.463 119.962 104.668 119.958C104.779 119.958 104.886 119.993 104.976 120.055L105.1 119.868C104.98 119.778 104.83 119.731 104.677 119.739C104.297 119.739 104.049 119.977 104.049 120.306ZM106.441 120.306V119.766H106.185V119.895C106.095 119.789 105.958 119.731 105.813 119.739C105.484 119.739 105.223 119.973 105.223 120.302C105.223 120.63 105.48 120.865 105.813 120.865C105.958 120.869 106.095 120.81 106.185 120.709V120.838H106.441V120.306ZM105.493 120.306C105.493 120.118 105.629 119.962 105.847 119.962C106.056 119.962 106.202 120.11 106.202 120.306C106.202 120.501 106.061 120.65 105.847 120.65C105.625 120.65 105.493 120.494 105.493 120.306ZM102.413 119.739C102.071 119.739 101.827 119.969 101.827 120.302C101.827 120.642 102.08 120.865 102.43 120.865C102.605 120.869 102.776 120.818 102.912 120.713L102.789 120.54C102.69 120.611 102.571 120.65 102.447 120.654C102.28 120.654 102.131 120.583 102.097 120.392H102.968C102.972 120.364 102.972 120.333 102.972 120.302C102.968 119.969 102.742 119.739 102.413 119.739ZM102.408 119.95C102.575 119.95 102.678 120.044 102.707 120.212H102.097C102.122 120.055 102.225 119.95 102.408 119.95ZM108.812 120.306V119.336H108.555V119.899C108.466 119.793 108.329 119.735 108.184 119.742C107.855 119.742 107.594 119.977 107.594 120.306C107.594 120.634 107.851 120.869 108.184 120.869C108.329 120.873 108.466 120.814 108.555 120.713V120.842H108.812V120.306ZM109.111 120.744C109.119 120.744 109.132 120.744 109.141 120.748C109.149 120.752 109.158 120.756 109.166 120.763C109.175 120.771 109.179 120.775 109.183 120.787C109.192 120.803 109.192 120.822 109.183 120.842C109.179 120.849 109.175 120.857 109.166 120.865C109.158 120.873 109.149 120.877 109.141 120.881C109.132 120.885 109.119 120.885 109.111 120.885C109.081 120.885 109.051 120.869 109.038 120.842C109.03 120.826 109.03 120.806 109.038 120.787C109.047 120.771 109.06 120.756 109.077 120.752C109.089 120.744 109.098 120.744 109.111 120.744ZM109.111 120.865C109.119 120.865 109.128 120.865 109.132 120.861C109.141 120.857 109.145 120.853 109.149 120.849C109.171 120.83 109.171 120.795 109.149 120.775C109.145 120.771 109.136 120.767 109.132 120.763C109.124 120.759 109.119 120.759 109.111 120.759C109.102 120.759 109.094 120.759 109.089 120.763C109.06 120.775 109.047 120.806 109.06 120.834C109.064 120.842 109.068 120.846 109.072 120.849C109.077 120.853 109.085 120.857 109.089 120.861C109.094 120.861 109.102 120.865 109.111 120.865ZM109.115 120.779C109.124 120.779 109.128 120.779 109.136 120.783C109.141 120.787 109.145 120.791 109.145 120.799C109.145 120.803 109.145 120.806 109.141 120.81C109.136 120.814 109.132 120.818 109.124 120.818L109.145 120.842H109.128L109.106 120.818H109.098V120.842H109.085V120.779H109.115ZM109.098 120.791V120.806H109.124C109.128 120.806 109.128 120.803 109.128 120.799C109.128 120.795 109.128 120.795 109.124 120.791H109.098ZM107.863 120.306C107.863 120.118 108 119.962 108.218 119.962C108.427 119.962 108.573 120.11 108.573 120.306C108.573 120.501 108.432 120.65 108.218 120.65C108 120.646 107.863 120.494 107.863 120.306ZM99.2431 120.306V119.766H98.9825V119.895C98.8928 119.789 98.7561 119.731 98.6109 119.739C98.2819 119.739 98.0214 119.973 98.0214 120.302C98.0214 120.63 98.2777 120.865 98.6109 120.865C98.7561 120.869 98.8928 120.81 98.9825 120.709V120.838H99.2388L99.2431 120.306ZM98.2905 120.306C98.2905 120.118 98.4272 119.962 98.645 119.962C98.8544 119.962 98.9996 120.11 98.9996 120.306C98.9996 120.501 98.8586 120.65 98.645 120.65C98.4229 120.646 98.2905 120.494 98.2905 120.306ZM106.36 122.919H106.338V122.973H106.326V122.919H106.304V122.911H106.36V122.919ZM106.445 122.97H106.432V122.919L106.411 122.962H106.398L106.377 122.919V122.97H106.368V122.907H106.385L106.407 122.95L106.428 122.907H106.445V122.97Z" fill="#C7C7C7"/>
<path d="M91.2241 118.793H92.7587V121.528H91.2241V118.793Z" fill="#D7D7D7"/>
<path d="M91.3266 120.161C91.3266 119.627 91.5732 119.126 91.9983 118.794C91.2374 118.2 90.1321 118.331 89.5328 119.088C88.9334 119.841 89.0652 120.935 89.8303 121.529C90.468 122.025 91.3649 122.025 91.9983 121.529C91.5732 121.201 91.3266 120.696 91.3266 120.161Z" fill="#C7C7C7"/>
<path d="M94.6676 121.238V121.183H94.6931V121.17H94.6336V121.183H94.6548V121.238H94.6676ZM94.7824 121.238V121.17H94.7654L94.7441 121.217L94.7228 121.17H94.7058V121.238H94.7186V121.187L94.7356 121.229H94.7484L94.7654 121.187V121.238H94.7824ZM94.8376 120.16C94.8376 121.12 94.0512 121.898 93.082 121.898C92.6867 121.898 92.3041 121.768 91.998 121.528C92.759 120.935 92.895 119.841 92.2956 119.087C92.2106 118.978 92.1086 118.881 91.998 118.793C92.759 118.199 93.8642 118.33 94.4635 119.083C94.7058 119.39 94.8376 119.769 94.8376 120.16Z" fill="#C7C7C7"/>
<path d="M49.4873 120.031H48.8763V119.569C48.8763 119.263 48.7534 118.969 48.5345 118.753C48.3157 118.536 48.0189 118.414 47.7095 118.414C47.4 118.414 47.1032 118.536 46.8844 118.753C46.6655 118.969 46.5426 119.263 46.5426 119.569V120.031H45.9331V119.569C45.9331 119.103 46.1203 118.655 46.4535 118.326C46.7867 117.996 47.2386 117.811 47.7098 117.811C48.181 117.811 48.6329 117.996 48.966 118.326C49.2992 118.655 49.4864 119.103 49.4864 119.569L49.4873 120.031Z" fill="#C7C7C7"/>
<path d="M45.7986 120.02H49.6198C49.6331 120.02 49.6462 120.022 49.6585 120.027C49.6707 120.033 49.6818 120.04 49.6912 120.049C49.7005 120.059 49.7079 120.07 49.7128 120.082C49.7178 120.094 49.7203 120.107 49.7201 120.12V122.465C49.7201 122.591 49.6951 122.716 49.6464 122.832C49.5978 122.948 49.5265 123.054 49.4367 123.143C49.3468 123.232 49.2401 123.302 49.1227 123.35C49.0053 123.398 48.8795 123.423 48.7524 123.423H46.666C46.5388 123.423 46.4129 123.398 46.2954 123.35C46.178 123.302 46.0712 123.231 45.9814 123.142C45.8915 123.053 45.8202 122.948 45.7716 122.831C45.7231 122.715 45.6981 122.59 45.6982 122.464V120.12C45.6982 120.094 45.7088 120.069 45.7276 120.05C45.7464 120.031 45.772 120.021 45.7986 120.021V120.02Z" fill="#C7C7C7"/>
<g style="mix-blend-mode:multiply" opacity="0.1">
<path d="M49.7199 120.02H47.709V123.422H49.7199V120.02Z" fill="#C7C7C7"/>
</g>
<path d="M47.5306 122.398L46.5862 121.521L46.989 121.148L47.5306 121.65L48.6189 120.64L49.0214 121.014L47.5306 122.398Z" fill="white"/>
<path d="M51.3566 120.083C51.284 120.056 51.2137 120.024 51.1463 119.986C51.0869 119.952 51.0334 119.91 50.9878 119.86C50.9426 119.808 50.908 119.748 50.886 119.684C50.8606 119.604 50.8489 119.521 50.8511 119.438C50.849 119.332 50.8696 119.228 50.9117 119.13C50.9503 119.044 51.0087 118.967 51.0824 118.907C51.1602 118.844 51.25 118.798 51.3463 118.77C51.4595 118.738 51.5768 118.723 51.6946 118.724C51.8051 118.723 51.9155 118.733 52.024 118.754C52.1334 118.777 52.2411 118.807 52.3465 118.844C52.3319 118.979 52.2946 119.111 52.2362 119.234L52.131 119.193C52.0939 119.179 52.0558 119.168 52.017 119.159C51.9721 119.149 51.9267 119.142 51.881 119.137C51.8237 119.131 51.7661 119.128 51.7085 119.129C51.6686 119.129 51.6287 119.132 51.5894 119.139C51.5513 119.145 51.5146 119.158 51.4809 119.176C51.4478 119.196 51.4204 119.223 51.4015 119.256C51.3794 119.299 51.3689 119.347 51.3712 119.395C51.3697 119.434 51.3781 119.474 51.3954 119.509C51.4113 119.54 51.4336 119.566 51.4609 119.588C51.4893 119.609 51.5203 119.627 51.5533 119.64C51.5879 119.655 51.6221 119.67 51.6567 119.683L51.8637 119.762C51.951 119.796 52.0303 119.831 52.1016 119.867C52.1698 119.901 52.2314 119.947 52.2835 120.002C52.334 120.059 52.3726 120.125 52.3968 120.197C52.4273 120.289 52.4417 120.384 52.4395 120.481C52.4409 120.59 52.4191 120.698 52.3756 120.798C52.3338 120.893 52.2708 120.977 52.1913 121.044C52.1035 121.116 52.0021 121.171 51.8931 121.204C51.7607 121.244 51.6227 121.263 51.4842 121.261C51.4085 121.261 51.3406 121.259 51.2809 121.254C51.2236 121.25 51.1666 121.242 51.1102 121.232C51.0561 121.221 51.0026 121.208 50.9499 121.193C50.897 121.177 50.8418 121.157 50.7844 121.134C50.792 121.065 50.8046 120.996 50.8223 120.928C50.8407 120.856 50.8625 120.784 50.8878 120.711C50.9763 120.747 51.0675 120.776 51.1605 120.798C51.25 120.818 51.3415 120.828 51.4333 120.828C51.5782 120.828 51.6919 120.802 51.7746 120.748C51.8572 120.695 51.8986 120.613 51.8988 120.504C51.9001 120.457 51.8897 120.41 51.8685 120.367C51.8496 120.332 51.8239 120.301 51.7928 120.275C51.7607 120.25 51.7253 120.229 51.6876 120.212C51.6484 120.195 51.608 120.179 51.5664 120.163L51.3566 120.083Z" fill="#C7C7C7"/>
<path d="M52.8005 118.766H54.2074C54.2212 118.834 54.2281 118.904 54.228 118.974C54.2283 119.046 54.2214 119.118 54.2074 119.189H53.3052V119.721H54.0226C54.036 119.791 54.0429 119.862 54.0432 119.933C54.0432 120.005 54.0363 120.077 54.0226 120.148H53.3052V120.796H54.2329C54.2466 120.865 54.2535 120.935 54.2535 121.005C54.2537 121.077 54.2468 121.149 54.2329 121.22H52.8005V118.766Z" fill="#C7C7C7"/>
<path d="M56.2696 120.756C56.2994 120.819 56.3243 120.885 56.3439 120.952C56.3633 121.019 56.3777 121.086 56.3869 121.155C56.2823 121.194 56.1739 121.223 56.0635 121.24C55.9613 121.254 55.8582 121.261 55.755 121.261C55.5786 121.265 55.4032 121.233 55.2397 121.167C55.0977 121.108 54.971 121.018 54.8691 120.904C54.7666 120.787 54.6897 120.651 54.6433 120.503C54.5913 120.34 54.5656 120.169 54.5672 119.998C54.5665 119.826 54.5941 119.654 54.649 119.491C54.6978 119.342 54.7758 119.205 54.8785 119.086C54.9798 118.971 55.1059 118.88 55.2473 118.82C55.4048 118.754 55.5746 118.721 55.7456 118.724C55.8477 118.724 55.9497 118.731 56.0508 118.745C56.1543 118.762 56.2556 118.79 56.3523 118.831C56.3477 118.899 56.3339 118.966 56.3111 119.03C56.2881 119.095 56.2627 119.161 56.2351 119.227C56.1653 119.202 56.0939 119.183 56.0214 119.168C55.9485 119.156 55.8747 119.15 55.8007 119.151C55.5801 119.151 55.4106 119.222 55.2922 119.365C55.1738 119.507 55.1146 119.718 55.1146 119.998C55.1146 120.553 55.3525 120.831 55.8283 120.831C55.9033 120.832 55.9783 120.826 56.0523 120.814C56.1261 120.8 56.1988 120.781 56.2696 120.756Z" fill="#C7C7C7"/>
<path d="M56.749 118.766C56.7912 118.759 56.8337 118.754 56.8763 118.752C56.9178 118.75 56.9603 118.749 57.0039 118.749C57.0476 118.749 57.0833 118.749 57.1251 118.752C57.167 118.755 57.2088 118.759 57.2527 118.766V120.039C57.2518 120.158 57.257 120.277 57.2682 120.395C57.2748 120.48 57.2958 120.563 57.3303 120.641C57.3571 120.702 57.4031 120.752 57.4613 120.784C57.5291 120.818 57.6044 120.834 57.6801 120.831C57.7553 120.834 57.8302 120.818 57.8974 120.784C57.9548 120.751 58.0001 120.701 58.0268 120.641C58.0607 120.563 58.0812 120.48 58.0874 120.395C58.0989 120.277 58.1041 120.158 58.1032 120.039V118.766C58.1489 118.759 58.1941 118.754 58.2341 118.752C58.2741 118.749 58.3156 118.749 58.3553 118.749C58.395 118.749 58.4387 118.749 58.4811 118.752C58.5245 118.754 58.5677 118.759 58.6105 118.766V120.146C58.6119 120.298 58.5981 120.451 58.5693 120.601C58.5464 120.728 58.4959 120.848 58.4211 120.954C58.3478 121.053 58.2491 121.132 58.135 121.181C58.0156 121.234 57.8641 121.261 57.6804 121.261C57.4967 121.261 57.3452 121.234 57.2258 121.181C57.1116 121.132 57.0127 121.053 56.9394 120.954C56.8646 120.848 56.814 120.728 56.7908 120.601C56.7622 120.45 56.7484 120.298 56.7496 120.145L56.749 118.766Z" fill="#C7C7C7"/>
<path d="M59.0997 118.766C59.2007 118.754 59.2956 118.744 59.3843 118.736C59.4728 118.728 59.571 118.724 59.6792 118.724C59.8047 118.724 59.9299 118.735 60.0532 118.758C60.1706 118.778 60.2835 118.819 60.3866 118.878C60.485 118.935 60.5674 119.016 60.6263 119.113C60.6869 119.212 60.7173 119.338 60.7173 119.49C60.7186 119.572 60.7069 119.653 60.6827 119.731C60.6621 119.795 60.6325 119.857 60.5948 119.913C60.5618 119.962 60.523 120.008 60.4793 120.048C60.443 120.081 60.4038 120.111 60.362 120.138L60.3036 120.175L60.907 121.213C60.8609 121.217 60.8127 121.222 60.7621 121.227C60.7115 121.231 60.6597 121.234 60.6069 121.234C60.5203 121.234 60.4339 121.227 60.3484 121.213L59.6998 120.076L59.7826 120.035C59.8147 120.019 59.8538 119.999 59.8998 119.975C59.9477 119.949 59.9925 119.917 60.0332 119.881C60.077 119.842 60.1137 119.795 60.1417 119.744C60.1723 119.685 60.1872 119.62 60.1847 119.554C60.1847 119.411 60.1433 119.305 60.0605 119.238C59.9689 119.168 59.8553 119.133 59.7398 119.138C59.6937 119.137 59.6475 119.141 59.6019 119.148V121.22C59.5607 121.224 59.5192 121.228 59.478 121.232C59.4367 121.235 59.3961 121.237 59.3567 121.237C59.3173 121.237 59.2761 121.237 59.2325 121.233C59.1888 121.23 59.144 121.226 59.0979 121.22L59.0997 118.766Z" fill="#C7C7C7"/>
<path d="M61.1833 118.766H62.5902C62.604 118.834 62.6109 118.904 62.6109 118.974C62.6111 119.046 62.6042 119.118 62.5902 119.189H61.6868V119.721H62.4039C62.4175 119.791 62.4245 119.862 62.4248 119.933C62.4248 120.005 62.4178 120.077 62.4039 120.148H61.6868V120.796H62.6142C62.6281 120.865 62.635 120.935 62.6348 121.005C62.6352 121.077 62.6283 121.149 62.6142 121.22H61.1833V118.766Z" fill="#C7C7C7"/>
<path d="M51.0275 122.481C50.9944 122.469 50.9623 122.454 50.9315 122.437C50.9043 122.422 50.8798 122.402 50.859 122.379C50.8383 122.355 50.8225 122.328 50.8124 122.299C50.8007 122.262 50.7952 122.224 50.796 122.186C50.795 122.138 50.8044 122.09 50.8236 122.046C50.8411 122.006 50.8678 121.971 50.9015 121.944C50.9372 121.915 50.9784 121.894 51.0227 121.881C51.0744 121.866 51.128 121.859 51.1818 121.86C51.2327 121.86 51.2834 121.864 51.3334 121.874C51.3834 121.884 51.4327 121.898 51.481 121.914C51.4742 121.976 51.4571 122.036 51.4303 122.092L51.3821 122.074C51.3653 122.067 51.348 122.062 51.3303 122.058C51.3097 122.054 51.2889 122.05 51.2679 122.048C51.2417 122.045 51.2154 122.044 51.1891 122.044C51.1709 122.044 51.1527 122.046 51.1348 122.049C51.1173 122.052 51.1005 122.057 51.0851 122.066C51.0699 122.075 51.0574 122.087 51.0488 122.103C51.0385 122.122 51.0336 122.144 51.0345 122.166C51.0337 122.183 51.037 122.2 51.0442 122.215C51.0513 122.23 51.062 122.244 51.0754 122.254C51.0885 122.264 51.1029 122.273 51.1182 122.279C51.1339 122.286 51.1485 122.292 51.1654 122.299L51.26 122.335C51.3 122.35 51.3364 122.366 51.3688 122.383C51.3999 122.398 51.428 122.419 51.4516 122.445C51.4752 122.471 51.4933 122.501 51.5046 122.535C51.5181 122.576 51.5244 122.62 51.5234 122.664C51.5236 122.714 51.5133 122.763 51.4931 122.809C51.474 122.852 51.445 122.89 51.4085 122.921C51.3684 122.954 51.322 122.979 51.2721 122.995C51.2117 123.013 51.1487 123.022 51.0854 123.021C51.0506 123.021 51.0197 123.021 50.9924 123.018C50.9662 123.016 50.9401 123.013 50.9142 123.008C50.8896 123.003 50.8651 122.997 50.8408 122.99C50.8166 122.983 50.7914 122.974 50.7654 122.963C50.7687 122.931 50.7745 122.9 50.7827 122.869C50.7911 122.836 50.8011 122.803 50.813 122.77C50.8533 122.786 50.895 122.8 50.9375 122.809C50.979 122.818 51.0213 122.822 51.0636 122.821C51.1181 122.824 51.1723 122.811 51.2197 122.784C51.2383 122.772 51.2533 122.756 51.2632 122.736C51.2732 122.716 51.2777 122.695 51.2764 122.673C51.2771 122.651 51.2725 122.63 51.263 122.61C51.2544 122.594 51.2426 122.58 51.2285 122.568C51.2139 122.556 51.1976 122.546 51.1803 122.538C51.1624 122.53 51.1439 122.523 51.1251 122.515L51.0275 122.481Z" fill="#BABABD"/>
<path d="M51.855 122.481C51.8223 122.469 51.7906 122.454 51.7601 122.437C51.733 122.422 51.7085 122.402 51.6877 122.379C51.667 122.355 51.6513 122.328 51.6413 122.299C51.6294 122.262 51.6238 122.224 51.6247 122.186C51.6237 122.138 51.6331 122.09 51.6523 122.046C51.67 122.006 51.6968 121.971 51.7304 121.944C51.7661 121.915 51.8074 121.893 51.8517 121.881C51.9035 121.866 51.9572 121.859 52.0111 121.86C52.062 121.86 52.1127 121.864 52.1626 121.874C52.2126 121.884 52.2618 121.898 52.3099 121.915C52.3033 121.976 52.2863 122.036 52.2596 122.092L52.2114 122.074C52.1945 122.067 52.177 122.062 52.1593 122.058C52.1388 122.054 52.1181 122.05 52.0972 122.048C52.0709 122.045 52.0445 122.044 52.0181 122.044C51.9999 122.044 51.9817 122.046 51.9638 122.049C51.9463 122.052 51.9295 122.057 51.9141 122.066C51.899 122.075 51.8865 122.088 51.8777 122.103C51.8676 122.122 51.8628 122.144 51.8638 122.166C51.8632 122.184 51.867 122.202 51.8747 122.218C51.882 122.232 51.8924 122.244 51.905 122.254C51.9179 122.264 51.9322 122.273 51.9475 122.279C51.9632 122.286 51.9778 122.292 51.9947 122.299L52.0896 122.335C52.1293 122.35 52.1657 122.366 52.1984 122.383C52.2294 122.398 52.2574 122.419 52.2811 122.445C52.3046 122.471 52.3225 122.501 52.3339 122.535C52.3476 122.576 52.3541 122.62 52.353 122.664C52.3532 122.714 52.3429 122.763 52.3227 122.809C52.3036 122.852 52.2748 122.89 52.2384 122.921C52.1982 122.954 52.1519 122.979 52.102 122.995C52.0415 123.013 51.9784 123.022 51.915 123.021C51.8805 123.021 51.8496 123.021 51.822 123.018C51.7959 123.016 51.7699 123.013 51.7441 123.008C51.7192 123.003 51.695 122.997 51.6707 122.99C51.6465 122.983 51.6213 122.974 51.595 122.963C51.5986 122.931 51.6044 122.9 51.6122 122.869C51.6207 122.836 51.6307 122.803 51.6426 122.77C51.6829 122.786 51.7246 122.799 51.7671 122.809C51.808 122.818 51.8498 122.823 51.8917 122.823C51.9462 122.826 52.0004 122.813 52.0478 122.786C52.0664 122.774 52.0814 122.757 52.0914 122.738C52.1014 122.718 52.106 122.696 52.1048 122.674C52.1055 122.653 52.1008 122.631 52.0911 122.612C52.0826 122.596 52.0709 122.581 52.0566 122.57C52.0419 122.558 52.0257 122.548 52.0084 122.54C51.9905 122.532 51.9723 122.524 51.9532 122.517L51.855 122.481Z" fill="#BABABD"/>
<path d="M52.5168 121.879C52.5538 121.873 52.5912 121.869 52.6287 121.869C52.6673 121.869 52.7058 121.873 52.7439 121.879V122.804H53.1379C53.1411 122.821 53.1432 122.838 53.1442 122.855C53.1442 122.871 53.1442 122.887 53.1442 122.901C53.1442 122.916 53.1442 122.934 53.1442 122.95C53.1432 122.967 53.1411 122.984 53.1379 123.001H52.5168V121.879Z" fill="#BABABD"/>
<path d="M53.6384 121.879H54.2819C54.2882 121.91 54.2913 121.942 54.2913 121.974C54.2914 122.007 54.2883 122.04 54.2819 122.072H53.8694V122.315H54.1973C54.2035 122.347 54.2066 122.38 54.2067 122.412C54.2068 122.445 54.2036 122.478 54.1973 122.511H53.8694V122.807H54.2937C54.3001 122.839 54.3034 122.871 54.3034 122.903C54.3034 122.936 54.3002 122.969 54.2937 123.001H53.6384V121.879Z" fill="#BABABD"/>
<path d="M54.4761 121.879C54.5067 121.873 54.5379 121.869 54.5691 121.869C54.6019 121.869 54.6346 121.873 54.6667 121.879L55.1053 122.594V121.879C55.1412 121.873 55.1776 121.869 55.2141 121.869C55.2458 121.869 55.2775 121.872 55.3086 121.879V123.001C55.2787 123.007 55.2482 123.01 55.2177 123.01C55.1855 123.01 55.1533 123.007 55.1216 123.001L54.68 122.287V123.001C54.6462 123.007 54.612 123.01 54.5776 123.01C54.5437 123.01 54.51 123.007 54.4767 123.001L54.4761 121.879Z" fill="#BABABD"/>
<path d="M56.2801 122.789C56.2937 122.818 56.305 122.848 56.3138 122.879C56.3228 122.909 56.3295 122.94 56.3338 122.972C56.286 122.99 56.2366 123.003 56.1862 123.011C56.1394 123.017 56.0922 123.02 56.0449 123.02C55.9645 123.022 55.8846 123.007 55.81 122.977C55.7451 122.95 55.6872 122.909 55.6406 122.857C55.5937 122.804 55.5585 122.741 55.5373 122.674C55.5136 122.599 55.502 122.521 55.5027 122.443C55.502 122.364 55.5142 122.286 55.5388 122.211C55.5612 122.143 55.5968 122.08 55.6437 122.026C55.69 121.973 55.7477 121.932 55.8125 121.904C55.8845 121.874 55.9622 121.859 56.0404 121.86C56.087 121.86 56.1336 121.863 56.1798 121.87C56.2273 121.877 56.2737 121.891 56.318 121.909C56.3158 121.94 56.3094 121.97 56.2989 121.999C56.2883 122.029 56.2768 122.059 56.2644 122.089C56.2324 122.078 56.1997 122.069 56.1665 122.063C56.1331 122.057 56.0994 122.054 56.0655 122.055C55.9645 122.055 55.887 122.087 55.8331 122.152C55.7791 122.217 55.7521 122.314 55.7518 122.442C55.7518 122.696 55.8607 122.823 56.0783 122.823C56.1126 122.823 56.1469 122.82 56.1807 122.815C56.2145 122.809 56.2477 122.8 56.2801 122.789Z" fill="#BABABD"/>
<path d="M56.5168 121.879C56.5632 121.873 56.6078 121.869 56.6469 121.865C56.686 121.861 56.7323 121.86 56.7817 121.86C56.8392 121.86 56.8965 121.865 56.953 121.875C57.0064 121.885 57.0576 121.904 57.1045 121.931C57.1495 121.957 57.1871 121.994 57.2139 122.039C57.2437 122.091 57.2581 122.151 57.2558 122.211C57.2564 122.248 57.2511 122.286 57.24 122.321C57.222 122.377 57.19 122.427 57.1469 122.467C57.1305 122.482 57.1125 122.496 57.0933 122.508L57.0666 122.525L57.3424 122.999L57.2764 123.006C57.2533 123.008 57.2294 123.009 57.2054 123.009C57.1658 123.009 57.1263 123.006 57.0872 122.999L56.792 122.478L56.8299 122.459C56.8448 122.452 56.8627 122.443 56.8836 122.431C56.9053 122.419 56.9257 122.405 56.9442 122.388C56.9642 122.37 56.9809 122.349 56.9936 122.326C57.0119 122.288 57.0182 122.246 57.0118 122.205C57.0053 122.164 56.9864 122.125 56.9575 122.095C56.9156 122.063 56.8637 122.047 56.8108 122.049C56.7897 122.049 56.7687 122.05 56.7478 122.053V123.001C56.7287 123.003 56.7099 123.005 56.6908 123.006C56.6717 123.008 56.6535 123.009 56.6357 123.009C56.6178 123.009 56.599 123.009 56.579 123.007C56.559 123.005 56.5384 123.004 56.5184 123.001L56.5168 121.879Z" fill="#BABABD"/>
<path d="M57.6945 122.6L57.3411 121.879C57.3849 121.873 57.4292 121.87 57.4735 121.87C57.5141 121.87 57.5547 121.873 57.5947 121.879L57.8187 122.39L58.0394 121.879C58.0789 121.873 58.119 121.87 58.1591 121.87C58.1997 121.87 58.2402 121.873 58.2803 121.879L57.9272 122.6V123.002C57.907 123.005 57.8868 123.008 57.8666 123.009C57.8478 123.009 57.8287 123.009 57.8099 123.009C57.7911 123.009 57.7733 123.009 57.7539 123.009C57.7345 123.009 57.7148 123.005 57.6932 123.002L57.6945 122.6Z" fill="#BABABD"/>
<path d="M58.4055 121.874C58.454 121.87 58.5028 121.866 58.5522 121.864C58.6016 121.861 58.6516 121.86 58.7022 121.86C58.7559 121.86 58.8093 121.865 58.862 121.875C58.9143 121.885 58.9641 121.905 59.0086 121.934C59.0538 121.964 59.0905 122.006 59.1153 122.054C59.145 122.116 59.159 122.184 59.1562 122.252C59.1591 122.32 59.1451 122.388 59.1153 122.45C59.0905 122.498 59.0542 122.539 59.0096 122.57C58.9662 122.599 58.917 122.62 58.8653 122.63C58.8136 122.64 58.761 122.645 58.7083 122.645C58.6947 122.645 58.6819 122.645 58.6698 122.645C58.6577 122.645 58.6462 122.645 58.6359 122.643V123.003C58.6165 123.006 58.597 123.008 58.5774 123.009C58.5586 123.009 58.5401 123.011 58.5222 123.011C58.5043 123.011 58.487 123.011 58.467 123.009C58.447 123.007 58.4267 123.006 58.4064 123.003L58.4055 121.874ZM58.6359 122.452C58.6476 122.454 58.6594 122.455 58.6713 122.455H58.7116C58.7377 122.455 58.7637 122.451 58.7889 122.445C58.8133 122.438 58.8361 122.427 58.8559 122.411C58.8761 122.394 58.892 122.373 58.9023 122.349C58.9146 122.319 58.9205 122.287 58.9195 122.255C58.9205 122.222 58.9146 122.188 58.9023 122.157C58.8925 122.133 58.8772 122.112 58.8575 122.095C58.8378 122.078 58.8143 122.065 58.7889 122.059C58.7637 122.052 58.7377 122.049 58.7116 122.049H58.6792L58.6359 122.053V122.452Z" fill="#BABABD"/>
<path d="M59.5472 122.072H59.2651C59.2585 122.04 59.2553 122.007 59.2554 121.974C59.2554 121.942 59.2586 121.91 59.2651 121.879H60.0613C60.0676 121.91 60.0707 121.942 60.0707 121.974C60.0708 122.007 60.0677 122.04 60.0613 122.072H59.7791V123.002C59.76 123.004 59.7412 123.006 59.7221 123.008C59.703 123.009 59.6848 123.01 59.667 123.01C59.6491 123.01 59.63 123.01 59.6094 123.008C59.5888 123.006 59.5682 123.005 59.5472 123.002V122.072Z" fill="#BABABD"/>
<path d="M60.218 121.879C60.2561 121.872 60.2946 121.869 60.3332 121.869C60.3723 121.869 60.4113 121.873 60.4499 121.879V123.001C60.3731 123.013 60.2948 123.013 60.218 123.001V121.879Z" fill="#BABABD"/>
<path d="M61.1347 123.02C61.0587 123.021 60.9834 123.006 60.914 122.976C60.8546 122.948 60.8026 122.907 60.7625 122.856C60.721 122.801 60.6908 122.739 60.6734 122.673C60.6529 122.598 60.6428 122.521 60.6431 122.443C60.6428 122.365 60.653 122.287 60.6734 122.211C60.6906 122.144 60.7209 122.081 60.7625 122.026C60.8023 121.974 60.8543 121.932 60.914 121.904C60.9839 121.875 61.0589 121.861 61.1347 121.861C61.2104 121.861 61.2854 121.875 61.3553 121.904C61.4151 121.932 61.4671 121.974 61.5069 122.026C61.5484 122.081 61.5787 122.144 61.596 122.211C61.6163 122.287 61.6265 122.365 61.6263 122.443C61.6266 122.521 61.6164 122.598 61.596 122.673C61.5786 122.739 61.5483 122.801 61.5069 122.856C61.4667 122.907 61.4148 122.948 61.3553 122.976C61.286 123.006 61.2106 123.021 61.1347 123.02ZM61.1347 122.829C61.2977 122.829 61.3792 122.7 61.379 122.442C61.379 122.313 61.3587 122.216 61.3183 122.152C61.2997 122.12 61.2726 122.095 61.2402 122.078C61.2078 122.061 61.1713 122.053 61.1347 122.055C60.9698 122.055 60.8873 122.184 60.8871 122.442C60.8869 122.7 60.9694 122.829 61.1347 122.829Z" fill="#BABABD"/>
<path d="M61.8162 121.879C61.8468 121.873 61.878 121.869 61.9092 121.869C61.942 121.869 61.9746 121.873 62.0068 121.879L62.4454 122.594V121.879C62.4813 121.873 62.5177 121.869 62.5542 121.869C62.5859 121.869 62.6176 121.872 62.6487 121.879V123.001C62.6187 123.007 62.5883 123.01 62.5578 123.01C62.5256 123.01 62.4934 123.007 62.4617 123.001L62.0201 122.287V123.001C61.9863 123.007 61.9521 123.01 61.9177 123.01C61.8838 123.01 61.85 123.007 61.8168 123.001L61.8162 121.879Z" fill="#BABABD"/>
<path fill-rule="evenodd" clip-rule="evenodd" d="M70.1235 119.706L69.4319 117.649H69.7276L70.0581 118.662C70.149 118.94 70.2276 119.19 70.2844 119.432H70.291C70.3506 119.193 70.4389 118.934 70.5329 118.665L70.8917 117.649H71.1842L70.4261 119.706H70.1235Z" fill="#C7C7C7"/>
<path fill-rule="evenodd" clip-rule="evenodd" d="M71.3283 119.017C71.3349 119.38 71.5736 119.529 71.8507 119.529C72.0489 119.529 72.1681 119.496 72.2722 119.453L72.3194 119.645C72.2219 119.688 72.0551 119.737 71.8128 119.737C71.3442 119.737 71.064 119.438 71.064 118.992C71.064 118.546 71.3345 118.196 71.778 118.196C72.2749 118.196 72.4072 118.62 72.4072 118.892C72.4072 118.946 72.4007 118.989 72.398 119.017H71.3283ZM72.1398 118.824C72.1433 118.653 72.0675 118.387 71.7563 118.387C71.4761 118.387 71.3538 118.638 71.3318 118.824H72.1398Z" fill="#C7C7C7"/>
<path fill-rule="evenodd" clip-rule="evenodd" d="M72.6242 118.69C72.6242 118.516 72.6211 118.367 72.6118 118.229H72.8541L72.8634 118.519H72.8757C72.945 118.321 73.1114 118.196 73.2972 118.196C73.3285 118.196 73.351 118.199 73.3758 118.205V118.458C73.3475 118.452 73.3193 118.449 73.2813 118.449C73.0867 118.449 72.9485 118.592 72.9106 118.794C72.904 118.831 72.8978 118.873 72.8978 118.919V119.707H72.6242V118.69Z" fill="#C7C7C7"/>
<path fill-rule="evenodd" clip-rule="evenodd" d="M73.848 117.814C73.8511 117.906 73.7818 117.979 73.6719 117.979C73.5744 117.979 73.5051 117.906 73.5051 117.814C73.5051 117.719 73.5775 117.646 73.6781 117.646C73.7818 117.646 73.848 117.72 73.848 117.814ZM73.5396 118.229H73.8167V119.706H73.5396V118.229Z" fill="#C7C7C7"/>
<path fill-rule="evenodd" clip-rule="evenodd" d="M74.1767 119.706V118.433H73.9626V118.229H74.1767V118.159C74.1767 117.951 74.2239 117.762 74.3527 117.642C74.4565 117.545 74.5946 117.505 74.7239 117.505C74.8214 117.505 74.9062 117.527 74.9596 117.548L74.9216 117.756C74.881 117.737 74.8241 117.722 74.7455 117.722C74.5099 117.722 74.4499 117.923 74.4499 118.149V118.228H74.8175V118.433H74.4499V119.706H74.1767V119.706Z" fill="#C7C7C7"/>
<path fill-rule="evenodd" clip-rule="evenodd" d="M75.4 117.814C75.4035 117.906 75.3338 117.979 75.2239 117.979C75.1264 117.979 75.0571 117.906 75.0571 117.814C75.0571 117.719 75.1299 117.646 75.2301 117.646C75.3338 117.646 75.4 117.72 75.4 117.814ZM75.0919 118.229H75.3687V119.706H75.0919V118.229Z" fill="#C7C7C7"/>
<path fill-rule="evenodd" clip-rule="evenodd" d="M75.8564 119.017C75.863 119.38 76.1017 119.529 76.3788 119.529C76.577 119.529 76.6962 119.496 76.8003 119.453L76.8475 119.645C76.75 119.688 76.5828 119.737 76.3409 119.737C75.8722 119.737 75.592 119.438 75.592 118.992C75.592 118.546 75.8626 118.196 76.3061 118.196C76.803 118.196 76.9349 118.62 76.9349 118.892C76.9349 118.946 76.9288 118.989 76.9257 119.017H75.8564ZM76.6675 118.824C76.6706 118.653 76.5952 118.387 76.284 118.387C76.0038 118.387 75.8815 118.638 75.8591 118.824H76.6675Z" fill="#C7C7C7"/>
<path fill-rule="evenodd" clip-rule="evenodd" d="M78.4661 117.539V119.325C78.4661 119.456 78.4692 119.605 78.4785 119.706H78.23L78.2173 119.45H78.2107C78.1259 119.614 77.9406 119.739 77.6917 119.739C77.3241 119.739 77.0408 119.437 77.0408 118.988C77.0377 118.497 77.3523 118.195 77.7235 118.195C77.956 118.195 78.1135 118.302 78.1824 118.42H78.189V117.539H78.4661V117.539ZM78.189 118.83C78.189 118.796 78.1859 118.751 78.1766 118.717C78.136 118.546 77.9847 118.405 77.7772 118.405C77.4913 118.405 77.3214 118.65 77.3214 118.976C77.3214 119.275 77.4723 119.523 77.7711 119.523C77.9564 119.523 78.1263 119.404 78.1766 119.202C78.1859 119.166 78.189 119.129 78.189 119.086V118.83Z" fill="#C7C7C7"/>
<path fill-rule="evenodd" clip-rule="evenodd" d="M79.4929 119.706C79.4995 119.605 79.5053 119.455 79.5053 119.324V117.539H79.7789V118.467H79.7855C79.883 118.302 80.0591 118.195 80.3045 118.195C80.6822 118.195 80.9492 118.5 80.9461 118.949C80.9461 119.477 80.6032 119.739 80.2634 119.739C80.0432 119.739 79.8667 119.657 79.7541 119.462H79.7448L79.7321 119.706H79.4929V119.706ZM79.7789 119.114C79.7789 119.147 79.7855 119.181 79.7917 119.211C79.8451 119.397 80.0053 119.525 80.2065 119.525C80.496 119.525 80.6686 119.297 80.6686 118.958C80.6686 118.662 80.5115 118.408 80.2158 118.408C80.0274 118.408 79.8513 118.533 79.7944 118.738C79.7878 118.769 79.7785 118.805 79.7785 118.848V119.114H79.7789Z" fill="#C7C7C7"/>
<path fill-rule="evenodd" clip-rule="evenodd" d="M81.2489 118.229L81.5821 119.102C81.6169 119.199 81.6549 119.315 81.6796 119.404H81.6862C81.7144 119.315 81.7458 119.202 81.7837 119.096L82.0856 118.229H82.3781L81.9629 119.282C81.7648 119.789 81.6297 120.048 81.4408 120.207C81.3054 120.323 81.1703 120.368 81.1011 120.38L81.0318 120.154C81.1011 120.133 81.192 120.09 81.274 120.023C81.3495 119.965 81.4436 119.861 81.507 119.724C81.5194 119.696 81.5291 119.675 81.5291 119.66C81.5291 119.645 81.5225 119.623 81.5101 119.59L80.947 118.228H81.2489V118.229Z" fill="#C7C7C7"/>
<path fill-rule="evenodd" clip-rule="evenodd" d="M74.0234 120.715L73.1844 122.774L72.845 121.023C72.8059 120.828 72.6484 120.715 72.4735 120.715H71.1016L71.083 120.802C71.3644 120.862 71.6844 120.957 71.8783 121.059C71.9967 121.122 72.0308 121.177 72.0691 121.326L72.7123 123.74H73.5649L74.871 120.715H74.0234V120.715Z" fill="#C7C7C7"/>
<path fill-rule="evenodd" clip-rule="evenodd" d="M75.2166 120.715L74.5505 123.74H75.3567L76.0219 120.715H75.2166Z" fill="#C7C7C7"/>
<path fill-rule="evenodd" clip-rule="evenodd" d="M77.08 121.553C77.0827 121.444 77.1891 121.329 77.4221 121.299C77.5382 121.284 77.8559 121.273 78.2178 121.434L78.359 120.793C78.1651 120.724 77.9147 120.658 77.6047 120.658C76.8071 120.658 76.2471 121.07 76.2421 121.659C76.2379 122.094 76.6431 122.337 76.948 122.482C77.2622 122.63 77.3679 122.724 77.366 122.858C77.3644 123.061 77.1156 123.15 76.8841 123.153C76.4782 123.159 76.2433 123.047 76.0552 122.963L75.9097 123.626C76.0974 123.71 76.4457 123.783 76.8068 123.787C77.6523 123.787 78.2065 123.38 78.2096 122.752C78.2127 121.953 77.0718 121.909 77.08 121.553Z" fill="#C7C7C7"/>
<path fill-rule="evenodd" clip-rule="evenodd" d="M79.4146 122.668L79.8431 121.532L80.0842 122.668H79.4146ZM79.7208 120.715C79.566 120.715 79.4352 120.801 79.3771 120.937L78.1677 123.74H79.0149L79.1832 123.288H80.2154L80.3121 123.74H81.0598L80.4096 120.715H79.7208Z" fill="#C7C7C7"/>
<defs>
<filter id="filter0_ddiii" x="0.0113897" y="0.341638" width="157.105" height="300.341" filterUnits="userSpaceOnUse" color-interpolation-filters="sRGB">
<feFlood flood-opacity="0" result="BackgroundImageFix"/>
<feColorMatrix in="SourceAlpha" type="matrix" values="0 0 0 0 0 0 0 0 0 0 0 0 0 0 0 0 0 0 127 0" result="hardAlpha"/>
<feOffset dy="0.273996"/>
<feGaussianBlur stdDeviation="0.821988"/>
<feColorMatrix type="matrix" values="0 0 0 0 0.0784314 0 0 0 0 0.105882 0 0 0 0 0.160784 0 0 0 0.08 0"/>
<feBlend mode="normal" in2="BackgroundImageFix" result="effect1_dropShadow"/>
<feColorMatrix in="SourceAlpha" type="matrix" values="0 0 0 0 0 0 0 0 0 0 0 0 0 0 0 0 0 0 127 0" result="hardAlpha"/>
<feOffset dx="-9.86386" dy="7.46639"/>
<feGaussianBlur stdDeviation="8.56238"/>
<feColorMatrix type="matrix" values="0 0 0 0 0.00443437 0 0 0 0 0.00171874 0 0 0 0 0.1375 0 0 0 0.1 0"/>
<feBlend mode="normal" in2="effect1_dropShadow" result="effect2_dropShadow"/>
<feBlend mode="normal" in="SourceGraphic" in2="effect2_dropShadow" result="shape"/>
<feColorMatrix in="SourceAlpha" type="matrix" values="0 0 0 0 0 0 0 0 0 0 0 0 0 0 0 0 0 0 127 0" result="hardAlpha"/>
<feOffset dy="1.64398"/>
<feGaussianBlur stdDeviation="0.787739"/>
<feComposite in2="hardAlpha" operator="arithmetic" k2="-1" k3="1"/>
<feColorMatrix type="matrix" values="0 0 0 0 0.6125 0 0 0 0 0.6125 0 0 0 0 0.6125 0 0 0 0.16 0"/>
<feBlend mode="normal" in2="shape" result="effect3_innerShadow"/>
<feColorMatrix in="SourceAlpha" type="matrix" values="0 0 0 0 0 0 0 0 0 0 0 0 0 0 0 0 0 0 127 0" result="hardAlpha"/>
<feOffset dy="-1.64398"/>
<feGaussianBlur stdDeviation="0.787739"/>
<feComposite in2="hardAlpha" operator="arithmetic" k2="-1" k3="1"/>
<feColorMatrix type="matrix" values="0 0 0 0 0.611765 0 0 0 0 0.611765 0 0 0 0 0.611765 0 0 0 0.16 0"/>
<feBlend mode="normal" in2="effect3_innerShadow" result="effect4_innerShadow"/>
<feColorMatrix in="SourceAlpha" type="matrix" values="0 0 0 0 0 0 0 0 0 0 0 0 0 0 0 0 0 0 127 0" result="hardAlpha"/>
<feOffset dx="0.273996" dy="0.273996"/>
<feGaussianBlur stdDeviation="0.856238"/>
<feComposite in2="hardAlpha" operator="arithmetic" k2="-1" k3="1"/>
<feColorMatrix type="matrix" values="0 0 0 0 0.85 0 0 0 0 0.85 0 0 0 0 0.85 0 0 0 0.7 0"/>
<feBlend mode="normal" in2="effect4_innerShadow" result="effect5_innerShadow"/>
</filter>
<linearGradient id="paint0_linear" x1="132.006" y1="25.5601" x2="36.2392" y2="194.589" gradientUnits="userSpaceOnUse">
<stop stop-color="white"/>
<stop offset="1" stop-color="#F7F7F7"/>
</linearGradient>
</defs>
</svg>
