<svg width="223" height="248" viewBox="0 0 223 248" fill="none" xmlns="http://www.w3.org/2000/svg">
<g filter="url(#filter0_ddiii)">
<rect x="13.6025" y="5.48584" width="164.527" height="341.181" rx="25.4992" fill="url(#paint0_linear)"/>
</g>
<rect x="22.193" y="14.9055" width="147.346" height="322.755" rx="19.2519" fill="#DEF3FF"/>
<path d="M178.13 64.2415C179.715 64.2415 181 65.5265 181 67.1117V84.4791C181 86.0643 179.715 87.3493 178.13 87.3493V64.2415Z" fill="#F4F3F3"/>
<path d="M177.867 98.9644C179.099 98.9644 180.097 99.9631 180.097 101.195V117.916C180.097 119.148 179.099 120.146 177.867 120.146V98.9644Z" fill="#F4F3F3"/>
<path d="M177.864 120.146C179.096 120.146 180.095 121.145 180.095 122.377V139.097C180.095 140.329 179.096 141.328 177.864 141.328V120.146Z" fill="#F4F3F3"/>
<path d="M63.3416 14.9055H128.39V20.6791C128.39 24.1998 125.536 27.0539 122.016 27.0539H69.7164C66.1956 27.0539 63.3416 24.1998 63.3416 20.6791V14.9055Z" fill="white"/>
<rect x="30.3589" y="51.8354" width="129.056" height="121.719" rx="11.5532" fill="white"/>
<path d="M49.879 60.0121C49.7634 59.8861 49.6194 59.7921 49.46 59.7383C49.2605 59.6684 49.0508 59.6347 48.8403 59.6388H47.486V63.2121H48.0072V61.9415H48.8403C49.0508 61.9456 49.2605 61.9119 49.46 61.842C49.6194 61.7882 49.7634 61.6941 49.879 61.5682C49.9727 61.4615 50.0463 61.3375 50.0961 61.2027C50.1894 60.9366 50.1894 60.6449 50.0961 60.3788C50.0465 60.2436 49.9728 60.1192 49.879 60.0121ZM48.0072 60.1548H48.7974C49.1116 60.1548 49.3338 60.2164 49.4587 60.3382C49.5176 60.3967 49.5645 60.4669 49.5966 60.5447C49.6286 60.6225 49.6451 60.7062 49.6451 60.7908C49.6451 60.8754 49.6286 60.9591 49.5966 61.0369C49.5645 61.1147 49.5176 61.1849 49.4587 61.2434C49.3325 61.3652 49.1116 61.4267 48.7974 61.4267H48.0072V60.1548Z" fill="black"/>
<path d="M52.3048 60.862C52.2004 60.7547 52.0767 60.6699 51.9407 60.6124C51.8047 60.5548 51.6591 60.5257 51.5122 60.5266C51.3556 60.5271 51.2007 60.5602 51.0567 60.6241C50.9127 60.6881 50.7826 60.7814 50.6741 60.8986C50.552 61.0302 50.457 61.1862 50.3949 61.3571C50.3329 61.5281 50.305 61.7104 50.3131 61.8928C50.305 62.0753 50.3329 62.2576 50.3949 62.4285C50.457 62.5995 50.552 62.7555 50.6741 62.887C50.7833 63.0051 50.9145 63.0989 51.0596 63.1628C51.2047 63.2268 51.3608 63.2595 51.5185 63.259C51.6654 63.26 51.811 63.2308 51.947 63.1733C52.083 63.1158 52.2068 63.0309 52.3111 62.9237L52.3578 63.2093H52.8198V60.5764H52.3578L52.3048 60.862ZM52.2922 61.3859V62.3998C52.2033 62.5074 52.0932 62.5941 51.9693 62.654C51.8455 62.7138 51.7107 62.7455 51.574 62.7469C51.4739 62.7512 51.374 62.7338 51.2807 62.6957C51.1875 62.6575 51.1029 62.5996 51.0326 62.5255C50.8871 62.3501 50.8137 62.1225 50.8281 61.8915C50.8137 61.6606 50.8871 61.433 51.0326 61.2575C51.1029 61.1835 51.1875 61.1255 51.2807 61.0874C51.374 61.0493 51.4739 61.0318 51.574 61.0362C51.7109 61.0379 51.8458 61.0699 51.9697 61.1303C52.0935 61.1906 52.2035 61.2778 52.2922 61.3859Z" fill="black"/>
<path d="M54.4267 62.5389L53.6757 60.5767H53.114L54.1465 63.2056L53.7161 64.3557H54.2474L55.7583 60.5767H55.1966L54.4267 62.5389Z" fill="#313235"/>
<path d="M59.344 59.6387H56.5054V60.1495H57.664V63.2081H58.1853V60.1495H59.344V59.6387Z" fill="black"/>
<path d="M60.3929 60.5269C60.2257 60.5173 60.0587 60.5486 59.9052 60.6182C59.7518 60.6878 59.6162 60.7938 59.5094 60.9277C59.3007 61.2158 59.1938 61.5696 59.2065 61.9298C59.1981 62.1066 59.224 62.2833 59.2825 62.4496C59.3411 62.6158 59.4311 62.7682 59.5473 62.8978C59.6663 63.0189 59.8081 63.1134 59.9637 63.1753C60.1194 63.2373 60.2857 63.2654 60.4522 63.258C60.7903 63.2662 61.1246 63.1836 61.4229 63.0183L61.4443 63.0052V62.4616L61.3799 62.5061C61.1426 62.665 60.866 62.7492 60.5835 62.7485C60.364 62.7665 60.1456 62.7014 59.9688 62.5651C59.8413 62.4423 59.7599 62.2766 59.7391 62.0975H61.5895V61.8931C61.5986 61.5447 61.4916 61.2037 61.2865 60.9277C61.1787 60.7924 61.0414 60.6856 60.8861 60.6159C60.7308 60.5463 60.5618 60.5157 60.3929 60.5269ZM59.7353 61.6403C59.7389 61.5516 59.7595 61.4646 59.7959 61.3843C59.8323 61.304 59.8838 61.2321 59.9474 61.1727C60.0709 61.061 60.2291 60.9992 60.3929 60.9985C60.5588 60.9985 60.7191 61.0604 60.8448 61.1727C60.9089 61.2317 60.9609 61.3036 60.9978 61.3839C61.0347 61.4642 61.0556 61.5514 61.0593 61.6403H59.7353Z" fill="black"/>
<path d="M63.3122 60.5267C62.9651 60.5193 62.6288 60.6522 62.3744 60.8974C62.1253 61.164 61.986 61.5208 61.986 61.8922C61.986 62.2636 62.1253 62.6204 62.3744 62.8871C62.6288 63.1322 62.9651 63.2651 63.3122 63.2578C63.6132 63.2561 63.9081 63.1696 64.1654 63.0076L64.1856 62.9945V62.46L64.12 62.5059C63.8934 62.6646 63.626 62.7491 63.3526 62.7482C63.239 62.755 63.1252 62.7376 63.0183 62.6973C62.9113 62.657 62.8133 62.5946 62.7304 62.5137C62.586 62.3416 62.5065 62.1211 62.5065 61.8929C62.5065 61.6646 62.586 61.4441 62.7304 61.272C62.8133 61.1912 62.9113 61.1287 63.0183 61.0884C63.1252 61.0481 63.239 61.0308 63.3526 61.0375C63.626 61.0367 63.8933 61.1212 64.12 61.2798L64.1856 61.3257V60.7899L64.1654 60.7768C63.9081 60.6148 63.6132 60.5283 63.3122 60.5267Z" fill="black"/>
<path d="M66.7567 60.8214C66.6748 60.7238 66.5729 60.6467 66.4584 60.5957C66.3439 60.5446 66.2198 60.5211 66.0953 60.5267C65.935 60.5289 65.7769 60.5649 65.6305 60.6324C65.484 60.7 65.3523 60.7977 65.2433 60.9196V59.4788H64.722V63.2119H65.2433V61.4842C65.4781 61.1855 65.7293 61.0336 65.9905 61.0336C66.3187 61.0336 66.4777 61.2183 66.4777 61.5995V63.2119H66.999V61.5484C67.0068 61.2834 66.9205 61.0247 66.7567 60.8214Z" fill="black"/>
<path d="M38.671 59.3937C39.0418 59.3937 39.3425 59.0817 39.3425 58.6969C39.3425 58.312 39.0418 58 38.671 58C38.3001 58 37.9995 58.312 37.9995 58.6969C37.9995 59.0817 38.3001 59.3937 38.671 59.3937Z" fill="#00D3FF"/>
<path d="M38.671 62.1969C39.0418 62.1969 39.3425 61.8849 39.3425 61.5001C39.3425 61.1152 39.0418 60.8032 38.671 60.8032C38.3001 60.8032 37.9995 61.1152 37.9995 61.5001C37.9995 61.8849 38.3001 62.1969 38.671 62.1969Z" fill="#00D3FF"/>
<path d="M38.671 64.9999C39.0418 64.9999 39.3425 64.6879 39.3425 64.3031C39.3425 63.9182 39.0418 63.6062 38.671 63.6062C38.3001 63.6062 37.9995 63.9182 37.9995 64.3031C37.9995 64.6879 38.3001 64.9999 38.671 64.9999Z" fill="#00D3FF"/>
<path d="M41.3543 59.3937C41.7252 59.3937 42.0258 59.0817 42.0258 58.6969C42.0258 58.312 41.7252 58 41.3543 58C40.9835 58 40.6829 58.312 40.6829 58.6969C40.6829 59.0817 40.9835 59.3937 41.3543 59.3937Z" fill="black"/>
<path d="M41.3543 62.1969C41.7252 62.1969 42.0258 61.8849 42.0258 61.5001C42.0258 61.1152 41.7252 60.8032 41.3543 60.8032C40.9835 60.8032 40.6829 61.1152 40.6829 61.5001C40.6829 61.8849 40.9835 62.1969 41.3543 62.1969Z" fill="black"/>
<path d="M41.3543 64.9999C41.7252 64.9999 42.0258 64.6879 42.0258 64.3031C42.0258 63.9182 41.7252 63.6062 41.3543 63.6062C40.9835 63.6062 40.6829 63.9182 40.6829 64.3031C40.6829 64.6879 40.9835 64.9999 41.3543 64.9999Z" fill="black"/>
<path d="M44.039 59.3937C44.4099 59.3937 44.7105 59.0817 44.7105 58.6969C44.7105 58.312 44.4099 58 44.039 58C43.6682 58 43.3676 58.312 43.3676 58.6969C43.3676 59.0817 43.6682 59.3937 44.039 59.3937Z" fill="black"/>
<path d="M44.039 62.1969C44.4099 62.1969 44.7105 61.8849 44.7105 61.5001C44.7105 61.1152 44.4099 60.8032 44.039 60.8032C43.6682 60.8032 43.3676 61.1152 43.3676 61.5001C43.3676 61.8849 43.6682 62.1969 44.039 62.1969Z" fill="black"/>
<path d="M44.039 64.9999C44.4099 64.9999 44.7105 64.6879 44.7105 64.3031C44.7105 63.9182 44.4099 63.6062 44.039 63.6062C43.6682 63.6062 43.3676 63.9182 43.3676 64.3031C43.3676 64.6879 43.6682 64.9999 44.039 64.9999Z" fill="#4BC6F6"/>
<path d="M53.3141 128.057C53.7274 128.49 54.2441 128.707 54.8641 128.707C55.4774 128.707 55.9908 128.49 56.4041 128.057C56.8174 127.623 57.0241 127.077 57.0241 126.417C57.0241 125.757 56.8174 125.21 56.4041 124.777C55.9908 124.343 55.4774 124.127 54.8641 124.127C54.2441 124.127 53.7274 124.343 53.3141 124.777C52.9074 125.203 52.7041 125.75 52.7041 126.417C52.7041 127.083 52.9074 127.63 53.3141 128.057ZM51.2341 126.417C51.2341 125.39 51.5774 124.53 52.2641 123.837C52.9508 123.13 53.8174 122.777 54.8641 122.777C55.9041 122.777 56.7674 123.13 57.4541 123.837C58.1474 124.543 58.4941 125.403 58.4941 126.417C58.4941 127.423 58.1474 128.283 57.4541 128.997C56.7674 129.703 55.9041 130.057 54.8641 130.057C53.8174 130.057 52.9508 129.703 52.2641 128.997C51.5774 128.29 51.2341 127.43 51.2341 126.417ZM61.1244 129.917H59.7144V124.927H64.5244V129.917H63.1144V126.107H61.1244V129.917ZM69.4458 126.107H67.9058L67.8858 126.807C67.8525 127.547 67.7758 128.13 67.6558 128.557C67.5292 129.003 67.3292 129.347 67.0558 129.587C66.7892 129.82 66.4192 129.943 65.9458 129.957C65.6992 129.957 65.5225 129.927 65.4158 129.867V128.717C65.4892 128.743 65.5858 128.757 65.7058 128.757C66.0325 128.757 66.2492 128.543 66.3558 128.117C66.4558 127.737 66.5092 127.163 66.5158 126.397L66.5458 124.927H70.8558V129.917H69.4458V126.107ZM76.9839 128.827C77.1039 128.827 77.2006 128.807 77.2739 128.767V129.797C77.0939 129.937 76.8406 130.007 76.5139 130.007C75.9473 130.007 75.5706 129.793 75.3839 129.367C74.9439 129.82 74.3706 130.047 73.6639 130.047C73.1173 130.047 72.6739 129.893 72.3339 129.587C71.9939 129.28 71.8239 128.877 71.8239 128.377C71.8239 127.843 72.0173 127.437 72.4039 127.157C72.7906 126.877 73.2539 126.737 73.7939 126.737C74.3606 126.737 74.8406 126.84 75.2339 127.047V126.897C75.2339 126.27 74.7939 125.957 73.9139 125.957C73.3739 125.957 72.8706 126.097 72.4039 126.377V125.197C72.9106 124.93 73.5273 124.797 74.2539 124.797C74.9739 124.797 75.5473 124.97 75.9739 125.317C76.4139 125.663 76.6339 126.143 76.6339 126.757V128.447C76.6339 128.7 76.7506 128.827 76.9839 128.827ZM75.2339 128.447V127.947C74.9406 127.753 74.5939 127.657 74.1939 127.657C73.8939 127.657 73.6539 127.713 73.4739 127.827C73.3006 127.94 73.2139 128.1 73.2139 128.307C73.2139 128.52 73.2939 128.683 73.4539 128.797C73.6139 128.903 73.8306 128.957 74.1039 128.957C74.5973 128.957 74.9739 128.787 75.2339 128.447ZM80.4647 129.917H79.0547V126.107H77.4947V124.927H82.0447V126.107H80.4647V129.917ZM87.6285 128.827C87.7485 128.827 87.8451 128.807 87.9185 128.767V129.797C87.7385 129.937 87.4851 130.007 87.1585 130.007C86.5918 130.007 86.2151 129.793 86.0285 129.367C85.5885 129.82 85.0151 130.047 84.3085 130.047C83.7618 130.047 83.3185 129.893 82.9785 129.587C82.6385 129.28 82.4685 128.877 82.4685 128.377C82.4685 127.843 82.6618 127.437 83.0485 127.157C83.4351 126.877 83.8985 126.737 84.4385 126.737C85.0051 126.737 85.4851 126.84 85.8785 127.047V126.897C85.8785 126.27 85.4385 125.957 84.5585 125.957C84.0185 125.957 83.5151 126.097 83.0485 126.377V125.197C83.5551 124.93 84.1718 124.797 84.8985 124.797C85.6185 124.797 86.1918 124.97 86.6185 125.317C87.0585 125.663 87.2785 126.143 87.2785 126.757V128.447C87.2785 128.7 87.3951 128.827 87.6285 128.827ZM85.8785 128.447V127.947C85.5851 127.753 85.2385 127.657 84.8385 127.657C84.5385 127.657 84.2985 127.713 84.1185 127.827C83.9451 127.94 83.8585 128.1 83.8585 128.307C83.8585 128.52 83.9385 128.683 84.0985 128.797C84.2585 128.903 84.4751 128.957 84.7485 128.957C85.2418 128.957 85.6185 128.787 85.8785 128.447ZM92.1027 131.977C91.6894 131.977 91.356 131.91 91.1027 131.777V130.547C91.336 130.68 91.5894 130.747 91.8627 130.747C92.116 130.747 92.326 130.667 92.4927 130.507C92.666 130.353 92.826 130.1 92.9727 129.747L90.8227 124.927H92.3427L93.6627 128.207L94.9127 124.927H96.4027L94.0927 130.437C93.6527 131.463 92.9894 131.977 92.1027 131.977ZM99.4479 130.047C98.7079 130.047 98.0713 129.807 97.5379 129.327C97.0046 128.833 96.7379 128.193 96.7379 127.407C96.7379 126.62 97.0046 125.99 97.5379 125.517C98.0779 125.037 98.7213 124.797 99.4679 124.797C100.015 124.797 100.508 124.907 100.948 125.127V126.327C100.515 126.127 100.091 126.027 99.6779 126.027C99.2379 126.027 98.8679 126.157 98.5679 126.417C98.2746 126.67 98.1279 127.003 98.1279 127.417C98.1279 127.83 98.2779 128.167 98.5779 128.427C98.8779 128.687 99.2446 128.817 99.6779 128.817C100.191 128.817 100.641 128.703 101.028 128.477V129.677C100.561 129.923 100.035 130.047 99.4479 130.047ZM103.634 129.917H102.224V124.927H107.034V129.917H105.624V126.107H103.634V129.917ZM110.856 130.047C110.076 130.047 109.419 129.807 108.886 129.327C108.352 128.847 108.086 128.21 108.086 127.417C108.086 126.677 108.326 126.057 108.806 125.557C109.286 125.05 109.912 124.797 110.686 124.797C111.406 124.797 111.982 125.053 112.416 125.567C112.849 126.08 113.066 126.703 113.066 127.437V127.807H109.486C109.559 128.14 109.742 128.397 110.036 128.577C110.336 128.757 110.709 128.847 111.156 128.847C111.709 128.847 112.242 128.7 112.756 128.407V129.537C112.309 129.877 111.676 130.047 110.856 130.047ZM109.486 126.907H111.676C111.662 126.62 111.559 126.383 111.366 126.197C111.179 126.003 110.932 125.907 110.626 125.907C110.312 125.907 110.052 126 109.846 126.187C109.639 126.367 109.519 126.607 109.486 126.907ZM121.368 129.917H114.148V124.927H115.538V128.737H117.058V124.927H118.438V128.737H119.988V124.927H121.368V129.917ZM124.162 129.917H122.752V124.927H124.162V126.777H126.212V124.927H127.622V129.917H126.212V127.957H124.162V129.917ZM133.752 128.827C133.872 128.827 133.968 128.807 134.042 128.767V129.797C133.862 129.937 133.608 130.007 133.282 130.007C132.715 130.007 132.338 129.793 132.152 129.367C131.712 129.82 131.138 130.047 130.432 130.047C129.885 130.047 129.442 129.893 129.102 129.587C128.762 129.28 128.592 128.877 128.592 128.377C128.592 127.843 128.785 127.437 129.172 127.157C129.558 126.877 130.022 126.737 130.562 126.737C131.128 126.737 131.608 126.84 132.002 127.047V126.897C132.002 126.27 131.562 125.957 130.682 125.957C130.142 125.957 129.638 126.097 129.172 126.377V125.197C129.678 124.93 130.295 124.797 131.022 124.797C131.742 124.797 132.315 124.97 132.742 125.317C133.182 125.663 133.402 126.143 133.402 126.757V128.447C133.402 128.7 133.518 128.827 133.752 128.827ZM132.002 128.447V127.947C131.708 127.753 131.362 127.657 130.962 127.657C130.662 127.657 130.422 127.713 130.242 127.827C130.068 127.94 129.982 128.1 129.982 128.307C129.982 128.52 130.062 128.683 130.222 128.797C130.382 128.903 130.598 128.957 130.872 128.957C131.365 128.957 131.742 128.787 132.002 128.447ZM135.127 129.157C135.127 128.91 135.21 128.703 135.377 128.537C135.55 128.37 135.757 128.287 135.997 128.287C136.237 128.287 136.44 128.37 136.607 128.537C136.774 128.703 136.857 128.91 136.857 129.157C136.857 129.397 136.774 129.603 136.607 129.777C136.44 129.943 136.237 130.027 135.997 130.027C135.757 130.027 135.55 129.943 135.377 129.777C135.21 129.603 135.127 129.397 135.127 129.157ZM136.537 127.587H135.447L135.137 122.917H136.857L136.537 127.587Z" fill="#111111"/>
<path d="M95 89C92.8244 89 90.6977 89.6451 88.8887 90.8538C87.0798 92.0625 85.6699 93.7805 84.8373 95.7905C84.0048 97.8005 83.7869 100.012 84.2114 102.146C84.6358 104.28 85.6835 106.24 87.2218 107.778C88.7602 109.317 90.7202 110.364 92.854 110.789C94.9878 111.213 97.1995 110.995 99.2095 110.163C101.22 109.33 102.937 107.92 104.146 106.111C105.355 104.302 106 102.176 106 100C106 97.0826 104.841 94.2847 102.778 92.2218C100.715 90.1589 97.9174 89 95 89ZM95 109.625C93.0964 109.625 91.2355 109.06 89.6526 108.003C88.0698 106.945 86.8362 105.442 86.1077 103.683C85.3792 101.925 85.1886 99.9893 85.5599 98.1223C85.9313 96.2552 86.848 94.5402 88.1941 93.1941C89.5402 91.848 91.2552 90.9313 93.1223 90.5599C94.9893 90.1886 96.9246 90.3792 98.6833 91.1077C100.442 91.8362 101.945 93.0698 103.003 94.6526C104.061 96.2355 104.625 98.0964 104.625 100C104.625 102.553 103.611 105.001 101.806 106.806C100.001 108.611 97.5527 109.625 95 109.625Z" fill="#17EAB7"/>
<path d="M100.827 96.1639C100.718 96.0589 100.57 96 100.416 96C100.262 96 100.114 96.0589 100.005 96.1639L93.5281 102.393L90.0272 99.0108C89.9204 98.8995 89.7722 98.8336 89.6152 98.8278C89.4582 98.822 89.3052 98.8767 89.1899 98.9798C89.0746 99.083 89.0065 99.2262 89.0004 99.3779C88.9944 99.5296 89.051 99.6774 89.1578 99.7888L93.5281 104L100.827 96.9645C100.882 96.912 100.926 96.8497 100.955 96.781C100.985 96.7123 101 96.6386 101 96.5642C101 96.4898 100.985 96.4161 100.955 96.3474C100.926 96.2787 100.882 96.2163 100.827 96.1639Z" fill="#17EAB7"/>
<defs>
<filter id="filter0_ddiii" x="0.0887985" y="-12.4911" width="228.275" height="404.929" filterUnits="userSpaceOnUse" color-interpolation-filters="sRGB">
<feFlood flood-opacity="0" result="BackgroundImageFix"/>
<feColorMatrix in="SourceAlpha" type="matrix" values="0 0 0 0 0 0 0 0 0 0 0 0 0 0 0 0 0 0 127 0" result="hardAlpha"/>
<feOffset dy="0.509984"/>
<feGaussianBlur stdDeviation="1.52995"/>
<feColorMatrix type="matrix" values="0 0 0 0 0.0784314 0 0 0 0 0.105882 0 0 0 0 0.160784 0 0 0 0.08 0"/>
<feBlend mode="normal" in2="BackgroundImageFix" result="effect1_dropShadow"/>
<feColorMatrix in="SourceAlpha" type="matrix" values="0 0 0 0 0 0 0 0 0 0 0 0 0 0 0 0 0 0 127 0" result="hardAlpha"/>
<feOffset dx="18.3603" dy="13.8971"/>
<feGaussianBlur stdDeviation="15.937"/>
<feColorMatrix type="matrix" values="0 0 0 0 0.00443437 0 0 0 0 0.00171874 0 0 0 0 0.1375 0 0 0 0.1 0"/>
<feBlend mode="normal" in2="effect1_dropShadow" result="effect2_dropShadow"/>
<feBlend mode="normal" in="SourceGraphic" in2="effect2_dropShadow" result="shape"/>
<feColorMatrix in="SourceAlpha" type="matrix" values="0 0 0 0 0 0 0 0 0 0 0 0 0 0 0 0 0 0 127 0" result="hardAlpha"/>
<feOffset dy="3.0599"/>
<feGaussianBlur stdDeviation="1.4662"/>
<feComposite in2="hardAlpha" operator="arithmetic" k2="-1" k3="1"/>
<feColorMatrix type="matrix" values="0 0 0 0 0.6125 0 0 0 0 0.6125 0 0 0 0 0.6125 0 0 0 0.16 0"/>
<feBlend mode="normal" in2="shape" result="effect3_innerShadow"/>
<feColorMatrix in="SourceAlpha" type="matrix" values="0 0 0 0 0 0 0 0 0 0 0 0 0 0 0 0 0 0 127 0" result="hardAlpha"/>
<feOffset dy="3.05335"/>
<feGaussianBlur stdDeviation="1.4662"/>
<feComposite in2="hardAlpha" operator="arithmetic" k2="-1" k3="1"/>
<feColorMatrix type="matrix" values="0 0 0 0 0.611765 0 0 0 0 0.611765 0 0 0 0 0.611765 0 0 0 0.16 0"/>
<feBlend mode="normal" in2="effect3_innerShadow" result="effect4_innerShadow"/>
<feColorMatrix in="SourceAlpha" type="matrix" values="0 0 0 0 0 0 0 0 0 0 0 0 0 0 0 0 0 0 127 0" result="hardAlpha"/>
<feOffset dx="0.509984" dy="0.509984"/>
<feGaussianBlur stdDeviation="1.5937"/>
<feComposite in2="hardAlpha" operator="arithmetic" k2="-1" k3="1"/>
<feColorMatrix type="matrix" values="0 0 0 0 0.85 0 0 0 0 0.85 0 0 0 0 0.85 0 0 0 0.7 0"/>
<feBlend mode="normal" in2="effect4_innerShadow" result="effect5_innerShadow"/>
</filter>
<linearGradient id="paint0_linear" x1="154.226" y1="25.4369" x2="34.2313" y2="246.643" gradientUnits="userSpaceOnUse">
<stop stop-color="white"/>
<stop offset="1" stop-color="#F7F7F7"/>
</linearGradient>
</defs>
</svg>
