<svg width="172" height="190" viewBox="0 0 172 190" fill="none" xmlns="http://www.w3.org/2000/svg">
<g filter="url(#filter0_ddiii)">
<rect x="38" y="11" width="122.856" height="266.093" rx="19.1854" fill="url(#paint0_linear)"/>
</g>
<rect x="44.4155" y="18.3464" width="110.027" height="251.722" rx="14.485" fill="#DEF3FF"/>
<path d="M160.857 56.8245C162.041 56.8245 163 57.784 163 58.9677V72.7034C163 73.8871 162.041 74.8467 160.857 74.8467V56.8245Z" fill="#F4F3F3"/>
<path d="M160.659 83.9055C161.579 83.9055 162.325 84.6513 162.325 85.5712V98.7601C162.325 99.68 161.579 100.426 160.659 100.426V83.9055Z" fill="#F4F3F3"/>
<path d="M160.657 100.426C161.577 100.426 162.323 101.171 162.323 102.091V115.28C162.323 116.2 161.577 116.946 160.657 116.946V100.426Z" fill="#F4F3F3"/>
<path d="M75.1411 18.3464H123.715V23.0248C123.715 25.6738 121.567 27.8212 118.918 27.8212H79.9375C77.2885 27.8212 75.1411 25.6738 75.1411 23.0248V18.3464Z" fill="white"/>
<rect x="51.0002" y="47" width="96.3687" height="94.9304" rx="8.69256" fill="white"/>
<path d="M63.142 52.5339C63.0789 52.4669 63.0004 52.4169 62.9134 52.3883C62.8046 52.3511 62.6902 52.3332 62.5753 52.3354H61.8364V54.2358H62.1208V53.56H62.5753C62.6902 53.5622 62.8046 53.5443 62.9134 53.5071C63.0004 53.4785 63.0789 53.4285 63.142 53.3615C63.1931 53.3047 63.2333 53.2388 63.2605 53.1671C63.3114 53.0256 63.3114 52.8705 63.2605 52.729C63.2334 52.657 63.1932 52.5909 63.142 52.5339ZM62.1208 52.6098H62.5519C62.7234 52.6098 62.8445 52.6426 62.9127 52.7074C62.9449 52.7385 62.9704 52.7758 62.9879 52.8172C63.0054 52.8586 63.0144 52.9031 63.0144 52.9481C63.0144 52.993 63.0054 53.0376 62.9879 53.0789C62.9704 53.1203 62.9449 53.1577 62.9127 53.1887C62.8439 53.2535 62.7234 53.2863 62.5519 53.2863H62.1208V52.6098Z" fill="black"/>
<path d="M64.4655 52.986C64.4086 52.9289 64.3411 52.8838 64.2669 52.8532C64.1927 52.8226 64.1132 52.8071 64.0331 52.8076C63.9477 52.8079 63.8631 52.8255 63.7846 52.8595C63.706 52.8935 63.635 52.9431 63.5759 53.0055C63.5092 53.0754 63.4574 53.1584 63.4236 53.2493C63.3897 53.3402 63.3745 53.4372 63.3789 53.5342C63.3745 53.6313 63.3897 53.7282 63.4236 53.8191C63.4574 53.91 63.5092 53.993 63.5759 54.0629C63.6354 54.1257 63.707 54.1756 63.7862 54.2096C63.8653 54.2436 63.9505 54.261 64.0365 54.2608C64.1167 54.2613 64.1961 54.2458 64.2703 54.2152C64.3445 54.1846 64.412 54.1395 64.469 54.0825L64.4945 54.2343H64.7465V52.8341H64.4945L64.4655 52.986ZM64.4587 53.2646V53.8038C64.4101 53.8611 64.3501 53.9072 64.2825 53.939C64.2149 53.9708 64.1414 53.9877 64.0668 53.9884C64.0122 53.9907 63.9577 53.9814 63.9068 53.9612C63.8559 53.9409 63.8098 53.9101 63.7714 53.8707C63.6921 53.7774 63.652 53.6563 63.6599 53.5335C63.652 53.4107 63.6921 53.2896 63.7714 53.1963C63.8098 53.157 63.8559 53.1261 63.9068 53.1059C63.9577 53.0856 64.0122 53.0763 64.0668 53.0786C64.1415 53.0795 64.2151 53.0966 64.2827 53.1287C64.3503 53.1607 64.4103 53.2071 64.4587 53.2646Z" fill="black"/>
<path d="M65.6231 53.8778L65.2134 52.8342H64.907L65.4703 54.2324L65.2354 54.844H65.5254L66.3496 52.8342H66.0432L65.6231 53.8778Z" fill="#313235"/>
<path d="M68.306 52.3354H66.7573V52.6071H67.3895V54.2338H67.6739V52.6071H68.306V52.3354Z" fill="black"/>
<path d="M68.8781 52.8076C68.7869 52.8025 68.6957 52.8191 68.612 52.8562C68.5283 52.8932 68.4543 52.9496 68.3961 53.0208C68.2822 53.174 68.2239 53.3621 68.2308 53.5537C68.2263 53.6477 68.2404 53.7417 68.2723 53.8301C68.3042 53.9185 68.3533 53.9996 68.4167 54.0685C68.4817 54.1329 68.559 54.1831 68.644 54.2161C68.7289 54.249 68.8196 54.264 68.9105 54.2601C69.0949 54.2644 69.2773 54.2205 69.44 54.1326L69.4517 54.1256V53.8365L69.4166 53.8602C69.2871 53.9447 69.1362 53.9894 68.9821 53.9891C68.8623 53.9987 68.7432 53.964 68.6467 53.8915C68.5772 53.8263 68.5328 53.7381 68.5214 53.6428H69.5309V53.5342C69.5359 53.3489 69.4775 53.1675 69.3656 53.0208C69.3068 52.9488 69.2319 52.892 69.1472 52.8549C69.0624 52.8179 68.9702 52.8017 68.8781 52.8076ZM68.5193 53.3997C68.5213 53.3526 68.5325 53.3063 68.5524 53.2636C68.5723 53.2209 68.6004 53.1826 68.635 53.151C68.7024 53.0916 68.7887 53.0588 68.8781 53.0584C68.9686 53.0584 69.0561 53.0913 69.1246 53.151C69.1596 53.1824 69.188 53.2206 69.2081 53.2634C69.2282 53.3061 69.2396 53.3524 69.2417 53.3997H68.5193Z" fill="black"/>
<path d="M70.4709 52.8075C70.2815 52.8036 70.0981 52.8743 69.9593 53.0047C69.8233 53.1465 69.7473 53.3362 69.7473 53.5338C69.7473 53.7313 69.8233 53.921 69.9593 54.0628C70.0981 54.1932 70.2815 54.2639 70.4709 54.26C70.6351 54.2591 70.796 54.2131 70.9364 54.1269L70.9474 54.12V53.8357L70.9116 53.8601C70.788 53.9446 70.6421 53.9895 70.4929 53.989C70.4309 53.9926 70.3689 53.9834 70.3105 53.9619C70.2522 53.9405 70.1987 53.9073 70.1534 53.8643C70.0747 53.7728 70.0313 53.6555 70.0313 53.5341C70.0313 53.4127 70.0747 53.2955 70.1534 53.2039C70.1987 53.1609 70.2522 53.1277 70.3105 53.1063C70.3689 53.0848 70.4309 53.0756 70.4929 53.0792C70.6421 53.0788 70.7879 53.1237 70.9116 53.2081L70.9474 53.2325V52.9476L70.9364 52.9406C70.796 52.8544 70.6351 52.8084 70.4709 52.8075Z" fill="black"/>
<path d="M72.3503 52.9643C72.3056 52.9124 72.25 52.8714 72.1875 52.8442C72.1251 52.8171 72.0574 52.8046 71.9894 52.8075C71.902 52.8087 71.8157 52.8279 71.7358 52.8638C71.6559 52.8997 71.5841 52.9517 71.5246 53.0165V52.2502H71.2402V54.2356H71.5246V53.3168C71.6527 53.1579 71.7897 53.0771 71.9323 53.0771C72.1113 53.0771 72.1981 53.1754 72.1981 53.3781V54.2356H72.4825V53.3509C72.4867 53.21 72.4397 53.0724 72.3503 52.9643Z" fill="black"/>
<path d="M57.0272 52.2051C57.2296 52.2051 57.3936 52.0392 57.3936 51.8345C57.3936 51.6298 57.2296 51.4639 57.0272 51.4639C56.8249 51.4639 56.6609 51.6298 56.6609 51.8345C56.6609 52.0392 56.8249 52.2051 57.0272 52.2051Z" fill="#00D3FF"/>
<path d="M57.0272 53.6958C57.2296 53.6958 57.3936 53.5299 57.3936 53.3252C57.3936 53.1205 57.2296 52.9546 57.0272 52.9546C56.8249 52.9546 56.6609 53.1205 56.6609 53.3252C56.6609 53.5299 56.8249 53.6958 57.0272 53.6958Z" fill="#00D3FF"/>
<path d="M57.0272 55.1868C57.2296 55.1868 57.3936 55.0208 57.3936 54.8162C57.3936 54.6115 57.2296 54.4456 57.0272 54.4456C56.8249 54.4456 56.6609 54.6115 56.6609 54.8162C56.6609 55.0208 56.8249 55.1868 57.0272 55.1868Z" fill="#00D3FF"/>
<path d="M58.4911 52.2051C58.6934 52.2051 58.8574 52.0392 58.8574 51.8345C58.8574 51.6298 58.6934 51.4639 58.4911 51.4639C58.2888 51.4639 58.1248 51.6298 58.1248 51.8345C58.1248 52.0392 58.2888 52.2051 58.4911 52.2051Z" fill="black"/>
<path d="M58.4911 53.6958C58.6934 53.6958 58.8574 53.5299 58.8574 53.3252C58.8574 53.1205 58.6934 52.9546 58.4911 52.9546C58.2888 52.9546 58.1248 53.1205 58.1248 53.3252C58.1248 53.5299 58.2888 53.6958 58.4911 53.6958Z" fill="black"/>
<path d="M58.4911 55.1868C58.6934 55.1868 58.8574 55.0208 58.8574 54.8162C58.8574 54.6115 58.6934 54.4456 58.4911 54.4456C58.2888 54.4456 58.1248 54.6115 58.1248 54.8162C58.1248 55.0208 58.2888 55.1868 58.4911 55.1868Z" fill="black"/>
<path d="M59.9559 52.2051C60.1583 52.2051 60.3223 52.0392 60.3223 51.8345C60.3223 51.6298 60.1583 51.4639 59.9559 51.4639C59.7536 51.4639 59.5896 51.6298 59.5896 51.8345C59.5896 52.0392 59.7536 52.2051 59.9559 52.2051Z" fill="black"/>
<path d="M59.9559 53.6958C60.1583 53.6958 60.3223 53.5299 60.3223 53.3252C60.3223 53.1205 60.1583 52.9546 59.9559 52.9546C59.7536 52.9546 59.5896 53.1205 59.5896 53.3252C59.5896 53.5299 59.7536 53.6958 59.9559 53.6958Z" fill="black"/>
<path d="M59.9559 55.1868C60.1583 55.1868 60.3223 55.0208 60.3223 54.8162C60.3223 54.6115 60.1583 54.4456 59.9559 54.4456C59.7536 54.4456 59.5896 54.6115 59.5896 54.8162C59.5896 55.0208 59.7536 55.1868 59.9559 55.1868Z" fill="#4BC6F6"/>
<path d="M101.943 85C101.617 84.9997 101.294 85.064 100.993 85.1894C100.691 85.3148 100.418 85.4987 100.187 85.7307C99.956 85.9627 99.773 86.2382 99.648 86.5414C99.523 86.8447 99.4587 87.1697 99.4586 87.498C99.4582 87.8266 99.5223 88.1521 99.647 88.4557C99.7718 88.7593 99.9548 89.0352 100.186 89.2676C100.416 89.4999 100.69 89.6842 100.992 89.8097C101.294 89.9353 101.617 89.9998 101.943 89.9995C102.27 89.9994 102.592 89.9346 102.894 89.8088C103.195 89.683 103.469 89.4987 103.699 89.2664C103.929 89.0341 104.112 88.7583 104.237 88.4549C104.361 88.1515 104.425 87.8263 104.425 87.498C104.425 86.8356 104.163 86.2003 103.698 85.7319C103.232 85.2635 102.601 85.0002 101.943 85ZM95.5611 85.3632C95.3065 85.3632 95.0544 85.4136 94.8192 85.5117C94.584 85.6098 94.3703 85.7535 94.1902 85.9348C94.0102 86.116 93.8674 86.3311 93.77 86.5679C93.6726 86.8047 93.6224 87.0585 93.6224 87.3148C93.6224 87.5711 93.6726 87.8248 93.77 88.0616C93.8674 88.2984 94.0102 88.5135 94.1902 88.6948C94.3703 88.876 94.584 89.0197 94.8192 89.1178C95.0544 89.2159 95.3065 89.2664 95.5611 89.2663C95.8157 89.2664 96.0678 89.2159 96.303 89.1178C96.5382 89.0197 96.7519 88.876 96.9319 88.6948C97.1119 88.5135 97.2547 88.2984 97.3521 88.0616C97.4495 87.8248 97.4997 87.5711 97.4997 87.3148C97.4997 87.0585 97.4496 86.8047 97.3521 86.5679C97.2547 86.3311 97.1119 86.116 96.9319 85.9348C96.7519 85.7536 96.5382 85.6098 96.303 85.5117C96.0678 85.4136 95.8157 85.3632 95.5611 85.3632ZM91.2387 89.4598C90.8315 89.4604 90.4411 89.6238 90.1535 89.914C89.8658 90.2042 89.7044 90.5975 89.7047 91.0075C89.7044 91.4175 89.8658 91.8108 90.1535 92.101C90.4411 92.3912 90.8315 92.5546 91.2387 92.5552C91.4407 92.5553 91.6406 92.5154 91.8272 92.4377C92.0138 92.36 92.1834 92.246 92.3262 92.1022C92.469 91.9585 92.5822 91.7878 92.6594 91.6C92.7366 91.4121 92.7763 91.2108 92.7762 91.0075C92.7763 90.8042 92.7366 90.6029 92.6594 90.4151C92.5822 90.2272 92.469 90.0566 92.3262 89.9128C92.1834 89.7691 92.0138 89.6551 91.8272 89.5773C91.6406 89.4996 91.4407 89.4597 91.2387 89.4598ZM106.573 89.8807C106.177 89.8806 105.786 89.959 105.42 90.1113C105.055 90.2636 104.723 90.4869 104.443 90.7683C104.164 91.0498 103.942 91.3839 103.791 91.7517C103.64 92.1194 103.562 92.5135 103.562 92.9116C103.562 93.3096 103.64 93.7038 103.791 94.0715C103.942 94.4393 104.164 94.7734 104.443 95.0548C104.723 95.3363 105.055 95.5595 105.42 95.7119C105.786 95.8642 106.177 95.9425 106.573 95.9425C106.968 95.9425 107.359 95.8641 107.725 95.7118C108.09 95.5595 108.422 95.3363 108.702 95.0548C108.981 94.7734 109.203 94.4392 109.354 94.0715C109.506 93.7038 109.583 93.3096 109.583 92.9116C109.583 92.5135 109.506 92.1194 109.354 91.7517C109.203 91.3839 108.981 91.0498 108.702 90.7683C108.422 90.4869 108.09 90.2636 107.725 90.1113C107.359 89.959 106.968 89.8807 106.573 89.8807ZM90.2104 94.4016C90.0514 94.4013 89.8939 94.4326 89.7469 94.4938C89.5999 94.5549 89.4664 94.6446 89.3539 94.7578C89.2415 94.871 89.1523 95.0055 89.0916 95.1534C89.0309 95.3014 88.9997 95.46 89 95.62C89.0002 95.7798 89.0316 95.9381 89.0926 96.0856C89.1535 96.2332 89.2427 96.3672 89.3551 96.4801C89.4675 96.5929 89.6009 96.6823 89.7477 96.7433C89.8945 96.8042 90.0517 96.8354 90.2104 96.8351C90.5304 96.8348 90.8372 96.7066 91.0635 96.4788C91.2898 96.251 91.4171 95.9422 91.4174 95.62C91.4177 95.4602 91.3867 95.302 91.3262 95.1542C91.2656 95.0065 91.1768 94.8722 91.0647 94.7591C90.9526 94.6459 90.8195 94.5561 90.6729 94.4948C90.5263 94.4334 90.3692 94.4018 90.2104 94.4016ZM91.6804 98.9259C91.3864 98.9265 91.1047 99.0444 90.8968 99.2536C90.6889 99.4629 90.5718 99.7466 90.5712 100.043C90.5709 100.339 90.6876 100.624 90.8956 100.834C91.1036 101.044 91.3858 101.162 91.6804 101.163C91.8266 101.163 91.9713 101.134 92.1063 101.078C92.2414 101.021 92.3641 100.939 92.4674 100.835C92.5707 100.731 92.6527 100.607 92.7086 100.471C92.7644 100.335 92.7931 100.19 92.793 100.043C92.7924 99.746 92.6748 99.4618 92.4662 99.2525C92.2576 99.0431 91.975 98.9256 91.6804 98.9259ZM95.1194 101.947C95.0051 101.946 94.8919 101.969 94.7863 102.013C94.6806 102.057 94.5847 102.121 94.5038 102.203C94.423 102.284 94.3589 102.381 94.3153 102.487C94.2717 102.593 94.2493 102.707 94.2495 102.822C94.25 103.054 94.3419 103.276 94.505 103.44C94.6682 103.603 94.8892 103.695 95.1194 103.695C95.3491 103.694 95.5692 103.602 95.7316 103.439C95.8939 103.275 95.9854 103.053 95.9859 102.822C95.9863 102.59 95.8952 102.368 95.7327 102.204C95.5703 102.04 95.3496 101.947 95.1194 101.947ZM98.5853 102.856C98.5107 102.856 98.4369 102.871 98.368 102.9C98.2992 102.929 98.2367 102.972 98.1841 103.025C98.1315 103.078 98.0898 103.141 98.0615 103.211C98.0331 103.28 98.0187 103.355 98.0189 103.43C98.0193 103.581 98.0791 103.726 98.1853 103.833C98.2914 103.939 98.4352 104 98.5853 104C98.66 104 98.7339 103.986 98.8029 103.957C98.8719 103.929 98.9347 103.887 98.9876 103.834C99.0405 103.781 99.0825 103.718 99.1113 103.649C99.14 103.579 99.1549 103.505 99.1551 103.43C99.1554 103.354 99.1408 103.28 99.1122 103.21C99.0837 103.14 99.0417 103.077 98.9888 103.024C98.9358 102.97 98.8729 102.928 98.8037 102.899C98.7344 102.871 98.6602 102.856 98.5853 102.856Z" fill="#212121"/>
<defs>
<filter id="filter0_ddiii" x="0.204674" y="-2.52574" width="170.82" height="314.056" filterUnits="userSpaceOnUse" color-interpolation-filters="sRGB">
<feFlood flood-opacity="0" result="BackgroundImageFix"/>
<feColorMatrix in="SourceAlpha" type="matrix" values="0 0 0 0 0 0 0 0 0 0 0 0 0 0 0 0 0 0 127 0" result="hardAlpha"/>
<feOffset dy="0.383709"/>
<feGaussianBlur stdDeviation="1.15113"/>
<feColorMatrix type="matrix" values="0 0 0 0 0.0784314 0 0 0 0 0.105882 0 0 0 0 0.160784 0 0 0 0.08 0"/>
<feBlend mode="normal" in2="BackgroundImageFix" result="effect1_dropShadow"/>
<feColorMatrix in="SourceAlpha" type="matrix" values="0 0 0 0 0 0 0 0 0 0 0 0 0 0 0 0 0 0 127 0" result="hardAlpha"/>
<feOffset dx="-13.8135" dy="10.4561"/>
<feGaussianBlur stdDeviation="11.9909"/>
<feColorMatrix type="matrix" values="0 0 0 0 0.00443437 0 0 0 0 0.00171874 0 0 0 0 0.1375 0 0 0 0.1 0"/>
<feBlend mode="normal" in2="effect1_dropShadow" result="effect2_dropShadow"/>
<feBlend mode="normal" in="SourceGraphic" in2="effect2_dropShadow" result="shape"/>
<feColorMatrix in="SourceAlpha" type="matrix" values="0 0 0 0 0 0 0 0 0 0 0 0 0 0 0 0 0 0 127 0" result="hardAlpha"/>
<feOffset dy="2.30225"/>
<feGaussianBlur stdDeviation="1.10316"/>
<feComposite in2="hardAlpha" operator="arithmetic" k2="-1" k3="1"/>
<feColorMatrix type="matrix" values="0 0 0 0 0.6125 0 0 0 0 0.6125 0 0 0 0 0.6125 0 0 0 0.16 0"/>
<feBlend mode="normal" in2="shape" result="effect3_innerShadow"/>
<feColorMatrix in="SourceAlpha" type="matrix" values="0 0 0 0 0 0 0 0 0 0 0 0 0 0 0 0 0 0 127 0" result="hardAlpha"/>
<feOffset dy="-2.30225"/>
<feGaussianBlur stdDeviation="1.10316"/>
<feComposite in2="hardAlpha" operator="arithmetic" k2="-1" k3="1"/>
<feColorMatrix type="matrix" values="0 0 0 0 0.611765 0 0 0 0 0.611765 0 0 0 0 0.611765 0 0 0 0.16 0"/>
<feBlend mode="normal" in2="effect3_innerShadow" result="effect4_innerShadow"/>
<feColorMatrix in="SourceAlpha" type="matrix" values="0 0 0 0 0 0 0 0 0 0 0 0 0 0 0 0 0 0 127 0" result="hardAlpha"/>
<feOffset dx="0.383709" dy="0.383709"/>
<feGaussianBlur stdDeviation="1.19909"/>
<feComposite in2="hardAlpha" operator="arithmetic" k2="-1" k3="1"/>
<feColorMatrix type="matrix" values="0 0 0 0 0.85 0 0 0 0 0.85 0 0 0 0 0.85 0 0 0 0.7 0"/>
<feBlend mode="normal" in2="effect4_innerShadow" result="effect5_innerShadow"/>
</filter>
<linearGradient id="paint0_linear" x1="143.007" y1="26.5602" x2="47.2392" y2="195.59" gradientUnits="userSpaceOnUse">
<stop stop-color="white"/>
<stop offset="1" stop-color="#F7F7F7"/>
</linearGradient>
</defs>
</svg>
