<svg width="171" height="177" viewBox="0 0 171 177" fill="none" xmlns="http://www.w3.org/2000/svg">
<g filter="url(#filter0_ddiii)">
<rect x="38" y="10" width="122.856" height="266.093" rx="19.0408" fill="url(#paint0_linear)"/>
</g>
<rect x="44.4153" y="17.3464" width="110.027" height="251.722" rx="14.3758" fill="#DEF3FF"/>
<path d="M160.856 55.8242C162.04 55.8242 162.999 56.7838 162.999 57.9675V71.7032C162.999 72.8869 162.04 73.8465 160.856 73.8465V55.8242Z" fill="#F4F3F3"/>
<path d="M160.658 82.9055C161.578 82.9055 162.324 83.6513 162.324 84.5712V97.7601C162.324 98.68 161.578 99.4258 160.658 99.4258V82.9055Z" fill="#F4F3F3"/>
<path d="M160.657 99.4255C161.577 99.4255 162.322 100.171 162.322 101.091V114.28C162.322 115.2 161.577 115.946 160.657 115.946V99.4255Z" fill="#F4F3F3"/>
<path d="M75.1418 17.3464H123.715V22.061C123.715 24.69 121.584 26.8212 118.955 26.8212H79.9021C77.2731 26.8212 75.1418 24.69 75.1418 22.061V17.3464Z" fill="white"/>
<rect x="50.5132" y="46.1489" width="96.3687" height="94.9304" rx="8.62703" fill="white"/>
<path d="M98.5005 75C96.8193 75 95.176 75.4985 93.7781 76.4325C92.3803 77.3665 91.2909 78.694 90.6475 80.2472C90.0042 81.8004 89.8358 83.5094 90.1638 85.1583C90.4918 86.8071 91.3013 88.3217 92.4901 89.5104C93.6788 90.6992 95.1934 91.5087 96.8422 91.8367C98.4911 92.1646 100.2 91.9963 101.753 91.353C103.306 90.7096 104.634 89.6202 105.568 88.2223C106.502 86.8245 107 85.1811 107 83.5C107 81.2457 106.105 79.0837 104.511 77.4896C102.917 75.8955 100.755 75 98.5005 75ZM98.5005 90.9375C97.0295 90.9375 95.5915 90.5013 94.3684 89.6841C93.1453 88.8668 92.1921 87.7052 91.6291 86.3462C91.0662 84.9872 90.9189 83.4917 91.2059 82.049C91.4929 80.6063 92.2012 79.281 93.2414 78.2409C94.2815 77.2007 95.6068 76.4924 97.0495 76.2054C98.4922 75.9184 99.9877 76.0657 101.347 76.6286C102.706 77.1916 103.867 78.1449 104.685 79.3679C105.502 80.591 105.938 82.029 105.938 83.5C105.938 85.4725 105.154 87.3643 103.76 88.7591C102.365 90.1539 100.473 90.9375 98.5005 90.9375Z" fill="#17EAB7"/>
<path d="M102.871 81.1025C102.789 81.0368 102.678 81 102.563 81C102.447 81 102.336 81.0368 102.254 81.1025L97.3965 84.9958L94.7709 82.8818C94.6908 82.8122 94.5796 82.771 94.4619 82.7674C94.3441 82.7637 94.2294 82.7979 94.1429 82.8624C94.0564 82.9269 94.0053 83.0164 94.0008 83.1112C93.9963 83.206 94.0388 83.2984 94.1188 83.368L97.3965 86L102.871 81.6028C102.912 81.57 102.945 81.5311 102.967 81.4881C102.989 81.4452 103 81.3991 103 81.3526C103 81.3061 102.989 81.2601 102.967 81.2171C102.945 81.1742 102.912 81.1352 102.871 81.1025Z" fill="#17EAB7" stroke="#17EAB7" stroke-width="0.2"/>
<path d="M62.7487 51.5339C62.6856 51.4669 62.6071 51.4169 62.5201 51.3883C62.4112 51.3511 62.2969 51.3332 62.182 51.3354H61.4431V53.2358H61.7275V52.56H62.182C62.2969 52.5622 62.4112 52.5443 62.5201 52.5071C62.6071 52.4785 62.6856 52.4285 62.7487 52.3615C62.7998 52.3047 62.84 52.2388 62.8672 52.1671C62.918 52.0256 62.918 51.8705 62.8672 51.729C62.8401 51.657 62.7999 51.5909 62.7487 51.5339ZM61.7275 51.6098H62.1586C62.33 51.6098 62.4512 51.6426 62.5194 51.7074C62.5516 51.7385 62.5771 51.7758 62.5946 51.8172C62.6121 51.8586 62.6211 51.9031 62.6211 51.9481C62.6211 51.993 62.6121 52.0376 62.5946 52.0789C62.5771 52.1203 62.5516 52.1577 62.5194 52.1887C62.4506 52.2535 62.33 52.2863 62.1586 52.2863H61.7275V51.6098Z" fill="black"/>
<path d="M64.0722 51.986C64.0153 51.9289 63.9478 51.8838 63.8736 51.8532C63.7994 51.8226 63.7199 51.8071 63.6398 51.8076C63.5543 51.8079 63.4698 51.8255 63.3913 51.8595C63.3127 51.8935 63.2417 51.9431 63.1826 52.0055C63.1159 52.0754 63.0641 52.1584 63.0302 52.2493C62.9964 52.3402 62.9812 52.4372 62.9856 52.5342C62.9812 52.6313 62.9964 52.7282 63.0302 52.8191C63.0641 52.91 63.1159 52.993 63.1826 53.0629C63.2421 53.1257 63.3137 53.1756 63.3929 53.2096C63.472 53.2436 63.5572 53.261 63.6432 53.2608C63.7234 53.2613 63.8028 53.2458 63.877 53.2152C63.9512 53.1846 64.0187 53.1395 64.0757 53.0825L64.1012 53.2343H64.3532V51.8341H64.1012L64.0722 51.986ZM64.0653 52.2646V52.8038C64.0168 52.8611 63.9568 52.9072 63.8892 52.939C63.8216 52.9708 63.7481 52.9877 63.6735 52.9884C63.6189 52.9907 63.5644 52.9814 63.5135 52.9612C63.4626 52.9409 63.4165 52.9101 63.3781 52.8707C63.2987 52.7774 63.2587 52.6563 63.2666 52.5335C63.2587 52.4107 63.2987 52.2896 63.3781 52.1963C63.4165 52.157 63.4626 52.1261 63.5135 52.1059C63.5644 52.0856 63.6189 52.0763 63.6735 52.0786C63.7482 52.0795 63.8218 52.0966 63.8894 52.1287C63.957 52.1607 64.017 52.2071 64.0653 52.2646Z" fill="black"/>
<path d="M65.2298 52.8778L64.8201 51.8342H64.5137L65.077 53.2324L64.8421 53.844H65.132L65.9563 51.8342H65.6499L65.2298 52.8778Z" fill="#313235"/>
<path d="M67.9127 51.3354H66.364V51.6071H66.9962V53.2338H67.2806V51.6071H67.9127V51.3354Z" fill="black"/>
<path d="M68.4848 51.8076C68.3936 51.8025 68.3024 51.8191 68.2187 51.8562C68.135 51.8932 68.061 51.9496 68.0028 52.0208C67.8889 52.174 67.8306 52.3621 67.8375 52.5537C67.833 52.6477 67.8471 52.7417 67.879 52.8301C67.9109 52.9185 67.96 52.9996 68.0234 53.0685C68.0884 53.1329 68.1657 53.1831 68.2506 53.2161C68.3356 53.249 68.4263 53.264 68.5172 53.2601C68.7016 53.2644 68.884 53.2205 69.0467 53.1326L69.0584 53.1256V52.8365L69.0233 52.8602C68.8938 52.9447 68.7429 52.9894 68.5888 52.9891C68.469 52.9987 68.3499 52.964 68.2534 52.8915C68.1839 52.8263 68.1395 52.7381 68.1281 52.6428H69.1376V52.5342C69.1426 52.3489 69.0842 52.1675 68.9723 52.0208C68.9135 51.9488 68.8386 51.892 68.7539 51.8549C68.6691 51.8179 68.5769 51.8017 68.4848 51.8076ZM68.126 52.3997C68.128 52.3526 68.1392 52.3063 68.1591 52.2636C68.179 52.2209 68.207 52.1826 68.2417 52.151C68.3091 52.0916 68.3954 52.0588 68.4848 52.0584C68.5753 52.0584 68.6628 52.0913 68.7313 52.151C68.7663 52.1824 68.7947 52.2206 68.8148 52.2634C68.8349 52.3061 68.8463 52.3524 68.8484 52.3997H68.126Z" fill="black"/>
<path d="M70.0776 51.8075C69.8882 51.8036 69.7047 51.8743 69.5659 52.0047C69.43 52.1465 69.354 52.3362 69.354 52.5338C69.354 52.7313 69.43 52.921 69.5659 53.0628C69.7047 53.1932 69.8882 53.2639 70.0776 53.26C70.2418 53.2591 70.4027 53.2131 70.5431 53.1269L70.5541 53.12V52.8357L70.5183 52.8601C70.3946 52.9446 70.2488 52.9895 70.0996 52.989C70.0376 52.9926 69.9756 52.9834 69.9172 52.9619C69.8588 52.9405 69.8054 52.9073 69.7601 52.8643C69.6814 52.7728 69.638 52.6555 69.638 52.5341C69.638 52.4127 69.6814 52.2955 69.7601 52.2039C69.8054 52.1609 69.8588 52.1277 69.9172 52.1063C69.9756 52.0848 70.0376 52.0756 70.0996 52.0792C70.2488 52.0788 70.3946 52.1237 70.5183 52.2081L70.5541 52.2325V51.9476L70.5431 51.9406C70.4027 51.8544 70.2418 51.8084 70.0776 51.8075Z" fill="black"/>
<path d="M71.9567 51.9643C71.9121 51.9124 71.8565 51.8714 71.794 51.8442C71.7315 51.8171 71.6638 51.8046 71.5959 51.8075C71.5085 51.8087 71.4222 51.8279 71.3423 51.8638C71.2624 51.8997 71.1905 51.9517 71.1311 52.0165V51.2502H70.8467V53.2356H71.1311V52.3168C71.2592 52.1579 71.3962 52.0771 71.5387 52.0771C71.7178 52.0771 71.8045 52.1754 71.8045 52.3781V53.2356H72.0889V52.3509C72.0932 52.21 72.0461 52.0724 71.9567 51.9643Z" fill="black"/>
<path d="M56.6339 51.2051C56.8362 51.2051 57.0003 51.0392 57.0003 50.8345C57.0003 50.6298 56.8362 50.4639 56.6339 50.4639C56.4316 50.4639 56.2676 50.6298 56.2676 50.8345C56.2676 51.0392 56.4316 51.2051 56.6339 51.2051Z" fill="#00D3FF"/>
<path d="M56.6339 52.6958C56.8362 52.6958 57.0003 52.5299 57.0003 52.3252C57.0003 52.1205 56.8362 51.9546 56.6339 51.9546C56.4316 51.9546 56.2676 52.1205 56.2676 52.3252C56.2676 52.5299 56.4316 52.6958 56.6339 52.6958Z" fill="#00D3FF"/>
<path d="M56.6339 54.1865C56.8362 54.1865 57.0003 54.0206 57.0003 53.8159C57.0003 53.6112 56.8362 53.4453 56.6339 53.4453C56.4316 53.4453 56.2676 53.6112 56.2676 53.8159C56.2676 54.0206 56.4316 54.1865 56.6339 54.1865Z" fill="#00D3FF"/>
<path d="M58.0978 51.2051C58.3001 51.2051 58.4641 51.0392 58.4641 50.8345C58.4641 50.6298 58.3001 50.4639 58.0978 50.4639C57.8955 50.4639 57.7314 50.6298 57.7314 50.8345C57.7314 51.0392 57.8955 51.2051 58.0978 51.2051Z" fill="black"/>
<path d="M58.0978 52.6958C58.3001 52.6958 58.4641 52.5299 58.4641 52.3252C58.4641 52.1205 58.3001 51.9546 58.0978 51.9546C57.8955 51.9546 57.7314 52.1205 57.7314 52.3252C57.7314 52.5299 57.8955 52.6958 58.0978 52.6958Z" fill="black"/>
<path d="M58.0978 54.1865C58.3001 54.1865 58.4641 54.0206 58.4641 53.8159C58.4641 53.6112 58.3001 53.4453 58.0978 53.4453C57.8955 53.4453 57.7314 53.6112 57.7314 53.8159C57.7314 54.0206 57.8955 54.1865 58.0978 54.1865Z" fill="black"/>
<path d="M59.5626 51.2051C59.765 51.2051 59.929 51.0392 59.929 50.8345C59.929 50.6298 59.765 50.4639 59.5626 50.4639C59.3603 50.4639 59.1963 50.6298 59.1963 50.8345C59.1963 51.0392 59.3603 51.2051 59.5626 51.2051Z" fill="black"/>
<path d="M59.5626 52.6958C59.765 52.6958 59.929 52.5299 59.929 52.3252C59.929 52.1205 59.765 51.9546 59.5626 51.9546C59.3603 51.9546 59.1963 52.1205 59.1963 52.3252C59.1963 52.5299 59.3603 52.6958 59.5626 52.6958Z" fill="black"/>
<path d="M59.5626 54.1865C59.765 54.1865 59.929 54.0206 59.929 53.8159C59.929 53.6112 59.765 53.4453 59.5626 53.4453C59.3603 53.4453 59.1963 53.6112 59.1963 53.8159C59.1963 54.0206 59.3603 54.1865 59.5626 54.1865Z" fill="#4BC6F6"/>
<path d="M69.0736 104.689C69.3708 105.001 69.7422 105.156 70.188 105.156C70.6289 105.156 70.998 105.001 71.2951 104.689C71.5923 104.378 71.7408 103.985 71.7408 103.51C71.7408 103.036 71.5923 102.643 71.2951 102.331C70.998 102.02 70.6289 101.864 70.188 101.864C69.7422 101.864 69.3708 102.02 69.0736 102.331C68.7813 102.638 68.6351 103.031 68.6351 103.51C68.6351 103.989 68.7813 104.382 69.0736 104.689ZM67.5783 103.51C67.5783 102.772 67.8251 102.154 68.3188 101.655C68.8124 101.147 69.4355 100.893 70.188 100.893C70.9356 100.893 71.5563 101.147 72.05 101.655C72.5484 102.163 72.7976 102.782 72.7976 103.51C72.7976 104.234 72.5484 104.852 72.05 105.365C71.5563 105.873 70.9356 106.127 70.188 106.127C69.4355 106.127 68.8124 105.873 68.3188 105.365C67.8251 104.857 67.5783 104.239 67.5783 103.51ZM74.6886 106.026H73.675V102.439H77.133V106.026H76.1193V103.287H74.6886V106.026ZM80.671 103.287H79.5639L79.5495 103.791C79.5256 104.323 79.4704 104.742 79.3842 105.049C79.2931 105.37 79.1493 105.617 78.9528 105.789C78.7611 105.957 78.4951 106.046 78.1548 106.055C77.9775 106.055 77.8505 106.034 77.7738 105.99V105.164C77.8265 105.183 77.896 105.192 77.9823 105.192C78.2171 105.192 78.3729 105.039 78.4496 104.732C78.5215 104.459 78.5598 104.047 78.5646 103.496L78.5862 102.439H81.6847V106.026H80.671V103.287ZM86.0903 105.243C86.1766 105.243 86.2461 105.228 86.2988 105.2V105.94C86.1694 106.041 85.9873 106.091 85.7525 106.091C85.3451 106.091 85.0743 105.938 84.9401 105.631C84.6237 105.957 84.2116 106.12 83.7035 106.12C83.3105 106.12 82.9918 106.01 82.7474 105.789C82.5029 105.569 82.3807 105.279 82.3807 104.919C82.3807 104.536 82.5197 104.243 82.7977 104.042C83.0757 103.841 83.4088 103.74 83.797 103.74C84.2044 103.74 84.5495 103.814 84.8322 103.963V103.855C84.8322 103.405 84.5159 103.179 83.8833 103.179C83.495 103.179 83.1332 103.28 82.7977 103.481V102.633C83.1619 102.441 83.6053 102.346 84.1277 102.346C84.6453 102.346 85.0575 102.47 85.3642 102.719C85.6806 102.969 85.8387 103.314 85.8387 103.755V104.97C85.8387 105.152 85.9226 105.243 86.0903 105.243ZM84.8322 104.97V104.61C84.6214 104.471 84.3721 104.402 84.0846 104.402C83.8689 104.402 83.6963 104.442 83.5669 104.524C83.4423 104.605 83.38 104.72 83.38 104.869C83.38 105.022 83.4375 105.14 83.5526 105.221C83.6676 105.298 83.8234 105.336 84.0199 105.336C84.3745 105.336 84.6453 105.214 84.8322 104.97ZM88.5927 106.026H87.5791V103.287H86.4576V102.439H89.7286V103.287H88.5927V106.026ZM93.7429 105.243C93.8292 105.243 93.8987 105.228 93.9514 105.2V105.94C93.822 106.041 93.6399 106.091 93.405 106.091C92.9976 106.091 92.7268 105.938 92.5926 105.631C92.2763 105.957 91.8641 106.12 91.3561 106.12C90.9631 106.12 90.6444 106.01 90.3999 105.789C90.1555 105.569 90.0333 105.279 90.0333 104.919C90.0333 104.536 90.1723 104.243 90.4503 104.042C90.7282 103.841 91.0613 103.74 91.4495 103.74C91.8569 103.74 92.202 103.814 92.4848 103.963V103.855C92.4848 103.405 92.1685 103.179 91.5358 103.179C91.1476 103.179 90.7857 103.28 90.4503 103.481V102.633C90.8145 102.441 91.2578 102.346 91.7803 102.346C92.2979 102.346 92.7101 102.47 93.0168 102.719C93.3331 102.969 93.4913 103.314 93.4913 103.755V104.97C93.4913 105.152 93.5752 105.243 93.7429 105.243ZM92.4848 104.97V104.61C92.2739 104.471 92.0247 104.402 91.7371 104.402C91.5214 104.402 91.3489 104.442 91.2195 104.524C91.0949 104.605 91.0326 104.72 91.0326 104.869C91.0326 105.022 91.0901 105.14 91.2051 105.221C91.3201 105.298 91.4759 105.336 91.6724 105.336C92.0271 105.336 92.2979 105.214 92.4848 104.97ZM96.9595 107.507C96.6623 107.507 96.4227 107.459 96.2406 107.364V106.479C96.4083 106.575 96.5905 106.623 96.787 106.623C96.9691 106.623 97.1201 106.566 97.2399 106.451C97.3645 106.34 97.4795 106.158 97.585 105.904L96.0393 102.439H97.132L98.081 104.797L98.9797 102.439H100.051L98.3901 106.4C98.0738 107.138 97.5969 107.507 96.9595 107.507ZM102.24 106.12C101.708 106.12 101.25 105.947 100.867 105.602C100.484 105.248 100.292 104.787 100.292 104.222C100.292 103.656 100.484 103.203 100.867 102.863C101.255 102.518 101.718 102.346 102.255 102.346C102.648 102.346 103.002 102.425 103.319 102.583V103.445C103.007 103.302 102.703 103.23 102.405 103.23C102.089 103.23 101.823 103.323 101.607 103.51C101.397 103.692 101.291 103.932 101.291 104.229C101.291 104.526 101.399 104.768 101.615 104.955C101.83 105.142 102.094 105.236 102.405 105.236C102.775 105.236 103.098 105.154 103.376 104.991V105.854C103.041 106.031 102.662 106.12 102.24 106.12ZM105.25 106.026H104.236V102.439H107.694V106.026H106.68V103.287H105.25V106.026ZM110.441 106.12C109.881 106.12 109.408 105.947 109.025 105.602C108.642 105.257 108.45 104.799 108.45 104.229C108.45 103.697 108.622 103.251 108.968 102.892C109.313 102.528 109.763 102.346 110.319 102.346C110.837 102.346 111.251 102.53 111.563 102.899C111.874 103.268 112.03 103.716 112.03 104.243V104.509H109.456C109.509 104.749 109.641 104.934 109.852 105.063C110.067 105.192 110.336 105.257 110.657 105.257C111.055 105.257 111.438 105.152 111.807 104.941V105.753C111.486 105.998 111.031 106.12 110.441 106.12ZM109.456 103.862H111.031C111.021 103.656 110.947 103.486 110.808 103.352C110.674 103.213 110.496 103.144 110.276 103.144C110.051 103.144 109.864 103.211 109.715 103.345C109.567 103.474 109.48 103.647 109.456 103.862ZM117.999 106.026H112.808V102.439H113.808V105.178H114.9V102.439H115.892V105.178H117.007V102.439H117.999V106.026ZM120.007 106.026H118.994V102.439H120.007V103.769H121.481V102.439H122.495V106.026H121.481V104.617H120.007V106.026ZM126.902 105.243C126.988 105.243 127.057 105.228 127.11 105.2V105.94C126.981 106.041 126.799 106.091 126.564 106.091C126.156 106.091 125.886 105.938 125.751 105.631C125.435 105.957 125.023 106.12 124.515 106.12C124.122 106.12 123.803 106.01 123.559 105.789C123.314 105.569 123.192 105.279 123.192 104.919C123.192 104.536 123.331 104.243 123.609 104.042C123.887 103.841 124.22 103.74 124.608 103.74C125.016 103.74 125.361 103.814 125.644 103.963V103.855C125.644 103.405 125.327 103.179 124.695 103.179C124.306 103.179 123.944 103.28 123.609 103.481V102.633C123.973 102.441 124.417 102.346 124.939 102.346C125.457 102.346 125.869 102.47 126.176 102.719C126.492 102.969 126.65 103.314 126.65 103.755V104.97C126.65 105.152 126.734 105.243 126.902 105.243ZM125.644 104.97V104.61C125.433 104.471 125.183 104.402 124.896 104.402C124.68 104.402 124.508 104.442 124.378 104.524C124.254 104.605 124.191 104.72 124.191 104.869C124.191 105.022 124.249 105.14 124.364 105.221C124.479 105.298 124.635 105.336 124.831 105.336C125.186 105.336 125.457 105.214 125.644 104.97ZM127.891 105.48C127.891 105.303 127.951 105.154 128.07 105.034C128.195 104.914 128.344 104.855 128.516 104.855C128.689 104.855 128.835 104.914 128.955 105.034C129.074 105.154 129.134 105.303 129.134 105.48C129.134 105.653 129.074 105.801 128.955 105.926C128.835 106.046 128.689 106.105 128.516 106.105C128.344 106.105 128.195 106.046 128.07 105.926C127.951 105.801 127.891 105.653 127.891 105.48ZM128.904 104.351H128.121L127.898 100.994H129.134L128.904 104.351Z" fill="#111111"/>
<defs>
<filter id="filter0_ddiii" x="0.489619" y="-3.42377" width="170.458" height="313.695" filterUnits="userSpaceOnUse" color-interpolation-filters="sRGB">
<feFlood flood-opacity="0" result="BackgroundImageFix"/>
<feColorMatrix in="SourceAlpha" type="matrix" values="0 0 0 0 0 0 0 0 0 0 0 0 0 0 0 0 0 0 127 0" result="hardAlpha"/>
<feOffset dy="0.380816"/>
<feGaussianBlur stdDeviation="1.14245"/>
<feColorMatrix type="matrix" values="0 0 0 0 0.0784314 0 0 0 0 0.105882 0 0 0 0 0.160784 0 0 0 0.08 0"/>
<feBlend mode="normal" in2="BackgroundImageFix" result="effect1_dropShadow"/>
<feColorMatrix in="SourceAlpha" type="matrix" values="0 0 0 0 0 0 0 0 0 0 0 0 0 0 0 0 0 0 127 0" result="hardAlpha"/>
<feOffset dx="-13.7094" dy="10.3772"/>
<feGaussianBlur stdDeviation="11.9005"/>
<feColorMatrix type="matrix" values="0 0 0 0 0.00443437 0 0 0 0 0.00171874 0 0 0 0 0.1375 0 0 0 0.1 0"/>
<feBlend mode="normal" in2="effect1_dropShadow" result="effect2_dropShadow"/>
<feBlend mode="normal" in="SourceGraphic" in2="effect2_dropShadow" result="shape"/>
<feColorMatrix in="SourceAlpha" type="matrix" values="0 0 0 0 0 0 0 0 0 0 0 0 0 0 0 0 0 0 127 0" result="hardAlpha"/>
<feOffset dy="2.2849"/>
<feGaussianBlur stdDeviation="1.09485"/>
<feComposite in2="hardAlpha" operator="arithmetic" k2="-1" k3="1"/>
<feColorMatrix type="matrix" values="0 0 0 0 0.6125 0 0 0 0 0.6125 0 0 0 0 0.6125 0 0 0 0.16 0"/>
<feBlend mode="normal" in2="shape" result="effect3_innerShadow"/>
<feColorMatrix in="SourceAlpha" type="matrix" values="0 0 0 0 0 0 0 0 0 0 0 0 0 0 0 0 0 0 127 0" result="hardAlpha"/>
<feOffset dy="-2.2849"/>
<feGaussianBlur stdDeviation="1.09485"/>
<feComposite in2="hardAlpha" operator="arithmetic" k2="-1" k3="1"/>
<feColorMatrix type="matrix" values="0 0 0 0 0.611765 0 0 0 0 0.611765 0 0 0 0 0.611765 0 0 0 0.16 0"/>
<feBlend mode="normal" in2="effect3_innerShadow" result="effect4_innerShadow"/>
<feColorMatrix in="SourceAlpha" type="matrix" values="0 0 0 0 0 0 0 0 0 0 0 0 0 0 0 0 0 0 127 0" result="hardAlpha"/>
<feOffset dx="0.380816" dy="0.380816"/>
<feGaussianBlur stdDeviation="1.19005"/>
<feComposite in2="hardAlpha" operator="arithmetic" k2="-1" k3="1"/>
<feColorMatrix type="matrix" values="0 0 0 0 0.85 0 0 0 0 0.85 0 0 0 0 0.85 0 0 0 0.7 0"/>
<feBlend mode="normal" in2="effect4_innerShadow" result="effect5_innerShadow"/>
</filter>
<linearGradient id="paint0_linear" x1="143.007" y1="25.5602" x2="47.2392" y2="194.59" gradientUnits="userSpaceOnUse">
<stop stop-color="white"/>
<stop offset="1" stop-color="#F7F7F7"/>
</linearGradient>
</defs>
</svg>
