<svg width="223" height="263" viewBox="0 0 223 263" fill="none" xmlns="http://www.w3.org/2000/svg">
<g filter="url(#filter0_ddiii)">
<rect x="13.9658" y="18.6045" width="168.666" height="359.299" rx="18.8082" fill="url(#paint0_linear)"/>
</g>
<rect x="22.7734" y="28.5242" width="151.053" height="339.895" rx="14.2002" fill="#DEF3FF"/>
<path d="M182.633 80.4802C184.258 80.4802 185.575 81.7976 185.575 83.4227V101.873C185.575 103.498 184.258 104.815 182.633 104.815V80.4802Z" fill="#F4F3F3"/>
<path d="M182.361 117.047C183.624 117.047 184.648 118.071 184.648 119.334V137.067C184.648 138.33 183.624 139.354 182.361 139.354V117.047Z" fill="#F4F3F3"/>
<path d="M182.36 139.354C183.623 139.354 184.647 140.377 184.647 141.64V159.374C184.647 160.637 183.623 161.661 182.36 161.661V139.354Z" fill="#F4F3F3"/>
<path d="M64.957 28.5242H131.642V36.6157C131.642 39.2125 129.537 41.3177 126.94 41.3177H69.6591C67.0622 41.3177 64.957 39.2125 64.957 36.6157V28.5242Z" fill="white"/>
<rect x="33.1865" y="200.187" width="130.328" height="22.3419" rx="5.35646" fill="#212121"/>
<path d="M79.4428 212.377C79.8148 212.767 80.2798 212.962 80.8378 212.962C81.3898 212.962 81.8518 212.767 82.2238 212.377C82.5958 211.987 82.7818 211.495 82.7818 210.901C82.7818 210.307 82.5958 209.815 82.2238 209.425C81.8518 209.035 81.3898 208.84 80.8378 208.84C80.2798 208.84 79.8148 209.035 79.4428 209.425C79.0768 209.809 78.8938 210.301 78.8938 210.901C78.8938 211.501 79.0768 211.993 79.4428 212.377ZM77.5708 210.901C77.5708 209.977 77.8798 209.203 78.4978 208.579C79.1158 207.943 79.8958 207.625 80.8378 207.625C81.7738 207.625 82.5508 207.943 83.1688 208.579C83.7928 209.215 84.1048 209.989 84.1048 210.901C84.1048 211.807 83.7928 212.581 83.1688 213.223C82.5508 213.859 81.7738 214.177 80.8378 214.177C79.8958 214.177 79.1158 213.859 78.4978 213.223C77.8798 212.587 77.5708 211.813 77.5708 210.901ZM86.472 214.051H85.203V209.56H89.532V214.051H88.263V210.622H86.472V214.051ZM93.9613 210.622H92.5753L92.5573 211.252C92.5273 211.918 92.4583 212.443 92.3503 212.827C92.2363 213.229 92.0563 213.538 91.8103 213.754C91.5703 213.964 91.2373 214.075 90.8113 214.087C90.5893 214.087 90.4303 214.06 90.3343 214.006V212.971C90.4003 212.995 90.4873 213.007 90.5953 213.007C90.8893 213.007 91.0843 212.815 91.1803 212.431C91.2703 212.089 91.3183 211.573 91.3243 210.883L91.3513 209.56H95.2303V214.051H93.9613V210.622ZM100.746 213.07C100.854 213.07 100.941 213.052 101.007 213.016V213.943C100.845 214.069 100.617 214.132 100.323 214.132C99.8126 214.132 99.4736 213.94 99.3056 213.556C98.9096 213.964 98.3936 214.168 97.7576 214.168C97.2656 214.168 96.8666 214.03 96.5606 213.754C96.2546 213.478 96.1016 213.115 96.1016 212.665C96.1016 212.185 96.2756 211.819 96.6236 211.567C96.9716 211.315 97.3886 211.189 97.8746 211.189C98.3846 211.189 98.8166 211.282 99.1706 211.468V211.333C99.1706 210.769 98.7746 210.487 97.9826 210.487C97.4966 210.487 97.0436 210.613 96.6236 210.865V209.803C97.0796 209.563 97.6346 209.443 98.2886 209.443C98.9366 209.443 99.4526 209.599 99.8366 209.911C100.233 210.223 100.431 210.655 100.431 211.207V212.728C100.431 212.956 100.536 213.07 100.746 213.07ZM99.1706 212.728V212.278C98.9066 212.104 98.5946 212.017 98.2346 212.017C97.9646 212.017 97.7486 212.068 97.5866 212.17C97.4306 212.272 97.3526 212.416 97.3526 212.602C97.3526 212.794 97.4246 212.941 97.5686 213.043C97.7126 213.139 97.9076 213.187 98.1536 213.187C98.5976 213.187 98.9366 213.034 99.1706 212.728ZM103.878 214.051H102.609V210.622H101.205V209.56H105.3V210.622H103.878V214.051ZM107.239 214.051H106.051V209.56H107.302V212.206L109.336 209.56H110.524V214.051H109.273V211.405L107.239 214.051ZM113.951 214.051H112.682V210.622H111.278V209.56H115.373V210.622H113.951V214.051ZM118.535 214.051H116.123V209.56H117.392V210.874H118.472C119.036 210.874 119.486 211.018 119.822 211.306C120.158 211.594 120.326 211.978 120.326 212.458C120.326 212.914 120.17 213.295 119.858 213.601C119.54 213.901 119.099 214.051 118.535 214.051ZM117.392 211.819V213.07H118.274C118.52 213.07 118.712 213.016 118.85 212.908C118.988 212.8 119.057 212.647 119.057 212.449C119.057 212.251 118.988 212.098 118.85 211.99C118.712 211.876 118.52 211.819 118.274 211.819H117.392Z" fill="white"/>
<rect x="31.8135" y="55.0061" width="132.302" height="128.182" rx="8.52164" fill="white"/>
<path d="M67.3419 77.9974C67.6726 78.344 68.0859 78.5174 68.5819 78.5174C69.0726 78.5174 69.4832 78.344 69.8139 77.9974C70.1446 77.6507 70.3099 77.2134 70.3099 76.6854C70.3099 76.1574 70.1446 75.72 69.8139 75.3734C69.4832 75.0267 69.0726 74.8534 68.5819 74.8534C68.0859 74.8534 67.6726 75.0267 67.3419 75.3734C67.0166 75.7147 66.8539 76.152 66.8539 76.6854C66.8539 77.2187 67.0166 77.656 67.3419 77.9974ZM65.6779 76.6854C65.6779 75.864 65.9526 75.176 66.5019 74.6214C67.0512 74.056 67.7446 73.7734 68.5819 73.7734C69.4139 73.7734 70.1046 74.056 70.6539 74.6214C71.2086 75.1867 71.4859 75.8747 71.4859 76.6854C71.4859 77.4907 71.2086 78.1787 70.6539 78.7494C70.1046 79.3147 69.4139 79.5974 68.5819 79.5974C67.7446 79.5974 67.0512 79.3147 66.5019 78.7494C65.9526 78.184 65.6779 77.496 65.6779 76.6854ZM73.5902 79.4854H72.4622V75.4934H73.5902V76.9734H75.2302V75.4934H76.3582V79.4854H75.2302V77.9174H73.5902V79.4854ZM80.2942 76.4374H79.0622L79.0462 76.9974C79.0195 77.5894 78.9582 78.056 78.8622 78.3974C78.7608 78.7547 78.6008 79.0294 78.3822 79.2214C78.1688 79.408 77.8728 79.5067 77.4942 79.5174C77.2968 79.5174 77.1555 79.4934 77.0702 79.4454V78.5254C77.1288 78.5467 77.2062 78.5574 77.3022 78.5574C77.5635 78.5574 77.7368 78.3867 77.8222 78.0454C77.9022 77.7414 77.9448 77.2827 77.9502 76.6694L77.9742 75.4934H81.4222V79.4854H80.2942V76.4374ZM86.3247 78.6134C86.4207 78.6134 86.498 78.5974 86.5567 78.5654V79.3894C86.4127 79.5014 86.21 79.5574 85.9487 79.5574C85.4953 79.5574 85.194 79.3867 85.0447 79.0454C84.6927 79.408 84.234 79.5894 83.6687 79.5894C83.2313 79.5894 82.8767 79.4667 82.6047 79.2214C82.3327 78.976 82.1967 78.6534 82.1967 78.2534C82.1967 77.8267 82.3513 77.5014 82.6607 77.2774C82.97 77.0534 83.3407 76.9414 83.7727 76.9414C84.226 76.9414 84.61 77.024 84.9247 77.1894V77.0694C84.9247 76.568 84.5727 76.3174 83.8687 76.3174C83.4367 76.3174 83.034 76.4294 82.6607 76.6534V75.7094C83.066 75.496 83.5593 75.3894 84.1407 75.3894C84.7167 75.3894 85.1753 75.528 85.5167 75.8054C85.8687 76.0827 86.0447 76.4667 86.0447 76.9574V78.3094C86.0447 78.512 86.138 78.6134 86.3247 78.6134ZM84.9247 78.3094V77.9094C84.69 77.7547 84.4127 77.6774 84.0927 77.6774C83.8527 77.6774 83.6607 77.7227 83.5167 77.8134C83.378 77.904 83.3087 78.032 83.3087 78.1974C83.3087 78.368 83.3727 78.4987 83.5007 78.5894C83.6287 78.6747 83.802 78.7174 84.0207 78.7174C84.4153 78.7174 84.7167 78.5814 84.9247 78.3094ZM88.3932 79.4854H87.3372V75.4934H88.4492V77.8454L90.2572 75.4934H91.3132V79.4854H90.2012V77.1334L88.3932 79.4854ZM89.3212 75.0534C88.8945 75.0534 88.5478 74.9307 88.2812 74.6854C88.0145 74.4347 87.8785 74.1014 87.8732 73.6854H88.7212C88.7212 73.8614 88.7745 74.0027 88.8812 74.1094C88.9878 74.216 89.1318 74.2694 89.3132 74.2694C89.4945 74.2694 89.6358 74.216 89.7372 74.1094C89.8438 74.0027 89.8998 73.8614 89.9052 73.6854H90.7612C90.7558 74.1067 90.6172 74.44 90.3452 74.6854C90.0785 74.9307 89.7372 75.0534 89.3212 75.0534ZM93.5433 79.4854H92.4153V75.4934H93.5433V76.9734H95.1833V75.4934H96.3113V79.4854H95.1833V77.9174H93.5433V79.4854ZM100.59 79.4854H99.4622V75.4934H103.31V79.4854H102.182V76.4374H100.59V79.4854ZM107.247 76.4374H106.015L105.999 76.9974C105.973 77.5894 105.911 78.056 105.815 78.3974C105.714 78.7547 105.554 79.0294 105.335 79.2214C105.122 79.408 104.826 79.5067 104.447 79.5174C104.25 79.5174 104.109 79.4934 104.023 79.4454V78.5254C104.082 78.5467 104.159 78.5574 104.255 78.5574C104.517 78.5574 104.69 78.3867 104.775 78.0454C104.855 77.7414 104.898 77.2827 104.903 76.6694L104.927 75.4934H108.375V79.4854H107.247V76.4374ZM113.278 78.6134C113.374 78.6134 113.451 78.5974 113.51 78.5654V79.3894C113.366 79.5014 113.163 79.5574 112.902 79.5574C112.448 79.5574 112.147 79.3867 111.998 79.0454C111.646 79.408 111.187 79.5894 110.622 79.5894C110.184 79.5894 109.83 79.4667 109.558 79.2214C109.286 78.976 109.15 78.6534 109.15 78.2534C109.15 77.8267 109.304 77.5014 109.614 77.2774C109.923 77.0534 110.294 76.9414 110.726 76.9414C111.179 76.9414 111.563 77.024 111.878 77.1894V77.0694C111.878 76.568 111.526 76.3174 110.822 76.3174C110.39 76.3174 109.987 76.4294 109.614 76.6534V75.7094C110.019 75.496 110.512 75.3894 111.094 75.3894C111.67 75.3894 112.128 75.528 112.47 75.8054C112.822 76.0827 112.998 76.4667 112.998 76.9574V78.3094C112.998 78.512 113.091 78.6134 113.278 78.6134ZM111.878 78.3094V77.9094C111.643 77.7547 111.366 77.6774 111.046 77.6774C110.806 77.6774 110.614 77.7227 110.47 77.8134C110.331 77.904 110.262 78.032 110.262 78.1974C110.262 78.368 110.326 78.4987 110.454 78.5894C110.582 78.6747 110.755 78.7174 110.974 78.7174C111.368 78.7174 111.67 78.5814 111.878 78.3094ZM116.062 79.4854H114.934V76.4374H113.686V75.4934H117.326V76.4374H116.062V79.4854ZM119.945 79.5894C119.321 79.5894 118.796 79.3974 118.369 79.0134C117.943 78.6294 117.729 78.12 117.729 77.4854C117.729 76.8934 117.921 76.3974 118.305 75.9974C118.689 75.592 119.191 75.3894 119.809 75.3894C120.385 75.3894 120.847 75.5947 121.193 76.0054C121.54 76.416 121.713 76.9147 121.713 77.5014V77.7974H118.849C118.908 78.064 119.055 78.2694 119.289 78.4134C119.529 78.5574 119.828 78.6294 120.185 78.6294C120.628 78.6294 121.055 78.512 121.465 78.2774V79.1814C121.108 79.4534 120.601 79.5894 119.945 79.5894ZM118.849 77.0774H120.601C120.591 76.848 120.508 76.6587 120.353 76.5094C120.204 76.3547 120.007 76.2774 119.761 76.2774C119.511 76.2774 119.303 76.352 119.137 76.5014C118.972 76.6454 118.876 76.8374 118.849 77.0774ZM123.264 79.4854H121.928L123.648 77.3574L122.104 75.4934H123.376L124.592 76.9974V75.4934H125.704V76.9974L126.912 75.4934H128.184L126.64 77.3574L128.368 79.4854H127.024L125.704 77.7814V79.4854H124.592V77.7814L123.264 79.4854Z" fill="#111111"/>
<path d="M51.8795 62.7246C51.7639 62.6166 51.6199 62.536 51.4605 62.4899C51.261 62.43 51.0513 62.4011 50.8408 62.4046H49.4865V65.4674H50.0077V64.3784H50.8408C51.0513 64.3818 51.261 64.353 51.4605 64.293C51.6199 64.247 51.7639 64.1663 51.8795 64.0584C51.9732 63.9669 52.0468 63.8607 52.0966 63.7451C52.1899 63.5171 52.1899 63.267 52.0966 63.0389C52.0469 62.923 51.9733 62.8164 51.8795 62.7246ZM50.0077 62.8469H50.7978C51.1121 62.8469 51.3343 62.8997 51.4592 63.0041C51.5181 63.0542 51.565 63.1144 51.5971 63.1811C51.6291 63.2478 51.6456 63.3195 51.6456 63.392C51.6456 63.4645 51.6291 63.5363 51.5971 63.603C51.565 63.6696 51.5181 63.7298 51.4592 63.7799C51.333 63.8844 51.1121 63.9371 50.7978 63.9371H50.0077V62.8469Z" fill="black"/>
<path d="M54.3053 63.4532C54.2009 63.3613 54.0772 63.2886 53.9412 63.2393C53.8052 63.19 53.6596 63.165 53.5127 63.1658C53.3561 63.1662 53.2012 63.1946 53.0572 63.2494C52.9132 63.3042 52.7831 63.3842 52.6746 63.4847C52.5525 63.5974 52.4575 63.7311 52.3954 63.8777C52.3334 64.0242 52.3055 64.1804 52.3136 64.3368C52.3055 64.4932 52.3334 64.6495 52.3954 64.796C52.4575 64.9425 52.5525 65.0762 52.6746 65.189C52.7838 65.2902 52.9149 65.3706 53.0601 65.4254C53.2052 65.4802 53.3613 65.5082 53.519 65.5079C53.6659 65.5087 53.8115 65.4837 53.9475 65.4344C54.0835 65.385 54.2072 65.3123 54.3116 65.2204L54.3583 65.4652H54.8203V63.2085H54.3583L54.3053 63.4532ZM54.2927 63.9023V64.7713C54.2038 64.8636 54.0937 64.9379 53.9698 64.9892C53.8459 65.0405 53.7112 65.0677 53.5745 65.0689C53.4744 65.0726 53.3745 65.0576 53.2812 65.025C53.188 64.9923 53.1034 64.9426 53.0331 64.8791C52.8876 64.7288 52.8142 64.5337 52.8286 64.3357C52.8142 64.1377 52.8876 63.9426 53.0331 63.7923C53.1034 63.7288 53.188 63.6791 53.2812 63.6464C53.3745 63.6138 53.4744 63.5988 53.5745 63.6025C53.7114 63.604 53.8463 63.6315 53.9701 63.6832C54.094 63.7349 54.204 63.8096 54.2927 63.9023Z" fill="black"/>
<path d="M56.427 64.8904L55.676 63.2085H55.1144L56.1468 65.4619L55.7164 66.4476H56.2478L57.7586 63.2085H57.197L56.427 64.8904Z" fill="#313235"/>
<path d="M61.3445 62.4045H58.5059V62.8424H59.6645V65.464H60.1858V62.8424H61.3445V62.4045Z" fill="black"/>
<path d="M62.3934 63.1657C62.2262 63.1575 62.0591 63.1843 61.9057 63.244C61.7522 63.3037 61.6167 63.3945 61.5099 63.5093C61.3012 63.7562 61.1943 64.0595 61.207 64.3682C61.1986 64.5197 61.2245 64.6712 61.283 64.8137C61.3415 64.9562 61.4316 65.0869 61.5478 65.1979C61.6668 65.3018 61.8086 65.3827 61.9642 65.4358C62.1199 65.4889 62.2862 65.5131 62.4527 65.5067C62.7908 65.5137 63.1251 65.4429 63.4233 65.3012L63.4448 65.29V64.8241L63.3804 64.8622C63.1431 64.9984 62.8664 65.0705 62.584 65.0699C62.3645 65.0854 62.1461 65.0296 61.9693 64.9127C61.8418 64.8075 61.7604 64.6655 61.7396 64.5119H63.5899V64.3368C63.5991 64.0381 63.4921 63.7459 63.287 63.5093C63.1791 63.3933 63.0419 63.3018 62.8866 63.242C62.7313 63.1823 62.5623 63.1562 62.3934 63.1657ZM61.7358 64.1201C61.7394 64.0441 61.76 63.9695 61.7964 63.9007C61.8328 63.8318 61.8843 63.7702 61.9479 63.7193C62.0714 63.6235 62.2296 63.5705 62.3934 63.5699C62.5593 63.57 62.7196 63.623 62.8453 63.7193C62.9094 63.7699 62.9614 63.8314 62.9983 63.9003C63.0351 63.9692 63.0561 64.0439 63.0598 64.1201H61.7358Z" fill="black"/>
<path d="M65.3127 63.1658C64.9656 63.1594 64.6293 63.2734 64.3749 63.4835C64.1258 63.7121 63.9865 64.0179 63.9865 64.3363C63.9865 64.6546 64.1258 64.9604 64.3749 65.189C64.6293 65.3991 64.9656 65.5131 65.3127 65.5067C65.6137 65.5053 65.9086 65.4312 66.1659 65.2923L66.1861 65.281V64.823L66.1205 64.8623C65.8939 64.9983 65.6265 65.0707 65.3531 65.07C65.2395 65.0757 65.1257 65.0609 65.0188 65.0264C64.9118 64.9918 64.8138 64.9383 64.7308 64.869C64.5865 64.7214 64.507 64.5324 64.507 64.3368C64.507 64.1412 64.5865 63.9522 64.7308 63.8046C64.8138 63.7354 64.9118 63.6818 65.0188 63.6473C65.1257 63.6127 65.2395 63.5979 65.3531 63.6037C65.6265 63.603 65.8938 63.6754 66.1205 63.8114L66.1861 63.8507V63.3915L66.1659 63.3802C65.9086 63.2413 65.6137 63.1672 65.3127 63.1658Z" fill="black"/>
<path d="M68.7572 63.4184C68.6753 63.3348 68.5734 63.2687 68.4589 63.2249C68.3444 63.1812 68.2203 63.161 68.0958 63.1658C67.9355 63.1677 67.7774 63.1986 67.631 63.2565C67.4845 63.3144 67.3528 63.3981 67.2438 63.5026V62.2676H66.7225V65.4674H67.2438V63.9865C67.4786 63.7305 67.7297 63.6003 67.991 63.6003C68.3192 63.6003 68.4782 63.7586 68.4782 64.0853V65.4674H68.9995V64.0415C69.0072 63.8144 68.921 63.5927 68.7572 63.4184Z" fill="black"/>
<path d="M40.6715 62.1946C41.0423 62.1946 41.3429 61.9272 41.3429 61.5973C41.3429 61.2674 41.0423 61 40.6715 61C40.3006 61 40 61.2674 40 61.5973C40 61.9272 40.3006 62.1946 40.6715 62.1946Z" fill="#00D3FF"/>
<path d="M40.6715 64.5972C41.0423 64.5972 41.3429 64.3298 41.3429 63.9999C41.3429 63.67 41.0423 63.4026 40.6715 63.4026C40.3006 63.4026 40 63.67 40 63.9999C40 64.3298 40.3006 64.5972 40.6715 64.5972Z" fill="#00D3FF"/>
<path d="M40.6715 67C41.0423 67 41.3429 66.7326 41.3429 66.4027C41.3429 66.0728 41.0423 65.8054 40.6715 65.8054C40.3006 65.8054 40 66.0728 40 66.4027C40 66.7326 40.3006 67 40.6715 67Z" fill="#00D3FF"/>
<path d="M43.3548 62.1946C43.7257 62.1946 44.0263 61.9272 44.0263 61.5973C44.0263 61.2674 43.7257 61 43.3548 61C42.984 61 42.6833 61.2674 42.6833 61.5973C42.6833 61.9272 42.984 62.1946 43.3548 62.1946Z" fill="black"/>
<path d="M43.3548 64.5972C43.7257 64.5972 44.0263 64.3298 44.0263 63.9999C44.0263 63.67 43.7257 63.4026 43.3548 63.4026C42.984 63.4026 42.6833 63.67 42.6833 63.9999C42.6833 64.3298 42.984 64.5972 43.3548 64.5972Z" fill="black"/>
<path d="M43.3548 67C43.7257 67 44.0263 66.7326 44.0263 66.4027C44.0263 66.0728 43.7257 65.8054 43.3548 65.8054C42.984 65.8054 42.6833 66.0728 42.6833 66.4027C42.6833 66.7326 42.984 67 43.3548 67Z" fill="black"/>
<path d="M46.0395 62.1946C46.4104 62.1946 46.711 61.9272 46.711 61.5973C46.711 61.2674 46.4104 61 46.0395 61C45.6687 61 45.368 61.2674 45.368 61.5973C45.368 61.9272 45.6687 62.1946 46.0395 62.1946Z" fill="black"/>
<path d="M46.0395 64.5972C46.4104 64.5972 46.711 64.3298 46.711 63.9999C46.711 63.67 46.4104 63.4026 46.0395 63.4026C45.6687 63.4026 45.368 63.67 45.368 63.9999C45.368 64.3298 45.6687 64.5972 46.0395 64.5972Z" fill="black"/>
<path d="M46.0395 67C46.4104 67 46.711 66.7326 46.711 66.4027C46.711 66.0728 46.4104 65.8054 46.0395 65.8054C45.6687 65.8054 45.368 66.0728 45.368 66.4027C45.368 66.7326 45.6687 67 46.0395 67Z" fill="#4BC6F6"/>
<path d="M40.3722 97.8491H40.0572V94.8691H40.3722V96.1079H42.1432V94.8691H42.4583V97.8491H42.1432V96.3932H40.3722V97.8491ZM43.398 96.0611C43.6052 95.8482 43.872 95.7418 44.1983 95.7418C44.5247 95.7418 44.7915 95.8482 44.9987 96.0611C45.2059 96.2683 45.3095 96.5223 45.3095 96.8231C45.3095 97.124 45.2059 97.378 44.9987 97.5852C44.7887 97.7952 44.5219 97.9002 44.1983 97.9002C43.8748 97.9002 43.608 97.7952 43.398 97.5852C43.1908 97.378 43.0872 97.124 43.0872 96.8231C43.0872 96.5223 43.1908 96.2683 43.398 96.0611ZM44.9944 96.8231C44.9944 96.5961 44.9192 96.4045 44.7688 96.2484C44.6184 96.0952 44.4282 96.0185 44.1983 96.0185C43.9685 96.0185 43.7783 96.0952 43.6279 96.2484C43.4775 96.4045 43.4023 96.5961 43.4023 96.8231C43.4023 97.0474 43.4775 97.2375 43.6279 97.3936C43.7783 97.5469 43.9685 97.6235 44.1983 97.6235C44.4282 97.6235 44.6184 97.5469 44.7688 97.3936C44.9192 97.2375 44.9944 97.0474 44.9944 96.8231ZM46.1783 97.8491H45.8803V95.7929H46.1783L47 96.7465L47.8259 95.7929H48.1239V97.8491H47.8259V96.2144L47.0596 97.1041H46.9404L46.1783 96.2144V97.8491ZM49.8321 97.9002C49.5114 97.9002 49.2418 97.7995 49.0233 97.5979C48.8076 97.3993 48.6997 97.141 48.6997 96.8231C48.6997 96.5166 48.7962 96.2598 48.9892 96.0526C49.185 95.8454 49.4362 95.7418 49.7427 95.7418C49.9073 95.7418 50.0535 95.7759 50.1812 95.844C50.3089 95.9093 50.4097 95.9958 50.4835 96.1037C50.5573 96.2115 50.6126 96.3265 50.6495 96.4485C50.6864 96.5677 50.7049 96.6883 50.7049 96.8104V96.8955H49.0148C49.0318 97.1169 49.1198 97.2943 49.2787 97.4277C49.4405 97.5582 49.6448 97.6235 49.8917 97.6235C50.1301 97.6235 50.3501 97.5596 50.5516 97.4319V97.7044C50.3842 97.8349 50.1443 97.9002 49.8321 97.9002ZM49.019 96.6443H50.3941C50.3856 96.4854 50.326 96.3421 50.2153 96.2144C50.1103 96.0838 49.9485 96.0185 49.73 96.0185C49.5256 96.0185 49.3582 96.081 49.2276 96.2058C49.0999 96.3336 49.0304 96.4797 49.019 96.6443ZM51.5873 97.5213V98.7006H51.2808V95.7929H51.5873V96.1207C51.7803 95.8681 52.0457 95.7418 52.3834 95.7418C52.6871 95.7418 52.9354 95.8468 53.1284 96.0568C53.3214 96.2669 53.4179 96.5209 53.4179 96.8189C53.4179 97.1197 53.3214 97.3752 53.1284 97.5852C52.9354 97.7952 52.6871 97.9002 52.3834 97.9002C52.0457 97.9002 51.7803 97.7739 51.5873 97.5213ZM51.5873 96.4826V97.1595C51.6469 97.2957 51.7434 97.4078 51.8768 97.4958C52.0102 97.5809 52.155 97.6235 52.311 97.6235C52.5409 97.6235 52.7297 97.5469 52.8773 97.3936C53.0277 97.2347 53.1029 97.0431 53.1029 96.8189C53.1029 96.5947 53.0277 96.4045 52.8773 96.2484C52.7297 96.0952 52.5409 96.0185 52.311 96.0185C52.1578 96.0185 52.0145 96.0625 51.8811 96.1505C51.7477 96.2356 51.6498 96.3463 51.5873 96.4826ZM55.1098 95.7929H55.4163V96.6401L56.3955 95.7929H56.8127L55.7271 96.721L56.9659 97.8491H56.5274L55.4163 96.8359V97.8491H55.1098V95.7929ZM58.0653 97.6235C58.2072 97.6235 58.3421 97.5909 58.4698 97.5256C58.5975 97.4603 58.7011 97.378 58.7805 97.2787V96.9934C58.5705 96.8572 58.3477 96.7891 58.1122 96.7891C57.9248 96.7891 57.7758 96.826 57.6652 96.8998C57.5573 96.9736 57.5034 97.0743 57.5034 97.202C57.5034 97.3354 57.5559 97.439 57.6609 97.5128C57.7659 97.5866 57.9007 97.6235 58.0653 97.6235ZM57.9802 97.9002C57.7617 97.9002 57.5758 97.8406 57.4225 97.7214C57.2721 97.5965 57.1969 97.4291 57.1969 97.2191C57.1969 97.0119 57.2763 96.8458 57.4353 96.721C57.5942 96.5989 57.7957 96.5379 58.0398 96.5379C58.3066 96.5379 58.5535 96.6046 58.7805 96.738V96.5337C58.7805 96.1902 58.5549 96.0185 58.1036 96.0185C57.8624 96.0185 57.6382 96.0881 57.431 96.2271V95.9291C57.6325 95.8043 57.878 95.7418 58.1675 95.7418C58.4485 95.7418 58.6713 95.8085 58.8359 95.9419C59.0033 96.0725 59.0871 96.2598 59.0871 96.5039V97.351C59.0871 97.4305 59.1041 97.4929 59.1381 97.5383C59.175 97.5838 59.2233 97.6065 59.2829 97.6065C59.3283 97.6065 59.368 97.5979 59.4021 97.5809V97.8193C59.3567 97.8505 59.2886 97.8661 59.1977 97.8661C59.0956 97.8661 59.009 97.8392 58.9381 97.7853C58.8699 97.7285 58.8274 97.6462 58.8103 97.5383C58.6032 97.7796 58.3264 97.9002 57.9802 97.9002ZM60.2056 97.5213V98.7006H59.8991V95.7929H60.2056V96.1207C60.3986 95.8681 60.664 95.7418 61.0017 95.7418C61.3054 95.7418 61.5537 95.8468 61.7467 96.0568C61.9397 96.2669 62.0362 96.5209 62.0362 96.8189C62.0362 97.1197 61.9397 97.3752 61.7467 97.5852C61.5537 97.7952 61.3054 97.9002 61.0017 97.9002C60.664 97.9002 60.3986 97.7739 60.2056 97.5213ZM60.2056 96.4826V97.1595C60.2652 97.2957 60.3617 97.4078 60.4951 97.4958C60.6285 97.5809 60.7733 97.6235 60.9294 97.6235C61.1592 97.6235 61.348 97.5469 61.4956 97.3936C61.646 97.2347 61.7212 97.0431 61.7212 96.8189C61.7212 96.5947 61.646 96.4045 61.4956 96.2484C61.348 96.0952 61.1592 96.0185 60.9294 96.0185C60.7761 96.0185 60.6328 96.0625 60.4994 96.1505C60.366 96.2356 60.2681 96.3463 60.2056 96.4826ZM63.3353 97.8491H63.0287V96.0611H62.2837V95.7929H64.0803V96.0611H63.3353V97.8491ZM66.9012 97.8491H66.5947V95.7929H66.9012V97.8491ZM65.4836 97.8491H64.5513V95.7929H64.8578V96.4826H65.4708C65.7092 96.4826 65.8994 96.545 66.0413 96.6699C66.1832 96.7919 66.2541 96.9565 66.2541 97.1637C66.2541 97.3709 66.186 97.5369 66.0498 97.6618C65.9136 97.7867 65.7248 97.8491 65.4836 97.8491ZM64.8578 96.7508V97.5809H65.4282C65.59 97.5809 65.7163 97.5454 65.8071 97.4745C65.8979 97.4007 65.9434 97.2985 65.9434 97.168C65.9434 97.0346 65.8979 96.9324 65.8071 96.8615C65.7163 96.7877 65.59 96.7508 65.4282 96.7508H64.8578Z" fill="#515151"/>
<rect x="39.7878" y="103.565" width="118.075" height="14.6655" rx="1.0643" fill="white" stroke="#CCD5DF" stroke-width="0.304085"/>
<path d="M41.4621 128.975C41.0278 128.975 40.6631 128.83 40.368 128.54C40.0785 128.251 39.9337 127.882 39.9337 127.434C39.9337 126.988 40.0785 126.62 40.368 126.331C40.6603 126.039 41.025 125.892 41.4621 125.892C41.7856 125.892 42.0638 125.966 42.2965 126.114V126.437C42.0354 126.27 41.7587 126.186 41.4663 126.186C41.1258 126.186 40.8377 126.305 40.6021 126.544C40.3694 126.777 40.253 127.073 40.253 127.434C40.253 127.797 40.3694 128.095 40.6021 128.328C40.8377 128.563 41.1286 128.681 41.4748 128.681C41.8211 128.681 42.1163 128.582 42.3603 128.383V128.711C42.1163 128.887 41.8168 128.975 41.4621 128.975ZM43.2434 128.596V129.775H42.9369V126.867H43.2434V127.195C43.4364 126.943 43.7018 126.816 44.0395 126.816C44.3432 126.816 44.5915 126.921 44.7845 127.131C44.9775 127.341 45.074 127.595 45.074 127.893C45.074 128.194 44.9775 128.45 44.7845 128.66C44.5915 128.87 44.3432 128.975 44.0395 128.975C43.7018 128.975 43.4364 128.848 43.2434 128.596ZM43.2434 127.557V128.234C43.303 128.37 43.3995 128.482 43.5329 128.57C43.6663 128.655 43.811 128.698 43.9671 128.698C44.197 128.698 44.3858 128.621 44.5333 128.468C44.6838 128.309 44.759 128.118 44.759 127.893C44.759 127.669 44.6838 127.479 44.5333 127.323C44.3858 127.17 44.197 127.093 43.9671 127.093C43.8139 127.093 43.6705 127.137 43.5372 127.225C43.4038 127.31 43.3058 127.421 43.2434 127.557ZM45.8051 127.136C46.0123 126.923 46.2791 126.816 46.6055 126.816C46.9319 126.816 47.1987 126.923 47.4058 127.136C47.613 127.343 47.7166 127.597 47.7166 127.898C47.7166 128.198 47.613 128.452 47.4058 128.66C47.1958 128.87 46.929 128.975 46.6055 128.975C46.2819 128.975 46.0152 128.87 45.8051 128.66C45.598 128.452 45.4944 128.198 45.4944 127.898C45.4944 127.597 45.598 127.343 45.8051 127.136ZM47.4016 127.898C47.4016 127.671 47.3264 127.479 47.176 127.323C47.0255 127.17 46.8354 127.093 46.6055 127.093C46.3756 127.093 46.1854 127.17 46.035 127.323C45.8846 127.479 45.8094 127.671 45.8094 127.898C45.8094 128.122 45.8846 128.312 46.035 128.468C46.1854 128.621 46.3756 128.698 46.6055 128.698C46.8354 128.698 47.0255 128.621 47.176 128.468C47.3264 128.312 47.4016 128.122 47.4016 127.898ZM48.2875 126.867H48.594V127.715L49.5731 126.867H49.9904L48.9048 127.795L50.1436 128.924H49.7051L48.594 127.91V128.924H48.2875V126.867ZM51.7387 129.532H51.445V128.655H51.7047C51.9317 128.355 52.0481 127.855 52.0538 127.157L52.058 126.867H53.5863V128.655H53.9695V129.532H53.6715V128.924H51.7387V129.532ZM52.0452 128.655H53.2798V127.136H52.3432V127.259C52.3432 127.872 52.2439 128.338 52.0452 128.655ZM55.4571 128.975C55.1364 128.975 54.8668 128.874 54.6482 128.672C54.4325 128.474 54.3247 128.215 54.3247 127.898C54.3247 127.591 54.4212 127.334 54.6142 127.127C54.81 126.92 55.0612 126.816 55.3677 126.816C55.5323 126.816 55.6785 126.85 55.8062 126.918C55.9339 126.984 56.0347 127.07 56.1085 127.178C56.1823 127.286 56.2376 127.401 56.2745 127.523C56.3114 127.642 56.3298 127.763 56.3298 127.885V127.97H54.6397C54.6568 128.191 54.7447 128.369 54.9037 128.502C55.0654 128.633 55.2698 128.698 55.5167 128.698C55.7551 128.698 55.9751 128.634 56.1766 128.506V128.779C56.0091 128.909 55.7693 128.975 55.4571 128.975ZM54.644 127.719H56.0191C56.0105 127.56 55.9509 127.417 55.8403 127.289C55.7352 127.158 55.5735 127.093 55.3549 127.093C55.1506 127.093 54.9831 127.155 54.8526 127.28C54.7249 127.408 54.6553 127.554 54.644 127.719ZM57.191 128.924H56.9058V126.867H57.2123V128.472L58.5278 126.867H58.813V128.924H58.5065V127.323L57.191 128.924ZM57.8637 126.518C57.6565 126.518 57.489 126.46 57.3613 126.344C57.2336 126.225 57.1683 126.067 57.1655 125.871H57.4379C57.4379 125.99 57.4762 126.087 57.5529 126.161C57.6295 126.234 57.7317 126.271 57.8594 126.271C57.9843 126.271 58.085 126.234 58.1617 126.161C58.2383 126.087 58.278 125.99 58.2809 125.871H58.5491C58.5462 126.064 58.4809 126.22 58.3532 126.339C58.2255 126.459 58.0623 126.518 57.8637 126.518ZM60.4825 128.975C60.1675 128.975 59.9064 128.872 59.6992 128.668C59.492 128.461 59.3884 128.203 59.3884 127.893C59.3884 127.587 59.4934 127.331 59.7035 127.127C59.9106 126.92 60.1717 126.816 60.4868 126.816C60.7252 126.816 60.9324 126.866 61.1083 126.965V127.251C60.9238 127.145 60.7309 127.093 60.5293 127.093C60.2909 127.093 60.0937 127.17 59.9376 127.323C59.7815 127.47 59.7035 127.662 59.7035 127.898C59.7035 128.127 59.7815 128.319 59.9376 128.472C60.0965 128.623 60.2938 128.698 60.5293 128.698C60.7564 128.698 60.9622 128.638 61.1466 128.519V128.8C60.9536 128.916 60.7323 128.975 60.4825 128.975ZM62.5412 128.924H62.2347V127.136H61.4897V126.867H63.2862V127.136H62.5412V128.924ZM64.9109 128.924H63.7572V126.867H64.8385C65.0343 126.867 65.1862 126.916 65.294 127.012C65.4047 127.106 65.4601 127.232 65.4601 127.391C65.4601 127.612 65.3749 127.763 65.2046 127.842C65.4657 127.919 65.5963 128.095 65.5963 128.37C65.5963 128.543 65.5367 128.68 65.4175 128.779C65.2983 128.875 65.1294 128.924 64.9109 128.924ZM64.0637 127.996V128.655H64.847C64.9861 128.655 65.0939 128.627 65.1706 128.57C65.2472 128.513 65.2855 128.433 65.2855 128.328C65.2855 128.223 65.2472 128.142 65.1706 128.085C65.0939 128.025 64.9861 127.996 64.847 127.996H64.0637ZM64.0637 127.136V127.74H64.7534C64.8811 127.74 64.9804 127.715 65.0514 127.663C65.1223 127.61 65.1578 127.534 65.1578 127.438C65.1578 127.236 65.023 127.136 64.7534 127.136H64.0637ZM66.4995 128.924H66.2142V126.867H66.5207V128.472L67.8362 126.867H68.1214V128.924H67.8149V127.323L66.4995 128.924ZM69.0332 128.924H68.6841L69.2971 128.102C69.1297 128.074 69.0005 128.007 68.9097 127.902C68.8217 127.794 68.7777 127.658 68.7777 127.493C68.7777 127.303 68.8416 127.151 68.9693 127.038C69.0999 126.924 69.2815 126.867 69.5142 126.867H70.5743V128.924H70.2678V128.157H69.6079L69.0332 128.924ZM69.5611 127.889H70.2678V127.136H69.5611C69.4106 127.136 69.2943 127.168 69.212 127.233C69.1325 127.299 69.0928 127.392 69.0928 127.514C69.0928 127.636 69.1325 127.73 69.212 127.795C69.2943 127.858 69.4106 127.889 69.5611 127.889Z" fill="#515151"/>
<rect x="39.7878" y="134.787" width="49.0625" height="15.2332" rx="1.0643" fill="white" stroke="#CCD5DF" stroke-width="0.304085"/>
<path d="M96.7521 128.975C96.3179 128.975 95.9532 128.83 95.658 128.54C95.3685 128.251 95.2238 127.882 95.2238 127.434C95.2238 126.988 95.3685 126.62 95.658 126.331C95.9503 126.039 96.315 125.892 96.7521 125.892C97.0757 125.892 97.3538 125.966 97.5865 126.114V126.437C97.3254 126.27 97.0487 126.186 96.7564 126.186C96.4158 126.186 96.1277 126.305 95.8922 126.544C95.6594 126.777 95.5431 127.073 95.5431 127.434C95.5431 127.797 95.6594 128.095 95.8922 128.328C96.1277 128.563 96.4186 128.681 96.7649 128.681C97.1111 128.681 97.4063 128.582 97.6504 128.383V128.711C97.4063 128.887 97.1069 128.975 96.7521 128.975ZM99.6148 128.941H99.321L98.0098 125.944H98.3546L99.47 128.506L100.585 125.944H100.93L99.6148 128.941ZM102.824 128.941H102.531L101.219 125.944H101.564L102.68 128.506L103.795 125.944H104.14L102.824 128.941ZM106.502 128.924H104.471V128.689L105.476 127.732C105.697 127.522 105.852 127.353 105.94 127.225C106.031 127.092 106.076 126.943 106.076 126.778C106.076 126.602 106.014 126.46 105.889 126.352C105.764 126.242 105.601 126.186 105.399 126.186C105.084 126.186 104.798 126.32 104.54 126.586V126.233C104.792 126.006 105.089 125.892 105.429 125.892C105.705 125.892 105.933 125.971 106.115 126.127C106.299 126.286 106.391 126.49 106.391 126.74C106.391 126.938 106.342 127.12 106.242 127.285C106.143 127.446 105.973 127.641 105.732 127.868L104.931 128.638H106.502V128.924Z" fill="#515151"/>
<rect x="95.0778" y="134.787" width="45.1131" height="15.2332" rx="1.0643" fill="white" stroke="#CCD5DF" stroke-width="0.304085"/>
<path d="M151.001 168.609L151.223 168.676C151.211 168.733 151.187 168.785 151.153 168.832C151.122 168.873 151.081 168.905 151.034 168.926C150.976 168.949 150.914 168.96 150.852 168.958C150.777 168.96 150.702 168.947 150.633 168.918C150.572 168.888 150.521 168.841 150.486 168.782C150.445 168.717 150.425 168.633 150.425 168.533C150.425 168.397 150.461 168.294 150.533 168.221C150.606 168.149 150.708 168.112 150.84 168.112C150.944 168.112 151.025 168.133 151.084 168.175C151.144 168.216 151.188 168.28 151.217 168.366L150.992 168.417C150.987 168.397 150.978 168.379 150.967 168.362C150.954 168.343 150.936 168.328 150.915 168.317C150.894 168.307 150.87 168.302 150.846 168.302C150.82 168.301 150.794 168.307 150.771 168.319C150.747 168.331 150.728 168.349 150.714 168.371C150.691 168.405 150.679 168.459 150.679 168.532C150.679 168.622 150.693 168.684 150.721 168.718C150.75 168.748 150.79 168.767 150.832 168.768C150.874 168.77 150.916 168.756 150.947 168.728C150.975 168.694 150.994 168.653 151.001 168.609ZM151.315 168.536C151.315 168.403 151.352 168.299 151.427 168.225C151.501 168.15 151.606 168.114 151.739 168.114C151.876 168.114 151.982 168.151 152.056 168.224C152.13 168.297 152.167 168.399 152.167 168.53C152.167 168.626 152.151 168.704 152.118 168.765C152.087 168.825 152.038 168.875 151.978 168.908C151.908 168.944 151.829 168.961 151.75 168.959C151.671 168.961 151.592 168.946 151.52 168.915C151.457 168.884 151.406 168.836 151.372 168.775C151.331 168.702 151.312 168.62 151.315 168.536ZM151.569 168.537C151.569 168.619 151.584 168.679 151.615 168.714C151.631 168.731 151.651 168.745 151.672 168.754C151.694 168.763 151.717 168.768 151.741 168.768C151.765 168.768 151.788 168.763 151.81 168.754C151.831 168.745 151.851 168.732 151.867 168.715C151.897 168.68 151.912 168.617 151.912 168.525C151.912 168.448 151.897 168.392 151.865 168.357C151.85 168.339 151.83 168.325 151.808 168.316C151.786 168.307 151.762 168.302 151.739 168.304C151.715 168.303 151.692 168.307 151.671 168.316C151.649 168.326 151.63 168.34 151.615 168.357C151.584 168.394 151.569 168.454 151.569 168.537ZM152.3 168.127H152.635L152.764 168.624L152.892 168.127H153.226V168.944H153.017V168.321L152.857 168.944H152.668L152.508 168.321V168.944H152.3V168.127ZM153.386 168.127H153.808C153.9 168.127 153.969 168.149 154.015 168.192C154.06 168.236 154.083 168.297 154.083 168.378C154.083 168.46 154.058 168.525 154.008 168.571C153.958 168.618 153.882 168.641 153.78 168.641H153.641V168.944H153.386V168.127ZM153.641 168.475H153.703C153.752 168.475 153.786 168.467 153.806 168.45C153.816 168.442 153.824 168.432 153.829 168.421C153.834 168.41 153.836 168.397 153.836 168.385C153.836 168.373 153.834 168.361 153.83 168.35C153.825 168.339 153.819 168.328 153.81 168.32C153.793 168.302 153.761 168.293 153.713 168.293H153.641V168.475ZM154.216 168.127H154.47V168.744H154.866V168.945H154.216V168.127ZM154.992 168.127H155.247V168.944H154.992V168.127ZM155.934 168.809H155.646L155.606 168.944H155.347L155.656 168.127H155.934L156.242 168.944H155.977L155.934 168.809ZM155.882 168.632L155.791 168.338L155.701 168.632H155.882ZM156.324 168.127H156.561L156.871 168.58V168.127H157.109V168.944H156.87L156.562 168.495V168.944H156.323L156.324 168.127ZM157.221 168.127H157.993V168.329H157.734V168.944H157.48V168.329H157.221L157.221 168.127Z" fill="#C7C7C7"/>
<path d="M147.944 169.374L148.68 169.143L148.442 168.616C148.264 168.834 148.089 169.115 147.944 169.374ZM147.693 166.961L146.25 163.767L135.689 164.363L138.615 172.296L144.247 170.532C143.891 170.02 143.758 169.412 144.172 169.115C144.636 168.783 145.333 169.168 145.781 169.715C146.211 168.996 147.417 167.338 147.693 166.961Z" fill="#C7C7C7"/>
<path d="M145.919 166.075C146.362 166.075 146.72 165.739 146.72 165.324C146.72 164.91 146.362 164.574 145.919 164.574C145.477 164.574 145.119 164.91 145.119 165.324C145.119 165.739 145.477 166.075 145.919 166.075ZM145.265 166.4H146.575V169.799H145.265V166.4ZM144.618 167.392C144.627 167.397 144.635 167.393 144.635 167.382V166.521C144.635 166.515 144.633 166.51 144.63 166.505C144.627 166.5 144.623 166.495 144.618 166.492C144.618 166.492 144.446 166.381 143.922 166.35C143.894 166.334 143.437 166.332 143.311 166.35C141.406 166.502 141.335 167.871 141.335 167.934V168.266C141.335 168.307 141.335 169.707 143.311 169.832C143.504 169.846 143.882 169.832 143.922 169.832C144.377 169.832 144.692 169.695 144.692 169.695C144.697 169.693 144.701 169.689 144.705 169.684C144.708 169.68 144.71 169.674 144.71 169.668V168.862C144.71 168.852 144.703 168.848 144.693 168.853C144.693 168.853 144.552 168.966 143.93 169.027C143.754 169.046 143.67 169.037 143.607 169.027C142.725 168.879 142.683 168.237 142.683 168.237C142.682 168.227 142.681 168.209 142.681 168.198V167.952C142.681 167.939 142.682 167.926 142.683 167.913C142.683 167.913 142.743 167.225 143.607 167.153H143.93C144.172 167.189 144.406 167.27 144.618 167.392ZM137.702 169.785C137.702 169.79 137.704 169.795 137.708 169.799C137.712 169.803 137.717 169.805 137.722 169.805H138.998C139.003 169.805 139.008 169.803 139.012 169.799C139.016 169.795 139.018 169.79 139.018 169.785V168.799C139.018 168.796 139.018 168.794 139.019 168.791C139.02 168.789 139.022 168.787 139.023 168.785C139.025 168.783 139.028 168.782 139.03 168.781C139.032 168.781 139.035 168.78 139.037 168.78C139.037 168.78 141.074 168.927 141.074 167.568C141.074 166.496 139.796 166.379 139.376 166.398H137.723C137.717 166.398 137.712 166.4 137.709 166.404C137.705 166.408 137.703 166.413 137.703 166.418L137.702 169.785ZM138.995 168.027V167.139H139.307C139.307 167.139 139.761 167.158 139.796 167.466C139.805 167.49 139.803 167.64 139.796 167.648C139.737 168.009 139.343 168.027 139.343 168.027H138.995Z" fill="#FEFEFE"/>
<path d="M145.958 171.44C146.064 171.44 146.145 171.44 146.28 171.381C146.745 171.138 148.31 167.339 149.962 166.171C149.974 166.162 149.985 166.152 149.994 166.141C150 166.132 150.004 166.121 150.005 166.11C150.005 166.11 150.005 166.031 149.76 166.031C148.29 165.992 146.762 169.054 145.959 170.265C145.949 170.278 145.894 170.265 145.894 170.265C145.894 170.265 145.355 169.634 144.888 169.392C144.85 169.377 144.809 169.372 144.769 169.374C144.732 169.374 144.514 169.418 144.413 169.524C144.293 169.65 144.295 169.721 144.296 169.873C144.298 169.904 144.306 169.934 144.319 169.962C144.434 170.161 144.956 170.874 145.384 171.268C145.449 171.315 145.55 171.44 145.958 171.44Z" fill="#C7C7C7"/>
<path d="M150.396 165.019H151.62C151.861 165.019 152.055 165.052 152.204 165.117C152.348 165.179 152.474 165.275 152.572 165.397C152.671 165.523 152.743 165.667 152.783 165.822C152.827 165.989 152.849 166.162 152.848 166.335C152.848 166.618 152.816 166.837 152.751 166.993C152.691 167.142 152.599 167.276 152.481 167.385C152.377 167.484 152.249 167.556 152.11 167.595C151.951 167.64 151.786 167.665 151.62 167.667H150.396V165.019ZM151.22 165.619V167.065H151.422C151.593 167.065 151.716 167.046 151.789 167.008C151.862 166.971 151.919 166.904 151.959 166.81C152.001 166.715 152.021 166.562 152.021 166.35C152.021 166.07 151.975 165.878 151.883 165.774C151.79 165.67 151.638 165.619 151.425 165.619H151.22ZM153.074 166.791L153.857 166.742C153.874 166.868 153.909 166.965 153.961 167.031C154.046 167.138 154.167 167.192 154.324 167.192C154.442 167.192 154.532 167.164 154.596 167.11C154.66 167.055 154.691 166.991 154.691 166.919C154.691 166.85 154.661 166.789 154.6 166.735C154.54 166.681 154.399 166.63 154.179 166.581C153.818 166.501 153.56 166.394 153.407 166.26C153.332 166.197 153.272 166.119 153.232 166.031C153.191 165.942 153.172 165.846 153.174 165.748C153.174 165.611 153.216 165.477 153.293 165.363C153.372 165.242 153.491 165.147 153.651 165.078C153.81 165.008 154.029 164.974 154.306 164.974C154.646 164.974 154.906 165.037 155.085 165.162C155.263 165.288 155.37 165.488 155.404 165.763L154.628 165.808C154.607 165.689 154.563 165.602 154.497 165.548C154.431 165.494 154.34 165.467 154.224 165.467C154.128 165.467 154.056 165.487 154.007 165.527C153.985 165.545 153.966 165.567 153.954 165.593C153.941 165.618 153.935 165.646 153.935 165.675C153.935 165.697 153.941 165.719 153.951 165.738C153.962 165.758 153.976 165.775 153.994 165.788C154.033 165.823 154.125 165.856 154.271 165.887C154.631 165.964 154.889 166.042 155.045 166.121C155.2 166.2 155.313 166.297 155.384 166.414C155.456 166.532 155.493 166.668 155.491 166.806C155.491 166.973 155.442 167.136 155.348 167.275C155.252 167.42 155.114 167.533 154.952 167.601C154.783 167.675 154.569 167.712 154.311 167.712C153.858 167.712 153.544 167.625 153.37 167.452C153.195 167.278 153.097 167.058 153.074 166.791ZM155.698 166.791L156.481 166.742C156.498 166.868 156.533 166.965 156.585 167.031C156.67 167.138 156.791 167.192 156.949 167.192C157.066 167.192 157.157 167.164 157.22 167.11C157.284 167.055 157.316 166.991 157.316 166.919C157.316 166.85 157.285 166.789 157.225 166.735C157.164 166.681 157.024 166.629 156.803 166.581C156.442 166.501 156.185 166.394 156.031 166.26C155.956 166.197 155.896 166.119 155.856 166.031C155.816 165.942 155.796 165.846 155.798 165.748C155.799 165.611 155.84 165.477 155.917 165.363C155.996 165.242 156.116 165.147 156.275 165.078C156.435 165.008 156.653 164.974 156.93 164.974C157.271 164.974 157.53 165.037 157.709 165.162C157.888 165.288 157.994 165.488 158.028 165.763L157.252 165.808C157.231 165.689 157.188 165.602 157.122 165.548C157.056 165.494 156.965 165.467 156.849 165.467C156.753 165.467 156.681 165.487 156.632 165.527C156.61 165.544 156.591 165.567 156.579 165.592C156.566 165.618 156.56 165.646 156.56 165.674C156.56 165.696 156.566 165.718 156.576 165.738C156.586 165.758 156.601 165.775 156.619 165.788C156.658 165.823 156.75 165.856 156.896 165.886C157.256 165.963 157.514 166.041 157.669 166.12C157.825 166.199 157.938 166.297 158.009 166.414C158.081 166.532 158.117 166.668 158.116 166.806C158.116 166.973 158.067 167.136 157.974 167.275C157.877 167.42 157.739 167.534 157.578 167.601C157.408 167.675 157.195 167.712 156.936 167.712C156.483 167.712 156.169 167.625 155.995 167.452C155.821 167.279 155.722 167.058 155.698 166.791Z" fill="#C7C7C7"/>
<path d="M108.859 171.145H108.654V169.022H108.859V171.145ZM110.425 169.027C110.607 169.027 110.783 169.048 110.953 169.101C111.105 169.143 111.24 169.217 111.358 169.312C111.469 169.407 111.551 169.518 111.61 169.645C111.727 169.93 111.727 170.242 111.61 170.527C111.551 170.654 111.469 170.77 111.358 170.86C111.24 170.955 111.105 171.029 110.953 171.071C110.783 171.124 110.601 171.145 110.425 171.145H109.569V169.022L110.425 169.027ZM109.774 169.201V170.971H110.431C110.584 170.976 110.736 170.955 110.883 170.913C111.006 170.876 111.117 170.812 111.211 170.733C111.299 170.654 111.369 170.559 111.41 170.453C111.504 170.215 111.504 169.962 111.41 169.724C111.369 169.619 111.299 169.523 111.211 169.444C111.117 169.365 111.006 169.302 110.883 169.265C110.736 169.222 110.584 169.201 110.431 169.207L109.774 169.201ZM114.22 169.001C114.319 169.001 114.419 169.011 114.513 169.032C114.607 169.053 114.695 169.08 114.777 169.122C114.859 169.159 114.935 169.207 115 169.259C115.064 169.312 115.123 169.376 115.17 169.439L115 169.545C114.959 169.487 114.912 169.439 114.853 169.397C114.8 169.354 114.736 169.312 114.671 169.286C114.601 169.254 114.53 169.228 114.454 169.212C114.378 169.196 114.296 169.185 114.214 169.185C114.079 169.185 113.95 169.207 113.821 169.249C113.703 169.291 113.598 169.349 113.504 169.428C113.416 169.508 113.34 169.608 113.293 169.714C113.193 169.951 113.193 170.215 113.293 170.453C113.34 170.559 113.41 170.659 113.504 170.738C113.592 170.818 113.703 170.881 113.821 170.918C113.944 170.96 114.079 170.987 114.214 170.981C114.296 170.981 114.372 170.971 114.448 170.955C114.525 170.939 114.595 170.918 114.665 170.886C114.73 170.854 114.794 170.818 114.847 170.775C114.9 170.733 114.953 170.68 114.994 170.622L115.164 170.733C115.117 170.802 115.058 170.86 114.988 170.913C114.917 170.965 114.847 171.013 114.765 171.045C114.683 171.082 114.595 171.113 114.501 171.129C114.243 171.182 113.979 171.166 113.733 171.076C113.592 171.024 113.457 170.95 113.352 170.854C113.24 170.759 113.158 170.638 113.099 170.511C112.976 170.231 112.976 169.914 113.099 169.634C113.158 169.508 113.246 169.391 113.352 169.291C113.463 169.196 113.592 169.117 113.733 169.069C113.891 169.027 114.055 169.001 114.22 169.001ZM115.868 169.972C115.897 169.925 115.932 169.888 115.979 169.851C116.02 169.819 116.067 169.788 116.114 169.766C116.161 169.745 116.214 169.729 116.266 169.719C116.319 169.708 116.372 169.703 116.431 169.703C116.524 169.703 116.612 169.714 116.7 169.745C116.777 169.772 116.853 169.809 116.911 169.862C116.97 169.914 117.017 169.972 117.046 170.041C117.081 170.115 117.093 170.2 117.093 170.279V171.15H116.9V170.326C116.9 170.263 116.888 170.194 116.864 170.131C116.841 170.078 116.812 170.025 116.765 169.983C116.718 169.941 116.665 169.909 116.606 169.893C116.536 169.872 116.466 169.862 116.389 169.862C116.319 169.862 116.249 169.872 116.184 169.893C116.12 169.914 116.067 169.946 116.014 169.988C115.967 170.031 115.926 170.083 115.903 170.136C115.873 170.194 115.862 170.263 115.862 170.326V171.14H115.668V168.964H115.862L115.868 169.972ZM118.348 169.703C118.448 169.703 118.548 169.719 118.641 169.756C118.729 169.793 118.812 169.84 118.876 169.904C118.946 169.972 118.999 170.052 119.034 170.136C119.075 170.231 119.093 170.332 119.093 170.432V170.501H117.762C117.768 170.575 117.785 170.654 117.82 170.722C117.856 170.786 117.897 170.839 117.955 170.886C118.008 170.934 118.073 170.965 118.143 170.987C118.213 171.008 118.295 171.024 118.372 171.024C118.471 171.024 118.577 171.008 118.671 170.971C118.759 170.934 118.841 170.886 118.911 170.823L119.017 170.944C118.97 170.987 118.917 171.024 118.864 171.06C118.812 171.092 118.759 171.113 118.706 171.134C118.653 171.15 118.595 171.166 118.542 171.171C118.483 171.177 118.43 171.182 118.372 171.182C118.26 171.182 118.155 171.166 118.049 171.129C117.955 171.097 117.867 171.045 117.797 170.976C117.727 170.907 117.668 170.828 117.633 170.738C117.592 170.643 117.568 170.538 117.574 170.437C117.574 170.337 117.592 170.237 117.633 170.141C117.668 170.057 117.727 169.978 117.797 169.909C117.867 169.846 117.949 169.793 118.043 169.756C118.137 169.714 118.243 169.698 118.348 169.703ZM118.348 169.856C118.272 169.856 118.196 169.867 118.125 169.893C118.061 169.92 118.002 169.951 117.949 169.999C117.897 170.046 117.856 170.099 117.826 170.157C117.791 170.221 117.774 170.289 117.768 170.358H118.894C118.888 170.289 118.87 170.221 118.835 170.157C118.806 170.099 118.765 170.046 118.718 169.999C118.624 169.904 118.489 169.856 118.348 169.856ZM120.266 169.703C120.377 169.703 120.489 169.719 120.594 169.761C120.694 169.798 120.782 169.856 120.852 169.925L120.729 170.041C120.671 169.988 120.6 169.941 120.524 169.909C120.442 169.877 120.354 169.862 120.266 169.862C120.184 169.862 120.102 169.877 120.025 169.904C119.955 169.93 119.885 169.972 119.832 170.025C119.773 170.078 119.732 170.141 119.703 170.205C119.638 170.353 119.638 170.516 119.703 170.664C119.762 170.802 119.879 170.913 120.025 170.965C120.102 170.997 120.184 171.008 120.266 171.008C120.354 171.008 120.442 170.992 120.524 170.96C120.6 170.928 120.671 170.886 120.735 170.833L120.852 170.95C120.782 171.024 120.694 171.076 120.594 171.113C120.489 171.15 120.377 171.171 120.266 171.171C120.155 171.171 120.043 171.156 119.938 171.113C119.744 171.045 119.592 170.902 119.515 170.728C119.433 170.538 119.433 170.332 119.515 170.141C119.592 169.967 119.744 169.825 119.938 169.756C120.043 169.724 120.155 169.698 120.266 169.703ZM121.498 170.326H121.756L122.424 169.724H122.665L121.908 170.395L122.676 171.15H122.43L121.75 170.485H121.492V171.15H121.298V168.969H121.492L121.498 170.326ZM111.164 168.272V167.363C111.164 167.02 110.924 166.788 110.531 166.788C110.302 166.772 110.085 166.872 109.962 167.046C109.85 166.877 109.645 166.782 109.428 166.788C109.241 166.777 109.059 166.862 108.959 167.004V166.825H108.607V168.277H108.959V167.469C108.959 167.215 109.112 167.083 109.352 167.083C109.592 167.083 109.704 167.221 109.704 167.464V168.272H110.056V167.469C110.056 167.215 110.22 167.083 110.449 167.083C110.683 167.083 110.801 167.221 110.801 167.464V168.272H111.164ZM116.401 166.819H115.832V166.381H115.48V166.819H115.152V167.11H115.48V167.77C115.48 168.108 115.627 168.309 116.038 168.309C116.19 168.309 116.343 168.272 116.477 168.198L116.378 167.928C116.284 167.981 116.178 168.008 116.067 168.008C115.891 168.008 115.832 167.913 115.832 167.765V167.11H116.407L116.401 166.819ZM119.392 166.782C119.216 166.777 119.058 166.862 118.97 166.994V166.819H118.624V168.272H118.976V167.458C118.976 167.215 119.093 167.083 119.322 167.083C119.398 167.083 119.474 167.094 119.539 167.12L119.644 166.825C119.562 166.798 119.48 166.788 119.392 166.782ZM114.871 166.935C114.671 166.83 114.442 166.777 114.214 166.782C113.803 166.782 113.539 166.957 113.539 167.247C113.539 167.485 113.733 167.627 114.096 167.675L114.261 167.696C114.454 167.722 114.542 167.765 114.542 167.849C114.542 167.96 114.413 168.023 114.173 168.023C113.979 168.029 113.791 167.976 113.633 167.87L113.469 168.119C113.674 168.245 113.92 168.314 114.167 168.309C114.63 168.309 114.9 168.113 114.9 167.833C114.9 167.58 114.689 167.443 114.337 167.4L114.173 167.379C114.02 167.363 113.897 167.332 113.897 167.237C113.897 167.131 114.014 167.068 114.202 167.068C114.378 167.068 114.554 167.115 114.706 167.194L114.871 166.935ZM124.266 166.788C124.09 166.782 123.931 166.867 123.843 166.999V166.819H123.497V168.272H123.849V167.458C123.849 167.215 123.966 167.083 124.195 167.083C124.271 167.083 124.348 167.094 124.412 167.12L124.518 166.825C124.436 166.798 124.348 166.788 124.266 166.788ZM119.744 167.548C119.744 167.987 120.084 168.309 120.606 168.309C120.817 168.319 121.022 168.256 121.187 168.134L121.017 167.881C120.893 167.965 120.747 168.008 120.594 168.008C120.313 168.008 120.108 167.823 120.108 167.543C120.108 167.263 120.313 167.083 120.594 167.078C120.747 167.078 120.893 167.126 121.017 167.21L121.187 166.957C121.022 166.835 120.817 166.772 120.606 166.782C120.084 166.782 119.744 167.104 119.744 167.548ZM123.028 167.548V166.819H122.676V166.994C122.553 166.851 122.365 166.772 122.166 166.782C121.714 166.782 121.357 167.099 121.357 167.543C121.357 167.987 121.709 168.303 122.166 168.303C122.365 168.309 122.553 168.229 122.676 168.092V168.266H123.028V167.548ZM121.726 167.548C121.726 167.295 121.914 167.083 122.213 167.083C122.5 167.083 122.7 167.284 122.7 167.548C122.7 167.812 122.506 168.013 122.213 168.013C121.908 168.013 121.726 167.802 121.726 167.548ZM117.498 166.782C117.029 166.782 116.694 167.094 116.694 167.543C116.694 168.002 117.04 168.303 117.521 168.303C117.762 168.309 117.996 168.24 118.184 168.097L118.014 167.865C117.879 167.96 117.715 168.013 117.545 168.018C117.316 168.018 117.111 167.923 117.064 167.664H118.26C118.266 167.627 118.266 167.585 118.266 167.543C118.26 167.094 117.949 166.782 117.498 166.782ZM117.492 167.068C117.721 167.068 117.861 167.194 117.903 167.421H117.064C117.099 167.21 117.24 167.068 117.492 167.068ZM126.283 167.548V166.238H125.931V166.999C125.808 166.856 125.62 166.777 125.421 166.788C124.969 166.788 124.612 167.104 124.612 167.548C124.612 167.992 124.963 168.309 125.421 168.309C125.62 168.314 125.808 168.235 125.931 168.097V168.272H126.283V167.548ZM126.694 168.14C126.705 168.14 126.723 168.14 126.735 168.145C126.746 168.15 126.758 168.156 126.77 168.166C126.781 168.177 126.787 168.182 126.793 168.198C126.805 168.219 126.805 168.245 126.793 168.272C126.787 168.282 126.781 168.293 126.77 168.303C126.758 168.314 126.746 168.319 126.735 168.325C126.723 168.33 126.705 168.33 126.694 168.33C126.652 168.33 126.611 168.309 126.594 168.272C126.582 168.251 126.582 168.224 126.594 168.198C126.606 168.177 126.623 168.156 126.647 168.15C126.664 168.14 126.676 168.14 126.694 168.14ZM126.694 168.303C126.705 168.303 126.717 168.303 126.723 168.298C126.735 168.293 126.74 168.288 126.746 168.282C126.776 168.256 126.776 168.208 126.746 168.182C126.74 168.177 126.729 168.171 126.723 168.166C126.711 168.161 126.705 168.161 126.694 168.161C126.682 168.161 126.67 168.161 126.664 168.166C126.623 168.182 126.606 168.224 126.623 168.261C126.629 168.272 126.635 168.277 126.641 168.282C126.647 168.288 126.658 168.293 126.664 168.298C126.67 168.298 126.682 168.303 126.694 168.303ZM126.699 168.187C126.711 168.187 126.717 168.187 126.729 168.193C126.735 168.198 126.74 168.203 126.74 168.214C126.74 168.219 126.74 168.224 126.735 168.229C126.729 168.235 126.723 168.24 126.711 168.24L126.74 168.272H126.717L126.688 168.24H126.676V168.272H126.658V168.187H126.699ZM126.676 168.203V168.224H126.711C126.717 168.224 126.717 168.219 126.717 168.214C126.717 168.208 126.717 168.208 126.711 168.203H126.676ZM124.981 167.548C124.981 167.295 125.169 167.083 125.468 167.083C125.755 167.083 125.955 167.284 125.955 167.548C125.955 167.812 125.761 168.013 125.468 168.013C125.169 168.008 124.981 167.802 124.981 167.548ZM113.146 167.548V166.819H112.789V166.994C112.665 166.851 112.478 166.772 112.278 166.782C111.827 166.782 111.469 167.099 111.469 167.543C111.469 167.987 111.821 168.303 112.278 168.303C112.478 168.309 112.665 168.229 112.789 168.092V168.266H113.14L113.146 167.548ZM111.839 167.548C111.839 167.295 112.026 167.083 112.325 167.083C112.613 167.083 112.812 167.284 112.812 167.548C112.812 167.812 112.619 168.013 112.325 168.013C112.02 168.008 111.839 167.802 111.839 167.548ZM122.917 171.076H122.887V171.15H122.87V171.076H122.84V171.066H122.917V171.076ZM123.034 171.145H123.016V171.076L122.987 171.134H122.97L122.94 171.076V171.145H122.928V171.06H122.952L122.981 171.119L123.011 171.06H123.034V171.145Z" fill="#C7C7C7"/>
<path d="M102.136 165.505H104.243V169.198H102.136V165.505Z" fill="#D7D7D7"/>
<path d="M102.279 167.353C102.279 166.631 102.617 165.955 103.201 165.506C102.156 164.705 100.639 164.881 99.8161 165.904C98.9932 166.921 99.1741 168.398 100.225 169.199C101.1 169.87 102.331 169.87 103.201 169.199C102.617 168.756 102.279 168.074 102.279 167.353Z" fill="#C7C7C7"/>
<path d="M106.866 168.806V168.732H106.901V168.715H106.819V168.732H106.848V168.806H106.866ZM107.023 168.806V168.715H107L106.971 168.778L106.942 168.715H106.918V168.806H106.936V168.738L106.959 168.795H106.977L107 168.738V168.806H107.023ZM107.099 167.352C107.099 168.647 106.02 169.698 104.689 169.698C104.146 169.698 103.621 169.522 103.201 169.198C104.246 168.397 104.432 166.92 103.609 165.903C103.493 165.755 103.353 165.624 103.201 165.505C104.246 164.704 105.763 164.88 106.586 165.897C106.918 166.312 107.099 166.823 107.099 167.352Z" fill="#C7C7C7"/>
<path d="M44.8396 167.177H44.0008V166.554C44.0008 166.14 43.832 165.743 43.5316 165.451C43.2311 165.158 42.8237 164.994 42.3988 164.994C41.9739 164.994 41.5665 165.158 41.266 165.451C40.9656 165.743 40.7968 166.14 40.7968 166.554V167.177H39.9601V166.554C39.9601 165.924 40.2171 165.32 40.6745 164.875C41.1319 164.429 41.7523 164.179 42.3992 164.179C43.0461 164.179 43.6665 164.429 44.1239 164.875C44.5814 165.32 44.8383 165.924 44.8383 166.554L44.8396 167.177Z" fill="#C7C7C7"/>
<path d="M39.7744 167.162H45.0205C45.0388 167.162 45.0568 167.166 45.0736 167.172C45.0904 167.179 45.1057 167.189 45.1185 167.202C45.1313 167.215 45.1414 167.23 45.1483 167.246C45.1551 167.262 45.1585 167.28 45.1583 167.298V170.464C45.1583 170.634 45.1239 170.802 45.0571 170.959C44.9904 171.116 44.8925 171.259 44.7691 171.379C44.6458 171.499 44.4993 171.594 44.3381 171.659C44.1769 171.724 44.0042 171.758 43.8297 171.758H40.9653C40.7907 171.758 40.6179 171.724 40.4566 171.659C40.2953 171.594 40.1488 171.499 40.0254 171.378C39.902 171.258 39.8042 171.115 39.7375 170.958C39.6708 170.801 39.6366 170.633 39.6367 170.463V167.298C39.6367 167.262 39.6512 167.228 39.6771 167.203C39.7029 167.178 39.7379 167.164 39.7744 167.164V167.162Z" fill="#C7C7C7"/>
<g style="mix-blend-mode:multiply" opacity="0.1">
<path d="M45.1582 167.162H42.3975V171.757H45.1582V167.162Z" fill="#C7C7C7"/>
</g>
<path d="M42.152 170.373L40.8555 169.19L41.4085 168.685L42.152 169.364L43.6462 168L44.1988 168.505L42.152 170.373Z" fill="white"/>
<path d="M47.4047 167.247C47.305 167.211 47.2085 167.167 47.116 167.116C47.0344 167.071 46.9609 167.014 46.8983 166.946C46.8363 166.876 46.7888 166.796 46.7585 166.708C46.7238 166.601 46.7076 166.489 46.7107 166.377C46.7078 166.234 46.7361 166.092 46.7939 165.961C46.8468 165.844 46.9271 165.741 47.0282 165.659C47.135 165.575 47.2583 165.512 47.3906 165.475C47.546 165.432 47.707 165.411 47.8687 165.413C48.0204 165.411 48.172 165.425 48.321 165.453C48.4711 165.484 48.619 165.525 48.7637 165.575C48.7437 165.757 48.6925 165.935 48.6122 166.101L48.4678 166.046C48.4169 166.027 48.3647 166.012 48.3114 166C48.2497 165.987 48.1873 165.977 48.1246 165.97C48.0459 165.962 47.9669 165.958 47.8878 165.959C47.833 165.959 47.7783 165.963 47.7243 165.973C47.672 165.981 47.6215 165.998 47.5753 166.023C47.5299 166.049 47.4923 166.087 47.4663 166.131C47.436 166.189 47.4216 166.253 47.4247 166.318C47.4227 166.371 47.4341 166.424 47.458 166.473C47.4797 166.514 47.5104 166.55 47.5479 166.579C47.5868 166.608 47.6295 166.632 47.6748 166.65C47.7222 166.67 47.7692 166.69 47.8167 166.707L48.1008 166.814C48.2207 166.86 48.3296 166.907 48.4275 166.956C48.5211 167.002 48.6056 167.064 48.6771 167.139C48.7466 167.215 48.7995 167.305 48.8328 167.402C48.8746 167.525 48.8944 167.654 48.8914 167.784C48.8933 167.932 48.8633 168.078 48.8036 168.213C48.7462 168.341 48.6597 168.454 48.5506 168.545C48.43 168.642 48.2909 168.716 48.1412 168.761C47.9594 168.816 47.77 168.841 47.5799 168.838C47.4759 168.838 47.3827 168.835 47.3007 168.828C47.2221 168.823 47.1439 168.813 47.0664 168.798C46.9922 168.785 46.9187 168.767 46.8463 168.746C46.7736 168.724 46.6979 168.698 46.6191 168.667C46.6295 168.573 46.6469 168.48 46.6712 168.388C46.6964 168.291 46.7264 168.194 46.761 168.096C46.8825 168.144 47.0077 168.184 47.1355 168.213C47.2584 168.24 47.384 168.254 47.51 168.254C47.7089 168.254 47.8651 168.218 47.9785 168.146C48.092 168.074 48.1488 167.964 48.1491 167.816C48.1508 167.752 48.1365 167.689 48.1075 167.632C48.0816 167.584 48.0462 167.542 48.0035 167.507C47.9594 167.473 47.9109 167.444 47.8591 167.422C47.8053 167.399 47.7498 167.377 47.6927 167.355L47.4047 167.247Z" fill="#C7C7C7"/>
<path d="M49.3877 165.469H51.3192C51.338 165.561 51.3475 165.655 51.3475 165.75C51.3478 165.847 51.3383 165.944 51.3192 166.04H50.0805V166.759H51.0654C51.0838 166.853 51.0932 166.949 51.0937 167.045C51.0937 167.142 51.0842 167.239 51.0654 167.335H50.0805V168.211H51.3541C51.373 168.303 51.3825 168.397 51.3824 168.492C51.3827 168.589 51.3733 168.687 51.3541 168.782H49.3877V165.469Z" fill="#C7C7C7"/>
<path d="M54.1498 168.156C54.1907 168.242 54.2248 168.33 54.2517 168.421C54.2784 168.511 54.2981 168.602 54.3108 168.695C54.1672 168.748 54.0185 168.787 53.8668 168.81C53.7265 168.829 53.5849 168.838 53.4433 168.838C53.201 168.843 52.9603 168.8 52.7359 168.711C52.5409 168.632 52.3669 168.51 52.227 168.356C52.0864 168.198 51.9808 168.014 51.917 167.815C51.8457 167.594 51.8104 167.364 51.8126 167.133C51.8116 166.9 51.8495 166.668 51.9249 166.448C51.9919 166.247 52.0989 166.061 52.2399 165.901C52.3791 165.746 52.5521 165.624 52.7463 165.542C52.9625 165.453 53.1956 165.409 53.4304 165.413C53.5705 165.412 53.7106 165.421 53.8494 165.44C53.9915 165.463 54.1305 165.502 54.2634 165.556C54.257 165.648 54.238 165.739 54.2068 165.826C54.1752 165.914 54.1404 166.002 54.1024 166.091C54.0067 166.058 53.9086 166.032 53.809 166.012C53.709 165.996 53.6076 165.988 53.5061 165.989C53.2032 165.989 52.9704 166.085 52.8079 166.277C52.6453 166.469 52.5641 166.754 52.5641 167.133C52.5641 167.882 52.8907 168.257 53.544 168.257C53.6469 168.258 53.7498 168.251 53.8514 168.234C53.9528 168.215 54.0525 168.189 54.1498 168.156Z" fill="#C7C7C7"/>
<path d="M54.8076 165.468C54.8655 165.459 54.9238 165.453 54.9824 165.45C55.0394 165.447 55.0976 165.445 55.1576 165.445C55.2175 165.445 55.2666 165.445 55.324 165.45C55.3814 165.454 55.4388 165.459 55.4992 165.468V167.187C55.4979 167.348 55.505 167.509 55.5204 167.669C55.5294 167.783 55.5582 167.896 55.6057 168.001C55.6425 168.083 55.7055 168.151 55.7854 168.194C55.8786 168.24 55.9819 168.261 56.0859 168.257C56.1891 168.261 56.2919 168.24 56.3842 168.194C56.463 168.15 56.5252 168.082 56.5619 168.001C56.6084 167.895 56.6365 167.783 56.6451 167.669C56.6608 167.509 56.668 167.348 56.6667 167.187V165.468C56.7295 165.459 56.7915 165.453 56.8465 165.45C56.9014 165.447 56.9584 165.445 57.0129 165.445C57.0674 165.445 57.1273 165.445 57.1856 165.45C57.2451 165.453 57.3044 165.459 57.3633 165.468V167.332C57.3651 167.538 57.3462 167.744 57.3067 167.946C57.2752 168.118 57.2058 168.28 57.1032 168.423C57.0026 168.557 56.867 168.663 56.7104 168.73C56.5465 168.802 56.3384 168.838 56.0863 168.838C55.8341 168.838 55.6261 168.802 55.4621 168.73C55.3054 168.663 55.1696 168.557 55.0689 168.423C54.9663 168.28 54.8968 168.118 54.865 167.946C54.8256 167.743 54.8067 167.537 54.8085 167.331L54.8076 165.468Z" fill="#C7C7C7"/>
<path d="M58.0347 165.469C58.1734 165.453 58.3037 165.44 58.4254 165.428C58.5469 165.418 58.6817 165.412 58.8303 165.412C59.0025 165.412 59.1744 165.427 59.3437 165.458C59.5049 165.485 59.6599 165.54 59.8015 165.62C59.9366 165.698 60.0497 165.807 60.1306 165.938C60.2138 166.072 60.2554 166.242 60.2554 166.447C60.2572 166.557 60.2412 166.667 60.208 166.771C60.1797 166.859 60.1391 166.942 60.0873 167.018C60.042 167.085 59.9888 167.146 59.9288 167.2C59.879 167.245 59.8251 167.286 59.7677 167.322L59.6874 167.372L60.5159 168.773C60.4526 168.779 60.3865 168.786 60.317 168.792C60.2475 168.798 60.1763 168.801 60.1039 168.801C59.9851 168.801 59.8664 168.792 59.749 168.773L58.8586 167.238L58.9722 167.183C59.0163 167.162 59.07 167.134 59.1332 167.102C59.199 167.066 59.2604 167.023 59.3163 166.974C59.3764 166.921 59.4268 166.859 59.4652 166.79C59.5073 166.711 59.5276 166.622 59.5243 166.533C59.5243 166.34 59.4675 166.197 59.3537 166.107C59.228 166.012 59.0721 165.964 58.9135 165.971C58.8501 165.97 58.7868 165.975 58.7242 165.985V168.782C58.6676 168.788 58.6106 168.794 58.554 168.798C58.4974 168.803 58.4417 168.806 58.3876 168.806C58.3335 168.806 58.2769 168.806 58.217 168.801C58.1571 168.796 58.0955 168.791 58.0322 168.782L58.0347 165.469Z" fill="#C7C7C7"/>
<path d="M60.8965 165.469H62.828C62.8468 165.561 62.8563 165.655 62.8563 165.75C62.8566 165.847 62.8471 165.944 62.828 166.04H61.5876V166.759H62.5721C62.5908 166.853 62.6004 166.949 62.6008 167.045C62.6009 167.142 62.5913 167.239 62.5721 167.335H61.5876V168.211H62.8609C62.8799 168.303 62.8894 168.397 62.8891 168.492C62.8897 168.589 62.8802 168.687 62.8609 168.782H60.8965V165.469Z" fill="#C7C7C7"/>
<path d="M46.9527 170.486C46.9072 170.469 46.8631 170.449 46.8208 170.426C46.7834 170.405 46.7498 170.379 46.7213 170.348C46.6929 170.316 46.6712 170.279 46.6573 170.239C46.6412 170.19 46.6336 170.139 46.6348 170.088C46.6334 170.022 46.6463 169.958 46.6727 169.898C46.6968 169.844 46.7334 169.797 46.7796 169.76C46.8287 169.721 46.8853 169.692 46.946 169.675C47.0171 169.656 47.0906 169.646 47.1645 169.647C47.2343 169.646 47.304 169.653 47.3725 169.666C47.4413 169.68 47.509 169.698 47.5752 169.721C47.5659 169.804 47.5424 169.885 47.5057 169.961L47.4395 169.936C47.4164 169.927 47.3926 169.92 47.3684 169.915C47.3401 169.908 47.3115 169.904 47.2827 169.901C47.2467 169.897 47.2106 169.895 47.1745 169.896C47.1495 169.895 47.1246 169.898 47.1 169.902C47.076 169.906 47.0529 169.913 47.0318 169.925C47.0109 169.937 46.9937 169.954 46.9818 169.975C46.9678 170.001 46.961 170.03 46.9623 170.06C46.9612 170.083 46.9657 170.105 46.9755 170.126C46.9853 170.147 47 170.165 47.0184 170.179C47.0364 170.193 47.0561 170.204 47.0771 170.213C47.0987 170.222 47.1187 170.231 47.142 170.239L47.2718 170.288C47.3268 170.309 47.3767 170.331 47.4212 170.353C47.4639 170.374 47.5024 170.402 47.5348 170.436C47.5673 170.472 47.5921 170.513 47.6076 170.558C47.6261 170.614 47.6349 170.673 47.6334 170.732C47.6338 170.799 47.6196 170.866 47.5918 170.928C47.5656 170.986 47.5259 171.038 47.4757 171.08C47.4206 171.124 47.357 171.158 47.2885 171.179C47.2055 171.204 47.119 171.216 47.0322 171.215C46.9843 171.215 46.9419 171.215 46.9044 171.211C46.8684 171.208 46.8326 171.203 46.7971 171.197C46.7634 171.19 46.7297 171.182 46.6964 171.172C46.6631 171.163 46.6286 171.151 46.5928 171.136C46.5974 171.093 46.6053 171.051 46.6165 171.009C46.6281 170.965 46.6419 170.92 46.6581 170.875C46.7135 170.898 46.7707 170.916 46.8291 170.929C46.886 170.94 46.9441 170.946 47.0022 170.944C47.077 170.948 47.1515 170.931 47.2165 170.895C47.242 170.879 47.2626 170.856 47.2763 170.83C47.2899 170.803 47.2962 170.774 47.2943 170.744C47.2953 170.715 47.289 170.686 47.276 170.66C47.2641 170.638 47.248 170.619 47.2286 170.603C47.2085 170.587 47.1862 170.573 47.1624 170.562C47.1379 170.552 47.1125 170.542 47.0867 170.532L46.9527 170.486Z" fill="#BABABD"/>
<path d="M48.0885 170.486C48.0435 170.469 48 170.449 47.9582 170.426C47.9209 170.405 47.8873 170.379 47.8588 170.348C47.8304 170.316 47.8087 170.279 47.7951 170.239C47.7787 170.19 47.771 170.139 47.7722 170.088C47.7708 170.022 47.7838 169.958 47.8101 169.898C47.8345 169.844 47.8712 169.797 47.9174 169.76C47.9664 169.721 48.0231 169.692 48.0839 169.675C48.1551 169.656 48.2288 169.646 48.3027 169.647C48.3726 169.646 48.4423 169.653 48.5108 169.666C48.5794 169.68 48.6469 169.698 48.713 169.721C48.7039 169.804 48.6805 169.885 48.6439 169.961L48.5778 169.936C48.5545 169.927 48.5306 169.92 48.5062 169.915C48.478 169.908 48.4496 169.904 48.4209 169.901C48.3848 169.897 48.3486 169.895 48.3123 169.896C48.2873 169.895 48.2624 169.898 48.2378 169.902C48.2138 169.906 48.1907 169.913 48.1696 169.925C48.1488 169.937 48.1316 169.954 48.1197 169.975C48.1057 170.001 48.0991 170.03 48.1005 170.06C48.0997 170.084 48.1049 170.108 48.1155 170.13C48.1255 170.149 48.1397 170.166 48.1571 170.179C48.1748 170.193 48.1944 170.204 48.2154 170.213C48.237 170.222 48.257 170.231 48.2803 170.239L48.4105 170.288C48.465 170.309 48.5149 170.331 48.5599 170.353C48.6025 170.374 48.6409 170.402 48.6735 170.436C48.7057 170.472 48.7303 170.513 48.7459 170.558C48.7648 170.614 48.7736 170.673 48.7721 170.732C48.7724 170.799 48.7583 170.866 48.7305 170.928C48.7043 170.986 48.6647 171.038 48.6148 171.08C48.5596 171.124 48.496 171.158 48.4276 171.179C48.3445 171.204 48.2578 171.216 48.1708 171.215C48.1234 171.215 48.081 171.215 48.0431 171.211C48.0072 171.208 47.9715 171.203 47.9362 171.197C47.902 171.19 47.8688 171.182 47.8355 171.172C47.8022 171.163 47.7676 171.151 47.7314 171.136C47.7364 171.094 47.7444 171.051 47.7552 171.009C47.7668 170.965 47.7805 170.92 47.7968 170.875C47.8522 170.897 47.9094 170.915 47.9678 170.929C48.0239 170.941 48.0813 170.947 48.1388 170.947C48.2136 170.951 48.2881 170.934 48.3531 170.897C48.3786 170.881 48.3993 170.859 48.413 170.832C48.4268 170.806 48.4331 170.776 48.4313 170.747C48.4324 170.717 48.4259 170.689 48.4126 170.662C48.4009 170.64 48.3848 170.621 48.3652 170.605C48.3451 170.589 48.3228 170.575 48.299 170.565C48.2744 170.554 48.2495 170.544 48.2233 170.534L48.0885 170.486Z" fill="#BABABD"/>
<path d="M48.998 169.672C49.0488 169.664 49.1001 169.659 49.1516 169.659C49.2046 169.659 49.2574 169.664 49.3097 169.672V170.922H49.8506C49.855 170.944 49.858 170.967 49.8594 170.99C49.8594 171.012 49.8594 171.033 49.8594 171.053C49.8594 171.072 49.8594 171.097 49.8594 171.119C49.858 171.142 49.855 171.165 49.8506 171.187H48.998V169.672Z" fill="#BABABD"/>
<path d="M50.5381 169.672H51.4215C51.4301 169.714 51.4344 169.757 51.4343 169.8C51.4346 169.845 51.4303 169.889 51.4215 169.933H50.8551V170.262H51.3054C51.3138 170.305 51.3181 170.349 51.3183 170.393C51.3184 170.437 51.314 170.482 51.3054 170.525H50.8551V170.926H51.4377C51.4465 170.968 51.451 171.011 51.451 171.055C51.4511 171.099 51.4466 171.144 51.4377 171.187H50.5381V169.672Z" fill="#BABABD"/>
<path d="M51.6885 169.672C51.7305 169.664 51.7733 169.659 51.8162 169.659C51.8612 169.659 51.9061 169.664 51.9502 169.672L52.5523 170.637V169.672C52.6016 169.664 52.6516 169.659 52.7017 169.659C52.7453 169.659 52.7888 169.663 52.8315 169.672V171.187C52.7903 171.195 52.7486 171.199 52.7067 171.2C52.6624 171.199 52.6183 171.195 52.5748 171.187L51.9685 170.224V171.187C51.9221 171.195 51.875 171.199 51.8279 171.2C51.7814 171.2 51.735 171.195 51.6893 171.187L51.6885 169.672Z" fill="#BABABD"/>
<path d="M54.164 170.901C54.1827 170.94 54.1981 170.981 54.2102 171.023C54.2226 171.064 54.2318 171.106 54.2377 171.148C54.1721 171.172 54.1042 171.19 54.035 171.201C53.9708 171.21 53.906 171.214 53.8411 171.213C53.7307 171.215 53.621 171.196 53.5186 171.155C53.4295 171.119 53.35 171.064 53.286 170.993C53.2216 170.921 53.1733 170.837 53.1442 170.746C53.1117 170.645 53.0957 170.54 53.0967 170.434C53.0958 170.328 53.1125 170.222 53.1462 170.121C53.177 170.029 53.2259 169.944 53.2902 169.871C53.3539 169.8 53.4331 169.744 53.522 169.707C53.6209 169.666 53.7275 169.646 53.8349 169.648C53.8989 169.647 53.9629 169.652 54.0263 169.66C54.0914 169.67 54.1551 169.688 54.216 169.713C54.213 169.755 54.2041 169.796 54.1898 169.835C54.1752 169.875 54.1594 169.916 54.1424 169.956C54.0986 169.941 54.0536 169.929 54.008 169.921C53.9622 169.913 53.9158 169.909 53.8694 169.91C53.7307 169.91 53.6243 169.954 53.5503 170.042C53.4762 170.13 53.439 170.26 53.4388 170.433C53.4388 170.775 53.5881 170.947 53.8869 170.947C53.934 170.947 53.9811 170.944 54.0275 170.936C54.0739 170.928 54.1195 170.916 54.164 170.901Z" fill="#BABABD"/>
<path d="M54.4893 169.672C54.5529 169.665 54.6141 169.659 54.6678 169.654C54.7214 169.649 54.7851 169.647 54.8529 169.647C54.9318 169.647 55.0105 169.654 55.088 169.668C55.1613 169.681 55.2317 169.706 55.2961 169.743C55.3578 169.778 55.4094 169.828 55.4463 169.888C55.4871 169.959 55.507 170.04 55.5037 170.121C55.5046 170.171 55.4973 170.222 55.4821 170.27C55.4574 170.345 55.4134 170.412 55.3543 170.466C55.3317 170.487 55.307 170.505 55.2807 170.521L55.244 170.545L55.6227 171.185L55.532 171.194C55.5004 171.197 55.4675 171.198 55.4346 171.198C55.3803 171.198 55.326 171.194 55.2723 171.185L54.8671 170.482L54.9191 170.456C54.9395 170.446 54.964 170.434 54.9927 170.418C55.0226 170.402 55.0505 170.382 55.0759 170.36C55.1034 170.336 55.1263 170.308 55.1438 170.276C55.1689 170.225 55.1776 170.168 55.1687 170.112C55.1599 170.057 55.1339 170.005 55.0943 169.964C55.0367 169.921 54.9654 169.899 54.8929 169.902C54.8639 169.902 54.835 169.904 54.8063 169.908V171.187C54.7801 171.19 54.7543 171.193 54.7281 171.195C54.7019 171.197 54.6769 171.198 54.6524 171.198C54.6278 171.198 54.602 171.198 54.5746 171.195C54.5471 171.193 54.5188 171.191 54.4913 171.187L54.4893 169.672Z" fill="#BABABD"/>
<path d="M56.1053 170.645L55.6201 169.673C55.6803 169.665 55.7411 169.66 55.8019 169.66C55.8577 169.66 55.9134 169.664 55.9684 169.673L56.2759 170.362L56.5788 169.673C56.6331 169.664 56.6881 169.66 56.7432 169.66C56.7989 169.661 56.8545 169.665 56.9096 169.673L56.4248 170.645V171.189C56.3971 171.194 56.3694 171.196 56.3416 171.198C56.3158 171.198 56.2896 171.198 56.2638 171.198C56.238 171.198 56.2135 171.198 56.1868 171.198C56.1602 171.198 56.1332 171.194 56.1036 171.189L56.1053 170.645Z" fill="#BABABD"/>
<path d="M57.082 169.666C57.1486 169.66 57.2156 169.656 57.2834 169.652C57.3512 169.648 57.4199 169.647 57.4894 169.647C57.563 169.647 57.6364 169.654 57.7087 169.668C57.7805 169.681 57.849 169.708 57.9101 169.747C57.9721 169.788 58.0224 169.844 58.0565 169.909C58.0972 169.992 58.1165 170.084 58.1127 170.177C58.1166 170.269 58.0973 170.36 58.0565 170.443C58.0224 170.508 57.9726 170.564 57.9113 170.605C57.8517 170.645 57.7843 170.673 57.7132 170.686C57.6423 170.7 57.5701 170.707 57.4977 170.707C57.479 170.707 57.4615 170.707 57.4449 170.707C57.4282 170.707 57.4124 170.707 57.3983 170.704V171.191C57.3717 171.195 57.3448 171.197 57.318 171.199C57.2922 171.199 57.2668 171.201 57.2422 171.201C57.2177 171.201 57.194 171.201 57.1665 171.199C57.139 171.196 57.1112 171.195 57.0833 171.191L57.082 169.666ZM57.3983 170.446C57.4143 170.448 57.4306 170.45 57.4469 170.45H57.5023C57.5381 170.45 57.5738 170.445 57.6084 170.436C57.6419 170.427 57.6732 170.412 57.7003 170.391C57.7281 170.368 57.7499 170.34 57.764 170.307C57.781 170.267 57.789 170.224 57.7877 170.18C57.789 170.135 57.781 170.09 57.764 170.048C57.7506 170.016 57.7296 169.987 57.7025 169.964C57.6755 169.941 57.6432 169.924 57.6084 169.916C57.5738 169.907 57.5381 169.902 57.5023 169.902H57.4578L57.3983 169.907V170.446Z" fill="#BABABD"/>
<path d="M58.6507 169.933H58.2633C58.2543 169.889 58.2499 169.845 58.25 169.8C58.25 169.757 58.2545 169.714 58.2633 169.672H59.3564C59.3651 169.714 59.3694 169.757 59.3693 169.8C59.3695 169.845 59.3652 169.889 59.3564 169.933H58.969V171.189C58.9428 171.191 58.917 171.194 58.8908 171.196C58.8646 171.198 58.8396 171.2 58.8151 171.2C58.7905 171.2 58.7643 171.2 58.736 171.197C58.7077 171.195 58.6794 171.193 58.6507 171.189V169.933Z" fill="#BABABD"/>
<path d="M59.5703 169.672C59.6226 169.663 59.6754 169.659 59.7284 169.659C59.7821 169.659 59.8357 169.663 59.8886 169.672V171.187C59.7832 171.204 59.6757 171.204 59.5703 171.187V169.672Z" fill="#BABABD"/>
<path d="M60.8282 171.213C60.724 171.215 60.6205 171.195 60.5253 171.154C60.4437 171.116 60.3723 171.061 60.3173 170.991C60.2604 170.918 60.2188 170.834 60.1949 170.745C60.1669 170.643 60.1529 170.539 60.1533 170.434C60.153 170.328 60.167 170.223 60.1949 170.121C60.2186 170.031 60.2602 169.946 60.3173 169.871C60.3719 169.801 60.4433 169.744 60.5253 169.707C60.6213 169.668 60.7242 169.648 60.8282 169.648C60.9322 169.648 61.0352 169.668 61.1311 169.707C61.2132 169.744 61.2846 169.801 61.3392 169.871C61.3963 169.946 61.4379 170.031 61.4615 170.121C61.4895 170.223 61.5035 170.328 61.5031 170.434C61.5036 170.539 61.4896 170.643 61.4615 170.745C61.4377 170.834 61.3961 170.918 61.3392 170.991C61.2841 171.061 61.2128 171.116 61.1311 171.154C61.036 171.195 60.9325 171.215 60.8282 171.213ZM60.8282 170.955C61.0521 170.955 61.1639 170.781 61.1636 170.433C61.1636 170.259 61.1359 170.128 61.0804 170.041C61.0547 169.998 61.0176 169.964 60.9732 169.941C60.9287 169.918 60.8785 169.907 60.8282 169.91C60.6019 169.91 60.4886 170.084 60.4883 170.433C60.488 170.781 60.6013 170.955 60.8282 170.955Z" fill="#BABABD"/>
<path d="M61.7656 169.672C61.8077 169.664 61.8505 169.659 61.8934 169.659C61.9383 169.659 61.9832 169.664 62.0273 169.672L62.6294 170.637V169.672C62.6788 169.664 62.7287 169.659 62.7788 169.659C62.8224 169.659 62.8659 169.663 62.9086 169.672V171.187C62.8675 171.195 62.8257 171.199 62.7838 171.2C62.7395 171.199 62.6954 171.195 62.6519 171.187L62.0457 170.224V171.187C61.9993 171.195 61.9522 171.199 61.905 171.2C61.8585 171.2 61.8121 171.195 61.7665 171.187L61.7656 169.672Z" fill="#BABABD"/>
<path fill-rule="evenodd" clip-rule="evenodd" d="M73.1693 166.74L72.2198 163.961H72.6258L73.0795 165.33C73.2044 165.705 73.3122 166.043 73.3903 166.368H73.3994C73.4812 166.047 73.6023 165.696 73.7314 165.334L74.2239 163.961H74.6256L73.5848 166.74H73.1693Z" fill="#C7C7C7"/>
<path fill-rule="evenodd" clip-rule="evenodd" d="M74.823 165.808C74.832 166.298 75.1598 166.5 75.5402 166.5C75.8123 166.5 75.9759 166.455 76.1188 166.397L76.1836 166.657C76.0498 166.714 75.8207 166.78 75.4882 166.78C74.8447 166.78 74.4601 166.377 74.4601 165.775C74.4601 165.173 74.8315 164.699 75.4403 164.699C76.1225 164.699 76.3042 165.272 76.3042 165.639C76.3042 165.713 76.2952 165.771 76.2915 165.808H74.823ZM75.9371 165.548C75.9419 165.317 75.8378 164.958 75.4106 164.958C75.0259 164.958 74.858 165.296 74.8277 165.548H75.9371Z" fill="#C7C7C7"/>
<path fill-rule="evenodd" clip-rule="evenodd" d="M76.6021 165.367C76.6021 165.132 76.5978 164.93 76.5851 164.744H76.9177L76.9304 165.136H76.9474C77.0425 164.868 77.271 164.699 77.526 164.699C77.5691 164.699 77.5999 164.703 77.6339 164.711V165.054C77.5951 165.045 77.5563 165.041 77.5042 165.041C77.237 165.041 77.0473 165.235 76.9953 165.507C76.9862 165.557 76.9777 165.614 76.9777 165.676V166.74H76.6021V165.367Z" fill="#C7C7C7"/>
<path fill-rule="evenodd" clip-rule="evenodd" d="M78.2824 164.183C78.2867 164.307 78.1915 164.406 78.0407 164.406C77.9068 164.406 77.8116 164.307 77.8116 164.183C77.8116 164.055 77.911 163.957 78.0491 163.957C78.1915 163.957 78.2824 164.056 78.2824 164.183ZM77.859 164.744H78.2394V166.738H77.859V164.744Z" fill="#C7C7C7"/>
<path fill-rule="evenodd" clip-rule="evenodd" d="M78.7341 166.739V165.02H78.4403V164.744H78.7341V164.649C78.7341 164.369 78.7989 164.113 78.9759 163.952C79.1183 163.82 79.3079 163.767 79.4854 163.767C79.6193 163.767 79.7356 163.796 79.8089 163.825L79.7569 164.105C79.7011 164.08 79.623 164.059 79.5151 164.059C79.1916 164.059 79.1092 164.331 79.1092 164.636V164.743H79.614V165.02H79.1092V166.738H78.7341V166.739Z" fill="#C7C7C7"/>
<path fill-rule="evenodd" clip-rule="evenodd" d="M80.4132 164.183C80.418 164.307 80.3224 164.406 80.1715 164.406C80.0376 164.406 79.9425 164.307 79.9425 164.183C79.9425 164.055 80.0424 163.957 80.18 163.957C80.3224 163.957 80.4132 164.056 80.4132 164.183ZM79.9903 164.744H80.3702V166.738H79.9903V164.744Z" fill="#C7C7C7"/>
<path fill-rule="evenodd" clip-rule="evenodd" d="M81.0408 165.808C81.0498 166.298 81.3776 166.5 81.758 166.5C82.03 166.5 82.1937 166.455 82.3366 166.397L82.4014 166.657C82.2676 166.714 82.038 166.78 81.7059 166.78C81.0625 166.78 80.6779 166.377 80.6779 165.775C80.6779 165.173 81.0493 164.699 81.6582 164.699C82.3403 164.699 82.5215 165.272 82.5215 165.639C82.5215 165.713 82.513 165.771 82.5087 165.808H81.0408ZM82.1544 165.548C82.1586 165.317 82.055 164.958 81.6278 164.958C81.2432 164.958 81.0753 165.296 81.0445 165.548H82.1544Z" fill="#C7C7C7"/>
<path fill-rule="evenodd" clip-rule="evenodd" d="M84.6217 163.813V166.224C84.6217 166.402 84.626 166.603 84.6387 166.739H84.2976L84.2801 166.393H84.2711C84.1547 166.615 83.9002 166.784 83.5586 166.784C83.0538 166.784 82.6649 166.376 82.6649 165.77C82.6607 165.106 83.0926 164.699 83.6022 164.699C83.9215 164.699 84.1377 164.843 84.2323 165.003H84.2413V163.812H84.6217V163.813ZM84.2413 165.556C84.2413 165.511 84.2371 165.449 84.2243 165.403C84.1685 165.173 83.9608 164.983 83.676 164.983C83.2834 164.983 83.0501 165.313 83.0501 165.754C83.0501 166.158 83.2573 166.492 83.6675 166.492C83.922 166.492 84.1553 166.331 84.2243 166.059C84.2371 166.01 84.2413 165.96 84.2413 165.902V165.556Z" fill="#C7C7C7"/>
<path fill-rule="evenodd" clip-rule="evenodd" d="M86.0321 166.739C86.0411 166.603 86.0491 166.401 86.0491 166.224V163.813H86.4247V165.065H86.4338C86.5676 164.843 86.8094 164.699 87.1462 164.699C87.6648 164.699 88.0314 165.111 88.0271 165.717C88.0271 166.43 87.5564 166.784 87.0899 166.784C86.7876 166.784 86.5453 166.673 86.3907 166.409H86.378L86.3604 166.739H86.0321V166.739ZM86.4247 165.939C86.4247 165.984 86.4338 166.03 86.4422 166.071C86.5156 166.322 86.7355 166.495 87.0118 166.495C87.4092 166.495 87.6462 166.186 87.6462 165.729C87.6462 165.329 87.4305 164.987 87.0246 164.987C86.7658 164.987 86.5241 165.156 86.446 165.432C86.4369 165.473 86.4242 165.523 86.4242 165.58V165.939H86.4247Z" fill="#C7C7C7"/>
<path fill-rule="evenodd" clip-rule="evenodd" d="M88.4429 164.744L88.9003 165.922C88.9481 166.054 89.0002 166.211 89.0342 166.331H89.0433C89.082 166.211 89.1251 166.058 89.1771 165.914L89.5915 164.744H89.9932L89.4231 166.166C89.1511 166.85 88.9657 167.2 88.7064 167.414C88.5205 167.571 88.335 167.633 88.2399 167.649L88.1448 167.344C88.2399 167.315 88.3647 167.257 88.4774 167.166C88.581 167.088 88.7101 166.948 88.7972 166.763C88.8142 166.726 88.8275 166.697 88.8275 166.676C88.8275 166.656 88.8185 166.627 88.8015 166.582L88.0284 164.743H88.4429V164.744Z" fill="#C7C7C7"/>
<path fill-rule="evenodd" clip-rule="evenodd" d="M78.5243 168.1L77.3724 170.881L76.9065 168.517C76.8528 168.253 76.6366 168.1 76.3964 168.1H74.5129L74.4874 168.218C74.8737 168.3 75.3131 168.428 75.5793 168.566C75.7419 168.651 75.7886 168.724 75.8412 168.925L76.7242 172.186H77.8947L79.6879 168.101H78.5243V168.1Z" fill="#C7C7C7"/>
<path fill-rule="evenodd" clip-rule="evenodd" d="M80.1625 168.1L79.2482 172.185H80.3549L81.2682 168.1H80.1625Z" fill="#C7C7C7"/>
<path fill-rule="evenodd" clip-rule="evenodd" d="M82.7191 169.232C82.7228 169.086 82.8689 168.93 83.1888 168.889C83.3482 168.869 83.7844 168.855 84.2812 169.071L84.4751 168.206C84.2089 168.113 83.8652 168.024 83.4396 168.024C82.3445 168.024 81.5757 168.58 81.5688 169.375C81.563 169.962 82.1193 170.291 82.5379 170.487C82.9694 170.687 83.1144 170.814 83.1117 170.994C83.1096 171.269 82.768 171.388 82.4503 171.394C81.8929 171.402 81.5704 171.25 81.3122 171.136L81.1124 172.032C81.3701 172.145 81.8483 172.244 82.344 172.249C83.5049 172.249 84.2657 171.699 84.27 170.851C84.2743 169.772 82.7079 169.713 82.7191 169.232Z" fill="#C7C7C7"/>
<path fill-rule="evenodd" clip-rule="evenodd" d="M85.9239 170.738L86.5121 169.204L86.8431 170.738H85.9239ZM86.3442 168.1C86.1317 168.1 85.9521 168.217 85.8724 168.4L84.212 172.185H85.3751L85.6062 171.575H87.0232L87.156 172.185H88.1825L87.2899 168.1H86.3442Z" fill="#C7C7C7"/>
<defs>
<filter id="filter0_ddiii" x="0.112068" y="0.17525" width="234.018" height="424.651" filterUnits="userSpaceOnUse" color-interpolation-filters="sRGB">
<feFlood flood-opacity="0" result="BackgroundImageFix"/>
<feColorMatrix in="SourceAlpha" type="matrix" values="0 0 0 0 0 0 0 0 0 0 0 0 0 0 0 0 0 0 127 0" result="hardAlpha"/>
<feOffset dy="0.522815"/>
<feGaussianBlur stdDeviation="1.56845"/>
<feColorMatrix type="matrix" values="0 0 0 0 0.0784314 0 0 0 0 0.105882 0 0 0 0 0.160784 0 0 0 0.08 0"/>
<feBlend mode="normal" in2="BackgroundImageFix" result="effect1_dropShadow"/>
<feColorMatrix in="SourceAlpha" type="matrix" values="0 0 0 0 0 0 0 0 0 0 0 0 0 0 0 0 0 0 127 0" result="hardAlpha"/>
<feOffset dx="18.8222" dy="14.2467"/>
<feGaussianBlur stdDeviation="16.338"/>
<feColorMatrix type="matrix" values="0 0 0 0 0.00443437 0 0 0 0 0.00171874 0 0 0 0 0.1375 0 0 0 0.1 0"/>
<feBlend mode="normal" in2="effect1_dropShadow" result="effect2_dropShadow"/>
<feBlend mode="normal" in="SourceGraphic" in2="effect2_dropShadow" result="shape"/>
<feColorMatrix in="SourceAlpha" type="matrix" values="0 0 0 0 0 0 0 0 0 0 0 0 0 0 0 0 0 0 127 0" result="hardAlpha"/>
<feOffset dy="3.13689"/>
<feGaussianBlur stdDeviation="1.50309"/>
<feComposite in2="hardAlpha" operator="arithmetic" k2="-1" k3="1"/>
<feColorMatrix type="matrix" values="0 0 0 0 0.6125 0 0 0 0 0.6125 0 0 0 0 0.6125 0 0 0 0.16 0"/>
<feBlend mode="normal" in2="shape" result="effect3_innerShadow"/>
<feColorMatrix in="SourceAlpha" type="matrix" values="0 0 0 0 0 0 0 0 0 0 0 0 0 0 0 0 0 0 127 0" result="hardAlpha"/>
<feOffset dy="3.13017"/>
<feGaussianBlur stdDeviation="1.50309"/>
<feComposite in2="hardAlpha" operator="arithmetic" k2="-1" k3="1"/>
<feColorMatrix type="matrix" values="0 0 0 0 0.611765 0 0 0 0 0.611765 0 0 0 0 0.611765 0 0 0 0.16 0"/>
<feBlend mode="normal" in2="effect3_innerShadow" result="effect4_innerShadow"/>
<feColorMatrix in="SourceAlpha" type="matrix" values="0 0 0 0 0 0 0 0 0 0 0 0 0 0 0 0 0 0 127 0" result="hardAlpha"/>
<feOffset dx="0.522815" dy="0.522815"/>
<feGaussianBlur stdDeviation="1.6338"/>
<feComposite in2="hardAlpha" operator="arithmetic" k2="-1" k3="1"/>
<feColorMatrix type="matrix" values="0 0 0 0 0.85 0 0 0 0 0.85 0 0 0 0 0.85 0 0 0 0.7 0"/>
<feBlend mode="normal" in2="effect4_innerShadow" result="effect5_innerShadow"/>
</filter>
<linearGradient id="paint0_linear" x1="158.127" y1="39.615" x2="29.9258" y2="269.677" gradientUnits="userSpaceOnUse">
<stop stop-color="white"/>
<stop offset="1" stop-color="#F7F7F7"/>
</linearGradient>
</defs>
</svg>
