<svg width="171" height="177" viewBox="0 0 171 177" fill="none" xmlns="http://www.w3.org/2000/svg">
<g filter="url(#filter0_ddiii)">
<rect x="38" y="10" width="122.856" height="266.093" rx="19.0408" fill="url(#paint0_linear)"/>
</g>
<rect x="44.4153" y="17.3464" width="110.027" height="251.722" rx="14.3758" fill="#DEF3FF"/>
<path d="M160.856 55.8242C162.04 55.8242 162.999 56.7838 162.999 57.9675V71.7032C162.999 72.8869 162.04 73.8465 160.856 73.8465V55.8242Z" fill="#F4F3F3"/>
<path d="M160.658 82.9055C161.578 82.9055 162.324 83.6513 162.324 84.5712V97.7601C162.324 98.68 161.578 99.4258 160.658 99.4258V82.9055Z" fill="#F4F3F3"/>
<path d="M160.657 99.4255C161.577 99.4255 162.322 100.171 162.322 101.091V114.28C162.322 115.2 161.577 115.946 160.657 115.946V99.4255Z" fill="#F4F3F3"/>
<path d="M75.1418 17.3464H123.715V22.061C123.715 24.69 121.584 26.8212 118.955 26.8212H79.9021C77.2731 26.8212 75.1418 24.69 75.1418 22.061V17.3464Z" fill="white"/>
<rect x="50.5132" y="46.1489" width="96.3687" height="94.9304" rx="8.62703" fill="white"/>
<path d="M98.5005 75C96.8193 75 95.176 75.4985 93.7781 76.4325C92.3803 77.3665 91.2909 78.694 90.6475 80.2472C90.0042 81.8004 89.8358 83.5094 90.1638 85.1583C90.4918 86.8071 91.3013 88.3217 92.4901 89.5104C93.6788 90.6992 95.1934 91.5087 96.8422 91.8367C98.4911 92.1646 100.2 91.9963 101.753 91.353C103.306 90.7096 104.634 89.6202 105.568 88.2223C106.502 86.8245 107 85.1811 107 83.5C107 81.2457 106.105 79.0837 104.511 77.4896C102.917 75.8955 100.755 75 98.5005 75ZM98.5005 90.9375C97.0295 90.9375 95.5915 90.5013 94.3684 89.6841C93.1453 88.8668 92.1921 87.7052 91.6291 86.3462C91.0662 84.9872 90.9189 83.4917 91.2059 82.049C91.4929 80.6063 92.2012 79.281 93.2414 78.2409C94.2815 77.2007 95.6068 76.4924 97.0495 76.2054C98.4922 75.9184 99.9877 76.0657 101.347 76.6286C102.706 77.1916 103.867 78.1449 104.685 79.3679C105.502 80.591 105.938 82.029 105.938 83.5C105.938 85.4725 105.154 87.3643 103.76 88.7591C102.365 90.1539 100.473 90.9375 98.5005 90.9375Z" fill="#17EAB7"/>
<path d="M102.871 81.1025C102.789 81.0368 102.678 81 102.563 81C102.447 81 102.336 81.0368 102.254 81.1025L97.3965 84.9958L94.7709 82.8818C94.6908 82.8122 94.5796 82.771 94.4619 82.7674C94.3441 82.7637 94.2294 82.7979 94.1429 82.8624C94.0564 82.9269 94.0053 83.0164 94.0008 83.1112C93.9963 83.206 94.0388 83.2984 94.1188 83.368L97.3965 86L102.871 81.6028C102.912 81.57 102.945 81.5311 102.967 81.4881C102.989 81.4452 103 81.3991 103 81.3526C103 81.3061 102.989 81.2601 102.967 81.2171C102.945 81.1742 102.912 81.1352 102.871 81.1025Z" fill="#17EAB7" stroke="#17EAB7" stroke-width="0.2"/>
<path d="M62.7487 51.5339C62.6856 51.4669 62.6071 51.4169 62.5201 51.3883C62.4112 51.3511 62.2969 51.3332 62.182 51.3354H61.4431V53.2358H61.7275V52.56H62.182C62.2969 52.5622 62.4112 52.5443 62.5201 52.5071C62.6071 52.4785 62.6856 52.4285 62.7487 52.3615C62.7998 52.3047 62.84 52.2388 62.8672 52.1671C62.918 52.0256 62.918 51.8705 62.8672 51.729C62.8401 51.657 62.7999 51.5909 62.7487 51.5339ZM61.7275 51.6098H62.1586C62.33 51.6098 62.4512 51.6426 62.5194 51.7074C62.5516 51.7385 62.5771 51.7758 62.5946 51.8172C62.6121 51.8586 62.6211 51.9031 62.6211 51.9481C62.6211 51.993 62.6121 52.0376 62.5946 52.0789C62.5771 52.1203 62.5516 52.1577 62.5194 52.1887C62.4506 52.2535 62.33 52.2863 62.1586 52.2863H61.7275V51.6098Z" fill="black"/>
<path d="M64.0722 51.986C64.0153 51.9289 63.9478 51.8838 63.8736 51.8532C63.7994 51.8226 63.7199 51.8071 63.6398 51.8076C63.5543 51.8079 63.4698 51.8255 63.3913 51.8595C63.3127 51.8935 63.2417 51.9431 63.1826 52.0055C63.1159 52.0754 63.0641 52.1584 63.0302 52.2493C62.9964 52.3402 62.9812 52.4372 62.9856 52.5342C62.9812 52.6313 62.9964 52.7282 63.0302 52.8191C63.0641 52.91 63.1159 52.993 63.1826 53.0629C63.2421 53.1257 63.3137 53.1756 63.3929 53.2096C63.472 53.2436 63.5572 53.261 63.6432 53.2608C63.7234 53.2613 63.8028 53.2458 63.877 53.2152C63.9512 53.1846 64.0187 53.1395 64.0757 53.0825L64.1012 53.2343H64.3532V51.8341H64.1012L64.0722 51.986ZM64.0653 52.2646V52.8038C64.0168 52.8611 63.9568 52.9072 63.8892 52.939C63.8216 52.9708 63.7481 52.9877 63.6735 52.9884C63.6189 52.9907 63.5644 52.9814 63.5135 52.9612C63.4626 52.9409 63.4165 52.9101 63.3781 52.8707C63.2987 52.7774 63.2587 52.6563 63.2666 52.5335C63.2587 52.4107 63.2987 52.2896 63.3781 52.1963C63.4165 52.157 63.4626 52.1261 63.5135 52.1059C63.5644 52.0856 63.6189 52.0763 63.6735 52.0786C63.7482 52.0795 63.8218 52.0966 63.8894 52.1287C63.957 52.1607 64.017 52.2071 64.0653 52.2646Z" fill="black"/>
<path d="M65.2298 52.8778L64.8201 51.8342H64.5137L65.077 53.2324L64.8421 53.844H65.132L65.9563 51.8342H65.6499L65.2298 52.8778Z" fill="#313235"/>
<path d="M67.9127 51.3354H66.364V51.6071H66.9962V53.2338H67.2806V51.6071H67.9127V51.3354Z" fill="black"/>
<path d="M68.4848 51.8076C68.3936 51.8025 68.3024 51.8191 68.2187 51.8562C68.135 51.8932 68.061 51.9496 68.0028 52.0208C67.8889 52.174 67.8306 52.3621 67.8375 52.5537C67.833 52.6477 67.8471 52.7417 67.879 52.8301C67.9109 52.9185 67.96 52.9996 68.0234 53.0685C68.0884 53.1329 68.1657 53.1831 68.2506 53.2161C68.3356 53.249 68.4263 53.264 68.5172 53.2601C68.7016 53.2644 68.884 53.2205 69.0467 53.1326L69.0584 53.1256V52.8365L69.0233 52.8602C68.8938 52.9447 68.7429 52.9894 68.5888 52.9891C68.469 52.9987 68.3499 52.964 68.2534 52.8915C68.1839 52.8263 68.1395 52.7381 68.1281 52.6428H69.1376V52.5342C69.1426 52.3489 69.0842 52.1675 68.9723 52.0208C68.9135 51.9488 68.8386 51.892 68.7539 51.8549C68.6691 51.8179 68.5769 51.8017 68.4848 51.8076ZM68.126 52.3997C68.128 52.3526 68.1392 52.3063 68.1591 52.2636C68.179 52.2209 68.207 52.1826 68.2417 52.151C68.3091 52.0916 68.3954 52.0588 68.4848 52.0584C68.5753 52.0584 68.6628 52.0913 68.7313 52.151C68.7663 52.1824 68.7947 52.2206 68.8148 52.2634C68.8349 52.3061 68.8463 52.3524 68.8484 52.3997H68.126Z" fill="black"/>
<path d="M70.0776 51.8075C69.8882 51.8036 69.7047 51.8743 69.5659 52.0047C69.43 52.1465 69.354 52.3362 69.354 52.5338C69.354 52.7313 69.43 52.921 69.5659 53.0628C69.7047 53.1932 69.8882 53.2639 70.0776 53.26C70.2418 53.2591 70.4027 53.2131 70.5431 53.1269L70.5541 53.12V52.8357L70.5183 52.8601C70.3946 52.9446 70.2488 52.9895 70.0996 52.989C70.0376 52.9926 69.9756 52.9834 69.9172 52.9619C69.8588 52.9405 69.8054 52.9073 69.7601 52.8643C69.6814 52.7728 69.638 52.6555 69.638 52.5341C69.638 52.4127 69.6814 52.2955 69.7601 52.2039C69.8054 52.1609 69.8588 52.1277 69.9172 52.1063C69.9756 52.0848 70.0376 52.0756 70.0996 52.0792C70.2488 52.0788 70.3946 52.1237 70.5183 52.2081L70.5541 52.2325V51.9476L70.5431 51.9406C70.4027 51.8544 70.2418 51.8084 70.0776 51.8075Z" fill="black"/>
<path d="M71.9567 51.9643C71.9121 51.9124 71.8565 51.8714 71.794 51.8442C71.7315 51.8171 71.6638 51.8046 71.5959 51.8075C71.5085 51.8087 71.4222 51.8279 71.3423 51.8638C71.2624 51.8997 71.1905 51.9517 71.1311 52.0165V51.2502H70.8467V53.2356H71.1311V52.3168C71.2592 52.1579 71.3962 52.0771 71.5387 52.0771C71.7178 52.0771 71.8045 52.1754 71.8045 52.3781V53.2356H72.0889V52.3509C72.0932 52.21 72.0461 52.0724 71.9567 51.9643Z" fill="black"/>
<path d="M56.6339 51.2051C56.8362 51.2051 57.0003 51.0392 57.0003 50.8345C57.0003 50.6298 56.8362 50.4639 56.6339 50.4639C56.4316 50.4639 56.2676 50.6298 56.2676 50.8345C56.2676 51.0392 56.4316 51.2051 56.6339 51.2051Z" fill="#00D3FF"/>
<path d="M56.6339 52.6958C56.8362 52.6958 57.0003 52.5299 57.0003 52.3252C57.0003 52.1205 56.8362 51.9546 56.6339 51.9546C56.4316 51.9546 56.2676 52.1205 56.2676 52.3252C56.2676 52.5299 56.4316 52.6958 56.6339 52.6958Z" fill="#00D3FF"/>
<path d="M56.6339 54.1865C56.8362 54.1865 57.0003 54.0206 57.0003 53.8159C57.0003 53.6112 56.8362 53.4453 56.6339 53.4453C56.4316 53.4453 56.2676 53.6112 56.2676 53.8159C56.2676 54.0206 56.4316 54.1865 56.6339 54.1865Z" fill="#00D3FF"/>
<path d="M58.0978 51.2051C58.3001 51.2051 58.4641 51.0392 58.4641 50.8345C58.4641 50.6298 58.3001 50.4639 58.0978 50.4639C57.8955 50.4639 57.7314 50.6298 57.7314 50.8345C57.7314 51.0392 57.8955 51.2051 58.0978 51.2051Z" fill="black"/>
<path d="M58.0978 52.6958C58.3001 52.6958 58.4641 52.5299 58.4641 52.3252C58.4641 52.1205 58.3001 51.9546 58.0978 51.9546C57.8955 51.9546 57.7314 52.1205 57.7314 52.3252C57.7314 52.5299 57.8955 52.6958 58.0978 52.6958Z" fill="black"/>
<path d="M58.0978 54.1865C58.3001 54.1865 58.4641 54.0206 58.4641 53.8159C58.4641 53.6112 58.3001 53.4453 58.0978 53.4453C57.8955 53.4453 57.7314 53.6112 57.7314 53.8159C57.7314 54.0206 57.8955 54.1865 58.0978 54.1865Z" fill="black"/>
<path d="M59.5626 51.2051C59.765 51.2051 59.929 51.0392 59.929 50.8345C59.929 50.6298 59.765 50.4639 59.5626 50.4639C59.3603 50.4639 59.1963 50.6298 59.1963 50.8345C59.1963 51.0392 59.3603 51.2051 59.5626 51.2051Z" fill="black"/>
<path d="M59.5626 52.6958C59.765 52.6958 59.929 52.5299 59.929 52.3252C59.929 52.1205 59.765 51.9546 59.5626 51.9546C59.3603 51.9546 59.1963 52.1205 59.1963 52.3252C59.1963 52.5299 59.3603 52.6958 59.5626 52.6958Z" fill="black"/>
<path d="M59.5626 54.1865C59.765 54.1865 59.929 54.0206 59.929 53.8159C59.929 53.6112 59.765 53.4453 59.5626 53.4453C59.3603 53.4453 59.1963 53.6112 59.1963 53.8159C59.1963 54.0206 59.3603 54.1865 59.5626 54.1865Z" fill="#4BC6F6"/>
<text fill="#111111" xml:space="preserve" style="white-space: pre" font-family="Geometria" font-size="7.18919" font-weight="bold" letter-spacing="0em"><tspan x="67.1973" y="106.518">&#x41e;&#x43f;&#x43b;&#x430;&#x442;&#x430; &#x443;&#x441;&#x43f;&#x435;&#x448;&#x43d;&#x430;!</tspan></text>
<defs>
<filter id="filter0_ddiii" x="0.489619" y="-3.42377" width="170.458" height="313.695" filterUnits="userSpaceOnUse" color-interpolation-filters="sRGB">
<feFlood flood-opacity="0" result="BackgroundImageFix"/>
<feColorMatrix in="SourceAlpha" type="matrix" values="0 0 0 0 0 0 0 0 0 0 0 0 0 0 0 0 0 0 127 0" result="hardAlpha"/>
<feOffset dy="0.380816"/>
<feGaussianBlur stdDeviation="1.14245"/>
<feColorMatrix type="matrix" values="0 0 0 0 0.0784314 0 0 0 0 0.105882 0 0 0 0 0.160784 0 0 0 0.08 0"/>
<feBlend mode="normal" in2="BackgroundImageFix" result="effect1_dropShadow"/>
<feColorMatrix in="SourceAlpha" type="matrix" values="0 0 0 0 0 0 0 0 0 0 0 0 0 0 0 0 0 0 127 0" result="hardAlpha"/>
<feOffset dx="-13.7094" dy="10.3772"/>
<feGaussianBlur stdDeviation="11.9005"/>
<feColorMatrix type="matrix" values="0 0 0 0 0.00443437 0 0 0 0 0.00171874 0 0 0 0 0.1375 0 0 0 0.1 0"/>
<feBlend mode="normal" in2="effect1_dropShadow" result="effect2_dropShadow"/>
<feBlend mode="normal" in="SourceGraphic" in2="effect2_dropShadow" result="shape"/>
<feColorMatrix in="SourceAlpha" type="matrix" values="0 0 0 0 0 0 0 0 0 0 0 0 0 0 0 0 0 0 127 0" result="hardAlpha"/>
<feOffset dy="2.2849"/>
<feGaussianBlur stdDeviation="1.09485"/>
<feComposite in2="hardAlpha" operator="arithmetic" k2="-1" k3="1"/>
<feColorMatrix type="matrix" values="0 0 0 0 0.6125 0 0 0 0 0.6125 0 0 0 0 0.6125 0 0 0 0.16 0"/>
<feBlend mode="normal" in2="shape" result="effect3_innerShadow"/>
<feColorMatrix in="SourceAlpha" type="matrix" values="0 0 0 0 0 0 0 0 0 0 0 0 0 0 0 0 0 0 127 0" result="hardAlpha"/>
<feOffset dy="-2.2849"/>
<feGaussianBlur stdDeviation="1.09485"/>
<feComposite in2="hardAlpha" operator="arithmetic" k2="-1" k3="1"/>
<feColorMatrix type="matrix" values="0 0 0 0 0.611765 0 0 0 0 0.611765 0 0 0 0 0.611765 0 0 0 0.16 0"/>
<feBlend mode="normal" in2="effect3_innerShadow" result="effect4_innerShadow"/>
<feColorMatrix in="SourceAlpha" type="matrix" values="0 0 0 0 0 0 0 0 0 0 0 0 0 0 0 0 0 0 127 0" result="hardAlpha"/>
<feOffset dx="0.380816" dy="0.380816"/>
<feGaussianBlur stdDeviation="1.19005"/>
<feComposite in2="hardAlpha" operator="arithmetic" k2="-1" k3="1"/>
<feColorMatrix type="matrix" values="0 0 0 0 0.85 0 0 0 0 0.85 0 0 0 0 0.85 0 0 0 0.7 0"/>
<feBlend mode="normal" in2="effect4_innerShadow" result="effect5_innerShadow"/>
</filter>
<linearGradient id="paint0_linear" x1="143.007" y1="25.5602" x2="47.2392" y2="194.59" gradientUnits="userSpaceOnUse">
<stop stop-color="white"/>
<stop offset="1" stop-color="#F7F7F7"/>
</linearGradient>
</defs>
</svg>
