<svg width="53" height="43" viewBox="0 0 53 43" fill="none" xmlns="http://www.w3.org/2000/svg">
<circle cx="21.5" cy="21.5" r="21.5" fill="url(#paint0_radial)"/>
<g filter="url(#filter0_b)">
<path d="M19.4433 34.5409C17.6335 35.7475 15.4215 35.5464 14.5417 35.295C13.4105 35.0436 10.922 34.3901 10.0171 33.7868C8.88593 33.0327 8.50891 30.7704 7.75478 29.2622C7.00065 27.754 7.75482 19.0819 7.37777 16.8196C7.00072 14.5573 8.13187 12.672 8.50891 10.7868C8.88596 8.90155 10.3942 8.52452 12.2794 6.63928C13.7876 5.13108 15.9242 5.0054 16.804 5.13108H40.5581C42.4433 5.25676 46.4401 5.58354 47.345 5.88518C48.2499 6.18682 50.2357 8.52452 51.1155 9.65567L52.2466 14.1803C52.1209 17.6994 51.945 25.2655 52.2466 27.377C52.5483 29.4885 51.6182 31.5245 51.1155 32.2786C50.2357 33.2841 48.2499 35.3704 47.345 35.6721C46.4401 35.9737 44.4543 35.5464 43.5745 35.295C42.3177 34.7923 39.6532 33.636 39.0499 33.0327C38.4466 32.4294 37.2903 30.5191 36.7876 29.6393L33.7712 22.0983H26.2302C25.7275 23.9835 24.6466 28.1311 24.345 29.6393C23.9679 31.5245 21.7056 33.0327 19.4433 34.5409Z" fill="white" fill-opacity="0.24"/>
</g>
<path d="M42.4043 4.04242H35.0156C31.9787 4 34.9286 4.04242 32.1905 4L25.0204 4.04118C25.1747 4.66694 25.3581 5.41023 25.0204 4.04118L17.5949 4.04227C11.7531 4.04242 7 8.79554 7 14.6373V27.2017C7 32.3284 10.7565 36.5 15.3744 36.5C19.8925 36.5 24.391 33.1248 25.4039 28.9768L26.9253 22.7419H33.2523L35.5421 29.0639C37.0527 33.2337 41.4229 36.4998 45.4921 36.4998C49.6314 36.4998 53 32.3283 53 27.2016V14.6372C52.9992 8.79554 48.2461 4.04242 42.4043 4.04242ZM51.3087 27.2017C51.3087 31.3969 48.6993 34.8094 45.4913 34.8094C42.1439 34.8094 38.3942 31.9743 37.1314 28.4874L34.6395 21.6075C34.5178 21.2728 34.2 21.0505 33.8449 21.0505H26.2609C25.8713 21.0505 25.5324 21.3167 25.4393 21.6955L23.7605 28.5754C22.9219 32.0123 19.1596 34.8094 15.3736 34.8094C11.6881 34.8094 8.68979 31.3971 8.68979 27.2017V14.6373C8.68979 9.72692 12.6846 5.73299 17.5941 5.73299H25.8281H34.1695H42.4036C47.3139 5.73299 51.3079 9.72785 51.3079 14.6373V27.2017H51.3087Z" fill="white"/>
<path d="M43.1431 13.7737C43.748 13.7737 44.2383 13.2834 44.2383 12.6785C44.2383 12.0736 43.748 11.5833 43.1431 11.5833C42.5382 11.5833 42.0479 12.0736 42.0479 12.6785C42.0479 13.2834 42.5382 13.7737 43.1431 13.7737Z" fill="white"/>
<path d="M43.1431 20.3453C43.748 20.3453 44.2383 19.8549 44.2383 19.25C44.2383 18.6451 43.748 18.1548 43.1431 18.1548C42.5382 18.1548 42.0479 18.6451 42.0479 19.25C42.0479 19.8549 42.5382 20.3453 43.1431 20.3453Z" fill="white"/>
<path d="M46.4278 17.0596C47.0326 17.0596 47.523 16.5693 47.523 15.9644C47.523 15.3595 47.0326 14.8691 46.4278 14.8691C45.8229 14.8691 45.3325 15.3595 45.3325 15.9644C45.3325 16.5693 45.8229 17.0596 46.4278 17.0596Z" fill="white"/>
<path d="M39.8566 17.0596C40.4615 17.0596 40.9518 16.5693 40.9518 15.9644C40.9518 15.3595 40.4615 14.8691 39.8566 14.8691C39.2517 14.8691 38.7614 15.3595 38.7614 15.9644C38.7614 16.5693 39.2517 17.0596 39.8566 17.0596Z" fill="white"/>
<path d="M20.3742 15.3752H17.9938V12.9942C17.9938 12.5176 17.6074 12.1311 17.1307 12.1311C16.6536 12.1311 16.2671 12.517 16.2671 12.9942V15.3751H13.8862C13.4095 15.3751 13.0231 15.761 13.0231 16.2382C13.0231 16.7149 13.4095 17.1014 13.8862 17.1014H16.2671V19.4823C16.2671 19.9589 16.6536 20.3454 17.1307 20.3454C17.6068 20.3454 17.9938 19.9595 17.9938 19.4823V17.1014H20.3742C20.8503 17.1014 21.2374 16.7155 21.2374 16.2382C21.2373 15.7617 20.8509 15.3752 20.3742 15.3752Z" fill="white"/>
<defs>
<filter id="filter0_b" x="3.30188" y="1.09424" width="53.0036" height="38.6816" filterUnits="userSpaceOnUse" color-interpolation-filters="sRGB">
<feFlood flood-opacity="0" result="BackgroundImageFix"/>
<feGaussianBlur in="BackgroundImage" stdDeviation="2"/>
<feComposite in2="SourceAlpha" operator="in" result="effect1_backgroundBlur"/>
<feBlend mode="normal" in="SourceGraphic" in2="effect1_backgroundBlur" result="shape"/>
</filter>
<radialGradient id="paint0_radial" cx="0" cy="0" r="1" gradientUnits="userSpaceOnUse" gradientTransform="translate(21.5 21.5) rotate(90) scale(21.5)">
<stop stop-color="#4BC6F6"/>
<stop offset="1" stop-color="#4BC6F6" stop-opacity="0"/>
</radialGradient>
</defs>
</svg>
