<svg width="120" height="28" viewBox="0 0 120 28" fill="none" xmlns="http://www.w3.org/2000/svg">
<path d="M49.1567 8.04779C48.6783 7.54405 48.0824 7.16771 47.4228 6.95273C46.5972 6.67307 45.7297 6.53836 44.8584 6.55452H39.2544V20.8479H41.4114V15.7656H44.8584C45.7297 15.7818 46.5972 15.6471 47.4228 15.3674C48.0824 15.1524 48.6783 14.7761 49.1567 14.2723C49.5443 13.8454 49.849 13.3496 50.0551 12.8105C50.441 11.7461 50.441 10.5793 50.0551 9.51485C49.8495 8.97386 49.5449 8.47626 49.1567 8.04779ZM41.4114 8.6189H44.6808C45.9813 8.6189 46.9005 8.86515 47.4176 9.35242C47.6614 9.58625 47.8554 9.86721 47.9879 10.1783C48.1205 10.4895 48.1888 10.8243 48.1888 11.1627C48.1888 11.501 48.1205 11.8359 47.9879 12.147C47.8554 12.4582 47.6614 12.7391 47.4176 12.9729C46.8953 13.4602 45.9813 13.7065 44.6808 13.7065H41.4114V8.6189Z" fill="#313235"/>
<path d="M59.1945 11.4483C58.7625 11.0194 58.2505 10.6802 57.6877 10.45C57.1248 10.2198 56.5223 10.1033 55.9146 10.107C55.2665 10.1088 54.6255 10.2414 54.0297 10.4971C53.4339 10.7527 52.8955 11.1261 52.4466 11.595C51.9413 12.1213 51.5483 12.7453 51.2914 13.4291C51.0346 14.1128 50.9194 14.8419 50.9529 15.5718C50.9194 16.3018 51.0346 17.0309 51.2914 17.7146C51.5483 18.3984 51.9413 19.0224 52.4466 19.5486C52.8985 20.0207 53.4412 20.396 54.0417 20.6518C54.6422 20.9075 55.2883 21.0385 55.9407 21.0367C56.5484 21.0404 57.151 20.9238 57.7138 20.6937C58.2766 20.4635 58.7886 20.1243 59.2206 19.6953L59.4138 20.8376H61.3253V10.3061H59.4138L59.1945 11.4483ZM59.1422 13.5441V17.5995C58.7742 18.0302 58.3187 18.3769 57.8061 18.6164C57.2936 18.8559 56.7359 18.9826 56.1705 18.988C55.7561 19.0054 55.3427 18.9357 54.9568 18.7832C54.5709 18.6307 54.2211 18.3988 53.9299 18.1025C53.3279 17.4009 53.0241 16.4904 53.0838 15.5666C53.0241 14.6428 53.3279 13.7323 53.9299 13.0307C54.2211 12.7344 54.5709 12.5026 54.9568 12.3501C55.3427 12.1975 55.7561 12.1278 56.1705 12.1452C56.7367 12.1519 57.2949 12.2803 57.8075 12.5216C58.3201 12.7629 58.7752 13.1116 59.1422 13.5441Z" fill="#313235"/>
<path d="M67.9741 18.155L64.8666 10.3062H62.5425L66.8147 20.8219L65.0337 25.4222H67.2325L73.4842 10.3062H71.16L67.9741 18.155Z" fill="#313235"/>
<path d="M88.3222 6.55469H76.5762V8.5981H81.3707V20.8324H83.5277V8.5981H88.3222V6.55469Z" fill="#313235"/>
<path d="M92.6623 10.1071C91.9704 10.0688 91.2791 10.1939 90.6442 10.4724C90.0092 10.7508 89.4482 11.1749 89.0064 11.7104C88.1428 12.8628 87.7003 14.2779 87.7529 15.7187C87.7184 16.4258 87.8254 17.1328 88.0676 17.7978C88.3097 18.4628 88.6822 19.0724 89.1631 19.5907C89.6557 20.0752 90.2423 20.453 90.8864 20.7009C91.5305 20.9487 92.2185 21.0613 92.9078 21.0315C94.3065 21.0643 95.69 20.734 96.9241 20.0727L97.0129 20.0203V17.8459L96.7465 18.024C95.7643 18.6596 94.6197 18.9962 93.4509 18.9934C92.5426 19.0656 91.6389 18.805 90.9075 18.2598C90.3799 17.7689 90.0431 17.106 89.9569 16.3893H97.6135V15.5719C97.6515 14.1784 97.2087 12.8143 96.36 11.7104C95.9136 11.1693 95.3458 10.7419 94.7031 10.4632C94.0604 10.1845 93.3611 10.0625 92.6623 10.1071ZM89.9412 14.5607C89.956 14.206 90.0413 13.8579 90.192 13.5367C90.3426 13.2155 90.5557 12.9277 90.8187 12.6902C91.33 12.2435 91.9843 11.9962 92.6623 11.9934C93.3486 11.9937 94.012 12.2409 94.5321 12.6902C94.7974 12.9264 95.0127 13.2137 95.1652 13.5351C95.3178 13.8564 95.4044 14.2052 95.4199 14.5607H89.9412Z" fill="#313235"/>
<path d="M104.742 10.1071C103.306 10.0776 101.915 10.6093 100.862 11.5899C99.8309 12.6564 99.2544 14.0837 99.2544 15.5693C99.2544 17.055 99.8309 18.4822 100.862 19.5487C101.915 20.5294 103.306 21.0611 104.742 21.0315C105.988 21.0248 107.208 20.6789 108.273 20.0308L108.356 19.9784V17.8407L108.085 18.024C107.147 18.659 106.041 18.9967 104.909 18.9934C104.439 19.0203 103.969 18.9511 103.526 18.7898C103.083 18.6286 102.678 18.3788 102.335 18.0555C101.737 17.3669 101.408 16.4848 101.408 15.5719C101.408 14.6591 101.737 13.777 102.335 13.0884C102.678 12.7651 103.083 12.5153 103.526 12.3541C103.969 12.1928 104.439 12.1236 104.909 12.1505C106.041 12.1475 107.147 12.4852 108.085 13.1199L108.356 13.3032V11.1603L108.273 11.1079C107.208 10.4598 105.988 10.1139 104.742 10.1071Z" fill="#313235"/>
<path d="M118.995 11.286C118.657 10.8959 118.235 10.5873 117.761 10.3832C117.287 10.1791 116.774 10.0847 116.259 10.1071C115.595 10.1161 114.941 10.2601 114.335 10.5303C113.729 10.8005 113.184 11.1913 112.733 11.679V5.91553H110.576V20.8482H112.733V13.9372C113.705 12.7426 114.744 12.1348 115.825 12.1348C117.183 12.1348 117.841 12.8736 117.841 14.3983V20.8482H119.998V14.194C120.03 13.1342 119.673 12.0994 118.995 11.286Z" fill="#313235"/>
<path d="M2.77851 5.57485C4.31304 5.57485 5.55702 4.32688 5.55702 2.78743C5.55702 1.24797 4.31304 0 2.77851 0C1.24398 0 0 1.24797 0 2.78743C0 4.32688 1.24398 5.57485 2.77851 5.57485Z" fill="#4BC6F6"/>
<path d="M2.77851 16.7873C4.31304 16.7873 5.55702 15.5393 5.55702 13.9998C5.55702 12.4604 4.31304 11.2124 2.77851 11.2124C1.24398 11.2124 0 12.4604 0 13.9998C0 15.5393 1.24398 16.7873 2.77851 16.7873Z" fill="#4BC6F6"/>
<path d="M2.77851 28.0001C4.31304 28.0001 5.55702 26.7522 5.55702 25.2127C5.55702 23.6733 4.31304 22.4253 2.77851 22.4253C1.24398 22.4253 0 23.6733 0 25.2127C0 26.7522 1.24398 28.0001 2.77851 28.0001Z" fill="#4BC6F6"/>
<path d="M13.882 5.57485C15.4166 5.57485 16.6605 4.32688 16.6605 2.78743C16.6605 1.24797 15.4166 0 13.882 0C12.3475 0 11.1035 1.24797 11.1035 2.78743C11.1035 4.32688 12.3475 5.57485 13.882 5.57485Z" fill="#313235"/>
<path d="M13.882 16.7873C15.4166 16.7873 16.6605 15.5393 16.6605 13.9998C16.6605 12.4604 15.4166 11.2124 13.882 11.2124C12.3475 11.2124 11.1035 12.4604 11.1035 13.9998C11.1035 15.5393 12.3475 16.7873 13.882 16.7873Z" fill="#313235"/>
<path d="M13.882 28.0001C15.4166 28.0001 16.6605 26.7522 16.6605 25.2127C16.6605 23.6733 15.4166 22.4253 13.882 22.4253C12.3475 22.4253 11.1035 23.6733 11.1035 25.2127C11.1035 26.7522 12.3475 28.0001 13.882 28.0001Z" fill="#313235"/>
<path d="M24.9909 5.57485C26.5254 5.57485 27.7694 4.32688 27.7694 2.78743C27.7694 1.24797 26.5254 0 24.9909 0C23.4564 0 22.2124 1.24797 22.2124 2.78743C22.2124 4.32688 23.4564 5.57485 24.9909 5.57485Z" fill="#313235"/>
<path d="M24.9909 16.7873C26.5254 16.7873 27.7694 15.5393 27.7694 13.9998C27.7694 12.4604 26.5254 11.2124 24.9909 11.2124C23.4564 11.2124 22.2124 12.4604 22.2124 13.9998C22.2124 15.5393 23.4564 16.7873 24.9909 16.7873Z" fill="#313235"/>
<path d="M24.9909 28.0001C26.5254 28.0001 27.7694 26.7522 27.7694 25.2127C27.7694 23.6733 26.5254 22.4253 24.9909 22.4253C23.4564 22.4253 22.2124 23.6733 22.2124 25.2127C22.2124 26.7522 23.4564 28.0001 24.9909 28.0001Z" fill="#4BC6F6"/>
</svg>
