<svg width="120" height="28" viewBox="0 0 120 28" fill="none" xmlns="http://www.w3.org/2000/svg">
<path d="M49.1563 8.04779C48.6778 7.54405 48.0819 7.16771 47.4223 6.95273C46.5967 6.67307 45.7292 6.53836 44.8579 6.55452H39.2539V20.8479H41.4109V15.7656H44.8579C45.7292 15.7818 46.5967 15.6471 47.4223 15.3674C48.0819 15.1524 48.6778 14.7761 49.1563 14.2723C49.5438 13.8454 49.8485 13.3496 50.0546 12.8105C50.4405 11.7461 50.4405 10.5793 50.0546 9.51485C49.8491 8.97386 49.5444 8.47626 49.1563 8.04779ZM41.4109 8.6189H44.6804C45.9808 8.6189 46.9 8.86515 47.4171 9.35242C47.6609 9.58625 47.8549 9.86721 47.9875 10.1783C48.12 10.4895 48.1884 10.8243 48.1884 11.1627C48.1884 11.501 48.12 11.8359 47.9875 12.147C47.8549 12.4582 47.6609 12.7391 47.4171 12.9729C46.8948 13.4602 45.9808 13.7065 44.6804 13.7065H41.4109V8.6189Z" fill="#4BC6F6"/>
<path d="M59.1945 11.4483C58.7625 11.0194 58.2505 10.6802 57.6877 10.45C57.1248 10.2198 56.5223 10.1033 55.9146 10.107C55.2665 10.1088 54.6255 10.2414 54.0297 10.4971C53.4339 10.7527 52.8955 11.1261 52.4466 11.595C51.9413 12.1213 51.5483 12.7453 51.2914 13.4291C51.0346 14.1128 50.9194 14.8419 50.9529 15.5718C50.9194 16.3018 51.0346 17.0309 51.2914 17.7146C51.5483 18.3984 51.9413 19.0224 52.4466 19.5486C52.8985 20.0207 53.4412 20.396 54.0417 20.6518C54.6422 20.9075 55.2883 21.0385 55.9407 21.0367C56.5484 21.0404 57.151 20.9238 57.7138 20.6937C58.2766 20.4635 58.7886 20.1243 59.2206 19.6953L59.4138 20.8376H61.3253V10.3061H59.4138L59.1945 11.4483ZM59.1422 13.5441V17.5995C58.7742 18.0302 58.3187 18.3769 57.8061 18.6164C57.2936 18.8559 56.7359 18.9826 56.1705 18.988C55.7561 19.0054 55.3427 18.9357 54.9568 18.7832C54.5709 18.6307 54.2211 18.3988 53.9299 18.1025C53.3279 17.4009 53.0241 16.4904 53.0838 15.5666C53.0241 14.6428 53.3279 13.7323 53.9299 13.0307C54.2211 12.7344 54.5709 12.5026 54.9568 12.3501C55.3427 12.1975 55.7561 12.1278 56.1705 12.1452C56.7367 12.1519 57.2949 12.2803 57.8075 12.5216C58.3201 12.7629 58.7752 13.1116 59.1422 13.5441Z" fill="#4BC6F6"/>
<path d="M67.9746 18.155L64.8671 10.3062H62.543L66.8152 20.8219L65.0342 25.4222H67.233L73.4847 10.3062H71.1605L67.9746 18.155Z" fill="#4BC6F6"/>
<path d="M88.3222 6.55469H76.5762V8.5981H81.3707V20.8324H83.5277V8.5981H88.3222V6.55469Z" fill="#4BC6F6"/>
<path d="M92.6618 10.1071C91.9699 10.0688 91.2787 10.1939 90.6437 10.4724C90.0087 10.7508 89.4478 11.1749 89.0059 11.7104C88.1424 12.8628 87.6998 14.2779 87.7524 15.7187C87.7179 16.4258 87.8249 17.1328 88.0671 17.7978C88.3093 18.4628 88.6817 19.0724 89.1626 19.5907C89.6552 20.0752 90.2418 20.453 90.8859 20.7009C91.53 20.9487 92.218 21.0613 92.9073 21.0315C94.306 21.0643 95.6895 20.734 96.9236 20.0727L97.0124 20.0203V17.8459L96.746 18.024C95.7638 18.6596 94.6192 18.9962 93.4505 18.9934C92.5421 19.0656 91.6384 18.805 90.907 18.2598C90.3794 17.7689 90.0426 17.106 89.9564 16.3893H97.613V15.5719C97.651 14.1784 97.2082 12.8143 96.3595 11.7104C95.9131 11.1693 95.3453 10.7419 94.7026 10.4632C94.0599 10.1845 93.3606 10.0625 92.6618 10.1071ZM89.9408 14.5607C89.9556 14.206 90.0408 13.8579 90.1915 13.5367C90.3421 13.2155 90.5552 12.9277 90.8182 12.6902C91.3295 12.2435 91.9838 11.9962 92.6618 11.9934C93.3481 11.9937 94.0115 12.2409 94.5316 12.6902C94.7969 12.9264 95.0122 13.2137 95.1648 13.5351C95.3173 13.8564 95.4039 14.2052 95.4194 14.5607H89.9408Z" fill="#4BC6F6"/>
<path d="M104.742 10.1071C103.306 10.0776 101.914 10.6093 100.861 11.5899C99.8304 12.6564 99.2539 14.0837 99.2539 15.5693C99.2539 17.055 99.8304 18.4822 100.861 19.5487C101.914 20.5294 103.306 21.0611 104.742 21.0315C105.987 21.0248 107.208 20.6789 108.272 20.0308L108.356 19.9784V17.8407L108.084 18.024C107.147 18.659 106.04 18.9967 104.909 18.9934C104.439 19.0203 103.968 18.9511 103.526 18.7898C103.083 18.6286 102.678 18.3788 102.334 18.0555C101.737 17.3669 101.408 16.4848 101.408 15.5719C101.408 14.6591 101.737 13.777 102.334 13.0884C102.678 12.7651 103.083 12.5153 103.526 12.3541C103.968 12.1928 104.439 12.1236 104.909 12.1505C106.04 12.1475 107.147 12.4852 108.084 13.1199L108.356 13.3032V11.1603L108.272 11.1079C107.208 10.4598 105.987 10.1139 104.742 10.1071Z" fill="#4BC6F6"/>
<path d="M118.995 11.286C118.657 10.8959 118.235 10.5873 117.761 10.3832C117.287 10.1791 116.774 10.0847 116.259 10.1071C115.595 10.1161 114.941 10.2601 114.335 10.5303C113.729 10.8005 113.184 11.1913 112.733 11.679V5.91553H110.576V20.8482H112.733V13.9372C113.705 12.7426 114.744 12.1348 115.825 12.1348C117.183 12.1348 117.841 12.8736 117.841 14.3983V20.8482H119.998V14.194C120.03 13.1342 119.673 12.0994 118.995 11.286Z" fill="#4BC6F6"/>
<path d="M2.77851 5.57485C4.31304 5.57485 5.55702 4.32688 5.55702 2.78743C5.55702 1.24797 4.31304 0 2.77851 0C1.24398 0 0 1.24797 0 2.78743C0 4.32688 1.24398 5.57485 2.77851 5.57485Z" fill="white"/>
<path d="M2.77851 16.7873C4.31304 16.7873 5.55702 15.5393 5.55702 13.9998C5.55702 12.4604 4.31304 11.2124 2.77851 11.2124C1.24398 11.2124 0 12.4604 0 13.9998C0 15.5393 1.24398 16.7873 2.77851 16.7873Z" fill="white"/>
<path d="M2.77851 28.0001C4.31304 28.0001 5.55702 26.7522 5.55702 25.2127C5.55702 23.6733 4.31304 22.4253 2.77851 22.4253C1.24398 22.4253 0 23.6733 0 25.2127C0 26.7522 1.24398 28.0001 2.77851 28.0001Z" fill="white"/>
<path d="M13.882 5.57485C15.4166 5.57485 16.6605 4.32688 16.6605 2.78743C16.6605 1.24797 15.4166 0 13.882 0C12.3475 0 11.1035 1.24797 11.1035 2.78743C11.1035 4.32688 12.3475 5.57485 13.882 5.57485Z" fill="#4BC6F6"/>
<path d="M13.882 16.7873C15.4166 16.7873 16.6605 15.5393 16.6605 13.9998C16.6605 12.4604 15.4166 11.2124 13.882 11.2124C12.3475 11.2124 11.1035 12.4604 11.1035 13.9998C11.1035 15.5393 12.3475 16.7873 13.882 16.7873Z" fill="#4BC6F6"/>
<path d="M13.882 28.0001C15.4166 28.0001 16.6605 26.7522 16.6605 25.2127C16.6605 23.6733 15.4166 22.4253 13.882 22.4253C12.3475 22.4253 11.1035 23.6733 11.1035 25.2127C11.1035 26.7522 12.3475 28.0001 13.882 28.0001Z" fill="#4BC6F6"/>
<path d="M24.9914 5.57485C26.5259 5.57485 27.7699 4.32688 27.7699 2.78743C27.7699 1.24797 26.5259 0 24.9914 0C23.4569 0 22.2129 1.24797 22.2129 2.78743C22.2129 4.32688 23.4569 5.57485 24.9914 5.57485Z" fill="#4BC6F6"/>
<path d="M24.9914 16.7873C26.5259 16.7873 27.7699 15.5393 27.7699 13.9998C27.7699 12.4604 26.5259 11.2124 24.9914 11.2124C23.4569 11.2124 22.2129 12.4604 22.2129 13.9998C22.2129 15.5393 23.4569 16.7873 24.9914 16.7873Z" fill="#4BC6F6"/>
<path d="M24.9914 28.0001C26.5259 28.0001 27.7699 26.7522 27.7699 25.2127C27.7699 23.6733 26.5259 22.4253 24.9914 22.4253C23.4569 22.4253 22.2129 23.6733 22.2129 25.2127C22.2129 26.7522 23.4569 28.0001 24.9914 28.0001Z" fill="white"/>
</svg>
