<svg width="58" height="44" viewBox="0 0 58 44" fill="none" xmlns="http://www.w3.org/2000/svg">
<path d="M10.4442 43.9026V40.9824C10.4442 39.8627 9.75438 39.1328 8.57205 39.1328C7.981 39.1328 7.34058 39.3275 6.89718 39.9603C6.55251 39.4248 6.05996 39.1328 5.32103 39.1328C4.82826 39.1328 4.33594 39.2787 3.94168 39.8142V39.2302H2.90723V43.9026H3.94168V41.323C3.94168 40.4957 4.38509 40.1062 5.07487 40.1062C5.76421 40.1062 6.10933 40.5443 6.10933 41.323V43.9026H7.14379V41.323C7.14379 40.4957 7.63611 40.1062 8.27653 40.1062C8.96631 40.1062 9.31098 40.5443 9.31098 41.323V43.9026H10.4442ZM25.7638 39.2302H24.0891V37.8187H23.0547V39.2302H22.1187V40.1547H23.0544V42.2965C23.0544 43.3674 23.4978 44 24.6802 44C25.1236 44 25.6159 43.8541 25.961 43.6594L25.6653 42.7832C25.3697 42.9779 25.0251 43.0266 24.7787 43.0266C24.2861 43.0266 24.0891 42.7346 24.0891 42.2477V40.1547H25.7638V39.2302ZM34.5322 39.1326C33.9411 39.1326 33.5471 39.4248 33.3007 39.8142V39.2302H32.2663V43.9026H33.3007V41.2744C33.3007 40.4957 33.6454 40.0576 34.2858 40.0576C34.4828 40.0576 34.7292 40.1064 34.9262 40.155L35.2218 39.1816C35.0247 39.1328 34.7292 39.1328 34.5322 39.1328V39.1326ZM21.2813 39.6195C20.7885 39.2787 20.0989 39.1328 19.36 39.1328C18.1779 39.1328 17.3898 39.7168 17.3898 40.6416C17.3898 41.4205 17.9809 41.8584 19.0154 42.0045L19.5079 42.0533C20.0498 42.1504 20.3453 42.2965 20.3453 42.54C20.3453 42.8805 19.9513 43.124 19.2615 43.124C18.5719 43.124 18.03 42.8805 17.6851 42.6373L17.1926 43.416C17.7345 43.8053 18.4734 44 19.2121 44C20.5915 44 21.3798 43.3674 21.3798 42.4912C21.3798 41.6637 20.7394 41.2256 19.7541 41.0797L19.2615 41.031C18.8181 40.9822 18.4734 40.8851 18.4734 40.5931C18.4734 40.2523 18.8181 40.0576 19.36 40.0576C19.9513 40.0576 20.5424 40.3009 20.8379 40.447L21.2813 39.6195ZM48.7684 39.1328C48.1771 39.1328 47.7831 39.4248 47.5367 39.8142V39.2302H46.5023V43.9026H47.5367V41.2744C47.5367 40.4957 47.8816 40.0576 48.5218 40.0576C48.7191 40.0576 48.9654 40.1064 49.1625 40.155L49.458 39.1816C49.261 39.1328 48.9654 39.1328 48.7684 39.1328ZM35.5667 41.5664C35.5667 42.9779 36.5517 44 38.079 44C38.7685 44 39.2611 43.8541 39.7536 43.4648L39.2611 42.6373C38.867 42.9293 38.473 43.0752 38.0296 43.0752C37.1922 43.0752 36.6011 42.4912 36.6011 41.5664C36.6011 40.6904 37.1922 40.1062 38.0296 40.0576C38.473 40.0576 38.867 40.2035 39.2611 40.4957L39.7536 39.6683C39.2611 39.2787 38.7685 39.1328 38.079 39.1328C36.5517 39.1328 35.5667 40.155 35.5667 41.5664ZM45.1231 41.5664V39.2302H44.0887V39.8142C43.7438 39.3763 43.2513 39.1328 42.6108 39.1328C41.2808 39.1328 40.2464 40.155 40.2464 41.5664C40.2464 42.9779 41.2808 44 42.6108 44C43.3004 44 43.7932 43.7568 44.0887 43.3186V43.9026H45.1231V41.5664ZM41.33 41.5664C41.33 40.739 41.8719 40.0576 42.7585 40.0576C43.5959 40.0576 44.1872 40.6904 44.1872 41.5664C44.1872 42.3939 43.5959 43.0752 42.7585 43.0752C41.8719 43.0264 41.33 42.3939 41.33 41.5664ZM28.9659 39.1328C27.5865 39.1328 26.6012 40.1062 26.6012 41.5664C26.6012 43.0266 27.5863 44 29.015 44C29.7046 44 30.3944 43.8053 30.9363 43.3674L30.4435 42.6373C30.0495 42.9293 29.5569 43.124 29.0644 43.124C28.424 43.124 27.7835 42.832 27.6357 42.0043H31.1333V41.6152C31.1827 40.1062 30.2959 39.1328 28.9657 39.1328H28.9659ZM28.9659 40.0089C29.6061 40.0089 30.0497 40.3984 30.148 41.1285H27.685C27.7835 40.4957 28.2269 40.0089 28.9659 40.0089ZM54.6303 41.5664V37.3806H53.5958V39.8142C53.2509 39.3763 52.7584 39.1328 52.118 39.1328C50.788 39.1328 49.7535 40.155 49.7535 41.5664C49.7535 42.9779 50.788 44 52.118 44C52.8077 44 53.3003 43.7568 53.5958 43.3186V43.9026H54.6303V41.5664ZM50.8373 41.5664C50.8373 40.739 51.379 40.0576 52.2658 40.0576C53.1033 40.0576 53.6943 40.6904 53.6943 41.5664C53.6943 42.3939 53.1033 43.0752 52.2658 43.0752C51.379 43.0264 50.8373 42.3939 50.8373 41.5664ZM16.2567 41.5664V39.2302H15.2222V39.8142C14.8773 39.3763 14.3848 39.1328 13.7443 39.1328C12.4144 39.1328 11.3799 40.155 11.3799 41.5664C11.3799 42.9779 12.4144 44 13.7443 44C14.4341 44 14.9267 43.7568 15.2222 43.3186V43.9026H16.2567V41.5664ZM12.4144 41.5664C12.4144 40.739 12.9563 40.0576 13.8428 40.0576C14.6803 40.0576 15.2716 40.6904 15.2716 41.5664C15.2716 42.3939 14.6803 43.0752 13.8428 43.0752C12.9563 43.0264 12.4144 42.3939 12.4144 41.5664Z" fill="white" fill-opacity="0.6"/>
<path d="M21.9208 17.5221C21.9208 11.9248 24.5808 6.96015 28.6693 3.74769C25.6646 1.41145 21.8717 0 17.7339 0C7.93076 0 0 7.83615 0 17.5221C0 27.2078 7.93076 35.0442 17.7336 35.0442C21.8715 35.0442 25.6644 33.6327 28.6693 31.2963C24.5808 28.1326 21.9208 23.1193 21.9208 17.5221Z" fill="white" fill-opacity="0.6"/>
<path d="M57.3875 17.5221C57.3875 27.2078 49.4568 35.0442 39.6539 35.0442C35.5161 35.0442 31.7231 33.6327 28.7183 31.2963C32.8561 28.084 35.4669 23.1193 35.4669 17.5221C35.4669 11.9248 32.8067 6.96015 28.7183 3.74769C31.7229 1.41145 35.5161 0 39.6539 0C49.4568 0 57.3877 7.88493 57.3877 17.5221H57.3875Z" fill="white" fill-opacity="0.6"/>
</svg>
