<svg width="114" height="41" viewBox="0 0 114 41" fill="none" xmlns="http://www.w3.org/2000/svg">
<g clip-path="url(#clip0)">
<path d="M83.751 9.76913C83.3398 9.76913 82.9286 9.68695 82.5997 9.52257C82.2708 9.3582 81.9419 9.19383 81.613 8.86508C81.3663 8.61853 81.1196 8.28978 80.9551 7.96104C80.7906 7.63229 80.7084 7.22136 80.7084 6.81043C80.7084 6.3995 80.7906 6.07075 80.9551 5.65982C81.1196 5.33108 81.284 5.00233 81.613 4.75577C81.8596 4.50921 82.1886 4.26266 82.5997 4.09828C82.9286 3.93391 83.3398 3.85172 83.8332 3.85172C84.1621 3.85172 84.4911 3.93391 84.82 4.0161C85.1489 4.09828 85.3956 4.26266 85.6423 4.42703L85.1489 5.33108C84.82 5.08452 84.4088 5.00233 83.9977 5.00233C83.5865 5.00233 83.2576 5.08452 83.0109 5.24889C82.7642 5.41326 82.5175 5.65982 82.353 5.90638C82.1886 6.15294 82.1063 6.48168 82.1063 6.81043C82.1063 7.13917 82.1886 7.46792 82.353 7.71448C82.5175 7.96104 82.682 8.20759 83.0109 8.37197C83.2576 8.53634 83.5865 8.61853 83.9977 8.61853C84.2444 8.61853 84.4088 8.61853 84.6555 8.53634C84.82 8.45415 84.9844 8.37197 85.1489 8.28978L85.6423 9.19383C85.3956 9.3582 85.1489 9.52257 84.82 9.60476C84.4911 9.68695 84.1621 9.76913 83.751 9.76913ZM87.0402 9.60476V4.09828H88.3559V4.92015C88.5204 4.5914 88.7671 4.34484 89.096 4.18047C89.3427 4.0161 89.6716 3.93391 90.0828 3.93391C90.2472 3.93391 90.4117 3.93391 90.6584 4.0161C90.8229 4.09828 90.9873 4.09828 91.1518 4.18047L90.5762 5.33108C90.4939 5.24889 90.3295 5.1667 90.165 5.1667C90.0005 5.08452 89.8361 5.08452 89.7539 5.08452C89.5072 5.08452 89.3427 5.1667 89.096 5.24889C88.9315 5.33108 88.7671 5.49545 88.6026 5.74201C88.4382 5.90638 88.4381 6.15294 88.4381 6.31731V9.60476H87.0402ZM97.1547 5.24889C96.908 4.83796 96.5791 4.50921 96.1679 4.26266C95.7567 4.0161 95.2634 3.93391 94.6877 3.93391C94.2766 3.93391 93.8654 4.0161 93.5365 4.18047C93.2076 4.34484 92.8786 4.50921 92.632 4.83796C92.3853 5.08452 92.1386 5.41326 91.9741 5.74201C91.8096 6.07075 91.7274 6.48168 91.7274 6.89261C91.7274 7.46792 91.8919 7.96104 92.1386 8.37197C92.3853 8.7829 92.7964 9.19383 93.2076 9.44039C93.701 9.68695 94.1944 9.85132 94.77 9.85132C95.3456 9.85132 95.839 9.76913 96.3324 9.52257C96.8258 9.27602 97.1547 8.94727 97.4014 8.53634L96.4146 8.04322C96.1679 8.28978 96.0034 8.53634 95.6745 8.61853C95.4278 8.7829 95.0989 8.7829 94.77 8.7829C94.441 8.7829 94.1121 8.70071 93.8654 8.53634C93.6187 8.37197 93.372 8.20759 93.2076 7.96104C93.0431 7.71448 92.9609 7.38573 92.9609 7.05699H97.4014C97.4014 6.9748 97.4014 6.9748 97.4014 6.89261V6.81043C97.4836 6.23513 97.4014 5.74201 97.1547 5.24889ZM93.1253 6.15294C93.1253 5.90638 93.2898 5.65982 93.372 5.49545C93.5365 5.33108 93.701 5.1667 93.9477 5.08452C94.1944 5.00233 94.441 4.92015 94.6877 4.92015C94.9344 4.92015 95.1811 5.00233 95.4278 5.08452C95.6745 5.1667 95.839 5.33108 96.0034 5.49545C96.1679 5.65982 96.2501 5.90638 96.2501 6.15294H93.1253ZM103.486 0.399902V4.92015C103.24 4.5914 102.993 4.34484 102.664 4.18047C102.335 4.0161 101.924 3.93391 101.513 3.93391C101.02 3.93391 100.526 4.09828 100.115 4.34484C99.7038 4.5914 99.3749 4.92015 99.1282 5.41326C98.8815 5.82419 98.7993 6.31731 98.7993 6.89261C98.7993 7.46792 98.8815 7.96104 99.1282 8.37197C99.3749 8.7829 99.7038 9.19383 100.115 9.44039C100.526 9.68695 101.02 9.85132 101.513 9.85132C101.924 9.85132 102.335 9.76913 102.664 9.60476C102.993 9.44039 103.322 9.19383 103.569 8.86508V9.76913H104.884V0.399902H103.486ZM103.322 7.79666C103.158 8.04322 102.993 8.28978 102.746 8.45415C102.5 8.61853 102.171 8.70071 101.842 8.70071C101.513 8.70071 101.184 8.61853 100.937 8.45415C100.691 8.28978 100.444 8.12541 100.362 7.79666C100.197 7.5501 100.115 7.22136 100.115 6.89261C100.115 6.56387 100.197 6.23513 100.362 5.98857C100.526 5.74201 100.691 5.49545 100.937 5.33108C101.184 5.1667 101.513 5.08452 101.842 5.08452C102.171 5.08452 102.5 5.1667 102.746 5.33108C102.993 5.49545 103.24 5.65982 103.322 5.98857C103.486 6.23513 103.569 6.56387 103.569 6.89261C103.486 7.22136 103.404 7.46792 103.322 7.79666ZM107.516 3.02986C107.351 3.02986 107.269 3.02986 107.105 2.94768C107.022 2.86549 106.858 2.7833 106.776 2.61893C106.694 2.45456 106.694 2.37237 106.694 2.208C106.694 2.04363 106.694 1.96144 106.776 1.79707C106.858 1.71488 106.94 1.55051 107.105 1.46832C107.269 1.38614 107.351 1.38614 107.516 1.38614C107.68 1.38614 107.763 1.38614 107.927 1.46832C108.009 1.55051 108.174 1.6327 108.256 1.79707C108.338 1.87925 108.338 2.04363 108.338 2.208C108.338 2.37237 108.338 2.45456 108.256 2.61893C108.174 2.70112 108.091 2.86549 107.927 2.94768C107.845 2.94768 107.68 3.02986 107.516 3.02986ZM106.858 9.60476V4.09828H108.174V9.60476H106.858ZM111.956 9.76913C111.463 9.76913 111.052 9.60476 110.805 9.27602C110.558 8.94727 110.394 8.53634 110.394 7.96104V5.1667H109.736V4.09828H110.394V2.04363H111.71V4.09828H112.943V5.08452H111.71V7.79666C111.71 8.04322 111.792 8.20759 111.874 8.37197C111.956 8.53634 112.121 8.53634 112.285 8.53634C112.45 8.53634 112.614 8.45415 112.779 8.37197L113.108 9.44039C112.943 9.52257 112.779 9.60476 112.532 9.68695C112.367 9.76913 112.121 9.76913 111.956 9.76913ZM48.4737 22.9189C47.4869 21.2752 46.1712 19.9602 44.5266 19.0562C42.7997 18.1521 40.8262 17.659 38.6059 17.659C36.9613 17.659 35.3989 17.9878 34.001 18.5631C32.6031 19.1384 31.3696 19.9602 30.3006 21.0286C29.2316 22.0971 28.4093 23.3299 27.7514 24.727C27.1758 26.1242 26.8469 27.6035 26.8469 29.2473C26.8469 31.3841 27.3403 33.3566 28.4093 35.0825C29.4783 36.8084 30.8762 38.2056 32.7675 39.1918C34.5766 40.178 36.6324 40.6712 38.9349 40.6712C41.1551 40.6712 43.2109 40.178 45.02 39.1918C46.8291 38.2056 48.227 36.8906 49.296 35.1647L45.5134 33.1922C44.6911 34.2606 43.7865 35.0825 42.7175 35.5756C41.7307 36.0687 40.4973 36.3975 39.2638 36.3975C37.8659 36.3975 36.6324 36.1509 35.5634 35.5756C34.4944 35.0003 33.6721 34.2606 33.0964 33.2744C32.5208 32.2882 32.1919 31.1376 32.1919 29.8226H49.7894C49.8716 29.576 49.8716 29.3295 49.8716 29.2473C49.8716 29.1651 49.8716 29.0007 49.8716 28.7542C49.9539 26.5351 49.4605 24.5627 48.4737 22.9189ZM32.4386 26.5351C32.6031 25.5489 32.932 24.6448 33.5076 23.9874C34.0832 23.2477 34.7411 22.7546 35.6456 22.3436C36.5502 21.9327 37.5369 21.7683 38.6059 21.7683C39.675 21.7683 40.5795 21.9327 41.484 22.3436C42.3064 22.7546 43.0464 23.3299 43.6221 23.9874C44.1977 24.727 44.5266 25.5489 44.7733 26.5351H32.4386ZM54.3121 39.9315V3.68735H59.5749V39.9315H54.3121ZM80.9551 39.9315V18.3165H86.2179V39.9315H80.9551ZM111.545 22.9189C110.558 21.2752 109.243 19.9602 107.598 19.0562C105.871 18.1521 103.898 17.659 101.677 17.659C100.033 17.659 98.4704 17.9878 97.0724 18.5631C95.6745 19.1384 94.441 19.9602 93.372 21.0286C92.303 22.0971 91.4807 23.3299 90.8229 24.727C90.2472 26.1242 89.9183 27.6035 89.9183 29.2473C89.9183 31.3841 90.4117 33.3566 91.4807 35.0825C92.5497 36.8084 93.9476 38.2056 95.839 39.1918C97.6481 40.178 99.7038 40.6712 102.006 40.6712C104.227 40.6712 106.282 40.178 108.091 39.1918C109.901 38.2056 111.298 36.8906 112.367 35.1647L108.585 33.1922C107.763 34.2606 106.858 35.0825 105.789 35.5756C104.802 36.0687 103.569 36.3975 102.335 36.3975C100.937 36.3975 99.7038 36.1509 98.6348 35.5756C97.5658 35.0003 96.7435 34.2606 96.1679 33.2744C95.5923 32.2882 95.2634 31.1376 95.2634 29.8226H112.861C112.943 29.576 112.943 29.3295 112.943 29.2473C112.943 29.1651 112.943 29.0007 112.943 28.7542C113.025 26.5351 112.532 24.5627 111.545 22.9189ZM95.51 26.5351C95.6745 25.5489 96.0034 24.6448 96.5791 23.9874C97.1547 23.2477 97.8125 22.7546 98.7171 22.3436C99.6216 21.9327 100.608 21.7683 101.677 21.7683C102.746 21.7683 103.651 21.9327 104.556 22.3436C105.378 22.7546 106.118 23.3299 106.694 23.9874C107.269 24.727 107.598 25.5489 107.845 26.5351H95.51ZM77.3369 4.0161C77.3369 4.0161 75.4456 3.93391 74.0477 3.93391C72.4853 3.93391 71.1696 4.26266 70.1006 5.00233C69.0316 5.74201 68.2092 6.81043 67.6336 8.12541C67.058 9.52257 66.7291 11.0841 66.7291 12.9744V18.2343H64.0977V22.1793H66.7291V39.7671H71.9919V22.3436H77.2547V18.3987H71.9919V13.1388C71.9919 12.2347 72.0741 11.4129 72.2386 10.7554C72.403 10.0979 72.732 9.52257 73.1431 9.19383C73.5543 8.7829 74.1299 8.53634 74.87 8.53634C75.939 8.53634 77.1725 8.53634 77.1725 8.53634V4.0161H77.3369ZM8.42704 40.8355C8.42704 40.8355 9.57828 40.9177 10.4828 40.9177C12.9498 40.9177 15.0878 40.5068 16.8969 39.6849C18.7882 38.8631 20.1861 37.6303 21.2551 36.0687C22.3241 34.5072 22.8175 32.6169 22.8175 30.3979C22.8175 28.8363 22.5708 27.4392 21.9952 26.3708C21.4196 25.2201 20.6795 24.2339 19.6927 23.412C18.706 22.5902 17.5547 21.8505 16.239 21.193C14.9233 20.5355 13.4432 19.878 11.8808 19.3027C11.0584 18.974 10.3184 18.7274 9.66051 18.3987C8.92043 18.0699 8.34481 17.7412 7.76919 17.4125C7.19357 17.0015 6.78241 16.5906 6.45349 16.0975C6.12456 15.6044 5.9601 14.9469 5.9601 14.2072C5.9601 13.3031 6.20679 12.5635 6.61795 11.8238C7.0291 11.0841 7.68696 10.5088 8.50927 10.0157C9.33158 9.52257 10.3184 9.3582 11.4696 9.3582C12.4564 9.3582 13.4432 9.52257 14.3477 9.76913C15.2522 10.0979 16.0746 10.5088 16.8969 11.0019C17.637 11.495 18.2948 11.9882 18.8704 12.5635L21.3374 8.28978C20.6795 7.55011 19.8572 6.89261 18.7882 6.31731C17.8836 5.41326 16.7324 4.92015 15.4989 4.50921C14.2655 4.09828 12.9498 3.93391 11.5518 3.93391C9.9072 3.93391 8.42704 4.18047 7.11134 4.75577C5.79563 5.33108 4.64439 6.07075 3.65762 6.9748C2.67084 7.96104 1.93076 9.02946 1.43737 10.2623C0.943984 11.495 0.615058 12.7278 0.615058 14.125C0.615058 15.3578 0.861752 16.4262 1.27291 17.4125C1.68407 18.3165 2.25969 19.2206 2.99977 19.878C3.73985 20.6177 4.56216 21.193 5.46671 21.7683C6.37125 22.2614 7.2758 22.7546 8.18034 23.1655C9.49605 23.6586 10.6473 24.1517 11.7163 24.6448C12.7853 25.138 13.6898 25.6311 14.4299 26.1242C15.17 26.6173 15.7456 27.2748 16.1568 27.9323C16.5679 28.672 16.7324 29.4938 16.7324 30.4801C16.7324 31.6307 16.4857 32.5347 15.9101 33.3566C15.3345 34.0963 14.5944 34.6716 13.6898 35.0825C12.7853 35.4934 11.7985 35.6578 10.5651 35.6578C9.82497 35.6578 8.34481 35.6578 8.34481 35.6578V40.8355H8.42704ZM4.64439 31.9594C5.05555 31.7129 5.38448 31.3841 5.7134 30.891C5.9601 30.4801 6.04233 29.9869 6.04233 29.4116C6.04233 28.9185 5.87787 28.4254 5.63117 28.0145C5.38448 27.6035 5.05555 27.1926 4.56216 26.9461C4.15101 26.6995 3.65762 26.5351 3.082 26.5351C2.58861 26.5351 2.09522 26.6995 1.60183 26.9461C1.19068 27.1926 0.779521 27.5214 0.532827 28.0145C0.450596 28.4254 0.286133 28.9185 0.286133 29.4116C0.286133 29.9869 0.450596 30.3979 0.69729 30.891C0.943984 31.3019 1.27291 31.7129 1.7663 31.9594C2.17745 32.206 2.67084 32.3703 3.24646 32.3703C3.73985 32.3703 4.23324 32.206 4.64439 31.9594ZM4.64439 40.589C5.05555 40.3424 5.38448 40.0137 5.7134 39.5205C5.9601 39.1096 6.04233 38.6165 6.04233 38.1234C6.04233 37.6303 5.87787 37.1371 5.63117 36.7262C5.38448 36.3153 5.05555 35.9044 4.56216 35.6578C4.15101 35.4112 3.65762 35.2469 3.082 35.2469C2.58861 35.2469 2.09522 35.4112 1.60183 35.6578C1.19068 35.9044 0.779521 36.2331 0.532827 36.7262C0.450596 37.055 0.286133 37.5481 0.286133 38.1234C0.286133 38.6987 0.450596 39.1096 0.69729 39.6027C0.943984 40.0137 1.27291 40.4246 1.7663 40.6712C2.17745 40.9177 2.67084 41.0821 3.24646 41.0821C3.73985 40.9999 4.23324 40.8355 4.64439 40.589Z" fill="url(#paint0_linear)"/>
</g>
<defs>
<linearGradient id="paint0_linear" x1="0.286133" y1="20.7015" x2="113.108" y2="20.7015" gradientUnits="userSpaceOnUse">
<stop stop-color="#FF3D00"/>
<stop offset="1" stop-color="#FFAC30"/>
</linearGradient>
<clipPath id="clip0">
<rect width="112.821" height="40.6" fill="white" transform="translate(0.286133 0.399902)"/>
</clipPath>
</defs>
</svg>
