<svg width="116" height="48" viewBox="0 0 116 48" fill="none" xmlns="http://www.w3.org/2000/svg">
<path d="M75.5695 19.9369V33.307H77.7893V27.6849H77.8365C78.4033 28.5826 79.5369 29.1495 80.7649 29.1495C83.457 29.1495 85.1574 26.9763 85.1574 24.4251C85.1574 21.7794 83.3626 19.7479 80.8593 19.7479C79.2062 19.7479 78.2144 20.5511 77.7893 21.2598H77.6949V20.0314H75.5695V19.9369ZM80.3398 21.496C82.0873 21.496 82.8903 22.9605 82.8903 24.3306C82.8903 25.7007 82.0401 27.2125 80.3398 27.2125C78.6867 27.2125 77.7421 25.7479 77.7421 24.3779C77.7421 23.0078 78.6867 21.496 80.3398 21.496Z" fill="#F29022"/>
<path d="M89.5501 14.8346H87.3302V28.8661H89.5501V14.8346Z" fill="#F29022"/>
<path d="M100.413 28.8661V19.9842H98.1935V24.8503C98.1935 26.0314 97.5323 27.2598 96.1154 27.2598C94.6984 27.2598 94.4623 25.9369 94.4623 24.8976V19.9842H92.2424V25.559C92.2424 27.3542 93.187 29.1495 95.5014 29.1495C96.8238 29.1495 97.8629 28.3464 98.2408 27.4487H98.288V28.8661H100.413Z" fill="#F29022"/>
<path d="M105.986 21.3544C106.789 21.3544 107.545 21.7796 107.923 22.2993L109.387 21.0237C108.678 20.126 107.309 19.6536 106.034 19.6536C104.286 19.6536 102.491 20.504 102.491 22.4882C102.491 24.1418 103.814 24.7087 105.136 24.9922C106.506 25.3229 107.167 25.5119 107.167 26.2678C107.167 27.0709 106.411 27.3071 105.75 27.3071C104.806 27.3071 103.955 26.8347 103.483 26.1733L102.019 27.5433C102.869 28.4882 104.286 29.0079 105.656 29.0079C107.592 29.0079 109.34 28.2048 109.34 26.0315C109.34 24.2835 107.781 23.7166 106.459 23.3859C105.231 23.1024 104.522 22.9134 104.522 22.2048C104.569 21.6378 105.278 21.3544 105.986 21.3544Z" fill="#F29022"/>
<path d="M109.906 8.0315C109.67 7.74803 109.34 7.6063 108.915 7.6063C108.206 7.6063 107.592 8.17323 107.592 8.92913C107.592 9.25984 107.734 9.59055 107.923 9.77953C111.465 13.7008 113.402 18.7559 113.402 24.0472C113.402 35.8583 103.814 45.4488 92.0059 45.4488C80.1982 45.4488 70.6103 35.8583 70.6103 24.0472C70.6103 12.2362 80.1982 2.64567 92.0059 2.64567C93.8951 2.64567 95.7372 2.88189 97.5319 3.35433C97.6264 3.40157 97.7681 3.40157 97.8625 3.40157C98.571 3.40157 99.185 2.83465 99.185 2.07874C99.185 1.46457 98.7599 0.992126 98.2404 0.80315C96.2095 0.283465 94.1313 0 92.0059 0C78.7812 0 68.0126 10.7717 68.0126 24C68.0126 37.2283 78.7812 48 92.0059 48C105.231 48 115.999 37.2283 115.999 24C116.046 18.1417 113.874 12.4252 109.906 8.0315Z" fill="#F29022"/>
<path d="M100.648 6.85058H102.207V8.40963C102.207 9.1183 102.774 9.73247 103.529 9.73247C104.238 9.73247 104.852 9.16554 104.852 8.40963V6.85058H106.411C107.119 6.85058 107.733 6.28365 107.733 5.52774C107.733 4.81908 107.166 4.20491 106.411 4.20491H104.852V2.64586C104.852 1.93719 104.285 1.32302 103.529 1.32302C102.821 1.32302 102.207 1.88995 102.207 2.64586V4.20491H100.648C99.9399 4.20491 99.3259 4.77184 99.3259 5.52774C99.3732 6.23641 99.9399 6.85058 100.648 6.85058Z" fill="#F29022"/>
<path d="M14.925 16.0631L12.7051 17.8583C12.2801 17.2914 11.7605 16.8662 11.052 16.5827C10.3436 16.2993 9.63512 16.1575 8.92665 16.1575C7.22634 16.1575 5.85664 16.7245 4.81756 17.9056C3.73125 19.0394 3.21171 20.504 3.21171 22.2048C3.21171 24.0001 3.73125 25.4646 4.7231 26.5985C5.76218 27.7323 7.08464 28.2993 8.78496 28.2993C10.5325 28.2993 11.855 27.6851 12.7996 26.3623L15.1611 28.0158C13.6025 29.9528 11.4771 30.8977 8.78496 30.8977C6.18726 30.8977 4.10909 30.0946 2.45601 28.441C0.802926 26.8347 0 24.7087 0 22.1575C0 19.5591 0.850157 17.4804 2.55047 15.8741C4.25079 14.315 6.37618 13.5119 8.97388 13.5119C10.1074 13.5119 11.241 13.7481 12.3745 14.1733C13.4608 14.5985 14.311 15.2127 14.925 16.0631Z" fill="#002B5D"/>
<path d="M16.8611 30.4725V19.2756H19.5532V21.1654H19.6005C19.9311 20.504 20.3562 19.9843 20.9229 19.5591C21.4897 19.1811 22.151 18.9449 22.8594 18.9449C23.1428 18.9449 23.3317 18.9449 23.5206 18.9922V21.5433C23.19 21.4489 22.9066 21.4489 22.6705 21.4489C22.1982 21.4489 21.7731 21.5433 21.3953 21.6851C21.0174 21.8268 20.734 22.0158 20.4979 22.252C20.3089 22.4882 20.12 22.7245 19.9783 23.0552C19.8366 23.3386 19.7422 23.6221 19.6949 23.8583C19.6477 24.0945 19.6477 24.2835 19.6477 24.4725V30.4725H16.8611Z" fill="#002B5D"/>
<path d="M35.7543 24.9921C35.7543 25.3228 35.7543 25.559 35.7543 25.748H27.2527C27.2999 26.5039 27.6778 27.1653 28.2918 27.685C28.9058 28.2047 29.6142 28.4882 30.4644 28.4882C31.7396 28.4882 32.7315 28.0157 33.4399 27.0236L35.3292 28.5354C34.2429 30.0472 32.637 30.7559 30.5116 30.7559C28.7641 30.7559 27.2999 30.2362 26.1664 29.1496C25.0328 28.1102 24.4661 26.6457 24.4661 24.8976C24.4661 23.1023 25.0328 21.685 26.1664 20.5512C27.2999 19.4646 28.7168 18.8976 30.4172 18.8976C32.023 18.8976 33.3455 19.4173 34.3373 20.4567C35.2819 21.5433 35.7543 23.0551 35.7543 24.9921ZM27.2527 23.7638H33.0149C33.0149 23.0079 32.7787 22.3464 32.3536 21.8268C31.8813 21.3071 31.2673 21.0708 30.4172 21.0708C29.6142 21.0708 28.9058 21.3071 28.2918 21.8268C27.6305 22.2992 27.2999 22.9606 27.2527 23.7638Z" fill="#002B5D"/>
<path d="M49.2145 12.8031V30.4252H46.5224V28.7244H46.4751C46.0973 29.3858 45.5778 29.8582 44.8693 30.1889C44.1608 30.5196 43.4051 30.7086 42.6494 30.7086C40.9964 30.7086 39.6739 30.1417 38.6348 28.9606C37.643 27.8267 37.1234 26.4094 37.1234 24.7086C37.1234 23.0078 37.643 21.6377 38.6348 20.5039C39.6739 19.37 40.9491 18.8031 42.555 18.8031C44.1136 18.8031 45.3888 19.37 46.3335 20.5511H46.3807V12.7086H49.2145V12.8031ZM40.8074 22.2992C40.2407 23.0078 39.9573 23.8582 39.9573 24.8031C39.9573 25.748 40.2407 26.5984 40.8074 27.3543C41.3742 28.0629 42.1771 28.4409 43.169 28.4409C44.1608 28.4409 44.9638 28.0629 45.5305 27.3543C46.1445 26.6456 46.4279 25.7952 46.4279 24.8503C46.4279 23.9055 46.1445 23.0551 45.5305 22.3464C44.9165 21.5905 44.1136 21.2126 43.169 21.2126C42.1771 21.2126 41.3742 21.5905 40.8074 22.2992Z" fill="#002B5D"/>
<path d="M51.9542 16.63C51.6236 16.2993 51.4347 15.9213 51.4347 15.4489C51.4347 14.9764 51.6236 14.5985 51.9542 14.2678C52.2848 13.937 52.7099 13.7481 53.2295 13.7481C53.749 13.7481 54.1741 13.8898 54.5047 14.2205C54.8353 14.5512 55.0242 14.9292 55.0242 15.4016C55.0242 15.8741 54.8353 16.2993 54.5047 16.5827C54.1741 16.9134 53.7018 17.0552 53.2295 17.0552C52.7099 17.1496 52.2848 16.9607 51.9542 16.63ZM51.8598 30.4725V19.2756H54.6464V30.4725H51.8598Z" fill="#002B5D"/>
<path d="M58.3775 21.496H56.441V19.2755H58.3775V16.0157H61.1169V19.2755H63.9035V21.496H61.1641V26.6928C61.1641 27.2598 61.2586 27.685 61.4475 27.9684C61.6365 28.2519 62.0615 28.3936 62.6283 28.3936C63.1006 28.3936 63.5257 28.2991 63.8091 28.1574L63.9035 30.3306C63.384 30.5196 62.77 30.6141 62.0143 30.6141C60.6446 30.6141 59.7 30.2834 59.1804 29.5747C58.6609 28.8661 58.3775 27.9212 58.3775 26.6928V21.496Z" fill="#002B5D"/>
</svg>
