<svg width="116" height="48" viewBox="0 0 116 48" fill="none" xmlns="http://www.w3.org/2000/svg">
<g clip-path="url(#clip0)">
<path d="M7.94387 42.9891C7.99441 43.0659 7.96914 43.1171 7.9186 43.1683L7.21108 43.7057C7.13527 43.7824 7.0342 43.7313 7.00893 43.6801C6.55409 43.0659 6.04872 42.7844 5.31593 42.7844C4.20411 42.7844 3.47132 43.5777 3.47132 44.6781C3.47132 45.7786 4.20411 46.5975 5.31593 46.5975C6.07399 46.5975 6.60463 46.3416 7.05947 45.6506C7.11 45.5994 7.16054 45.5994 7.23635 45.6506L7.94387 46.2136C7.99441 46.2648 8.01968 46.3416 7.96914 46.3928C7.41323 47.3397 6.45302 47.8259 5.3412 47.8259C3.57239 47.8259 2.23315 46.4695 2.23315 44.6781C2.23315 42.8868 3.57239 41.556 5.3412 41.556C6.35194 41.556 7.41323 42.0678 7.94387 42.9891Z" fill="#404A9F"/>
<path d="M23.2058 41.6326C24.5451 41.6326 25.5811 42.5794 25.5811 43.859C25.5811 44.6523 25.1515 45.3433 24.5198 45.7272L25.48 47.5698C25.5305 47.6465 25.48 47.7233 25.3789 47.7233H24.2924C24.1913 47.7233 24.1408 47.6977 24.0902 47.6209L23.3574 46.1111C23.2816 46.1111 23.2311 46.1111 23.1806 46.1111H21.6139V47.5698C21.6139 47.6721 21.5634 47.7233 21.4623 47.7233H20.4768C20.3757 47.7233 20.3252 47.6721 20.3252 47.5698V41.8117C20.3252 41.7093 20.3757 41.6582 20.4768 41.6582L23.2058 41.6326ZM23.2058 44.8827C23.9133 44.8827 24.2924 44.4476 24.2924 43.859C24.2924 43.296 23.9133 42.8609 23.2058 42.8609H21.6139V44.8571L23.2058 44.8827Z" fill="#404A9F"/>
<path d="M42.7133 41.6322C42.8143 41.6322 42.8649 41.6834 42.8649 41.7857V42.6814C42.8649 42.7838 42.8143 42.835 42.7133 42.835H39.3525V43.961H42.2837C42.3848 43.961 42.4353 44.0122 42.4353 44.1145V45.0102C42.4353 45.1126 42.3848 45.1638 42.2837 45.1638H39.3525V46.4689H42.7891C42.8902 46.4689 42.9407 46.5201 42.9407 46.6225V47.5182C42.9407 47.6206 42.8902 47.6717 42.7891 47.6717H38.2155C38.1144 47.6717 38.0638 47.6206 38.0638 47.5182V41.7601C38.0638 41.6834 38.1396 41.6066 38.2155 41.6066L42.7133 41.6322Z" fill="#404A9F"/>
<path d="M58.0006 41.6326C59.7189 41.6326 61.1087 42.8865 61.1087 44.6779C61.1087 46.4949 59.7189 47.7233 58.0006 47.7233H55.6506C55.5496 47.7233 55.499 47.6721 55.499 47.5698V41.8117C55.499 41.7093 55.5496 41.6582 55.6506 41.6582L58.0006 41.6326ZM56.7625 46.4949H58.0006C59.0872 46.4949 59.7947 45.804 59.7947 44.6779C59.7947 43.5519 59.0872 42.8609 58.0006 42.8609H56.7625V46.4949Z" fill="#404A9F"/>
<path d="M74.6276 41.6326C74.7286 41.6326 74.7792 41.6837 74.7792 41.7861V47.5442C74.7792 47.6465 74.7286 47.6977 74.6276 47.6977H73.6421C73.541 47.6977 73.4905 47.6465 73.4905 47.5442V41.7861C73.4905 41.6837 73.541 41.6326 73.6421 41.6326H74.6276Z" fill="#404A9F"/>
<path d="M92.2405 41.6326C92.3416 41.6326 92.3921 41.6837 92.3921 41.7861V42.7074C92.3921 42.8098 92.3416 42.8609 92.2405 42.8609H90.3201V47.5442C90.3201 47.6465 90.2696 47.6977 90.1685 47.6977H89.183C89.0819 47.6977 89.0314 47.6465 89.0314 47.5442V42.8609H87.111C87.0099 42.8609 86.9594 42.8098 86.9594 42.7074V41.7861C86.9594 41.6837 87.0099 41.6326 87.111 41.6326H92.2405Z" fill="#404A9F"/>
<path d="M70.6856 34.6203H60.5276C54.9433 34.6203 50.3696 30.0394 50.3696 24.3837V18.0627C50.3696 12.4326 54.918 7.82612 60.5276 7.82612H70.6856C76.27 7.82612 80.8436 12.407 80.8436 18.0627V24.4093C80.8183 30.0394 76.27 34.6203 70.6856 34.6203ZM60.5276 11.9207C57.1669 11.9207 54.4379 14.6846 54.4379 18.0627V24.4093C54.4379 27.7874 57.1669 30.5513 60.5276 30.5513H70.6856C74.0463 30.5513 76.7754 27.7874 76.7754 24.4093V18.0627C76.7754 14.6846 74.0463 11.9207 70.6856 11.9207H60.5276Z" fill="#404A9F"/>
<path d="M46.9084 34.6204C40.0606 34.6204 34.5015 29.0159 34.5015 22.1062V0.199944H36.8262C37.7864 0.199944 38.5697 0.993277 38.5697 1.96575V22.1318C38.5697 26.2776 41.5514 29.7324 45.4681 30.4234C46.3019 30.5769 46.9084 31.2679 46.9084 32.1124V34.6204Z" fill="#404A9F"/>
<path d="M24.0145 34.6203H7.33723C3.77435 34.6203 0.893725 31.7029 0.893725 28.1201H3.59747C4.27972 28.1201 4.88617 28.504 5.16413 29.1182C5.54316 29.9371 6.37702 30.5257 7.33723 30.5257H23.8882C25.1769 30.5257 26.3393 29.6556 26.5919 28.4016C26.8952 26.9173 25.935 25.5354 24.5452 25.2283L6.35175 21.2616C3.34478 20.5962 1.04534 18.0115 0.893725 14.9149C0.716844 11.025 3.79962 7.82612 7.61519 7.82612H23.8882C27.4511 7.82612 30.3317 10.7435 30.3317 14.3263H27.628C26.9457 14.3263 26.3393 13.9425 26.0613 13.3283C25.6823 12.5093 24.8484 11.9207 23.8882 11.9207H7.71626C6.42756 11.9207 5.2652 12.7908 5.01252 14.0448C4.70929 15.5291 5.6695 16.9111 7.05928 17.2182L25.4296 21.2104C28.4871 21.8758 30.736 24.6653 30.736 27.8386C30.736 31.5749 27.7038 34.6203 24.0145 34.6203Z" fill="#404A9F"/>
<path d="M104.95 23.2578H102.726C101.716 23.2578 100.907 22.4389 100.907 21.4153V19.1888H103.105C104.116 19.1888 104.925 20.0077 104.925 21.0314L104.95 23.2578Z" fill="#404A9F"/>
<path d="M112.834 47.7231H115.159V24.179C115.159 15.1453 107.881 7.82612 98.9108 7.82612H88.3485C86.6555 7.82612 85.3163 9.20805 85.3163 10.8971V27.5315C85.3163 31.447 88.4749 34.6203 92.3662 34.6203V31.9588C92.3662 31.2423 91.9619 30.6025 91.3049 30.3465C90.1931 29.9115 89.3845 28.8111 89.3845 27.5315V11.9207H98.9108C105.632 11.9207 111.09 17.4229 111.09 24.2046V45.9829C111.09 46.9298 111.874 47.7231 112.834 47.7231Z" fill="#404A9F"/>
</g>
<defs>
<clipPath id="clip0">
<rect width="114.214" height="47.6" fill="white" transform="translate(0.892822 0.200195)"/>
</clipPath>
</defs>
</svg>
