<svg width="126" height="41" viewBox="0 0 126 41" fill="none" xmlns="http://www.w3.org/2000/svg">
<path d="M22.7776 18.7287C21.9943 17.9429 20.6887 16.7641 19.2525 16.2403C17.8164 15.5854 16.1191 15.1925 14.5524 15.1925C8.1549 15.1925 3.58529 20.3003 3.58529 26.5867C3.58529 34.0519 9.59107 37.8499 14.6829 37.8499C16.5108 37.8499 18.3386 37.3261 19.7748 36.5403C21.3415 35.7545 22.386 34.7067 22.9082 34.1828V37.9809C19.7748 40.2074 16.7719 40.6003 14.6829 40.6003C6.32706 40.6003 0.321289 34.4448 0.321289 26.4558C0.321289 18.2048 6.45762 12.1803 14.6829 12.1803C16.3802 12.1803 19.5136 12.4422 22.7776 14.9306V18.7287Z" fill="#67579C"/>
<path d="M27.6086 23.0506H30.6115V24.8842C31.0032 24.3603 32.1783 22.6577 34.3978 22.6577C35.3117 22.6577 36.2256 23.0506 37.009 23.3126L35.5728 25.9319C34.92 25.408 34.2672 25.2771 33.8755 25.2771C32.7005 25.2771 31.9171 25.8009 31.5255 26.3248C31.0032 26.9797 30.6115 28.1584 30.6115 30.9087V39.9455H27.6086V23.0506Z" fill="#67579C"/>
<path d="M53.8514 35.7545C53.3292 36.6713 52.6764 37.719 51.7624 38.5048C50.1957 39.9454 48.3679 40.6003 46.1483 40.6003C42.101 40.6003 37.7925 38.1119 37.7925 31.6945C37.7925 26.5867 40.9259 22.6577 46.0178 22.6577C49.4123 22.6577 51.3707 24.3603 52.4152 25.8009C53.4597 27.3726 54.1125 29.8609 53.982 32.2184H40.6648C40.6648 35.7545 43.1455 37.9809 46.0178 37.9809C47.3234 37.9809 48.4984 37.588 49.5429 36.8022C50.3263 36.1474 50.9791 35.2306 51.3707 34.4448L53.8514 35.7545ZM50.9791 29.73C50.4568 27.1106 48.4984 25.2771 46.0178 25.2771C43.5371 25.2771 41.4482 27.1106 41.0565 29.73H50.9791Z" fill="#67579C"/>
<path d="M71.4774 10.0844H74.4803V40.076H71.4774V37.7186C70.5635 39.0282 68.6051 40.5998 65.6022 40.5998C61.2937 40.5998 57.2463 37.5876 57.2463 31.5631C57.2463 25.6695 61.1631 22.6573 65.6022 22.6573C68.8662 22.6573 70.6941 24.4908 71.4774 25.5386V10.0844ZM60.3798 31.5631C60.3798 35.2302 62.4688 37.9805 65.9939 37.9805C69.6496 37.9805 71.608 34.9682 71.608 31.5631C71.608 27.1102 68.6051 25.2766 65.9939 25.2766C63.1216 25.1457 60.3798 27.3721 60.3798 31.5631Z" fill="#67579C"/>
<path d="M81.138 14.4067C82.3131 14.4067 83.227 15.3235 83.227 16.5022C83.227 17.6809 82.3131 18.5977 81.138 18.5977C79.963 18.5977 79.0491 17.6809 79.0491 16.5022C79.0491 15.3235 79.963 14.4067 81.138 14.4067ZM82.5742 23.0506V40.2074H79.5713V23.0506H82.5742Z" fill="#67579C"/>
<path d="M91.1909 25.6696V40.076H88.188V25.6696H86.4907V22.9193H88.3186V16.7638H91.3215V22.9193H94.3243V25.6696H91.1909Z" fill="#67579C"/>
<path d="M112.473 0C103.073 0 98.5031 8.25096 99.8087 17.0258C99.9392 18.2045 100.984 21.2168 101.898 23.4432C103.464 26.8484 105.423 30.2535 106.989 33.0039L118.609 12.8348H106.076V10.4774H106.989H121.351H122.134V11.3942L121.351 12.7039L108.426 35.3613C110.123 38.1116 111.559 39.8142 111.951 39.8142C113.126 39.8142 123.44 27.1103 125.398 16.7639C126.965 7.98903 121.873 0 112.473 0Z" fill="#59C2A4"/>
</svg>
