<svg width="117" height="36" viewBox="0 0 117 36" fill="none" xmlns="http://www.w3.org/2000/svg">
<path d="M17.7695 0.500244C27.5766 0.500244 35.5292 8.2495 35.5292 17.8058C35.5292 27.3621 27.5766 35.1113 17.7695 35.1113C7.9624 35.1113 0.00976562 27.3621 0.00976562 17.8058C0.00976562 8.2495 7.9624 0.500244 17.7695 0.500244Z" fill="white" fill-opacity="0.6"/>
<path d="M24.0243 13.8486L20.0423 19.6023H24.0243V13.8486ZM25.5261 11.5205V19.6134H27.2782V21.0768H25.5261V24.1033H24.0129V21.0768H18.3812V19.5026L24.0584 11.5316L25.5261 11.5205ZM16.7202 22.6289V24.0922H8.27832V24.0479C8.35796 22.6732 8.72203 21.6644 9.42741 20.8329C9.99627 20.1456 10.6903 19.6356 12.1124 18.7709C12.1124 18.7709 12.613 18.4605 12.7609 18.3718C13.5232 17.8951 14.0124 17.5181 14.4106 17.0858C14.8998 16.5315 15.1501 15.9328 15.1501 15.2233C15.1501 13.8486 14.1489 12.9063 12.7154 12.9063C11.043 12.9063 10.1897 14.1479 10.1442 15.9993V16.0326H8.64239V15.9993L8.63101 15.6667C8.63101 13.1834 10.2921 11.5205 12.7951 11.5205C15.2411 11.5205 16.8339 12.9617 16.8339 15.19C16.8339 16.3319 16.413 17.2521 15.6052 18.0614C15.0022 18.6822 14.3765 19.0924 12.9771 19.9238C12.9543 19.9349 12.943 19.946 12.9202 19.9571C12.8519 19.9904 12.5448 20.1677 12.4651 20.2232C11.7939 20.6112 11.3843 20.8883 11.0202 21.2209C10.5765 21.6311 10.2807 22.0856 10.1442 22.6178H16.7202V22.6289Z" fill="#212121"/>
<path d="M44.8828 10.7886H50.8331C52.3121 10.7886 53.4726 11.1322 54.3258 11.8085C55.1791 12.4958 55.6115 13.5047 55.6115 14.8572C55.6115 16.1321 55.2133 17.141 54.4169 17.8837C53.6205 18.6265 52.5396 19.0034 51.163 19.0034H47.2948V24.1474H44.8828V10.7886ZM47.2948 12.7508V17.1299H50.651C52.4031 17.1299 53.2678 16.3982 53.2678 14.9348C53.2678 13.4825 52.3235 12.7619 50.4349 12.7619L47.2948 12.7508Z" fill="white" fill-opacity="0.6"/>
<path d="M62.7599 14.2804V16.3314C62.3729 16.2981 62.1226 16.2759 61.986 16.2759C60.074 16.2759 59.1181 17.4843 59.1181 19.9011V24.1582H56.9443V14.4689H59.0042V16.3979C59.7099 14.9567 60.8252 14.2361 62.3388 14.2361L62.7599 14.2804Z" fill="white" fill-opacity="0.6"/>
<path d="M66.3478 10.7327V12.839H64.1514V10.7327H66.3478ZM66.3478 14.4687V24.158H64.1514V14.4687H66.3478Z" fill="white" fill-opacity="0.6"/>
<path d="M67.9023 14.469H70.2915L72.84 21.9189L75.2861 14.469H77.5615L74.0005 24.1805H71.5317L67.9023 14.469Z" fill="white" fill-opacity="0.6"/>
<path d="M78.3132 17.4627C78.5407 15.2676 79.997 14.1812 82.6706 14.1812C83.9108 14.1812 84.9119 14.414 85.6515 14.8907C86.391 15.3674 86.755 16.1101 86.755 17.1079V22.0191C86.755 22.2962 86.7892 22.4847 86.8574 22.5845C86.9257 22.6843 87.0622 22.7397 87.267 22.7397C87.4263 22.7397 87.5856 22.7286 87.7676 22.7064V24.2142C87.1988 24.3472 86.7323 24.4248 86.3455 24.4248C85.4125 24.4248 84.8664 24.0368 84.7299 23.2607C83.8994 24.0368 82.7275 24.4248 81.2371 24.4248C80.2132 24.4248 79.394 24.1698 78.791 23.6488C78.188 23.1277 77.8809 22.4293 77.8809 21.5313C77.8809 21.2541 77.915 20.9992 77.9719 20.7664C78.0401 20.5335 78.1084 20.3229 78.1994 20.1455C78.2791 19.9681 78.4156 19.8129 78.609 19.6577C78.791 19.5025 78.9503 19.3806 79.0755 19.2808C79.2006 19.181 79.394 19.0923 79.6784 19.0036C79.9515 18.915 80.1563 18.8484 80.2928 18.8041C80.4293 18.7598 80.6569 18.7154 80.9982 18.66C81.3281 18.6156 81.5557 18.5713 81.6581 18.5602C81.7718 18.538 81.9994 18.5159 82.3407 18.4715C83.1257 18.3717 83.6605 18.283 83.9449 18.2165C84.2293 18.15 84.4227 18.0391 84.5251 17.9061C84.6161 17.8063 84.6616 17.5735 84.6616 17.2077C84.6616 16.2321 83.979 15.7443 82.6138 15.7443C81.897 15.7443 81.3736 15.8773 81.0323 16.1434C80.7024 16.4095 80.4862 16.8529 80.3952 17.4738H78.3132V17.4627ZM84.6275 19.303C84.4569 19.3917 84.2634 19.4693 84.0473 19.5358C83.8311 19.6023 83.6491 19.6466 83.5126 19.6688C83.376 19.691 83.1712 19.7132 82.8754 19.7575C82.591 19.7908 82.3976 19.824 82.3066 19.8351C82.0335 19.8684 81.8287 19.9127 81.6695 19.9349C81.5102 19.9681 81.3281 20.0236 81.1006 20.0901C80.8731 20.1677 80.7024 20.2564 80.5772 20.3672C80.4521 20.4781 80.3497 20.6222 80.2587 20.7996C80.1677 20.977 80.1222 21.1987 80.1222 21.4426C80.1222 21.9082 80.2814 22.263 80.5886 22.5069C80.9072 22.7619 81.3395 22.8838 81.9084 22.8838C82.8868 22.8838 83.6377 22.6288 84.1611 22.1189C84.4569 21.8306 84.6048 21.2763 84.6048 20.4449V19.303H84.6275Z" fill="white" fill-opacity="0.6"/>
<path d="M94.071 14.4691V16.0323H92.068V21.1319C92.068 21.4313 92.0794 21.6419 92.0908 21.7639C92.1022 21.8858 92.1363 22.0188 92.2046 22.163C92.2729 22.3071 92.3867 22.4069 92.546 22.4512C92.7053 22.5066 92.933 22.5288 93.2061 22.5288C93.5703 22.5288 93.8548 22.5177 94.071 22.4955V24.1806C93.6386 24.225 93.1378 24.2582 92.5915 24.2582C92.2046 24.2582 91.8632 24.225 91.5787 24.1696C91.2941 24.1141 91.0438 24.0476 90.8503 23.97C90.6568 23.8924 90.4975 23.7705 90.3723 23.582C90.2471 23.4046 90.1447 23.2494 90.0764 23.1275C90.0081 23.0055 89.9512 22.7949 89.9171 22.4955C89.8829 22.1962 89.8715 21.9634 89.8715 21.8082C89.8715 21.653 89.8715 21.3758 89.8715 20.9878C89.8715 20.9435 89.8715 20.8991 89.8715 20.8659C89.8715 20.8326 89.8715 20.7994 89.8715 20.755C89.8715 20.7107 89.8715 20.6663 89.8715 20.6331V16.0323H88.21V14.4691H89.8715V11.5535H92.068V14.4691H94.071Z" fill="white" fill-opacity="0.6"/>
<path d="M105.614 22.2627V24.1585H96.4102C96.4215 23.5709 96.5012 23.0277 96.6605 22.5399C96.8197 22.0521 96.9904 21.6308 97.1952 21.2871C97.3886 20.9435 97.6844 20.5887 98.0826 20.2339C98.4694 19.8792 98.8221 19.5799 99.1407 19.3471C99.4592 19.1142 99.8916 18.8149 100.438 18.4602C100.472 18.438 100.665 18.316 101.007 18.0943C101.348 17.8726 101.553 17.7396 101.632 17.6841C101.712 17.6287 101.883 17.4957 102.156 17.285C102.429 17.0744 102.599 16.9081 102.69 16.7861C102.77 16.6642 102.884 16.4868 103.032 16.2762C103.18 16.0655 103.282 15.8438 103.327 15.6332C103.373 15.4115 103.407 15.1786 103.407 14.9347C103.407 14.2474 103.214 13.7042 102.815 13.3162C102.429 12.9171 101.894 12.7286 101.223 12.7286C100.836 12.7286 100.506 12.784 100.222 12.906C99.9371 13.0279 99.7209 13.1831 99.5616 13.3605C99.4023 13.549 99.2658 13.7929 99.1634 14.0811C99.061 14.3804 98.9928 14.6576 98.9586 14.9126C98.9245 15.1786 98.9018 15.478 98.8904 15.8327H96.7515V15.5001C96.7515 14.0811 97.161 12.9614 97.9802 12.1299C98.7994 11.2985 99.9029 10.8772 101.28 10.8772C102.588 10.8772 103.646 11.232 104.442 11.9526C105.239 12.6732 105.637 13.6266 105.637 14.8128C105.637 15.2895 105.557 15.744 105.409 16.1653C105.25 16.5866 105.091 16.9303 104.92 17.1963C104.75 17.4624 104.442 17.7617 104.021 18.1165C103.601 18.4712 103.282 18.7151 103.077 18.8482C102.872 18.9812 102.497 19.2362 101.939 19.602C100.335 20.6109 99.3682 21.4978 99.0497 22.2516H105.614V22.2627Z" fill="white" fill-opacity="0.6"/>
<path d="M116.081 19.2356V21.0427H114.364V24.1579H112.247L112.225 21.0427H106.502V18.9252L112.282 10.9099H114.364V19.2467L116.081 19.2356ZM112.259 19.2356V13.5484L108.311 19.2356H112.259Z" fill="white" fill-opacity="0.6"/>
</svg>
