<svg width="139" height="26" viewBox="0 0 139 26" fill="none" xmlns="http://www.w3.org/2000/svg">
<path d="M103.583 5.42149V24.728H98.8195V5.40195H93.5391V1.29834H108.903V5.42149H103.583Z" fill="white" fill-opacity="0.6"/>
<path d="M19.2226 1.2854V24.7411H14.4523V5.40204H4.91833V24.7346H0.134766V1.2854H19.2226Z" fill="white" fill-opacity="0.6"/>
<path d="M30.8968 1.2854C33.5801 1.2854 35.4418 1.56549 37.191 3.07666C39.1256 4.7637 39.6225 7.04999 39.6225 8.73703C39.6225 9.64895 39.4767 12.1828 37.6547 13.974C36.3296 15.2768 34.3619 16.0519 31.6123 16.0519H28.7236V24.7346H23.96V1.2854H30.8968ZM28.7236 12.1176H30.5059C31.4003 12.1176 32.5465 12.1176 33.547 11.3816C34.4083 10.7107 34.8323 9.65546 34.8323 8.63933C34.8323 7.3366 34.1896 6.45725 33.5072 5.96873C32.5399 5.29782 31.3274 5.23268 30.2144 5.23268H28.717V12.1176H28.7236Z" fill="white" fill-opacity="0.6"/>
<path d="M88.7758 23.8944C87.3447 24.6304 85.4499 25.2687 82.8726 25.2687C78.6853 25.2687 76.1478 23.8618 74.1469 21.9989C71.3907 19.3934 70.3174 16.4753 70.3174 13.0296C70.3174 8.77613 72.1063 5.71471 74.1469 3.8518C76.5453 1.63716 79.5135 0.757812 82.9123 0.757812C84.5952 0.757812 86.5961 1.0379 88.7758 2.19733V7.54505C86.5961 5.08289 83.873 4.90702 83.0183 4.90702C78.2215 4.90702 75.1142 8.77613 75.1142 13.1012C75.1142 18.3056 79.1955 21.1195 83.1972 21.1195C85.4167 21.1195 87.3845 20.1685 88.7758 18.5531V23.8944Z" fill="white" fill-opacity="0.6"/>
<path d="M118.44 1.2854V24.7411H113.675V1.2854H118.44Z" fill="white" fill-opacity="0.6"/>
<path d="M130.146 1.2854C132.829 1.2854 134.691 1.56549 136.44 3.07666C138.375 4.7637 138.872 7.04999 138.872 8.73703C138.872 9.64895 138.726 12.1828 136.904 13.974C135.579 15.2768 133.611 16.0519 130.861 16.0519H127.973V24.7346H123.209V1.2854H130.146ZM127.973 12.1176H129.755C130.649 12.1176 131.796 12.1176 132.796 11.3816C133.657 10.7107 134.081 9.65546 134.081 8.63933C134.081 7.3366 133.439 6.45725 132.756 5.96873C131.789 5.29782 130.576 5.23268 129.463 5.23268H127.973V12.1176Z" fill="white" fill-opacity="0.6"/>
<path d="M52.5751 13.0429C52.5751 13.0299 52.5751 13.0234 52.5751 13.0103C52.5751 11.7011 53.6551 10.6394 54.9868 10.6394C56.3185 10.6394 57.3985 11.7011 57.3985 13.0103C57.3985 14.3131 56.3251 15.3748 55.0001 15.3813V18.586C58.1206 18.5795 60.6515 16.0848 60.6515 13.0169C60.6515 9.9359 58.114 7.44116 54.9868 7.44116C51.8596 7.44116 49.3154 9.9359 49.3154 13.0169C49.3154 13.0299 49.3154 13.0364 49.3154 13.0494H52.5751V13.0429Z" fill="white" fill-opacity="0.6"/>
<path d="M63.3332 8.98483C63.9427 10.2029 64.2806 11.5642 64.2806 13.0103C64.2806 18.0649 60.1066 22.1685 54.9653 22.1685C49.8173 22.1685 45.6499 18.0649 45.6499 13.0103C45.6499 8.13154 49.5258 4.15169 54.4154 3.8716L56.7409 0.37376C56.1579 0.295596 55.5682 0.25 54.9719 0.25C47.8032 0.25 41.9927 5.96249 41.9927 13.0103C41.9927 20.0581 47.8032 25.7705 54.9719 25.7705C62.1406 25.7705 67.9511 20.0581 67.9511 13.0103C67.9511 10.2615 67.0633 7.72117 65.5593 5.6368L63.3332 8.98483Z" fill="white" fill-opacity="0.6"/>
</svg>
