<svg width="50" height="48" viewBox="0 0 50 48" fill="none" xmlns="http://www.w3.org/2000/svg">
<circle cx="21.5" cy="21.5" r="21.5" fill="url(#paint0_radial)"/>
<g filter="url(#filter0_b)">
<path d="M10.7053 43.9508V35.1376L19.5185 28.087C18.8135 18.5688 20.5761 15.0435 21.2812 12.9284C22.2622 9.98531 26.9216 4.35018 29.7418 2C31.622 3.99766 36.1611 8.70614 37.8499 12.9284C39.2601 16.4536 39.8476 24.6793 39.2601 28.087L48.4258 35.1376V43.9508L35.3823 40.4255L29.7418 45.3609L23.7488 40.4255L10.7053 43.9508Z" fill="white" fill-opacity="0.24"/>
</g>
<path d="M29.8878 2.0039C29.7579 2.02266 29.6328 2.06618 29.5192 2.13211C23.1343 5.5301 18.718 14.3146 18.718 24.568C18.718 25.8725 18.8044 27.1492 18.9423 28.3981L10.4006 35.0327C10.2755 35.1289 10.1742 35.2528 10.1047 35.3945C10.0352 35.5363 9.99939 35.6922 10 35.85V45.0808C10.0003 45.2414 10.0383 45.3997 10.111 45.5429C10.1836 45.6861 10.2889 45.8103 10.4183 45.9054C10.5477 46.0005 10.6976 46.0639 10.856 46.0904C11.0144 46.117 11.1768 46.106 11.3301 46.0584L24.0224 42.1481C25.5926 44.2408 27.4546 45.9051 29.5192 47.0039C29.6673 47.0825 29.8324 47.1235 30 47.1235C30.1676 47.1235 30.3327 47.0825 30.4808 47.0039C32.5454 45.9051 34.4074 44.2408 35.9776 42.1481L48.6699 46.0584C48.8232 46.106 48.9856 46.117 49.144 46.0904C49.3024 46.0639 49.4523 46.0005 49.5817 45.9054C49.7111 45.8103 49.8164 45.6861 49.889 45.5429C49.9617 45.3997 49.9997 45.2414 50 45.0808V35.85C50.0006 35.6922 49.9648 35.5363 49.8953 35.3945C49.8258 35.2528 49.7245 35.1289 49.5993 35.0327L41.0577 28.3981C41.1956 27.1492 41.282 25.8725 41.282 24.568C41.282 14.3146 36.8657 5.5301 30.4808 2.13211C30.3006 2.03057 30.0939 1.98588 29.8878 2.0039ZM30 4.24749C35.1754 7.34224 39.2308 15.2068 39.2308 24.568C39.2308 33.9292 35.1754 41.7937 30 44.8885C24.8246 41.7937 20.7692 33.9292 20.7692 24.568C20.7692 15.2068 24.8246 7.34224 30 4.24749ZM30 11.7475C27.4631 11.7475 25.3846 13.826 25.3846 16.3629C25.3846 18.8997 27.4631 20.9783 30 20.9783C32.5369 20.9783 34.6154 18.8997 34.6154 16.3629C34.6154 13.826 32.5369 11.7475 30 11.7475ZM30 13.7988C31.4283 13.7988 32.5641 14.9346 32.5641 16.3629C32.5641 17.7911 31.4283 18.927 30 18.927C28.5717 18.927 27.4359 17.7911 27.4359 16.3629C27.4359 14.9346 28.5717 13.7988 30 13.7988ZM19.2789 30.7379C19.9388 34.3495 21.1442 37.6386 22.8045 40.3693L12.0513 43.6706V36.3468L19.2789 30.7379ZM40.7211 30.7379L47.9487 36.3468V43.6706L37.1955 40.3693C38.8558 37.6386 40.0612 34.3495 40.7211 30.7379Z" fill="white"/>
<defs>
<filter id="filter0_b" x="6.70532" y="-2" width="45.7205" height="51.3609" filterUnits="userSpaceOnUse" color-interpolation-filters="sRGB">
<feFlood flood-opacity="0" result="BackgroundImageFix"/>
<feGaussianBlur in="BackgroundImage" stdDeviation="2"/>
<feComposite in2="SourceAlpha" operator="in" result="effect1_backgroundBlur"/>
<feBlend mode="normal" in="SourceGraphic" in2="effect1_backgroundBlur" result="shape"/>
</filter>
<radialGradient id="paint0_radial" cx="0" cy="0" r="1" gradientUnits="userSpaceOnUse" gradientTransform="translate(21.5 21.5) rotate(90) scale(21.5)">
<stop stop-color="#4BC6F6"/>
<stop offset="1" stop-color="#4BC6F6" stop-opacity="0"/>
</radialGradient>
</defs>
</svg>
