<svg width="7" height="10" viewBox="0 0 7 10" fill="none" xmlns="http://www.w3.org/2000/svg">
<path fill-rule="evenodd" clip-rule="evenodd" d="M3.5 0C3.60313 0 3.70203 0.037625 3.77495 0.104598C3.84787 0.171571 3.88883 0.262406 3.88883 0.35712L3.88883 8.78015L6.33538 6.53244C6.40839 6.46538 6.50742 6.42771 6.61067 6.42771C6.71393 6.42771 6.81296 6.46538 6.88597 6.53244C6.95898 6.5995 7 6.69045 7 6.78528C7 6.88012 6.95898 6.97106 6.88597 7.03812L3.77529 9.89508C3.73918 9.92834 3.69627 9.95473 3.64903 9.97273C3.60179 9.99073 3.55115 10 3.5 10C3.44885 10 3.39821 9.99073 3.35097 9.97273C3.30373 9.95473 3.26082 9.92834 3.22471 9.89508L0.114031 7.03812C0.041018 6.97106 0 6.88012 0 6.78528C0 6.69045 0.041018 6.5995 0.114031 6.53244C0.187043 6.46538 0.28607 6.42771 0.389326 6.42771C0.492581 6.42771 0.591608 6.46538 0.66462 6.53244L3.11117 8.78015L3.11117 0.35712C3.11117 0.262406 3.15213 0.171571 3.22505 0.104598C3.29797 0.037625 3.39687 0 3.5 0Z" fill="#313235"/>
</svg>
