<svg width="61" height="19" viewBox="0 0 61 19" fill="none" xmlns="http://www.w3.org/2000/svg">
<g clip-path="url(#clip0)">
<path d="M31.5477 6.04985C31.5129 8.68605 33.9932 10.1571 35.8616 11.0317C37.7812 11.9291 38.4259 12.5046 38.4183 13.3072C38.404 14.5353 36.8871 15.0774 35.4677 15.0984C32.9912 15.1353 31.5513 14.4561 30.4066 13.9424L29.5145 17.9528C30.663 18.4612 32.7896 18.9046 34.9949 18.9241C40.1716 18.9241 43.5583 16.4692 43.5766 12.663C43.5969 7.83242 36.6217 7.56505 36.6693 5.40591C36.6858 4.75121 37.3361 4.05256 38.761 3.87493C39.4663 3.78519 41.4133 3.71652 43.6207 4.69307L44.4871 0.81295C43.3 0.397697 41.7743 7.05719e-05 39.8747 7.05719e-05C35.0023 7.05719e-05 31.5754 2.48838 31.5477 6.04985ZM52.8122 0.334288C51.8669 0.334288 51.0703 0.863997 50.7148 1.67688L43.3202 18.6391H48.4931L49.5225 15.906H55.8436L56.4407 18.6391H61L57.0214 0.334288H52.8122ZM53.5358 5.27909L55.0287 12.1527H50.9402L53.5358 5.27909ZM25.2759 0.334515L21.1985 18.6388H26.1278L30.2033 0.334059H25.2759V0.334515ZM17.9838 0.334059L12.8531 12.7933L10.7777 2.19972C10.5342 1.01714 9.57247 0.334288 8.5045 0.334288H0.117473L0 0.865829C1.72182 1.22477 3.67811 1.8037 4.86332 2.42314C5.58865 2.80154 5.79548 3.13232 6.03376 4.0315L9.96468 18.6391H15.1737L23.16 0.334288H17.9838" fill="url(#paint0_linear)"/>
</g>
<defs>
<linearGradient id="paint0_linear" x1="28.0441" y1="19.3037" x2="28.5704" y2="-0.132728" gradientUnits="userSpaceOnUse">
<stop stop-color="#222357"/>
<stop offset="1" stop-color="#254AA5"/>
</linearGradient>
<clipPath id="clip0">
<rect width="61" height="19" fill="white"/>
</clipPath>
</defs>
</svg>
