<svg width="94" height="28" viewBox="0 0 94 28" fill="none" xmlns="http://www.w3.org/2000/svg">
<path d="M68.5342 1.37422C66.3643 0.619785 64.0731 0.239377 61.7657 0.25048C54.3154 0.25048 49.0504 3.8711 49.0183 9.05263C48.9571 12.861 52.7508 15.0076 55.6178 16.2911C58.5636 17.6054 59.5484 18.4237 59.5338 19.5894C59.5193 21.3857 57.1796 22.1872 55.0264 22.1872C52.034 22.1872 50.4111 21.7949 47.9082 20.786L46.9787 20.3629L45.9182 26.3487C47.7392 27.0633 51.0026 27.691 54.3708 27.7498C62.3077 27.7498 67.4824 24.16 67.5407 18.6254C67.6019 15.5905 65.571 13.287 61.2442 11.387C58.6335 10.1624 56.9989 9.32726 56.9989 8.07181C56.9989 6.96209 58.3946 5.79631 61.3083 5.79631C63.2419 5.74972 65.1643 6.0924 66.9521 6.80235L67.666 7.10781L68.712 1.34339L68.5342 1.37422ZM87.9016 0.746495H82.0742C80.2531 0.746495 78.9012 1.21448 78.097 2.95194L66.8968 27.3687H74.8191L76.4158 23.3698L86.0805 23.3838C86.3223 24.317 87.0042 27.3659 87.0042 27.3659H93.9999L87.9016 0.746495ZM38.2901 0.527912H45.8337L41.1135 27.1614H33.5699L38.2901 0.5139V0.527912ZM19.1093 15.1954L19.8814 18.9029L27.2705 0.746495H35.2686L23.3691 27.3239H15.4059L8.87927 4.8183C8.82927 4.63135 8.74018 4.45616 8.61745 4.30343C8.49471 4.1507 8.34091 4.02362 8.16542 3.92995C5.82101 2.7572 3.33401 1.86951 0.761719 1.28735L0.852043 0.729682H13.0225C14.663 0.788531 15.9974 1.28735 16.452 2.97996L19.1093 15.2094V15.1954ZM78.5661 17.9248L81.5876 10.4678C81.541 10.5379 82.2082 8.93493 82.587 7.92609L83.1027 10.2156L84.8509 17.908H78.5661V17.9248Z" fill="white" fill-opacity="0.6"/>
</svg>
